<?xml version="1.0" encoding="UTF-8" ?>
<!DOCTYPE svg PUBLIC "-//W3C//DTD SVG 1.1//EN" "http://www.w3.org/Graphics/SVG/1.1/DTD/svg11.dtd">
<svg width="736pt" height="910pt" viewBox="0 0 736 910" version="1.1" xmlns="http://www.w3.org/2000/svg">
<g id="#f4f3f2ff">
<path fill="#f4f3f2" opacity="1.00" d=" M 203.64 88.42 C 240.64 65.48 283.38 54.33 325.95 47.04 C 326.75 73.67 330.62 100.15 332.48 126.72 C 331.93 134.63 335.28 142.71 332.46 150.45 C 316.27 143.08 302.84 131.18 287.95 121.75 C 286.50 122.01 285.07 122.27 283.63 122.51 C 283.49 123.75 283.35 124.99 283.22 126.23 C 296.49 135.06 311.58 142.20 321.60 154.99 C 327.88 160.59 333.79 166.87 337.02 174.77 C 330.40 178.79 322.34 177.41 314.98 177.58 C 299.90 179.08 285.83 171.50 270.90 171.09 C 266.58 170.81 258.47 167.90 257.44 174.06 C 266.91 179.36 278.17 176.44 288.24 179.64 C 304.14 185.54 321.60 184.76 337.48 190.81 C 337.97 197.73 340.23 204.37 340.76 211.30 C 342.88 218.81 339.40 227.63 344.52 234.25 C 332.65 236.05 322.98 244.06 311.36 246.17 C 305.81 248.52 299.85 250.34 295.39 254.61 C 286.07 255.36 276.49 255.45 267.81 259.42 C 246.66 202.34 224.52 145.58 203.64 88.42 Z" />
<path fill="#f4f3f2" opacity="1.00" d=" M 456.20 49.57 C 479.75 57.13 502.86 66.20 524.40 78.47 C 534.40 83.87 542.71 91.87 552.59 97.47 C 556.38 99.67 559.53 102.74 562.97 105.42 C 560.70 118.65 552.04 129.47 548.13 142.14 C 527.57 191.79 504.95 240.50 483.81 289.90 C 478.12 303.31 470.48 315.94 466.78 330.14 C 457.32 327.38 448.41 322.40 438.46 321.21 C 431.10 319.00 423.77 316.53 416.15 315.37 C 415.61 300.19 419.25 285.36 421.43 270.44 C 422.31 265.18 423.04 259.86 424.79 254.79 C 423.13 248.82 425.49 243.01 426.79 237.25 C 430.18 237.80 433.44 238.84 436.49 240.42 C 445.59 242.19 453.34 235.88 461.86 233.99 C 465.50 233.05 469.65 234.41 472.80 231.84 C 472.73 231.28 472.61 230.16 472.55 229.60 C 469.32 226.27 465.13 222.50 465.36 217.47 C 465.51 214.23 463.23 211.63 461.98 208.82 C 461.08 208.65 460.19 208.48 459.30 208.32 C 456.82 204.28 451.64 204.77 447.57 204.11 C 450.29 201.79 452.72 199.06 454.40 195.88 C 453.69 191.58 450.76 188.00 450.18 183.66 C 446.33 177.54 444.24 170.16 438.16 165.72 C 438.25 160.03 437.26 154.10 439.67 148.74 C 444.15 115.54 450.48 82.58 456.20 49.57 Z" />
<path fill="#f4f3f2" opacity="1.00" d=" M 55.34 286.53 C 62.32 250.32 77.87 216.44 97.00 185.17 C 132.70 233.58 169.65 281.03 206.05 328.92 C 213.07 339.73 222.73 348.85 228.10 360.69 C 214.27 370.80 200.53 381.41 190.75 395.71 C 185.44 391.15 180.42 386.20 174.40 382.54 C 157.88 369.75 141.42 356.89 125.03 343.94 C 102.44 324.05 77.84 306.55 55.34 286.53 Z" />
<path fill="#f4f3f2" opacity="1.00" d=" M 655.59 247.56 C 660.06 242.44 665.80 238.65 669.83 233.09 C 673.91 242.60 678.88 251.81 682.39 261.64 C 687.33 271.86 688.47 283.28 691.88 294.00 C 694.14 302.17 696.97 310.31 697.17 318.87 C 700.54 333.34 701.98 348.22 701.78 363.07 C 664.45 385.89 625.52 406.03 587.35 427.42 C 584.39 429.15 581.49 431.12 578.15 432.03 C 572.37 418.44 562.30 407.53 554.91 394.90 C 553.90 394.41 552.90 393.93 551.90 393.45 C 548.15 386.09 542.81 379.65 536.09 374.83 C 576.02 332.50 616.48 290.67 655.59 247.56 Z" />
<path fill="#f4f3f2" opacity="1.00" d=" M 270.79 267.41 C 277.67 269.68 284.94 268.20 292.01 268.90 C 310.22 269.92 328.38 268.16 346.57 268.19 C 349.18 281.83 346.71 296.35 351.30 309.45 C 331.60 310.55 312.85 317.53 294.33 323.80 C 291.89 320.88 291.51 317.05 290.25 313.60 C 282.34 298.85 277.37 282.78 270.79 267.41 Z" />
<path fill="#f4f3f2" opacity="1.00" d=" M 367.89 351.04 C 378.96 349.54 390.16 350.91 401.04 353.14 C 423.11 355.31 443.85 363.64 463.98 372.43 C 462.72 374.85 460.59 376.55 457.87 377.02 C 457.49 377.55 456.74 378.60 456.36 379.12 C 452.67 377.56 449.27 375.46 445.99 373.20 C 412.54 355.81 372.98 352.57 336.34 359.29 C 320.21 363.78 303.02 366.61 288.78 375.86 C 285.26 375.93 282.04 374.20 278.93 372.75 C 305.57 356.48 337.31 352.43 367.89 351.04 Z" />
<path fill="#f4f3f2" opacity="1.00" d=" M 254.56 388.58 C 260.05 383.20 267.52 380.54 273.26 375.48 C 275.95 379.07 280.40 380.16 284.63 380.71 C 285.94 406.77 284.84 433.76 294.32 458.57 C 298.13 467.83 304.62 475.61 310.28 483.78 C 311.09 488.54 314.90 491.91 319.01 494.00 C 327.88 500.44 338.29 504.26 348.60 507.74 C 342.70 510.30 336.53 513.22 332.72 518.63 C 325.78 513.68 316.90 512.09 308.73 514.71 C 307.84 512.56 307.35 510.29 307.42 507.96 C 307.62 501.58 302.06 496.26 303.46 489.81 C 300.09 484.00 291.17 483.72 290.08 476.33 C 284.68 472.32 279.02 468.90 272.33 467.54 C 266.60 466.63 268.36 458.25 262.75 457.31 C 257.80 456.32 252.72 455.65 247.66 455.79 C 247.75 456.42 247.94 457.67 248.04 458.30 L 247.87 458.25 C 244.17 456.00 239.71 458.91 238.19 462.46 C 235.70 456.44 236.03 449.75 237.59 443.54 C 230.57 439.28 227.19 431.14 228.24 423.06 C 229.50 419.33 230.88 415.62 231.80 411.78 C 231.22 411.23 230.06 410.11 229.47 409.55 C 237.60 402.39 246.96 396.47 254.56 388.58 Z" />
<path fill="#f4f3f2" opacity="1.00" d=" M 460.34 381.56 C 463.66 380.31 466.66 378.37 469.22 375.91 C 488.62 384.99 504.81 400.07 518.66 416.17 C 517.34 423.92 525.12 430.02 522.76 438.05 C 522.49 443.36 515.83 446.19 516.92 451.99 C 519.07 457.01 519.19 462.45 518.56 467.81 C 515.42 463.05 510.46 460.42 505.18 458.70 C 494.96 452.11 483.56 460.24 473.72 463.73 C 468.98 464.87 466.45 469.00 464.16 472.92 C 454.22 476.80 454.61 489.95 448.57 497.52 C 445.16 500.99 446.98 505.72 447.70 509.80 C 445.50 512.94 445.16 516.84 446.84 520.31 C 438.94 516.25 429.92 519.92 421.65 520.53 C 418.74 515.16 412.65 513.08 407.27 511.12 C 407.31 510.74 407.39 509.97 407.43 509.58 C 421.20 503.31 432.35 492.50 442.12 481.10 C 450.63 465.62 460.59 449.30 459.54 430.97 C 459.64 426.67 461.87 422.09 459.63 418.00 L 460.63 418.85 C 461.50 406.43 459.98 394.07 460.34 381.56 Z" />
<path fill="#f4f3f2" opacity="1.00" d=" M 44.83 401.82 C 44.93 399.66 47.47 399.29 48.95 398.30 C 84.22 415.29 119.84 431.78 154.99 448.87 C 150.44 461.24 145.90 473.72 143.02 486.67 C 119.28 484.80 96.58 476.68 73.14 472.74 C 62.54 469.79 51.24 469.05 41.24 464.23 C 41.74 452.05 41.41 439.81 42.02 427.66 C 43.82 419.17 43.72 410.41 44.83 401.82 Z" />
<path fill="#f4f3f2" opacity="1.00" d=" M 195.85 460.73 C 198.20 453.88 202.62 448.03 206.02 441.69 C 202.46 452.85 201.79 464.69 199.01 476.02 C 196.84 481.15 197.93 486.85 197.32 492.25 C 196.01 502.14 200.70 511.55 200.63 521.36 C 200.06 521.45 198.90 521.62 198.32 521.70 C 191.81 528.36 185.16 534.91 178.50 541.41 C 180.32 535.36 179.86 528.96 180.46 522.73 C 181.60 501.26 188.55 480.78 195.85 460.73 Z" />
<path fill="#f4f3f2" opacity="1.00" d=" M 543.78 450.34 C 556.54 474.88 562.23 502.11 567.71 528.91 C 567.57 535.42 571.20 541.45 569.50 548.09 C 563.57 539.71 558.87 529.56 549.08 524.83 C 552.27 516.93 552.80 508.37 552.64 499.95 C 554.42 482.91 547.80 466.63 543.78 450.34 Z" />
<path fill="#f4f3f2" opacity="1.00" d=" M 604.19 504.49 C 637.00 497.88 669.94 491.49 702.84 485.52 C 703.02 504.95 702.70 524.37 702.59 543.79 C 671.73 545.57 640.78 544.25 609.90 543.83 C 609.79 534.43 607.56 525.31 607.01 515.97 C 605.56 512.18 607.34 507.58 604.19 504.49 Z" />
<path fill="#f4f3f2" opacity="1.00" d=" M 337.53 524.45 C 340.56 518.41 346.97 515.29 353.24 513.74 C 349.91 517.61 350.14 522.89 349.68 527.67 C 345.81 531.14 340.22 538.91 346.81 542.45 C 343.99 551.33 344.40 560.83 346.01 569.90 C 344.01 565.17 339.84 562.13 336.55 558.43 C 333.20 547.51 331.47 534.84 337.53 524.45 Z" />
<path fill="#f4f3f2" opacity="1.00" d=" M 392.72 514.47 C 401.96 513.06 409.50 519.85 416.09 525.30 C 421.25 531.91 420.26 541.01 417.26 548.33 C 415.24 552.65 410.62 556.07 411.36 561.32 C 408.54 563.33 405.76 565.42 403.22 567.79 C 403.24 560.02 404.74 551.08 399.01 544.77 C 400.44 544.57 401.89 544.36 403.33 544.16 C 403.35 541.75 403.38 539.35 403.48 536.95 C 401.37 533.31 397.51 530.72 396.10 526.78 C 397.50 522.20 395.46 518.05 392.72 514.47 Z" />
<path fill="#f4f3f2" opacity="1.00" d=" M 39.87 543.29 C 63.01 543.07 86.10 544.52 109.24 544.47 C 118.33 543.90 127.52 547.30 136.45 544.45 C 137.20 558.53 137.06 572.82 139.89 586.66 C 135.88 589.14 131.14 589.13 126.62 589.62 C 102.58 595.39 78.15 599.33 53.84 603.72 C 49.01 604.98 44.01 604.86 39.07 604.84 C 39.17 584.32 39.58 563.80 39.87 543.29 Z" />
<path fill="#f4f3f2" opacity="1.00" d=" M 177.67 546.62 C 183.81 551.99 192.03 549.48 199.35 550.57 C 200.17 549.96 201.00 549.36 201.84 548.78 C 201.00 549.66 200.28 550.65 199.54 551.62 C 198.02 562.83 203.29 574.17 212.85 580.20 C 221.73 590.99 234.56 599.77 237.66 614.19 C 241.43 626.62 241.08 639.78 240.57 652.61 C 238.17 661.55 235.81 670.58 231.94 679.03 C 229.69 675.94 227.61 672.75 225.22 669.78 C 220.91 670.44 218.37 666.79 216.16 663.77 C 209.26 654.17 201.76 644.73 197.91 633.40 C 189.38 617.98 184.60 600.70 180.50 583.60 C 180.55 571.27 179.24 558.87 177.67 546.62 Z" />
<path fill="#f4f3f2" opacity="1.00" d=" M 546.86 554.26 C 553.55 553.35 559.90 555.89 566.47 556.53 C 567.25 555.75 568.03 554.98 568.83 554.22 C 569.16 577.30 560.68 599.29 550.71 619.69 C 544.46 636.77 534.57 652.22 523.66 666.67 C 521.59 670.31 517.42 672.43 516.35 676.68 C 514.43 678.19 512.54 679.72 510.72 681.36 C 505.96 666.17 500.96 649.70 505.23 633.83 C 506.89 616.21 523.06 605.87 532.32 592.20 C 540.46 581.64 553.03 568.57 546.86 554.26 Z" />
<path fill="#f4f3f2" opacity="1.00" d=" M 230.99 563.02 C 237.18 564.30 243.44 564.94 249.76 564.58 C 248.19 570.96 247.85 577.56 247.74 584.11 C 241.54 577.59 236.23 570.31 230.99 563.02 Z" />
<path fill="#f4f3f2" opacity="1.00" d=" M 405.39 575.55 C 408.26 571.74 411.51 567.76 416.18 566.21 C 425.85 566.90 430.73 579.07 426.37 587.12 C 426.84 587.58 427.79 588.50 428.27 588.96 C 425.35 590.76 422.46 592.65 419.90 594.95 C 417.14 590.93 412.79 588.46 407.81 589.20 C 407.35 584.60 407.30 579.84 405.39 575.55 Z" />
<path fill="#f4f3f2" opacity="1.00" d=" M 325.90 574.87 C 328.97 571.49 332.79 568.92 336.97 567.11 C 339.19 570.63 341.63 574.05 344.86 576.73 C 344.22 580.68 342.86 584.59 343.59 588.64 C 339.47 588.78 334.64 588.25 331.61 591.66 C 329.13 594.61 325.74 591.10 323.48 589.57 C 323.54 584.69 321.31 578.35 325.90 574.87 Z" />
<path fill="#f4f3f2" opacity="1.00" d=" M 503.37 576.69 C 509.67 572.39 514.90 564.60 523.71 567.34 C 516.96 580.13 505.16 589.30 493.68 597.66 C 496.35 590.45 501.39 584.26 503.37 576.69 Z" />
<path fill="#f4f3f2" opacity="1.00" d=" M 277.83 605.84 C 286.04 595.78 299.24 588.19 312.56 590.69 C 316.95 593.49 321.32 596.43 326.47 597.71 C 326.41 604.21 329.19 611.75 336.55 612.71 C 336.98 619.25 339.54 626.35 344.83 630.54 C 340.18 645.77 328.24 658.08 314.34 665.36 C 308.43 668.79 301.57 668.39 295.02 668.86 C 291.42 684.26 274.41 691.05 260.41 693.79 C 263.65 688.54 265.19 682.40 269.05 677.51 C 270.61 672.68 272.32 667.60 276.52 664.38 C 275.72 664.37 274.12 664.35 273.32 664.33 C 273.84 664.07 274.89 663.55 275.41 663.29 C 275.48 656.63 278.66 650.11 276.81 643.44 C 275.85 634.89 273.64 626.49 270.15 618.62 C 274.35 615.53 274.55 609.71 277.83 605.84 Z" />
<path fill="#f4f3f2" opacity="1.00" d=" M 421.94 600.05 C 429.83 593.84 439.88 590.45 449.99 591.05 C 456.43 590.53 463.17 592.55 467.63 597.39 C 472.98 603.08 473.82 611.25 476.74 618.20 C 475.41 625.91 471.24 632.99 471.73 641.02 C 471.23 659.15 472.82 677.49 477.72 694.92 C 473.26 693.98 470.18 689.96 465.59 689.46 C 459.59 688.72 455.55 683.88 450.70 680.83 C 450.62 680.36 450.46 679.42 450.38 678.95 C 445.53 677.66 444.58 673.15 445.19 668.73 C 433.17 669.35 424.19 659.49 416.25 651.75 C 409.53 646.24 404.97 638.73 400.02 631.70 C 405.66 627.46 410.90 620.87 410.20 613.45 C 414.52 612.58 417.34 609.21 420.11 606.09 C 420.64 604.06 421.02 601.95 421.94 600.05 Z" />
<path fill="#f4f3f2" opacity="1.00" d=" M 602.51 595.05 C 635.42 601.62 668.07 610.12 700.80 617.03 C 701.22 642.15 699.98 667.27 699.55 692.37 C 662.36 677.06 626.08 659.15 589.29 642.66 C 587.25 642.28 586.56 640.38 587.49 638.62 C 593.50 624.48 598.61 609.90 602.51 595.05 Z" />
<path fill="#f4f3f2" opacity="1.00" d=" M 146.90 670.85 C 153.42 667.64 159.46 663.00 166.82 661.89 C 173.49 674.13 182.19 685.20 192.04 695.03 C 193.83 696.59 191.32 698.25 190.69 699.70 C 191.88 699.12 193.06 698.55 194.26 698.00 C 199.08 703.63 204.05 709.19 209.73 713.99 C 206.70 715.15 207.11 719.03 204.90 721.03 C 165.47 762.95 125.33 804.33 86.56 846.79 C 70.33 846.69 54.11 846.39 37.90 845.77 C 36.61 845.74 35.53 844.99 34.43 844.44 C 33.78 807.48 36.10 770.55 36.07 733.60 C 39.11 731.56 41.49 728.79 43.64 725.87 C 78.11 707.65 112.46 689.13 146.90 670.85 Z" />
<path fill="#f4f3f2" opacity="1.00" d=" M 237.03 685.06 C 236.92 677.42 245.83 679.60 250.58 680.77 C 251.48 686.05 249.25 690.92 247.88 695.88 C 244.28 692.25 240.50 688.81 237.03 685.06 Z" />
<path fill="#f4f3f2" opacity="1.00" d=" M 495.29 681.55 C 497.26 681.41 499.25 681.48 501.24 681.47 C 502.86 683.25 504.54 684.98 506.22 686.71 C 501.38 690.15 497.18 694.40 492.36 697.86 C 492.06 692.26 493.84 686.88 495.29 681.55 Z" />
<path fill="#f4f3f2" opacity="1.00" d=" M 555.33 692.97 C 584.79 714.12 612.66 737.46 641.24 759.78 C 659.59 775.28 679.43 788.98 696.87 805.55 C 696.99 821.88 696.47 838.21 695.58 854.49 C 668.23 855.09 640.82 854.70 613.47 853.93 C 586.19 818.84 558.35 783.91 531.97 748.01 C 527.77 741.20 521.30 735.95 517.85 728.65 C 527.95 720.47 536.50 710.74 545.57 701.48 C 546.64 700.23 548.28 699.79 549.70 699.08 C 551.27 696.77 553.26 694.82 555.33 692.97 Z" />
<path fill="#f4f3f2" opacity="1.00" d=" M 255.70 702.24 C 259.87 699.59 265.05 697.21 270.04 698.89 C 283.34 702.52 294.29 711.18 306.10 717.89 C 302.45 720.00 298.32 724.50 293.82 722.03 C 280.68 716.30 267.74 709.98 255.70 702.24 Z" />
<path fill="#f4f3f2" opacity="1.00" d=" M 433.97 719.85 C 448.13 714.05 460.98 705.93 475.12 699.98 C 477.23 702.36 479.67 704.62 482.94 705.18 C 469.67 713.85 455.86 722.30 440.60 726.94 C 438.44 724.52 436.14 722.25 433.97 719.85 Z" />
<path fill="#f4f3f2" opacity="1.00" d=" M 312.34 719.18 C 328.75 721.80 345.51 719.63 362.04 720.89 C 384.11 720.86 406.29 721.99 428.35 720.54 C 428.02 724.63 431.41 727.09 434.63 728.77 C 422.39 733.69 409.36 736.35 396.24 737.55 C 386.96 739.33 377.52 740.41 368.08 740.64 C 346.99 738.91 326.34 733.50 306.54 726.23 C 308.23 723.72 309.54 720.65 312.34 719.18 Z" />
<path fill="#f4f3f2" opacity="1.00" d=" M 279.95 760.94 C 291.37 765.51 303.22 769.05 315.21 771.78 C 321.45 772.69 327.26 775.97 333.70 775.40 C 333.43 793.78 328.01 811.63 325.71 829.82 C 324.80 836.94 321.74 843.60 321.43 850.84 C 294.31 850.26 267.19 849.84 240.07 849.43 C 253.25 819.89 265.71 790.00 279.95 760.94 Z" />
<path fill="#f4f3f2" opacity="1.00" d=" M 398.24 777.51 C 417.97 776.20 436.83 770.10 455.43 763.82 C 466.67 793.47 478.09 823.05 489.09 852.80 C 460.79 852.47 432.49 852.61 404.21 851.73 C 401.85 827.06 398.75 802.32 398.24 777.51 Z" />
</g>
<g id="#1b1518ff">
<path fill="#1b1518" opacity="1.00" d=" M 294.66 46.66 C 333.85 36.70 374.53 31.44 414.95 34.69 C 454.13 39.82 491.87 53.76 526.63 72.29 C 537.67 77.79 546.07 87.29 557.26 92.58 C 576.18 107.19 595.50 121.62 611.70 139.33 C 630.01 159.65 648.57 180.33 661.25 204.77 C 677.56 231.49 691.14 260.21 698.21 290.83 C 706.81 328.24 709.80 366.71 710.43 405.01 C 708.22 416.54 709.43 428.33 709.20 440.00 C 707.22 490.98 707.15 542.01 706.14 593.04 C 706.40 600.60 705.47 608.23 706.57 615.76 C 705.30 618.72 705.41 621.96 705.56 625.11 C 705.29 648.53 704.74 671.94 704.20 695.35 C 705.14 696.30 706.10 697.29 707.01 698.30 C 706.03 698.88 705.06 699.45 704.09 700.04 C 703.77 753.29 700.90 806.57 702.52 859.82 C 696.20 861.25 689.66 860.37 683.25 860.36 C 654.19 859.07 625.08 859.28 596.00 859.09 C 572.69 857.97 549.33 858.34 526.00 858.06 C 360.71 855.56 195.51 853.93 30.26 850.33 C 28.82 848.03 27.47 845.66 26.67 843.05 C 28.80 837.27 28.40 831.03 28.50 824.99 C 30.19 730.97 33.22 637.00 34.85 542.94 C 34.46 542.50 33.69 541.63 33.30 541.19 C 35.66 537.88 34.76 533.78 34.87 530.00 C 35.93 511.35 35.86 492.65 35.91 473.96 C 36.01 471.44 35.49 468.96 34.72 466.57 C 35.19 466.24 36.14 465.57 36.61 465.24 C 37.29 451.25 36.29 437.22 37.47 423.26 C 37.68 412.60 38.28 401.88 36.96 391.30 C 39.35 370.48 40.14 349.52 41.35 328.61 C 41.70 324.57 42.45 320.57 43.13 316.57 C 44.34 310.47 45.36 304.34 46.50 298.23 C 49.09 287.05 51.38 275.79 54.84 264.84 C 58.34 247.77 65.99 231.98 73.21 216.25 C 79.61 205.14 84.45 193.17 91.45 182.39 C 99.82 170.33 107.43 157.50 118.37 147.50 C 138.88 124.93 163.62 106.79 188.88 89.93 C 192.23 88.12 195.21 85.75 197.91 83.09 C 199.87 82.63 201.66 81.74 203.33 80.62 C 208.26 80.32 211.68 76.09 215.93 74.02 C 240.95 61.83 267.18 51.72 294.66 46.66 M 329.72 46.40 C 333.94 79.74 336.32 113.26 340.22 146.64 C 343.08 149.62 343.46 153.95 341.67 157.59 C 351.22 163.27 360.66 169.18 370.11 174.93 C 376.47 181.16 385.51 186.44 394.65 183.70 C 399.95 179.97 405.30 176.18 411.47 173.98 C 407.97 170.62 407.58 165.65 405.65 161.45 C 403.30 155.76 398.70 151.43 396.29 145.76 C 390.77 138.01 378.29 134.39 378.09 123.46 C 388.05 122.32 395.69 129.67 403.50 134.57 C 413.04 143.02 424.54 150.06 431.12 161.20 C 433.58 156.16 433.53 150.52 434.36 145.11 C 440.85 113.08 445.15 80.64 451.08 48.54 C 439.33 45.16 427.16 43.83 415.16 41.72 C 386.69 40.57 357.79 40.48 329.72 46.40 M 203.64 88.42 C 224.52 145.58 246.66 202.34 267.81 259.42 C 276.49 255.45 286.07 255.36 295.39 254.61 C 299.85 250.34 305.81 248.52 311.36 246.17 C 322.98 244.06 332.65 236.05 344.52 234.25 C 339.40 227.63 342.88 218.81 340.76 211.30 C 340.23 204.37 337.97 197.73 337.48 190.81 C 321.60 184.76 304.14 185.54 288.24 179.64 C 278.17 176.44 266.91 179.36 257.44 174.06 C 258.47 167.90 266.58 170.81 270.90 171.09 C 285.83 171.50 299.90 179.08 314.98 177.58 C 322.34 177.41 330.40 178.79 337.02 174.77 C 333.79 166.87 327.88 160.59 321.60 154.99 C 311.58 142.20 296.49 135.06 283.22 126.23 C 283.35 124.99 283.49 123.75 283.63 122.51 C 285.07 122.27 286.50 122.01 287.95 121.75 C 302.84 131.18 316.27 143.08 332.46 150.45 C 335.28 142.71 331.93 134.63 332.48 126.72 C 330.62 100.15 326.75 73.67 325.95 47.04 C 283.38 54.33 240.64 65.48 203.64 88.42 M 456.20 49.57 C 450.48 82.58 444.15 115.54 439.67 148.74 C 437.26 154.10 438.25 160.03 438.16 165.72 C 444.24 170.16 446.33 177.54 450.18 183.66 C 450.76 188.00 453.69 191.58 454.40 195.88 C 452.72 199.06 450.29 201.79 447.57 204.11 C 451.64 204.77 456.82 204.28 459.30 208.32 C 460.19 208.48 461.08 208.65 461.98 208.82 C 463.23 211.63 465.51 214.23 465.36 217.47 C 465.13 222.50 469.32 226.27 472.55 229.60 C 472.61 230.16 472.73 231.28 472.80 231.84 C 469.65 234.41 465.50 233.05 461.86 233.99 C 453.34 235.88 445.59 242.19 436.49 240.42 C 433.44 238.84 430.18 237.80 426.79 237.25 C 425.49 243.01 423.13 248.82 424.79 254.79 C 423.04 259.86 422.31 265.18 421.43 270.44 C 419.25 285.36 415.61 300.19 416.15 315.37 C 423.77 316.53 431.10 319.00 438.46 321.21 C 448.41 322.40 457.32 327.38 466.78 330.14 C 470.48 315.94 478.12 303.31 483.81 289.90 C 504.95 240.50 527.57 191.79 548.13 142.14 C 552.04 129.47 560.70 118.65 562.97 105.42 C 559.53 102.74 556.38 99.67 552.59 97.47 C 542.71 91.87 534.40 83.87 524.40 78.47 C 502.86 66.20 479.75 57.13 456.20 49.57 M 158.85 118.83 C 136.45 136.78 115.12 156.76 99.39 180.96 C 128.80 220.64 158.59 260.05 189.18 298.84 C 203.96 317.99 217.79 337.91 233.38 356.43 C 250.80 345.31 267.56 332.55 287.64 326.53 C 286.16 322.42 284.58 318.35 282.80 314.36 C 272.10 281.20 258.76 248.96 246.87 216.22 C 230.70 174.35 215.35 132.20 199.28 90.30 C 184.85 98.41 172.14 109.09 158.85 118.83 M 553.19 143.21 C 525.00 205.75 498.57 269.17 469.67 331.42 C 482.44 338.81 496.62 344.22 507.54 354.41 C 516.20 359.70 524.05 366.14 532.33 371.98 C 544.22 360.28 555.65 348.12 567.04 335.94 C 594.02 306.62 621.95 278.16 648.59 248.52 C 655.28 242.19 660.08 234.17 666.95 227.99 C 653.68 202.68 638.75 177.96 618.92 157.20 C 604.25 139.42 587.36 123.49 568.69 109.96 C 562.36 120.52 559.35 132.57 553.19 143.21 M 392.33 134.47 C 403.58 141.79 413.37 151.02 422.89 160.41 C 423.49 160.58 424.70 160.94 425.31 161.12 C 414.97 151.51 405.08 140.90 392.33 134.47 M 336.91 161.13 C 341.20 167.24 342.26 178.10 351.24 178.74 C 357.99 179.88 364.73 181.12 371.52 182.07 C 358.78 177.23 349.12 167.03 336.91 161.13 M 412.54 165.49 C 412.93 168.29 413.42 171.07 413.94 173.85 C 416.69 173.80 419.45 173.86 422.20 174.06 C 418.82 171.38 415.76 168.35 412.54 165.49 M 434.62 177.20 C 436.67 183.00 442.60 185.84 447.63 188.63 C 443.95 180.01 436.65 173.70 431.49 166.00 C 429.79 170.04 433.25 173.61 434.62 177.20 M 401.03 185.67 C 402.96 186.20 404.90 186.71 406.83 187.21 C 411.50 184.52 415.58 188.63 419.62 190.48 C 427.00 193.50 434.38 197.19 440.11 202.84 C 442.35 201.49 444.47 199.94 446.33 198.09 C 446.18 197.45 445.88 196.17 445.73 195.53 C 438.57 185.95 426.93 180.24 415.12 179.32 C 409.88 179.80 405.38 182.97 401.03 185.67 M 330.72 183.16 C 336.39 185.11 342.12 186.85 347.83 188.67 C 345.61 185.35 343.01 182.29 340.24 179.41 C 337.03 180.56 333.82 181.73 330.72 183.16 M 348.31 180.75 C 357.14 189.21 368.69 193.31 380.09 196.96 C 393.28 200.84 403.81 210.65 417.23 213.91 C 422.09 216.07 427.60 215.92 432.36 218.31 C 434.42 214.66 437.26 211.31 437.96 207.06 C 434.87 204.23 431.40 201.82 427.37 200.58 C 420.23 198.32 415.16 191.01 407.17 191.34 C 403.44 191.54 400.18 189.48 396.68 188.60 C 380.24 189.30 364.33 183.76 348.31 180.75 M 55.34 286.53 C 77.84 306.55 102.44 324.05 125.03 343.94 C 141.42 356.89 157.88 369.75 174.40 382.54 C 180.42 386.20 185.44 391.15 190.75 395.71 C 200.53 381.41 214.27 370.80 228.10 360.69 C 222.73 348.85 213.07 339.73 206.05 328.92 C 169.65 281.03 132.70 233.58 97.00 185.17 C 77.87 216.44 62.32 250.32 55.34 286.53 M 349.10 233.00 C 356.77 228.57 365.99 229.89 374.46 229.25 C 371.57 223.28 374.27 216.79 375.28 210.71 C 368.29 207.40 358.18 205.83 357.63 196.20 C 353.73 195.71 349.97 194.57 346.34 193.12 C 343.49 206.30 349.60 219.73 349.10 233.00 M 363.68 197.79 C 367.36 202.54 373.15 203.91 378.81 204.52 C 379.13 204.27 379.77 203.78 380.09 203.54 C 374.58 201.73 369.15 199.72 363.68 197.79 M 379.42 216.59 C 377.95 222.83 376.97 231.97 384.06 235.11 C 395.33 240.06 407.69 241.62 419.83 242.42 C 419.87 235.46 422.71 228.71 427.80 223.95 C 413.66 219.85 400.07 213.83 387.14 206.76 C 381.83 205.50 379.88 212.51 379.42 216.59 M 438.95 220.36 C 441.54 221.02 444.04 222.00 446.37 223.33 C 450.93 221.50 454.94 218.52 459.68 217.07 C 457.85 211.57 451.59 210.73 447.03 208.50 C 442.02 210.38 439.22 215.17 438.95 220.36 M 455.42 224.27 C 457.95 224.93 460.49 225.61 463.03 226.30 C 462.24 224.91 461.47 223.51 460.70 222.12 C 458.94 222.84 457.17 223.56 455.42 224.27 M 435.94 225.40 C 436.18 227.47 436.43 229.55 436.68 231.63 C 438.45 230.17 440.18 228.68 441.89 227.16 C 439.91 226.56 437.92 225.97 435.94 225.40 M 427.97 232.64 C 429.40 233.08 430.83 233.52 432.26 233.97 C 432.22 231.93 432.19 229.89 432.16 227.85 C 430.78 229.46 429.36 231.04 427.97 232.64 M 444.13 234.09 C 448.74 233.85 453.04 232.08 456.95 229.73 C 452.09 228.57 447.88 231.44 444.13 234.09 M 655.59 247.56 C 616.48 290.67 576.02 332.50 536.09 374.83 C 542.81 379.65 548.15 386.09 551.90 393.45 C 552.90 393.93 553.90 394.41 554.91 394.90 C 562.30 407.53 572.37 418.44 578.15 432.03 C 581.49 431.12 584.39 429.15 587.35 427.42 C 625.52 406.03 664.45 385.89 701.78 363.07 C 701.98 348.22 700.54 333.34 697.17 318.87 C 696.97 310.31 694.14 302.17 691.88 294.00 C 688.47 283.28 687.33 271.86 682.39 261.64 C 678.88 251.81 673.91 242.60 669.83 233.09 C 665.80 238.65 660.06 242.44 655.59 247.56 M 352.18 236.33 C 361.59 240.55 372.41 239.54 381.91 242.84 C 382.33 242.48 383.18 241.76 383.60 241.40 C 380.93 239.40 378.59 236.97 375.84 235.09 C 367.96 234.61 359.94 234.72 352.18 236.33 M 330.29 245.23 C 342.65 246.56 355.24 246.60 367.70 246.85 C 362.61 244.06 356.50 244.17 351.29 241.54 C 344.20 238.98 336.61 241.96 330.29 245.23 M 365.31 260.48 C 383.23 257.91 401.33 254.63 418.48 249.07 C 412.52 248.00 406.50 247.40 400.52 246.54 C 387.24 241.22 374.48 251.80 365.31 260.48 M 304.94 254.41 C 309.23 257.12 314.31 255.55 318.98 255.22 C 333.14 254.79 347.29 254.02 361.45 253.97 C 350.36 249.17 336.97 251.99 324.99 250.57 C 318.08 249.42 311.16 251.53 304.94 254.41 M 390.25 261.17 C 377.91 265.66 364.67 264.38 352.11 267.33 C 352.97 281.60 355.95 295.63 356.53 309.93 C 363.68 309.06 370.86 309.81 378.03 309.82 C 379.40 310.44 380.73 311.38 382.31 311.42 C 391.20 311.50 399.95 313.53 408.83 313.89 C 412.23 294.31 415.91 274.74 418.09 254.96 C 409.19 258.52 399.64 259.74 390.25 261.17 M 283.18 259.42 C 282.17 260.09 281.17 260.77 280.17 261.46 C 286.35 262.99 292.84 262.45 299.12 261.94 C 293.83 260.91 288.31 261.18 283.18 259.42 M 304.92 261.95 C 322.48 262.80 340.29 262.69 357.74 260.07 C 340.09 259.37 322.54 261.61 304.92 261.95 M 270.79 267.41 C 277.37 282.78 282.34 298.85 290.25 313.60 C 291.51 317.05 291.89 320.88 294.33 323.80 C 312.85 317.53 331.60 310.55 351.30 309.45 C 346.71 296.35 349.18 281.83 346.57 268.19 C 328.38 268.16 310.22 269.92 292.01 268.90 C 284.94 268.20 277.67 269.68 270.79 267.41 M 54.25 291.24 C 50.03 311.58 45.03 332.05 45.84 352.98 C 44.33 365.40 44.70 377.98 42.29 390.30 C 77.30 406.24 111.95 422.99 146.79 439.32 C 150.73 440.97 155.10 441.55 158.60 444.18 C 166.50 427.87 175.09 411.34 188.17 398.56 C 187.36 398.53 185.75 398.46 184.94 398.42 C 177.36 391.50 169.95 384.22 161.57 378.29 C 125.68 349.43 89.77 320.46 54.25 291.24 M 333.76 318.64 C 309.85 324.38 285.97 331.54 264.24 343.23 C 246.28 354.42 228.65 366.37 213.13 380.81 C 220.52 385.68 225.66 393.01 232.03 399.03 C 253.23 380.44 276.51 363.19 303.62 354.52 C 325.38 348.11 348.00 344.87 370.67 344.78 C 370.33 334.92 371.95 325.09 374.18 315.51 C 360.69 315.60 346.83 314.63 333.76 318.64 M 379.45 317.61 C 378.41 321.66 377.42 325.79 377.59 330.00 C 377.89 334.84 375.64 339.77 378.25 344.32 C 394.61 345.61 410.83 348.48 426.80 352.19 C 440.57 357.49 455.07 360.92 468.25 367.70 C 488.31 378.84 507.94 392.07 521.83 410.63 C 528.65 403.53 535.71 396.32 544.68 391.94 C 541.34 387.48 537.64 383.22 532.99 380.09 C 515.28 364.93 495.20 352.43 473.69 343.41 C 469.97 341.34 464.13 340.59 463.66 335.42 C 447.49 328.00 429.92 324.56 412.72 320.45 C 401.66 319.47 390.57 315.95 379.45 317.61 M 367.89 351.04 C 337.31 352.43 305.57 356.48 278.93 372.75 C 282.04 374.20 285.26 375.93 288.78 375.86 C 303.02 366.61 320.21 363.78 336.34 359.29 C 372.98 352.57 412.54 355.81 445.99 373.20 C 449.27 375.46 452.67 377.56 456.36 379.12 C 456.74 378.60 457.49 377.55 457.87 377.02 C 460.59 376.55 462.72 374.85 463.98 372.43 C 443.85 363.64 423.11 355.31 401.04 353.14 C 390.16 350.91 378.96 349.54 367.89 351.04 M 334.93 365.76 C 321.08 369.22 306.80 372.51 294.44 379.93 C 316.27 385.70 338.30 391.64 361.01 392.88 C 384.93 392.64 409.01 392.94 432.62 388.57 C 438.18 386.47 444.61 386.22 449.26 382.16 C 441.27 375.71 431.47 372.55 422.07 368.83 C 393.97 360.08 363.61 359.41 334.93 365.76 M 685.63 378.63 C 650.39 397.20 615.96 417.31 580.34 435.16 C 587.98 450.05 594.04 465.65 599.45 481.46 C 601.11 487.79 601.57 494.55 604.51 500.49 C 637.23 492.51 670.67 487.78 703.40 479.88 C 703.91 443.35 706.23 406.75 703.42 370.29 C 697.16 372.30 691.13 375.03 685.63 378.63 M 254.56 388.58 C 246.96 396.47 237.60 402.39 229.47 409.55 C 230.06 410.11 231.22 411.23 231.80 411.78 C 230.88 415.62 229.50 419.33 228.24 423.06 C 227.19 431.14 230.57 439.28 237.59 443.54 C 236.03 449.75 235.70 456.44 238.19 462.46 C 239.71 458.91 244.17 456.00 247.87 458.25 C 246.11 460.74 243.58 462.46 240.73 463.47 C 242.38 465.29 243.58 467.44 244.46 469.73 C 245.41 468.69 246.37 467.66 247.34 466.64 C 247.34 465.45 247.34 464.27 247.35 463.09 C 252.53 461.75 257.77 462.53 262.71 464.38 C 262.58 463.78 262.32 462.56 262.19 461.96 C 257.45 460.83 252.82 459.29 248.04 458.30 C 247.94 457.67 247.75 456.42 247.66 455.79 C 252.72 455.65 257.80 456.32 262.75 457.31 C 268.36 458.25 266.60 466.63 272.33 467.54 C 279.02 468.90 284.68 472.32 290.08 476.33 C 291.17 483.72 300.09 484.00 303.46 489.81 C 302.06 496.26 307.62 501.58 307.42 507.96 C 307.35 510.29 307.84 512.56 308.73 514.71 C 316.90 512.09 325.78 513.68 332.72 518.63 C 336.53 513.22 342.70 510.30 348.60 507.74 C 338.29 504.26 327.88 500.44 319.01 494.00 C 314.90 491.91 311.09 488.54 310.28 483.78 C 304.62 475.61 298.13 467.83 294.32 458.57 C 284.84 433.76 285.94 406.77 284.63 380.71 C 280.40 380.16 275.95 379.07 273.26 375.48 C 267.52 380.54 260.05 383.20 254.56 388.58 M 460.34 381.56 C 459.98 394.07 461.50 406.43 460.63 418.85 L 459.63 418.00 C 461.87 422.09 459.64 426.67 459.54 430.97 C 460.59 449.30 450.63 465.62 442.12 481.10 C 432.35 492.50 421.20 503.31 407.43 509.58 C 407.39 509.97 407.31 510.74 407.27 511.12 C 412.65 513.08 418.74 515.16 421.65 520.53 C 429.92 519.92 438.94 516.25 446.84 520.31 C 445.16 516.84 445.50 512.94 447.70 509.80 C 446.98 505.72 445.16 500.99 448.57 497.52 C 454.61 489.95 454.22 476.80 464.16 472.92 C 466.45 469.00 468.98 464.87 473.72 463.73 C 483.56 460.24 494.96 452.11 505.18 458.70 C 510.46 460.42 515.42 463.05 518.56 467.81 C 519.19 462.45 519.07 457.01 516.92 451.99 C 515.83 446.19 522.49 443.36 522.76 438.05 C 525.12 430.02 517.34 423.92 518.66 416.17 C 504.81 400.07 488.62 384.99 469.22 375.91 C 466.66 378.37 463.66 380.31 460.34 381.56 M 206.45 386.48 C 195.28 398.08 184.63 410.26 175.85 423.80 C 168.43 438.70 159.53 453.08 153.99 468.92 C 148.93 486.93 145.33 505.44 144.31 524.14 C 143.65 529.18 142.48 534.26 143.51 539.35 C 153.18 540.01 162.87 539.28 172.54 539.05 C 171.84 522.80 175.76 506.89 179.02 491.09 C 182.26 479.95 184.38 468.31 189.96 458.02 C 194.30 448.66 199.52 439.74 205.08 431.07 C 212.62 421.77 217.79 410.53 227.55 403.18 C 223.33 396.96 218.28 391.23 212.73 386.17 C 210.97 384.12 208.21 384.84 206.45 386.48 M 291.86 385.02 C 291.86 400.31 291.46 415.72 293.99 430.85 C 296.67 456.25 309.32 481.80 331.50 495.46 C 338.13 498.28 345.03 500.45 351.66 503.29 C 364.33 508.82 378.45 507.82 391.90 509.13 C 406.41 505.08 419.66 496.89 429.94 485.85 C 439.13 477.35 444.17 465.64 449.64 454.65 C 455.17 432.27 455.36 409.05 455.59 386.12 C 442.37 394.32 426.38 396.10 411.17 397.31 C 395.85 399.19 380.39 398.15 365.00 398.75 C 340.13 397.30 315.93 391.10 291.86 385.02 M 42.02 427.66 C 41.41 439.81 41.74 452.05 41.24 464.23 C 51.24 469.05 62.54 469.79 73.14 472.74 C 96.58 476.68 119.28 484.80 143.02 486.67 C 145.90 473.72 150.44 461.24 154.99 448.87 C 119.84 431.78 84.22 415.29 48.95 398.30 C 46.77 397.34 44.60 396.32 42.43 395.35 C 41.68 406.09 41.75 416.91 42.02 427.66 M 547.23 396.48 C 538.89 401.03 530.88 406.88 526.03 415.23 C 534.78 422.65 539.90 433.32 546.38 442.61 C 554.57 454.84 558.74 469.13 563.00 483.07 C 566.10 492.27 569.13 501.58 570.34 511.25 C 571.88 522.30 575.99 532.94 576.18 544.17 C 585.19 543.40 594.26 543.85 603.29 543.27 C 603.65 540.64 601.99 536.68 605.21 535.40 C 604.73 535.24 603.77 534.92 603.28 534.77 C 601.88 516.49 598.18 498.49 593.09 480.91 C 587.56 466.17 583.56 450.63 574.75 437.37 C 567.64 422.51 558.55 408.47 547.23 396.48 M 206.76 467.72 C 202.85 479.39 204.51 491.65 206.51 503.49 C 206.26 507.75 207.80 511.70 209.65 515.45 C 212.40 515.41 215.14 515.43 217.90 515.47 C 216.34 514.79 214.78 514.12 213.23 513.43 C 213.07 509.68 211.42 506.08 211.50 502.38 C 215.44 494.81 218.73 486.91 221.75 478.93 C 223.54 472.76 229.08 468.89 233.88 465.11 C 228.80 459.42 228.02 451.14 230.35 444.09 C 222.63 438.09 221.29 426.45 223.68 417.52 C 212.54 431.85 209.00 450.08 206.76 467.72 M 528.83 432.58 C 529.74 439.47 528.11 446.57 522.72 451.29 C 524.66 457.09 527.13 465.35 521.32 469.75 C 525.27 473.23 527.91 477.85 530.78 482.19 C 538.89 493.57 538.50 509.91 531.52 521.73 C 535.40 521.05 539.40 521.08 543.13 522.50 C 546.69 507.86 547.67 492.60 545.15 477.72 C 542.55 471.78 542.19 465.24 539.88 459.20 C 538.60 449.45 532.93 441.20 528.83 432.58 M 195.85 460.73 C 188.55 480.78 181.60 501.26 180.46 522.73 C 179.86 528.96 180.32 535.36 178.50 541.41 C 185.16 534.91 191.81 528.36 198.32 521.70 C 198.90 521.62 200.06 521.45 200.63 521.36 C 200.70 511.55 196.01 502.14 197.32 492.25 C 197.93 486.85 196.84 481.15 199.01 476.02 C 201.79 464.69 202.46 452.85 206.02 441.69 C 202.62 448.03 198.20 453.88 195.85 460.73 M 543.78 450.34 C 547.80 466.63 554.42 482.91 552.64 499.95 C 552.80 508.37 552.27 516.93 549.08 524.83 C 558.87 529.56 563.57 539.71 569.50 548.09 C 571.20 541.45 567.57 535.42 567.71 528.91 C 562.23 502.11 556.54 474.88 543.78 450.34 M 495.32 460.57 C 500.71 464.24 506.92 467.55 508.02 474.69 C 509.68 473.18 511.83 471.68 511.81 469.18 C 510.48 466.16 506.73 466.40 504.36 464.72 C 501.60 462.80 499.09 459.65 495.32 460.57 M 470.42 476.04 C 478.33 474.71 485.48 470.55 489.44 463.39 C 482.40 465.81 472.17 467.48 470.42 476.04 M 494.24 465.24 C 494.74 465.74 494.74 465.74 494.24 465.24 M 482.75 480.50 C 491.34 481.44 491.28 472.14 494.46 466.69 C 491.78 472.48 485.46 475.00 482.75 480.50 M 255.03 467.69 C 259.96 471.52 265.71 475.00 272.20 474.54 C 267.22 470.66 261.12 468.95 255.03 467.69 M 500.46 467.96 C 497.79 472.89 495.53 478.18 496.22 483.93 C 498.61 481.29 501.57 479.12 503.53 476.11 C 503.11 473.21 501.71 470.57 500.46 467.96 M 219.16 502.31 C 217.44 506.58 220.75 509.88 223.49 512.66 C 228.15 504.49 230.23 492.81 240.54 489.81 C 238.08 483.14 238.52 475.83 238.24 468.84 C 226.75 476.03 222.56 489.99 219.16 502.31 M 40.29 538.62 C 66.82 538.68 93.36 539.43 119.88 539.55 C 125.85 537.97 131.92 539.20 137.92 539.88 C 135.99 524.28 139.93 509.03 141.91 493.68 C 137.20 493.99 133.37 490.80 128.88 490.06 C 99.60 484.02 70.76 475.80 41.35 470.47 C 40.33 493.15 40.26 515.90 40.29 538.62 M 250.46 476.49 C 253.54 479.06 253.98 483.21 256.29 486.31 C 255.71 482.56 254.85 478.87 254.37 475.11 C 252.95 473.79 251.53 472.47 250.11 471.17 C 249.62 472.98 248.53 475.13 250.46 476.49 M 508.77 485.93 C 510.67 493.31 517.57 497.93 519.78 505.19 C 521.36 510.60 523.64 515.75 525.45 521.08 C 532.01 513.17 530.93 502.31 530.26 492.76 C 527.47 485.11 522.05 478.67 517.27 472.17 C 514.00 476.51 512.35 481.80 508.77 485.93 M 278.67 475.19 C 282.13 480.52 285.76 487.33 292.98 487.70 C 290.61 486.02 288.19 484.44 285.73 482.92 C 285.56 481.85 285.39 480.80 285.22 479.75 C 283.02 478.26 280.84 476.72 278.67 475.19 M 260.43 477.13 C 260.02 481.52 264.26 482.93 267.69 483.89 C 266.06 480.87 263.99 477.93 260.43 477.13 M 244.88 478.21 C 243.73 481.96 243.58 485.86 244.51 489.68 C 250.44 491.63 250.07 499.98 256.50 501.17 C 256.26 498.64 255.93 496.12 255.60 493.61 C 250.22 489.88 250.15 482.24 244.88 478.21 M 271.03 479.79 C 274.98 487.68 282.22 492.17 289.50 496.59 C 285.45 490.03 278.32 486.20 274.49 479.44 C 273.33 479.55 272.18 479.66 271.03 479.79 M 470.44 479.86 C 467.60 484.52 464.70 489.21 463.11 494.48 C 468.81 490.23 472.89 484.35 477.75 479.26 C 475.41 480.28 472.90 480.59 470.44 479.86 M 476.87 486.28 C 478.62 487.27 482.46 487.00 481.55 489.94 C 477.74 495.45 472.08 500.29 471.18 507.29 C 476.05 501.76 479.84 494.95 486.47 491.28 C 489.09 489.74 490.49 486.99 491.67 484.32 C 486.72 484.85 481.71 485.00 476.87 486.28 M 492.76 499.89 C 497.08 497.31 501.23 494.41 505.90 492.47 C 504.39 489.49 503.68 486.21 504.30 482.89 C 500.30 488.46 494.96 493.20 492.76 499.89 M 604.19 504.49 C 607.34 507.58 605.56 512.18 607.01 515.97 C 607.56 525.31 609.79 534.43 609.90 543.83 C 640.78 544.25 671.73 545.57 702.59 543.79 C 702.70 524.37 703.02 504.95 702.84 485.52 C 669.94 491.49 637.00 497.88 604.19 504.49 M 262.38 487.68 C 263.00 489.37 263.62 491.05 264.24 492.75 C 263.14 493.23 262.05 493.71 260.96 494.19 C 267.56 494.62 268.31 502.00 273.60 504.50 C 271.24 498.06 269.56 490.37 262.38 487.68 M 293.40 493.07 C 295.10 501.38 297.82 509.43 299.61 517.72 C 300.58 517.55 301.55 517.40 302.52 517.25 C 301.85 511.91 303.47 506.16 300.77 501.23 C 299.16 497.80 298.09 493.00 293.40 493.07 M 240.04 494.27 C 233.54 500.81 230.93 510.06 227.07 518.20 C 234.96 521.50 242.01 526.61 247.96 532.73 C 253.39 529.38 259.44 527.23 265.02 524.17 C 262.54 518.58 261.52 512.14 257.55 507.34 C 251.95 505.02 246.28 501.95 244.10 495.86 C 242.75 495.32 241.39 494.80 240.04 494.27 M 278.75 505.96 C 278.41 506.35 277.74 507.13 277.40 507.51 C 278.56 508.71 279.74 509.89 280.91 511.09 C 284.59 509.44 286.40 505.81 287.43 502.12 C 285.22 500.03 283.01 497.96 280.71 495.98 C 279.13 499.07 278.29 502.49 278.75 505.96 M 463.35 500.29 C 463.52 502.42 463.68 504.55 463.83 506.69 C 465.71 503.36 467.60 500.06 469.37 496.68 C 467.34 497.84 465.33 499.04 463.35 500.29 M 477.66 507.70 C 481.03 507.61 484.40 507.31 487.77 507.04 C 488.00 507.78 488.45 509.28 488.68 510.03 C 489.45 508.21 490.24 506.39 491.02 504.58 C 488.65 502.76 487.13 500.24 487.51 497.16 C 483.99 500.45 479.91 503.30 477.66 507.70 M 500.69 501.81 C 495.60 504.35 496.22 511.47 491.47 514.50 C 486.65 517.68 483.16 522.86 483.66 528.83 C 490.73 532.88 498.90 533.65 506.28 536.79 C 511.42 533.23 516.35 529.33 521.90 526.38 C 518.54 516.25 515.37 505.81 509.39 496.86 C 506.07 497.70 503.62 500.21 500.69 501.81 M 260.48 502.24 C 266.77 508.92 266.44 522.17 277.55 523.89 C 276.68 519.77 277.81 514.10 273.59 511.57 C 268.70 508.22 263.73 504.37 261.90 498.46 C 261.41 499.71 260.93 500.97 260.48 502.24 M 458.23 502.47 C 457.89 504.03 457.58 505.59 457.28 507.17 C 456.46 507.22 454.81 507.33 453.99 507.39 C 455.10 509.64 456.41 511.80 458.00 513.76 C 459.77 510.18 459.66 506.13 458.23 502.47 M 281.37 517.14 C 285.64 516.73 290.44 513.28 294.19 516.90 C 293.73 513.47 293.13 510.04 291.76 506.85 C 290.13 511.87 286.05 515.09 281.37 517.14 M 460.98 519.22 C 462.32 520.07 463.63 521.04 465.16 521.55 C 469.50 517.99 473.39 513.62 478.98 511.99 C 471.82 510.21 464.80 512.78 460.98 519.22 M 359.37 516.18 C 357.72 519.60 355.98 523.01 354.99 526.70 C 366.73 527.92 378.53 526.43 390.25 527.53 C 391.87 521.87 389.38 516.53 384.35 513.67 C 375.92 512.56 367.12 511.98 359.37 516.18 M 337.53 524.45 C 331.47 534.84 333.20 547.51 336.55 558.43 C 339.84 562.13 344.01 565.17 346.01 569.90 C 344.40 560.83 343.99 551.33 346.81 542.45 C 340.22 538.91 345.81 531.14 349.68 527.67 C 350.14 522.89 349.91 517.61 353.24 513.74 C 346.97 515.29 340.56 518.41 337.53 524.45 M 392.72 514.47 C 395.46 518.05 397.50 522.20 396.10 526.78 C 397.51 530.72 401.37 533.31 403.48 536.95 C 403.38 539.35 403.35 541.75 403.33 544.16 C 401.89 544.36 400.44 544.57 399.01 544.77 C 404.74 551.08 403.24 560.02 403.22 567.79 C 405.76 565.42 408.54 563.33 411.36 561.32 C 410.62 556.07 415.24 552.65 417.26 548.33 C 420.26 541.01 421.25 531.91 416.09 525.30 C 409.50 519.85 401.96 513.06 392.72 514.47 M 451.38 514.83 C 451.57 519.76 455.13 523.14 457.12 527.31 C 459.56 526.59 462.09 526.73 464.59 526.53 C 458.10 525.96 455.30 519.27 451.38 514.83 M 307.99 517.27 C 307.77 519.67 307.56 522.08 307.43 524.50 C 301.25 527.04 298.71 534.38 292.10 535.85 C 289.67 541.35 284.16 544.35 279.28 547.35 C 272.33 550.40 265.18 554.55 257.29 553.52 C 258.51 560.88 254.57 567.69 254.35 574.92 C 254.87 581.83 255.04 589.36 259.40 595.14 C 262.69 587.98 266.33 581.02 270.07 574.11 C 275.37 568.11 281.69 563.49 288.12 558.82 C 293.78 557.65 297.80 552.44 303.74 552.29 C 310.77 551.14 317.92 550.88 325.00 551.80 C 326.50 553.14 328.01 554.46 329.54 555.78 C 325.23 545.43 324.78 532.45 330.84 522.72 C 328.54 522.44 326.30 521.81 324.31 520.60 C 319.26 517.44 312.56 521.80 307.99 517.27 M 474.37 521.30 C 474.59 522.85 474.81 524.39 475.02 525.96 C 472.16 526.43 469.26 526.41 466.38 526.47 C 469.64 529.16 474.88 526.59 478.74 525.77 C 479.12 522.74 479.59 519.72 479.98 516.70 C 477.95 518.03 476.08 519.58 474.37 521.30 M 281.95 521.62 C 283.46 523.91 283.90 526.51 282.52 529.00 C 286.36 528.73 290.05 529.80 293.31 531.78 C 294.91 529.40 296.47 526.99 298.01 524.58 C 296.73 524.44 295.45 524.30 294.17 524.17 C 292.93 522.89 291.70 521.63 290.44 520.38 C 287.84 521.91 284.87 522.10 281.95 521.62 M 205.24 525.24 C 196.24 529.55 190.80 538.33 182.95 544.18 C 191.42 545.14 199.79 543.70 208.00 541.78 C 217.26 542.43 224.64 548.84 230.78 555.23 C 237.08 560.42 246.72 555.97 252.36 562.22 C 252.94 555.75 251.05 549.56 248.16 543.86 C 245.02 533.72 235.17 528.25 226.44 523.53 C 219.78 519.84 211.30 520.83 205.24 525.24 M 424.19 526.33 C 427.99 536.67 425.92 547.63 420.14 556.77 C 429.25 554.06 438.87 555.80 448.13 556.60 C 455.98 557.12 463.44 560.55 469.33 565.71 C 480.74 572.94 485.15 586.88 486.59 599.64 C 489.10 592.93 491.15 585.98 494.97 579.85 C 496.38 577.81 494.88 575.36 494.64 573.20 C 492.93 566.70 492.91 559.92 493.77 553.30 C 487.35 554.42 480.54 555.16 474.29 552.82 C 469.97 550.55 466.89 546.31 462.10 544.86 C 456.66 543.12 456.42 536.30 452.37 532.92 C 452.80 532.19 453.25 531.47 453.70 530.76 C 452.10 529.17 450.86 527.29 449.76 525.34 C 449.14 525.88 448.53 526.42 447.92 526.97 C 440.66 522.54 431.96 525.05 424.19 526.33 M 251.83 538.04 C 254.07 541.54 256.08 545.18 258.01 548.86 C 268.32 547.35 278.61 542.72 285.68 534.93 C 278.34 536.07 277.46 524.60 270.29 527.08 C 264.35 531.10 257.89 534.22 251.83 538.04 M 532.53 527.39 C 526.15 531.57 518.16 533.10 512.88 538.95 C 503.14 546.22 496.46 558.71 499.94 571.01 C 505.69 568.63 509.36 562.41 515.85 561.66 C 520.91 561.27 526.10 560.27 530.43 557.48 C 533.61 554.93 536.20 551.50 540.16 550.07 C 547.64 547.05 555.70 549.47 563.42 549.82 C 557.80 538.06 547.19 524.80 532.53 527.39 M 349.26 538.17 C 365.50 539.17 381.69 537.75 397.94 538.69 C 396.77 535.82 394.36 533.89 391.84 532.26 C 380.02 531.37 368.19 533.11 356.39 531.50 C 351.95 530.25 350.68 535.09 349.26 538.17 M 459.27 532.22 C 461.28 535.36 461.38 540.70 465.96 541.10 C 472.12 542.00 474.45 550.27 481.16 549.46 C 489.17 549.04 498.41 547.16 503.31 540.18 C 494.88 538.80 486.71 535.98 479.61 531.14 C 472.91 533.85 466.06 531.44 459.27 532.22 M 39.87 543.29 C 39.58 563.80 39.17 584.32 39.07 604.84 C 44.01 604.86 49.01 604.98 53.84 603.72 C 78.15 599.33 102.58 595.39 126.62 589.62 C 131.14 589.13 135.88 589.14 139.89 586.66 C 137.06 572.82 137.20 558.53 136.45 544.45 C 127.52 547.30 118.33 543.90 109.24 544.47 C 86.10 544.52 63.01 543.07 39.87 543.29 M 350.93 543.03 C 348.74 552.82 349.31 563.21 352.29 572.78 C 352.76 573.04 353.72 573.57 354.19 573.83 C 355.89 573.26 357.59 572.70 359.30 572.17 C 362.45 562.75 361.07 552.94 359.41 543.41 C 356.58 543.28 353.76 543.15 350.93 543.03 M 375.08 542.72 C 374.73 545.81 374.09 548.86 373.11 551.82 C 372.81 549.33 372.53 546.83 372.17 544.35 C 369.22 543.83 366.25 543.39 363.27 543.09 C 364.60 552.78 367.46 562.59 364.28 572.31 C 370.95 574.03 378.07 573.45 384.47 570.98 C 384.41 561.69 384.56 552.41 383.72 543.14 C 380.84 542.91 377.96 542.75 375.08 542.72 M 388.33 543.14 C 388.24 546.62 388.78 550.06 389.37 553.48 C 390.18 558.90 387.62 564.81 390.31 569.89 C 392.26 570.36 394.29 570.39 396.29 570.54 C 396.97 561.68 396.91 552.57 393.43 544.23 C 391.73 543.85 390.03 543.48 388.33 543.14 M 141.57 544.19 C 141.71 563.38 144.64 582.46 148.56 601.23 C 158.69 633.11 170.92 665.83 195.01 690.00 C 202.51 685.45 209.67 680.01 215.17 673.12 C 205.89 659.68 196.71 646.07 189.99 631.13 C 183.74 616.73 177.21 602.12 175.67 586.31 C 172.63 572.64 172.41 558.64 171.30 544.78 C 161.39 544.51 151.43 545.40 141.57 544.19 M 177.67 546.62 C 179.24 558.87 180.55 571.27 180.50 583.60 C 184.60 600.70 189.38 617.98 197.91 633.40 C 201.76 644.73 209.26 654.17 216.16 663.77 C 218.37 666.79 220.91 670.44 225.22 669.78 C 227.61 672.75 229.69 675.94 231.94 679.03 C 235.81 670.58 238.17 661.55 240.57 652.61 C 241.08 639.78 241.43 626.62 237.66 614.19 C 234.56 599.77 221.73 590.99 212.85 580.20 C 203.29 574.17 198.02 562.83 199.54 551.62 C 200.28 550.65 201.00 549.66 201.84 548.78 C 201.00 549.36 200.17 549.96 199.35 550.57 C 192.03 549.48 183.81 551.99 177.67 546.62 M 210.12 546.94 C 205.33 554.12 204.09 564.87 210.63 571.41 C 219.00 579.36 228.03 586.79 235.39 595.73 C 243.96 609.30 247.22 625.48 247.62 641.36 C 248.15 652.60 244.19 663.18 241.04 673.76 C 248.59 673.13 257.92 676.08 257.64 685.21 C 265.70 669.60 274.11 651.61 268.24 633.79 C 264.53 612.98 250.32 596.59 237.09 581.04 C 233.74 575.50 229.82 570.24 224.48 566.46 C 220.09 563.50 218.84 557.13 224.15 554.41 C 219.77 551.41 215.16 548.68 210.12 546.94 M 576.18 549.96 C 575.17 562.84 572.94 575.59 570.07 588.17 C 565.43 602.88 558.48 616.71 552.94 631.08 C 546.71 646.77 536.43 660.29 526.90 673.98 C 530.77 682.76 539.89 686.74 546.84 692.62 C 561.94 676.38 574.74 657.91 581.73 636.69 C 594.07 608.83 602.45 578.91 602.47 548.25 C 593.73 549.27 584.72 547.48 576.18 549.96 M 609.39 548.41 C 607.25 562.71 606.04 577.20 603.03 591.37 C 635.81 598.33 668.52 605.86 701.36 612.46 C 701.68 591.28 702.16 570.10 702.40 548.92 C 685.92 549.03 669.43 548.82 652.98 547.87 C 638.47 548.75 623.92 548.19 609.39 548.41 M 546.86 554.26 C 553.03 568.57 540.46 581.64 532.32 592.20 C 523.06 605.87 506.89 616.21 505.23 633.83 C 500.96 649.70 505.96 666.17 510.72 681.36 C 512.54 679.72 514.43 678.19 516.35 676.68 C 517.42 672.43 521.59 670.31 523.66 666.67 C 534.57 652.22 544.46 636.77 550.71 619.69 C 560.68 599.29 569.16 577.30 568.83 554.22 C 568.03 554.98 567.25 555.75 566.47 556.53 C 559.90 555.89 553.55 553.35 546.86 554.26 M 299.15 560.24 C 287.40 565.92 276.01 574.02 270.21 586.09 C 265.43 593.62 259.73 603.81 266.85 611.81 C 275.54 594.11 296.82 578.52 316.89 586.16 C 314.91 576.40 322.30 568.74 329.40 563.38 C 330.87 563.30 332.33 563.22 333.80 563.14 C 330.34 560.75 325.75 559.99 323.28 556.30 C 315.13 556.26 306.54 556.36 299.15 560.24 M 528.56 564.89 C 529.37 571.38 524.95 576.43 520.75 580.74 C 511.97 591.74 499.06 598.28 489.82 608.85 C 483.70 613.65 481.80 621.55 479.62 628.62 C 475.54 640.63 476.72 653.61 478.16 665.97 C 478.25 677.84 481.02 689.88 486.63 700.36 C 486.14 692.53 488.11 684.84 490.45 677.45 C 492.65 672.44 498.86 675.93 502.88 676.04 C 498.93 659.74 494.91 642.23 500.94 625.89 C 503.06 615.20 512.22 608.63 518.38 600.37 C 525.94 590.89 533.88 581.65 540.37 571.39 C 543.57 566.71 544.19 560.35 541.28 555.38 C 537.59 559.21 533.88 563.39 528.56 564.89 M 422.89 562.48 C 430.07 566.30 433.69 574.23 434.76 581.98 C 435.19 584.24 432.98 585.72 432.07 587.52 C 435.86 587.24 439.49 586.06 443.16 585.12 C 452.75 583.28 462.81 586.56 470.03 592.99 C 475.92 597.77 477.74 605.48 480.40 612.22 C 481.10 611.12 481.82 610.03 482.54 608.96 C 479.01 596.37 478.93 581.83 469.42 571.77 C 467.08 570.32 464.58 569.12 462.51 567.28 C 461.43 567.41 460.36 567.60 459.28 567.62 C 450.61 561.02 439.05 561.55 428.81 560.01 C 426.41 559.08 424.65 561.26 422.89 562.48 M 230.99 563.02 C 236.23 570.31 241.54 577.59 247.74 584.11 C 247.85 577.56 248.19 570.96 249.76 564.58 C 243.44 564.94 237.18 564.30 230.99 563.02 M 405.39 575.55 C 407.30 579.84 407.35 584.60 407.81 589.20 C 412.79 588.46 417.14 590.93 419.90 594.95 C 422.46 592.65 425.35 590.76 428.27 588.96 C 427.79 588.50 426.84 587.58 426.37 587.12 C 430.73 579.07 425.85 566.90 416.18 566.21 C 411.51 567.76 408.26 571.74 405.39 575.55 M 325.90 574.87 C 321.31 578.35 323.54 584.69 323.48 589.57 C 325.74 591.10 329.13 594.61 331.61 591.66 C 334.64 588.25 339.47 588.78 343.59 588.64 C 342.86 584.59 344.22 580.68 344.86 576.73 C 341.63 574.05 339.19 570.63 336.97 567.11 C 332.79 568.92 328.97 571.49 325.90 574.87 M 503.37 576.69 C 501.39 584.26 496.35 590.45 493.68 597.66 C 505.16 589.30 516.96 580.13 523.71 567.34 C 514.90 564.60 509.67 572.39 503.37 576.69 M 371.92 578.25 C 365.64 576.63 359.02 575.57 352.70 577.68 C 349.41 580.34 348.37 584.63 347.77 588.62 C 366.25 588.24 384.77 588.42 403.26 588.88 C 403.04 585.85 402.72 582.84 402.29 579.84 C 399.19 578.27 396.12 576.61 393.47 574.36 C 386.07 574.80 379.53 580.20 371.92 578.25 M 277.83 605.84 C 274.55 609.71 274.35 615.53 270.15 618.62 C 273.64 626.49 275.85 634.89 276.81 643.44 C 278.66 650.11 275.48 656.63 275.41 663.29 C 274.89 663.55 273.84 664.07 273.32 664.33 C 274.12 664.35 275.72 664.37 276.52 664.38 C 272.32 667.60 270.61 672.68 269.05 677.51 C 265.19 682.40 263.65 688.54 260.41 693.79 C 274.41 691.05 291.42 684.26 295.02 668.86 C 301.57 668.39 308.43 668.79 314.34 665.36 C 328.24 658.08 340.18 645.77 344.83 630.54 C 339.54 626.35 336.98 619.25 336.55 612.71 C 329.19 611.75 326.41 604.21 326.47 597.71 C 321.32 596.43 316.95 593.49 312.56 590.69 C 299.24 588.19 286.04 595.78 277.83 605.84 M 421.94 600.05 C 421.02 601.95 420.64 604.06 420.11 606.09 C 417.34 609.21 414.52 612.58 410.20 613.45 C 410.90 620.87 405.66 627.46 400.02 631.70 C 404.97 638.73 409.53 646.24 416.25 651.75 C 424.19 659.49 433.17 669.35 445.19 668.73 C 444.58 673.15 445.53 677.66 450.38 678.95 C 450.46 679.42 450.62 680.36 450.70 680.83 C 455.55 683.88 459.59 688.72 465.59 689.46 C 470.18 689.96 473.26 693.98 477.72 694.92 C 472.82 677.49 471.23 659.15 471.73 641.02 C 471.24 632.99 475.41 625.91 476.74 618.20 C 473.82 611.25 472.98 603.08 467.63 597.39 C 463.17 592.55 456.43 590.53 449.99 591.05 C 439.88 590.45 429.83 593.84 421.94 600.05 M 55.42 608.44 C 50.70 609.57 45.27 609.20 41.36 612.49 C 40.72 612.53 39.44 612.62 38.81 612.66 C 37.28 650.14 37.62 687.67 36.33 725.16 C 67.10 708.84 97.88 692.51 128.11 675.23 C 140.26 668.57 153.08 662.95 164.50 655.03 C 154.10 635.45 146.46 614.28 141.77 592.59 C 113.04 598.03 84.15 602.79 55.42 608.44 M 337.99 593.96 C 332.93 594.17 332.86 600.24 331.74 603.88 C 335.39 608.62 342.07 608.47 347.51 608.74 C 368.27 607.99 389.03 606.37 409.81 606.77 C 414.89 606.47 419.04 600.14 415.02 595.98 C 410.05 593.56 404.31 594.69 398.99 593.94 C 378.66 593.62 358.29 592.49 337.99 593.96 M 602.51 595.05 C 598.61 609.90 593.50 624.48 587.49 638.62 C 586.56 640.38 587.25 642.28 589.29 642.66 C 626.08 659.15 662.36 677.06 699.55 692.37 C 699.98 667.27 701.22 642.15 700.80 617.03 C 668.07 610.12 635.42 601.62 602.51 595.05 M 341.78 613.51 C 343.17 617.97 343.71 624.69 349.38 625.63 C 356.69 626.36 364.13 625.90 371.36 624.63 C 380.78 623.40 390.38 625.28 399.75 623.85 C 403.02 621.01 404.82 616.88 405.86 612.76 C 384.55 611.12 363.13 613.92 341.78 613.51 M 367.00 630.93 C 366.29 642.87 362.10 654.33 356.90 665.00 C 353.27 670.83 348.00 675.52 344.67 681.57 C 360.83 681.66 376.93 679.79 393.09 679.81 C 395.39 679.87 397.57 679.02 399.74 678.35 C 388.31 664.54 379.24 648.13 376.66 630.19 C 373.41 629.76 370.15 630.03 367.00 630.93 M 380.51 629.72 C 385.17 647.05 392.45 664.09 405.08 677.14 C 413.77 674.00 422.80 672.67 431.89 671.32 C 420.89 665.05 411.42 656.27 403.56 646.41 C 399.93 641.58 396.05 636.45 395.18 630.32 C 390.31 629.64 385.40 629.71 380.51 629.72 M 350.09 631.32 C 349.54 637.50 345.58 642.48 342.84 647.83 C 334.15 659.41 322.65 670.65 307.87 673.22 C 317.03 676.35 326.54 678.39 335.88 680.89 C 350.47 668.41 360.01 650.27 362.86 631.37 C 358.60 631.35 354.35 631.45 350.09 631.32 M 558.41 688.63 C 592.73 716.36 628.13 742.83 662.04 771.06 C 674.02 779.90 685.04 790.05 697.61 798.06 C 698.29 764.97 698.84 731.87 699.85 698.80 C 661.36 681.07 623.27 662.50 584.43 645.47 C 579.12 661.73 568.21 674.97 558.41 688.63 M 146.90 670.85 C 112.46 689.13 78.11 707.65 43.64 725.87 C 40.43 727.34 35.15 729.09 36.07 733.60 C 36.10 770.55 33.78 807.48 34.43 844.44 C 35.53 844.99 36.61 845.74 37.90 845.77 C 54.11 846.39 70.33 846.69 86.56 846.79 C 125.33 804.33 165.47 762.95 204.90 721.03 C 207.11 719.03 206.70 715.15 209.73 713.99 C 204.05 709.19 199.08 703.63 194.26 698.00 C 193.06 698.55 191.88 699.12 190.69 699.70 C 191.32 698.25 193.83 696.59 192.04 695.03 C 182.19 685.20 173.49 674.13 166.82 661.89 C 159.46 663.00 153.42 667.64 146.90 670.85 M 300.28 673.52 C 297.97 677.65 295.43 681.67 292.34 685.28 C 298.22 689.47 305.59 690.14 312.20 692.61 C 316.33 693.69 320.42 696.51 324.83 695.39 C 329.15 693.51 331.67 689.24 333.86 685.30 C 322.71 681.29 309.88 681.12 300.28 673.52 M 216.46 679.47 C 210.94 685.07 204.46 689.59 198.18 694.29 C 205.08 702.25 213.65 708.53 220.58 716.45 C 232.55 726.89 245.99 735.42 259.89 743.05 C 286.43 761.42 318.77 766.91 349.90 772.26 C 356.09 772.95 362.33 772.34 368.54 772.69 C 369.72 764.30 370.22 755.65 369.00 747.25 C 323.34 740.88 276.49 727.56 240.52 697.51 C 233.17 691.45 228.28 683.17 221.86 676.28 C 219.61 676.30 217.99 678.03 216.46 679.47 M 405.01 682.15 C 407.15 687.41 411.72 690.89 415.86 694.52 C 425.36 690.45 435.05 686.96 444.90 683.95 C 443.08 681.06 441.08 678.31 439.01 675.61 C 427.98 679.51 415.85 677.74 405.01 682.15 M 237.03 685.06 C 240.50 688.81 244.28 692.25 247.88 695.88 C 249.25 690.92 251.48 686.05 250.58 680.77 C 245.83 679.60 236.92 677.42 237.03 685.06 M 506.50 694.50 C 502.35 698.87 496.26 701.57 493.86 707.39 C 492.68 707.45 491.52 707.51 490.36 707.57 C 468.06 723.97 442.14 735.16 415.18 741.19 C 401.72 742.79 388.46 745.81 374.93 746.84 C 374.90 755.81 374.27 764.78 374.33 773.76 C 381.45 774.31 388.37 772.12 395.46 771.80 C 426.35 769.33 455.84 758.25 483.32 744.41 C 505.30 731.00 526.15 715.20 542.49 695.09 C 535.13 690.93 528.97 685.23 523.00 679.33 C 517.35 684.23 512.58 690.08 506.50 694.50 M 495.29 681.55 C 493.84 686.88 492.06 692.26 492.36 697.86 C 497.18 694.40 501.38 690.15 506.22 686.71 C 504.54 684.98 502.86 683.25 501.24 681.47 C 499.25 681.48 497.26 681.41 495.29 681.55 M 398.60 685.48 C 378.92 685.24 359.22 687.02 339.54 686.53 C 337.25 689.45 336.11 693.14 334.08 696.27 C 347.05 696.75 360.03 696.11 373.00 695.77 C 385.52 694.36 398.06 696.55 410.59 696.19 C 406.55 692.59 403.38 688.11 401.70 682.95 C 400.69 683.81 399.74 684.78 398.60 685.48 M 437.40 691.65 C 430.67 693.92 424.26 697.09 417.43 699.09 C 421.02 704.91 425.58 710.06 430.79 714.49 C 443.54 709.69 455.70 703.41 467.82 697.27 C 461.27 695.85 456.31 691.25 450.64 688.04 C 446.43 689.93 442.01 691.26 437.40 691.65 M 275.81 695.53 C 287.87 700.17 298.07 708.30 309.87 713.44 C 314.85 710.57 318.08 705.59 322.09 701.60 C 311.35 696.61 299.37 694.85 289.00 689.09 C 284.25 690.40 280.17 693.33 275.81 695.53 M 555.33 692.97 C 553.26 694.82 551.27 696.77 549.70 699.08 C 548.28 699.79 546.64 700.23 545.57 701.48 C 536.50 710.74 527.95 720.47 517.85 728.65 C 521.30 735.95 527.77 741.20 531.97 748.01 C 558.35 783.91 586.19 818.84 613.47 853.93 C 640.82 854.70 668.23 855.09 695.58 854.49 C 696.47 838.21 696.99 821.88 696.87 805.55 C 679.43 788.98 659.59 775.28 641.24 759.78 C 612.66 737.46 584.79 714.12 555.33 692.97 M 255.70 702.24 C 267.74 709.98 280.68 716.30 293.82 722.03 C 298.32 724.50 302.45 720.00 306.10 717.89 C 294.29 711.18 283.34 702.52 270.04 698.89 C 265.05 697.21 259.87 699.59 255.70 702.24 M 327.69 700.21 C 327.85 700.90 328.16 702.26 328.32 702.94 C 326.19 707.38 322.34 710.50 319.10 714.08 C 327.04 715.31 335.06 714.06 343.03 714.75 C 362.37 714.27 381.81 717.04 401.08 714.30 C 408.64 714.54 416.22 714.72 423.78 714.03 C 420.27 709.88 416.12 706.20 413.89 701.11 C 405.92 702.10 397.98 700.71 390.02 700.47 C 369.26 700.26 348.38 702.95 327.69 700.21 M 433.97 719.85 C 436.14 722.25 438.44 724.52 440.60 726.94 C 455.86 722.30 469.67 713.85 482.94 705.18 C 479.67 704.62 477.23 702.36 475.12 699.98 C 460.98 705.93 448.13 714.05 433.97 719.85 M 204.46 728.49 C 166.71 767.22 129.13 806.29 93.16 846.67 C 140.07 847.91 187.00 848.71 233.93 849.27 C 238.81 842.10 241.68 833.82 245.10 825.90 C 255.30 803.42 265.54 780.95 274.35 757.89 C 265.63 754.83 258.46 748.82 250.42 744.45 C 237.96 737.12 225.58 729.44 215.17 719.30 C 210.78 721.34 207.52 724.85 204.46 728.49 M 312.34 719.18 C 309.54 720.65 308.23 723.72 306.54 726.23 C 326.34 733.50 346.99 738.91 368.08 740.64 C 377.52 740.41 386.96 739.33 396.24 737.55 C 409.36 736.35 422.39 733.69 434.63 728.77 C 431.41 727.09 428.02 724.63 428.35 720.54 C 406.29 721.99 384.11 720.86 362.04 720.89 C 345.51 719.63 328.75 721.80 312.34 719.18 M 495.20 744.24 C 483.13 749.69 472.55 758.03 459.85 762.12 C 469.06 786.67 479.01 811.01 488.49 835.50 C 490.37 839.96 491.28 844.93 494.45 848.75 C 494.47 850.08 494.49 851.39 494.53 852.74 C 531.90 853.28 569.27 853.55 606.64 854.14 C 576.34 812.77 543.49 773.28 513.87 731.36 C 507.36 735.25 501.68 740.34 495.20 744.24 M 279.95 760.94 C 265.71 790.00 253.25 819.89 240.07 849.43 C 267.19 849.84 294.31 850.26 321.43 850.84 C 321.74 843.60 324.80 836.94 325.71 829.82 C 328.01 811.63 333.43 793.78 333.70 775.40 C 327.26 775.97 321.45 772.69 315.21 771.78 C 303.22 769.05 291.37 765.51 279.95 760.94 M 398.24 777.51 C 398.75 802.32 401.85 827.06 404.21 851.73 C 432.49 852.61 460.79 852.47 489.09 852.80 C 478.09 823.05 466.67 793.47 455.43 763.82 C 436.83 770.10 417.97 776.20 398.24 777.51 M 339.96 776.53 C 335.36 801.17 332.72 826.14 328.51 850.84 C 351.93 850.97 375.35 851.31 398.77 851.61 C 397.99 848.91 397.17 846.22 396.69 843.46 C 396.78 822.42 393.39 801.48 392.55 780.46 C 391.65 775.70 386.08 778.69 383.03 779.13 C 368.76 777.82 354.16 779.63 339.96 776.53 Z" />
</g>
<g id="#d1e77fff">
<path fill="#d1e77f" opacity="1.00" d=" M 329.72 46.40 C 357.79 40.48 386.69 40.57 415.16 41.72 C 427.16 43.83 439.33 45.16 451.08 48.54 C 445.15 80.64 440.85 113.08 434.36 145.11 C 433.53 150.52 433.58 156.16 431.12 161.20 C 424.54 150.06 413.04 143.02 403.50 134.57 C 395.69 129.67 388.05 122.32 378.09 123.46 C 378.29 134.39 390.77 138.01 396.29 145.76 C 398.70 151.43 403.30 155.76 405.65 161.45 C 407.58 165.65 407.97 170.62 411.47 173.98 C 405.30 176.18 399.95 179.97 394.65 183.70 C 385.51 186.44 376.47 181.16 370.11 174.93 C 360.66 169.18 351.22 163.27 341.67 157.59 C 343.46 153.95 343.08 149.62 340.22 146.64 C 336.32 113.26 333.94 79.74 329.72 46.40 Z" />
<path fill="#d1e77f" opacity="1.00" d=" M 158.85 118.83 C 172.14 109.09 184.85 98.41 199.28 90.30 C 215.35 132.20 230.70 174.35 246.87 216.22 C 258.76 248.96 272.10 281.20 282.80 314.36 C 284.58 318.35 286.16 322.42 287.64 326.53 C 267.56 332.55 250.80 345.31 233.38 356.43 C 217.79 337.91 203.96 317.99 189.18 298.84 C 158.59 260.05 128.80 220.64 99.39 180.96 C 115.12 156.76 136.45 136.78 158.85 118.83 Z" />
<path fill="#d1e77f" opacity="1.00" d=" M 553.19 143.21 C 559.35 132.57 562.36 120.52 568.69 109.96 C 587.36 123.49 604.25 139.42 618.92 157.20 C 638.75 177.96 653.68 202.68 666.95 227.99 C 660.08 234.17 655.28 242.19 648.59 248.52 C 621.95 278.16 594.02 306.62 567.04 335.94 C 555.65 348.12 544.22 360.28 532.33 371.98 C 524.05 366.14 516.20 359.70 507.54 354.41 C 496.62 344.22 482.44 338.81 469.67 331.42 C 498.57 269.17 525.00 205.75 553.19 143.21 Z" />
<path fill="#d1e77f" opacity="1.00" d=" M 349.10 233.00 C 349.60 219.73 343.49 206.30 346.34 193.12 C 349.97 194.57 353.73 195.71 357.63 196.20 C 358.18 205.83 368.29 207.40 375.28 210.71 C 374.27 216.79 371.57 223.28 374.46 229.25 C 365.99 229.89 356.77 228.57 349.10 233.00 Z" />
<path fill="#d1e77f" opacity="1.00" d=" M 390.25 261.17 C 399.64 259.74 409.19 258.52 418.09 254.96 C 415.91 274.74 412.23 294.31 408.83 313.89 C 399.95 313.53 391.20 311.50 382.31 311.42 C 380.73 311.38 379.40 310.44 378.03 309.82 C 370.86 309.81 363.68 309.06 356.53 309.93 C 355.95 295.63 352.97 281.60 352.11 267.33 C 364.67 264.38 377.91 265.66 390.25 261.17 Z" />
<path fill="#d1e77f" opacity="1.00" d=" M 54.25 291.24 C 89.77 320.46 125.68 349.43 161.57 378.29 C 169.95 384.22 177.36 391.50 184.94 398.42 C 185.75 398.46 187.36 398.53 188.17 398.56 C 175.09 411.34 166.50 427.87 158.60 444.18 C 155.10 441.55 150.73 440.97 146.79 439.32 C 111.95 422.99 77.30 406.24 42.29 390.30 C 44.70 377.98 44.33 365.40 45.84 352.98 C 45.03 332.05 50.03 311.58 54.25 291.24 Z" />
<path fill="#d1e77f" opacity="1.00" d=" M 685.63 378.63 C 691.13 375.03 697.16 372.30 703.42 370.29 C 706.23 406.75 703.91 443.35 703.40 479.88 C 670.67 487.78 637.23 492.51 604.51 500.49 C 601.57 494.55 601.11 487.79 599.45 481.46 C 594.04 465.65 587.98 450.05 580.34 435.16 C 615.96 417.31 650.39 397.20 685.63 378.63 Z" />
<path fill="#d1e77f" opacity="1.00" d=" M 206.76 467.72 C 209.00 450.08 212.54 431.85 223.68 417.52 C 221.29 426.45 222.63 438.09 230.35 444.09 C 228.02 451.14 228.80 459.42 233.88 465.11 C 229.08 468.89 223.54 472.76 221.75 478.93 C 218.73 486.91 215.44 494.81 211.50 502.38 C 211.42 506.08 213.07 509.68 213.23 513.43 C 214.78 514.12 216.34 514.79 217.90 515.47 C 215.14 515.43 212.40 515.41 209.65 515.45 C 207.80 511.70 206.26 507.75 206.51 503.49 C 204.51 491.65 202.85 479.39 206.76 467.72 Z" />
<path fill="#d1e77f" opacity="1.00" d=" M 528.83 432.58 C 532.93 441.20 538.60 449.45 539.88 459.20 C 542.19 465.24 542.55 471.78 545.15 477.72 C 547.67 492.60 546.69 507.86 543.13 522.50 C 539.40 521.08 535.40 521.05 531.52 521.73 C 538.50 509.91 538.89 493.57 530.78 482.19 C 527.91 477.85 525.27 473.23 521.32 469.75 C 527.13 465.35 524.66 457.09 522.72 451.29 C 528.11 446.57 529.74 439.47 528.83 432.58 Z" />
<path fill="#d1e77f" opacity="1.00" d=" M 40.29 538.62 C 40.26 515.90 40.33 493.15 41.35 470.47 C 70.76 475.80 99.60 484.02 128.88 490.06 C 133.37 490.80 137.20 493.99 141.91 493.68 C 139.93 509.03 135.99 524.28 137.92 539.88 C 131.92 539.20 125.85 537.97 119.88 539.55 C 93.36 539.43 66.82 538.68 40.29 538.62 Z" />
<path fill="#d1e77f" opacity="1.00" d=" M 307.99 517.27 C 312.56 521.80 319.26 517.44 324.31 520.60 C 326.30 521.81 328.54 522.44 330.84 522.72 C 324.78 532.45 325.23 545.43 329.54 555.78 C 328.01 554.46 326.50 553.14 325.00 551.80 C 317.92 550.88 310.77 551.14 303.74 552.29 C 297.80 552.44 293.78 557.65 288.12 558.82 C 281.69 563.49 275.37 568.11 270.07 574.11 C 266.33 581.02 262.69 587.98 259.40 595.14 C 255.04 589.36 254.87 581.83 254.35 574.92 C 254.57 567.69 258.51 560.88 257.29 553.52 C 265.18 554.55 272.33 550.40 279.28 547.35 C 284.16 544.35 289.67 541.35 292.10 535.85 C 298.71 534.38 301.25 527.04 307.43 524.50 C 307.56 522.08 307.77 519.67 307.99 517.27 Z" />
<path fill="#d1e77f" opacity="1.00" d=" M 205.24 525.24 C 211.30 520.83 219.78 519.84 226.44 523.53 C 235.17 528.25 245.02 533.72 248.16 543.86 C 251.05 549.56 252.94 555.75 252.36 562.22 C 246.72 555.97 237.08 560.42 230.78 555.23 C 224.64 548.84 217.26 542.43 208.00 541.78 C 199.79 543.70 191.42 545.14 182.95 544.18 C 190.80 538.33 196.24 529.55 205.24 525.24 Z" />
<path fill="#d1e77f" opacity="1.00" d=" M 424.19 526.33 C 431.96 525.05 440.66 522.54 447.92 526.97 C 448.53 526.42 449.14 525.88 449.76 525.34 C 450.86 527.29 452.10 529.17 453.70 530.76 C 453.25 531.47 452.80 532.19 452.37 532.92 C 456.42 536.30 456.66 543.12 462.10 544.86 C 466.89 546.31 469.97 550.55 474.29 552.82 C 480.54 555.16 487.35 554.42 493.77 553.30 C 492.91 559.92 492.93 566.70 494.64 573.20 C 494.88 575.36 496.38 577.81 494.97 579.85 C 491.15 585.98 489.10 592.93 486.59 599.64 C 485.15 586.88 480.74 572.94 469.33 565.71 C 463.44 560.55 455.98 557.12 448.13 556.60 C 438.87 555.80 429.25 554.06 420.14 556.77 C 425.92 547.63 427.99 536.67 424.19 526.33 Z" />
<path fill="#d1e77f" opacity="1.00" d=" M 532.53 527.39 C 547.19 524.80 557.80 538.06 563.42 549.82 C 555.70 549.47 547.64 547.05 540.16 550.07 C 536.20 551.50 533.61 554.93 530.43 557.48 C 526.10 560.27 520.91 561.27 515.85 561.66 C 509.36 562.41 505.69 568.63 499.94 571.01 C 496.46 558.71 503.14 546.22 512.88 538.95 C 518.16 533.10 526.15 531.57 532.53 527.39 Z" />
<path fill="#d1e77f" opacity="1.00" d=" M 609.39 548.41 C 623.92 548.19 638.47 548.75 652.98 547.87 C 669.43 548.82 685.92 549.03 702.40 548.92 C 702.16 570.10 701.68 591.28 701.36 612.46 C 668.52 605.86 635.81 598.33 603.03 591.37 C 606.04 577.20 607.25 562.71 609.39 548.41 Z" />
<path fill="#d1e77f" opacity="1.00" d=" M 299.15 560.24 C 306.54 556.36 315.13 556.26 323.28 556.30 C 325.75 559.99 330.34 560.75 333.80 563.14 C 332.33 563.22 330.87 563.30 329.40 563.38 C 322.30 568.74 314.91 576.40 316.89 586.16 C 296.82 578.52 275.54 594.11 266.85 611.81 C 259.73 603.81 265.43 593.62 270.21 586.09 C 276.01 574.02 287.40 565.92 299.15 560.24 Z" />
<path fill="#d1e77f" opacity="1.00" d=" M 422.89 562.48 C 424.65 561.26 426.41 559.08 428.81 560.01 C 439.05 561.55 450.61 561.02 459.28 567.62 C 460.36 567.60 461.43 567.41 462.51 567.28 C 464.58 569.12 467.08 570.32 469.42 571.77 C 478.93 581.83 479.01 596.37 482.54 608.96 C 481.82 610.03 481.10 611.12 480.40 612.22 C 477.74 605.48 475.92 597.77 470.03 592.99 C 462.81 586.56 452.75 583.28 443.16 585.12 C 439.49 586.06 435.86 587.24 432.07 587.52 C 432.98 585.72 435.19 584.24 434.76 581.98 C 433.69 574.23 430.07 566.30 422.89 562.48 Z" />
<path fill="#d1e77f" opacity="1.00" d=" M 55.42 608.44 C 84.15 602.79 113.04 598.03 141.77 592.59 C 146.46 614.28 154.10 635.45 164.50 655.03 C 153.08 662.95 140.26 668.57 128.11 675.23 C 97.88 692.51 67.10 708.84 36.33 725.16 C 37.62 687.67 37.28 650.14 38.81 612.66 C 39.44 612.62 40.72 612.53 41.36 612.49 C 45.27 609.20 50.70 609.57 55.42 608.44 Z" />
<path fill="#d1e77f" opacity="1.00" d=" M 558.41 688.63 C 568.21 674.97 579.12 661.73 584.43 645.47 C 623.27 662.50 661.36 681.07 699.85 698.80 C 698.84 731.87 698.29 764.97 697.61 798.06 C 685.04 790.05 674.02 779.90 662.04 771.06 C 628.13 742.83 592.73 716.36 558.41 688.63 Z" />
<path fill="#d1e77f" opacity="1.00" d=" M 204.46 728.49 C 207.52 724.85 210.78 721.34 215.17 719.30 C 225.58 729.44 237.96 737.12 250.42 744.45 C 258.46 748.82 265.63 754.83 274.35 757.89 C 265.54 780.95 255.30 803.42 245.10 825.90 C 241.68 833.82 238.81 842.10 233.93 849.27 C 187.00 848.71 140.07 847.91 93.16 846.67 C 129.13 806.29 166.71 767.22 204.46 728.49 Z" />
<path fill="#d1e77f" opacity="1.00" d=" M 495.20 744.24 C 501.68 740.34 507.36 735.25 513.87 731.36 C 543.49 773.28 576.34 812.77 606.64 854.14 C 569.27 853.55 531.90 853.28 494.53 852.74 C 494.49 851.39 494.47 850.08 494.45 848.75 C 491.28 844.93 490.37 839.96 488.49 835.50 C 479.01 811.01 469.06 786.67 459.85 762.12 C 472.55 758.03 483.13 749.69 495.20 744.24 Z" />
<path fill="#d1e77f" opacity="1.00" d=" M 339.96 776.53 C 354.16 779.63 368.76 777.82 383.03 779.13 C 386.08 778.69 391.65 775.70 392.55 780.46 C 393.39 801.48 396.78 822.42 396.69 843.46 C 397.17 846.22 397.99 848.91 398.77 851.61 C 375.35 851.31 351.93 850.97 328.51 850.84 C 332.72 826.14 335.36 801.17 339.96 776.53 Z" />
</g>
<g id="#b2cbceff">
<path fill="#b2cbce" opacity="1.00" d=" M 392.33 134.47 C 405.08 140.90 414.97 151.51 425.31 161.12 C 424.70 160.94 423.49 160.58 422.89 160.41 C 413.37 151.02 403.58 141.79 392.33 134.47 Z" />
<path fill="#b2cbce" opacity="1.00" d=" M 401.03 185.67 C 405.38 182.97 409.88 179.80 415.12 179.32 C 426.93 180.24 438.57 185.95 445.73 195.53 C 445.88 196.17 446.18 197.45 446.33 198.09 C 444.47 199.94 442.35 201.49 440.11 202.84 C 434.38 197.19 427.00 193.50 419.62 190.48 C 415.58 188.63 411.50 184.52 406.83 187.21 C 404.90 186.71 402.96 186.20 401.03 185.67 Z" />
<path fill="#b2cbce" opacity="1.00" d=" M 348.31 180.75 C 364.33 183.76 380.24 189.30 396.68 188.60 C 400.18 189.48 403.44 191.54 407.17 191.34 C 415.16 191.01 420.23 198.32 427.37 200.58 C 431.40 201.82 434.87 204.23 437.96 207.06 C 437.26 211.31 434.42 214.66 432.36 218.31 C 427.60 215.92 422.09 216.07 417.23 213.91 C 403.81 210.65 393.28 200.84 380.09 196.96 C 368.69 193.31 357.14 189.21 348.31 180.75 Z" />
<path fill="#b2cbce" opacity="1.00" d=" M 363.68 197.79 C 369.15 199.72 374.58 201.73 380.09 203.54 C 379.77 203.78 379.13 204.27 378.81 204.52 C 373.15 203.91 367.36 202.54 363.68 197.79 Z" />
<path fill="#b2cbce" opacity="1.00" d=" M 379.42 216.59 C 379.88 212.51 381.83 205.50 387.14 206.76 C 400.07 213.83 413.66 219.85 427.80 223.95 C 422.71 228.71 419.87 235.46 419.83 242.42 C 407.69 241.62 395.33 240.06 384.06 235.11 C 376.97 231.97 377.95 222.83 379.42 216.59 Z" />
<path fill="#b2cbce" opacity="1.00" d=" M 438.95 220.36 C 439.22 215.17 442.02 210.38 447.03 208.50 C 451.59 210.73 457.85 211.57 459.68 217.07 C 454.94 218.52 450.93 221.50 446.37 223.33 C 444.04 222.00 441.54 221.02 438.95 220.36 Z" />
<path fill="#b2cbce" opacity="1.00" d=" M 427.97 232.64 C 429.36 231.04 430.78 229.46 432.16 227.85 C 432.19 229.89 432.22 231.93 432.26 233.97 C 430.83 233.52 429.40 233.08 427.97 232.64 Z" />
<path fill="#b2cbce" opacity="1.00" d=" M 365.31 260.48 C 374.48 251.80 387.24 241.22 400.52 246.54 C 406.50 247.40 412.52 248.00 418.48 249.07 C 401.33 254.63 383.23 257.91 365.31 260.48 Z" />
<path fill="#b2cbce" opacity="1.00" d=" M 283.18 259.42 C 288.31 261.18 293.83 260.91 299.12 261.94 C 292.84 262.45 286.35 262.99 280.17 261.46 C 281.17 260.77 282.17 260.09 283.18 259.42 Z" />
<path fill="#b2cbce" opacity="1.00" d=" M 304.92 261.95 C 322.54 261.61 340.09 259.37 357.74 260.07 C 340.29 262.69 322.48 262.80 304.92 261.95 Z" />
<path fill="#b2cbce" opacity="1.00" d=" M 43.70 298.72 C 44.40 298.59 45.80 298.35 46.50 298.23 C 45.36 304.34 44.34 310.47 43.13 316.57 C 39.22 311.12 44.51 304.75 43.70 298.72 Z" />
<path fill="#b2cbce" opacity="1.00" d=" M 36.59 344.26 C 37.94 338.98 39.59 333.77 41.35 328.61 C 40.14 349.52 39.35 370.48 36.96 391.30 C 35.02 380.23 36.80 369.02 38.51 358.06 C 39.73 353.22 35.32 349.07 36.59 344.26 Z" />
<path fill="#b2cbce" opacity="1.00" d=" M 42.02 427.66 C 41.75 416.91 41.68 406.09 42.43 395.35 C 44.60 396.32 46.77 397.34 48.95 398.30 C 47.47 399.29 44.93 399.66 44.83 401.82 C 43.72 410.41 43.82 419.17 42.02 427.66 Z" />
<path fill="#b2cbce" opacity="1.00" d=" M 36.07 733.60 C 35.15 729.09 40.43 727.34 43.64 725.87 C 41.49 728.79 39.11 731.56 36.07 733.60 Z" />
</g>
<g id="#5e6f6fff">
<path fill="#5e6f6f" opacity="1.00" d=" M 336.91 161.13 C 349.12 167.03 358.78 177.23 371.52 182.07 C 364.73 181.12 357.99 179.88 351.24 178.74 C 342.26 178.10 341.20 167.24 336.91 161.13 Z" />
<path fill="#5e6f6f" opacity="1.00" d=" M 412.54 165.49 C 415.76 168.35 418.82 171.38 422.20 174.06 C 419.45 173.86 416.69 173.80 413.94 173.85 C 413.42 171.07 412.93 168.29 412.54 165.49 Z" />
<path fill="#5e6f6f" opacity="1.00" d=" M 434.62 177.20 C 433.25 173.61 429.79 170.04 431.49 166.00 C 436.65 173.70 443.95 180.01 447.63 188.63 C 442.60 185.84 436.67 183.00 434.62 177.20 Z" />
<path fill="#5e6f6f" opacity="1.00" d=" M 330.72 183.16 C 333.82 181.73 337.03 180.56 340.24 179.41 C 343.01 182.29 345.61 185.35 347.83 188.67 C 342.12 186.85 336.39 185.11 330.72 183.16 Z" />
<path fill="#5e6f6f" opacity="1.00" d=" M 435.94 225.40 C 437.92 225.97 439.91 226.56 441.89 227.16 C 440.18 228.68 438.45 230.17 436.68 231.63 C 436.43 229.55 436.18 227.47 435.94 225.40 Z" />
<path fill="#5e6f6f" opacity="1.00" d=" M 352.18 236.33 C 359.94 234.72 367.96 234.61 375.84 235.09 C 378.59 236.97 380.93 239.40 383.60 241.40 C 383.18 241.76 382.33 242.48 381.91 242.84 C 372.41 239.54 361.59 240.55 352.18 236.33 Z" />
<path fill="#5e6f6f" opacity="1.00" d=" M 330.29 245.23 C 336.61 241.96 344.20 238.98 351.29 241.54 C 356.50 244.17 362.61 244.06 367.70 246.85 C 355.24 246.60 342.65 246.56 330.29 245.23 Z" />
<path fill="#5e6f6f" opacity="1.00" d=" M 304.94 254.41 C 311.16 251.53 318.08 249.42 324.99 250.57 C 336.97 251.99 350.36 249.17 361.45 253.97 C 347.29 254.02 333.14 254.79 318.98 255.22 C 314.31 255.55 309.23 257.12 304.94 254.41 Z" />
<path fill="#5e6f6f" opacity="1.00" d=" M 494.24 465.24 C 494.74 465.74 494.74 465.74 494.24 465.24 Z" />
<path fill="#5e6f6f" opacity="1.00" d=" M 276.02 897.20 C 279.91 896.11 275.17 901.31 276.02 897.20 Z" />
</g>
<g id="#c83351ff">
<path fill="#c83351" opacity="1.00" d=" M 455.42 224.27 C 457.17 223.56 458.94 222.84 460.70 222.12 C 461.47 223.51 462.24 224.91 463.03 226.30 C 460.49 225.61 457.95 224.93 455.42 224.27 Z" />
<path fill="#c83351" opacity="1.00" d=" M 444.13 234.09 C 447.88 231.44 452.09 228.57 456.95 229.73 C 453.04 232.08 448.74 233.85 444.13 234.09 Z" />
<path fill="#c83351" opacity="1.00" d=" M 333.76 318.64 C 346.83 314.63 360.69 315.60 374.18 315.51 C 371.95 325.09 370.33 334.92 370.67 344.78 C 348.00 344.87 325.38 348.11 303.62 354.52 C 276.51 363.19 253.23 380.44 232.03 399.03 C 225.66 393.01 220.52 385.68 213.13 380.81 C 228.65 366.37 246.28 354.42 264.24 343.23 C 285.97 331.54 309.85 324.38 333.76 318.64 Z" />
<path fill="#c83351" opacity="1.00" d=" M 379.45 317.61 C 390.57 315.95 401.66 319.47 412.72 320.45 C 429.92 324.56 447.49 328.00 463.66 335.42 C 464.13 340.59 469.97 341.34 473.69 343.41 C 495.20 352.43 515.28 364.93 532.99 380.09 C 537.64 383.22 541.34 387.48 544.68 391.94 C 535.71 396.32 528.65 403.53 521.83 410.63 C 507.94 392.07 488.31 378.84 468.25 367.70 C 455.07 360.92 440.57 357.49 426.80 352.19 C 410.83 348.48 394.61 345.61 378.25 344.32 C 375.64 339.77 377.89 334.84 377.59 330.00 C 377.42 325.79 378.41 321.66 379.45 317.61 Z" />
<path fill="#c83351" opacity="1.00" d=" M 206.45 386.48 C 208.21 384.84 210.97 384.12 212.73 386.17 C 218.28 391.23 223.33 396.96 227.55 403.18 C 217.79 410.53 212.62 421.77 205.08 431.07 C 199.52 439.74 194.30 448.66 189.96 458.02 C 184.38 468.31 182.26 479.95 179.02 491.09 C 175.76 506.89 171.84 522.80 172.54 539.05 C 162.87 539.28 153.18 540.01 143.51 539.35 C 142.48 534.26 143.65 529.18 144.31 524.14 C 145.33 505.44 148.93 486.93 153.99 468.92 C 159.53 453.08 168.43 438.70 175.85 423.80 C 184.63 410.26 195.28 398.08 206.45 386.48 Z" />
<path fill="#c83351" opacity="1.00" d=" M 547.23 396.48 C 558.55 408.47 567.64 422.51 574.75 437.37 C 583.56 450.63 587.56 466.17 593.09 480.91 C 598.18 498.49 601.88 516.49 603.28 534.77 C 603.77 534.92 604.73 535.24 605.21 535.40 C 601.99 536.68 603.65 540.64 603.29 543.27 C 594.26 543.85 585.19 543.40 576.18 544.17 C 575.99 532.94 571.88 522.30 570.34 511.25 C 569.13 501.58 566.10 492.27 563.00 483.07 C 558.74 469.13 554.57 454.84 546.38 442.61 C 539.90 433.32 534.78 422.65 526.03 415.23 C 530.88 406.88 538.89 401.03 547.23 396.48 Z" />
<path fill="#c83351" opacity="1.00" d=" M 247.87 458.25 L 248.04 458.30 C 252.82 459.29 257.45 460.83 262.19 461.96 C 262.32 462.56 262.58 463.78 262.71 464.38 C 257.77 462.53 252.53 461.75 247.35 463.09 C 247.34 464.27 247.34 465.45 247.34 466.64 C 246.37 467.66 245.41 468.69 244.46 469.73 C 243.58 467.44 242.38 465.29 240.73 463.47 C 243.58 462.46 246.11 460.74 247.87 458.25 Z" />
<path fill="#c83351" opacity="1.00" d=" M 495.32 460.57 C 499.09 459.65 501.60 462.80 504.36 464.72 C 506.73 466.40 510.48 466.16 511.81 469.18 C 511.83 471.68 509.68 473.18 508.02 474.69 C 506.92 467.55 500.71 464.24 495.32 460.57 Z" />
<path fill="#c83351" opacity="1.00" d=" M 470.42 476.04 C 472.17 467.48 482.40 465.81 489.44 463.39 C 485.48 470.55 478.33 474.71 470.42 476.04 Z" />
<path fill="#c83351" opacity="1.00" d=" M 482.75 480.50 C 485.46 475.00 491.78 472.48 494.46 466.69 C 491.28 472.14 491.34 481.44 482.75 480.50 Z" />
<path fill="#c83351" opacity="1.00" d=" M 255.03 467.69 C 261.12 468.95 267.22 470.66 272.20 474.54 C 265.71 475.00 259.96 471.52 255.03 467.69 Z" />
<path fill="#c83351" opacity="1.00" d=" M 500.46 467.96 C 501.71 470.57 503.11 473.21 503.53 476.11 C 501.57 479.12 498.61 481.29 496.22 483.93 C 495.53 478.18 497.79 472.89 500.46 467.96 Z" />
<path fill="#c83351" opacity="1.00" d=" M 219.16 502.31 C 222.56 489.99 226.75 476.03 238.24 468.84 C 238.52 475.83 238.08 483.14 240.54 489.81 C 230.23 492.81 228.15 504.49 223.49 512.66 C 220.75 509.88 217.44 506.58 219.16 502.31 Z" />
<path fill="#c83351" opacity="1.00" d=" M 250.46 476.49 C 248.53 475.13 249.62 472.98 250.11 471.17 C 251.53 472.47 252.95 473.79 254.37 475.11 C 254.85 478.87 255.71 482.56 256.29 486.31 C 253.98 483.21 253.54 479.06 250.46 476.49 Z" />
<path fill="#c83351" opacity="1.00" d=" M 508.77 485.93 C 512.35 481.80 514.00 476.51 517.27 472.17 C 522.05 478.67 527.47 485.11 530.26 492.76 C 530.93 502.31 532.01 513.17 525.45 521.08 C 523.64 515.75 521.36 510.60 519.78 505.19 C 517.57 497.93 510.67 493.31 508.77 485.93 Z" />
<path fill="#c83351" opacity="1.00" d=" M 278.67 475.19 C 280.84 476.72 283.02 478.26 285.22 479.75 C 285.39 480.80 285.56 481.85 285.73 482.92 C 288.19 484.44 290.61 486.02 292.98 487.70 C 285.76 487.33 282.13 480.52 278.67 475.19 Z" />
<path fill="#c83351" opacity="1.00" d=" M 260.43 477.13 C 263.99 477.93 266.06 480.87 267.69 483.89 C 264.26 482.93 260.02 481.52 260.43 477.13 Z" />
<path fill="#c83351" opacity="1.00" d=" M 244.88 478.21 C 250.15 482.24 250.22 489.88 255.60 493.61 C 255.93 496.12 256.26 498.64 256.50 501.17 C 250.07 499.98 250.44 491.63 244.51 489.68 C 243.58 485.86 243.73 481.96 244.88 478.21 Z" />
<path fill="#c83351" opacity="1.00" d=" M 271.03 479.79 C 272.18 479.66 273.33 479.55 274.49 479.44 C 278.32 486.20 285.45 490.03 289.50 496.59 C 282.22 492.17 274.98 487.68 271.03 479.79 Z" />
<path fill="#c83351" opacity="1.00" d=" M 470.44 479.86 C 472.90 480.59 475.41 480.28 477.75 479.26 C 472.89 484.35 468.81 490.23 463.11 494.48 C 464.70 489.21 467.60 484.52 470.44 479.86 Z" />
<path fill="#c83351" opacity="1.00" d=" M 476.87 486.28 C 481.71 485.00 486.72 484.85 491.67 484.32 C 490.49 486.99 489.09 489.74 486.47 491.28 C 479.84 494.95 476.05 501.76 471.18 507.29 C 472.08 500.29 477.74 495.45 481.55 489.94 C 482.46 487.00 478.62 487.27 476.87 486.28 Z" />
<path fill="#c83351" opacity="1.00" d=" M 492.76 499.89 C 494.96 493.20 500.30 488.46 504.30 482.89 C 503.68 486.21 504.39 489.49 505.90 492.47 C 501.23 494.41 497.08 497.31 492.76 499.89 Z" />
<path fill="#c83351" opacity="1.00" d=" M 262.38 487.68 C 269.56 490.37 271.24 498.06 273.60 504.50 C 268.31 502.00 267.56 494.62 260.96 494.19 C 262.05 493.71 263.14 493.23 264.24 492.75 C 263.62 491.05 263.00 489.37 262.38 487.68 Z" />
<path fill="#c83351" opacity="1.00" d=" M 293.40 493.07 C 298.09 493.00 299.16 497.80 300.77 501.23 C 303.47 506.16 301.85 511.91 302.52 517.25 C 301.55 517.40 300.58 517.55 299.61 517.72 C 297.82 509.43 295.10 501.38 293.40 493.07 Z" />
<path fill="#c83351" opacity="1.00" d=" M 240.04 494.27 C 241.39 494.80 242.75 495.32 244.10 495.86 C 246.28 501.95 251.95 505.02 257.55 507.34 C 261.52 512.14 262.54 518.58 265.02 524.17 C 259.44 527.23 253.39 529.38 247.96 532.73 C 242.01 526.61 234.96 521.50 227.07 518.20 C 230.93 510.06 233.54 500.81 240.04 494.27 Z" />
<path fill="#c83351" opacity="1.00" d=" M 278.75 505.96 C 278.29 502.49 279.13 499.07 280.71 495.98 C 283.01 497.96 285.22 500.03 287.43 502.12 C 286.40 505.81 284.59 509.44 280.91 511.09 C 279.74 509.89 278.56 508.71 277.40 507.51 C 277.74 507.13 278.41 506.35 278.75 505.96 Z" />
<path fill="#c83351" opacity="1.00" d=" M 463.35 500.29 C 465.33 499.04 467.34 497.84 469.37 496.68 C 467.60 500.06 465.71 503.36 463.83 506.69 C 463.68 504.55 463.52 502.42 463.35 500.29 Z" />
<path fill="#c83351" opacity="1.00" d=" M 477.66 507.70 C 479.91 503.30 483.99 500.45 487.51 497.16 C 487.13 500.24 488.65 502.76 491.02 504.58 C 490.24 506.39 489.45 508.21 488.68 510.03 C 488.45 509.28 488.00 507.78 487.77 507.04 C 484.40 507.31 481.03 507.61 477.66 507.70 Z" />
<path fill="#c83351" opacity="1.00" d=" M 500.69 501.81 C 503.62 500.21 506.07 497.70 509.39 496.86 C 515.37 505.81 518.54 516.25 521.90 526.38 C 516.35 529.33 511.42 533.23 506.28 536.79 C 498.90 533.65 490.73 532.88 483.66 528.83 C 483.16 522.86 486.65 517.68 491.47 514.50 C 496.22 511.47 495.60 504.35 500.69 501.81 Z" />
<path fill="#c83351" opacity="1.00" d=" M 260.48 502.24 C 260.93 500.97 261.41 499.71 261.90 498.46 C 263.73 504.37 268.70 508.22 273.59 511.57 C 277.81 514.10 276.68 519.77 277.55 523.89 C 266.44 522.17 266.77 508.92 260.48 502.24 Z" />
<path fill="#c83351" opacity="1.00" d=" M 458.23 502.47 C 459.66 506.13 459.77 510.18 458.00 513.76 C 456.41 511.80 455.10 509.64 453.99 507.39 C 454.81 507.33 456.46 507.22 457.28 507.17 C 457.58 505.59 457.89 504.03 458.23 502.47 Z" />
<path fill="#c83351" opacity="1.00" d=" M 281.37 517.14 C 286.05 515.09 290.13 511.87 291.76 506.85 C 293.13 510.04 293.73 513.47 294.19 516.90 C 290.44 513.28 285.64 516.73 281.37 517.14 Z" />
<path fill="#c83351" opacity="1.00" d=" M 460.98 519.22 C 464.80 512.78 471.82 510.21 478.98 511.99 C 473.39 513.62 469.50 517.99 465.16 521.55 C 463.63 521.04 462.32 520.07 460.98 519.22 Z" />
<path fill="#c83351" opacity="1.00" d=" M 451.38 514.83 C 455.30 519.27 458.10 525.96 464.59 526.53 C 462.09 526.73 459.56 526.59 457.12 527.31 C 455.13 523.14 451.57 519.76 451.38 514.83 Z" />
<path fill="#c83351" opacity="1.00" d=" M 474.37 521.30 C 476.08 519.58 477.95 518.03 479.98 516.70 C 479.59 519.72 479.12 522.74 478.74 525.77 C 474.88 526.59 469.64 529.16 466.38 526.47 C 469.26 526.41 472.16 526.43 475.02 525.96 C 474.81 524.39 474.59 522.85 474.37 521.30 Z" />
<path fill="#c83351" opacity="1.00" d=" M 281.95 521.62 C 284.87 522.10 287.84 521.91 290.44 520.38 C 291.70 521.63 292.93 522.89 294.17 524.17 C 295.45 524.30 296.73 524.44 298.01 524.58 C 296.47 526.99 294.91 529.40 293.31 531.78 C 290.05 529.80 286.36 528.73 282.52 529.00 C 283.90 526.51 283.46 523.91 281.95 521.62 Z" />
<path fill="#c83351" opacity="1.00" d=" M 251.83 538.04 C 257.89 534.22 264.35 531.10 270.29 527.08 C 277.46 524.60 278.34 536.07 285.68 534.93 C 278.61 542.72 268.32 547.35 258.01 548.86 C 256.08 545.18 254.07 541.54 251.83 538.04 Z" />
<path fill="#c83351" opacity="1.00" d=" M 459.27 532.22 C 466.06 531.44 472.91 533.85 479.61 531.14 C 486.71 535.98 494.88 538.80 503.31 540.18 C 498.41 547.16 489.17 549.04 481.16 549.46 C 474.45 550.27 472.12 542.00 465.96 541.10 C 461.38 540.70 461.28 535.36 459.27 532.22 Z" />
<path fill="#c83351" opacity="1.00" d=" M 141.57 544.19 C 151.43 545.40 161.39 544.51 171.30 544.78 C 172.41 558.64 172.63 572.64 175.67 586.31 C 177.21 602.12 183.74 616.73 189.99 631.13 C 196.71 646.07 205.89 659.68 215.17 673.12 C 209.67 680.01 202.51 685.45 195.01 690.00 C 170.92 665.83 158.69 633.11 148.56 601.23 C 144.64 582.46 141.71 563.38 141.57 544.19 Z" />
<path fill="#c83351" opacity="1.00" d=" M 576.18 549.96 C 584.72 547.48 593.73 549.27 602.47 548.25 C 602.45 578.91 594.07 608.83 581.73 636.69 C 574.74 657.91 561.94 676.38 546.84 692.62 C 539.89 686.74 530.77 682.76 526.90 673.98 C 536.43 660.29 546.71 646.77 552.94 631.08 C 558.48 616.71 565.43 602.88 570.07 588.17 C 572.94 575.59 575.17 562.84 576.18 549.96 Z" />
<path fill="#c83351" opacity="1.00" d=" M 216.46 679.47 C 217.99 678.03 219.61 676.30 221.86 676.28 C 228.28 683.17 233.17 691.45 240.52 697.51 C 276.49 727.56 323.34 740.88 369.00 747.25 C 370.22 755.65 369.72 764.30 368.54 772.69 C 362.33 772.34 356.09 772.95 349.90 772.26 C 318.77 766.91 286.43 761.42 259.89 743.05 C 245.99 735.42 232.55 726.89 220.58 716.45 C 213.65 708.53 205.08 702.25 198.18 694.29 C 204.46 689.59 210.94 685.07 216.46 679.47 Z" />
<path fill="#c83351" opacity="1.00" d=" M 506.50 694.50 C 512.58 690.08 517.35 684.23 523.00 679.33 C 528.97 685.23 535.13 690.93 542.49 695.09 C 526.15 715.20 505.30 731.00 483.32 744.41 C 455.84 758.25 426.35 769.33 395.46 771.80 C 388.37 772.12 381.45 774.31 374.33 773.76 C 374.27 764.78 374.90 755.81 374.93 746.84 C 388.46 745.81 401.72 742.79 415.18 741.19 C 442.14 735.16 468.06 723.97 490.36 707.57 C 491.52 707.51 492.68 707.45 493.86 707.39 C 496.26 701.57 502.35 698.87 506.50 694.50 Z" />
</g>
<g id="#8e7137ff">
<path fill="#8e7137" opacity="1.00" d=" M 334.93 365.76 C 363.61 359.41 393.97 360.08 422.07 368.83 C 431.47 372.55 441.27 375.71 449.26 382.16 C 444.61 386.22 438.18 386.47 432.62 388.57 C 409.01 392.94 384.93 392.64 361.01 392.88 C 338.30 391.64 316.27 385.70 294.44 379.93 C 306.80 372.51 321.08 369.22 334.93 365.76 Z" />
</g>
<g id="#c68216ff">
<path fill="#c68216" opacity="1.00" d=" M 291.86 385.02 C 315.93 391.10 340.13 397.30 365.00 398.75 C 380.39 398.15 395.85 399.19 411.17 397.31 C 426.38 396.10 442.37 394.32 455.59 386.12 C 455.36 409.05 455.17 432.27 449.64 454.65 C 444.17 465.64 439.13 477.35 429.94 485.85 C 419.66 496.89 406.41 505.08 391.90 509.13 C 378.45 507.82 364.33 508.82 351.66 503.29 C 345.03 500.45 338.13 498.28 331.50 495.46 C 309.32 481.80 296.67 456.25 293.99 430.85 C 291.46 415.72 291.86 400.31 291.86 385.02 Z" />
<path fill="#c68216" opacity="1.00" d=" M 359.37 516.18 C 367.12 511.98 375.92 512.56 384.35 513.67 C 389.38 516.53 391.87 521.87 390.25 527.53 C 378.53 526.43 366.73 527.92 354.99 526.70 C 355.98 523.01 357.72 519.60 359.37 516.18 Z" />
<path fill="#c68216" opacity="1.00" d=" M 349.26 538.17 C 350.68 535.09 351.95 530.25 356.39 531.50 C 368.19 533.11 380.02 531.37 391.84 532.26 C 394.36 533.89 396.77 535.82 397.94 538.69 C 381.69 537.75 365.50 539.17 349.26 538.17 Z" />
<path fill="#c68216" opacity="1.00" d=" M 350.93 543.03 C 353.76 543.15 356.58 543.28 359.41 543.41 C 361.07 552.94 362.45 562.75 359.30 572.17 C 357.59 572.70 355.89 573.26 354.19 573.83 C 353.72 573.57 352.76 573.04 352.29 572.78 C 349.31 563.21 348.74 552.82 350.93 543.03 Z" />
<path fill="#c68216" opacity="1.00" d=" M 375.08 542.72 C 377.96 542.75 380.84 542.91 383.72 543.14 C 384.56 552.41 384.41 561.69 384.47 570.98 C 378.07 573.45 370.95 574.03 364.28 572.31 C 367.46 562.59 364.60 552.78 363.27 543.09 C 366.25 543.39 369.22 543.83 372.17 544.35 C 372.53 546.83 372.81 549.33 373.11 551.82 C 374.09 548.86 374.73 545.81 375.08 542.72 Z" />
<path fill="#c68216" opacity="1.00" d=" M 388.33 543.14 C 390.03 543.48 391.73 543.85 393.43 544.23 C 396.91 552.57 396.97 561.68 396.29 570.54 C 394.29 570.39 392.26 570.36 390.31 569.89 C 387.62 564.81 390.18 558.90 389.37 553.48 C 388.78 550.06 388.24 546.62 388.33 543.14 Z" />
<path fill="#c68216" opacity="1.00" d=" M 371.92 578.25 C 379.53 580.20 386.07 574.80 393.47 574.36 C 396.12 576.61 399.19 578.27 402.29 579.84 C 402.72 582.84 403.04 585.85 403.26 588.88 C 384.77 588.42 366.25 588.24 347.77 588.62 C 348.37 584.63 349.41 580.34 352.70 577.68 C 359.02 575.57 365.64 576.63 371.92 578.25 Z" />
<path fill="#c68216" opacity="1.00" d=" M 337.99 593.96 C 358.29 592.49 378.66 593.62 398.99 593.94 C 404.31 594.69 410.05 593.56 415.02 595.98 C 419.04 600.14 414.89 606.47 409.81 606.77 C 389.03 606.37 368.27 607.99 347.51 608.74 C 342.07 608.47 335.39 608.62 331.74 603.88 C 332.86 600.24 332.93 594.17 337.99 593.96 Z" />
<path fill="#c68216" opacity="1.00" d=" M 341.78 613.51 C 363.13 613.92 384.55 611.12 405.86 612.76 C 404.82 616.88 403.02 621.01 399.75 623.85 C 390.38 625.28 380.78 623.40 371.36 624.63 C 364.13 625.90 356.69 626.36 349.38 625.63 C 343.71 624.69 343.17 617.97 341.78 613.51 Z" />
<path fill="#c68216" opacity="1.00" d=" M 367.00 630.93 C 370.15 630.03 373.41 629.76 376.66 630.19 C 379.24 648.13 388.31 664.54 399.74 678.35 C 397.57 679.02 395.39 679.87 393.09 679.81 C 376.93 679.79 360.83 681.66 344.67 681.57 C 348.00 675.52 353.27 670.83 356.90 665.00 C 362.10 654.33 366.29 642.87 367.00 630.93 Z" />
<path fill="#c68216" opacity="1.00" d=" M 380.51 629.72 C 385.40 629.71 390.31 629.64 395.18 630.32 C 396.05 636.45 399.93 641.58 403.56 646.41 C 411.42 656.27 420.89 665.05 431.89 671.32 C 422.80 672.67 413.77 674.00 405.08 677.14 C 392.45 664.09 385.17 647.05 380.51 629.72 Z" />
<path fill="#c68216" opacity="1.00" d=" M 350.09 631.32 C 354.35 631.45 358.60 631.35 362.86 631.37 C 360.01 650.27 350.47 668.41 335.88 680.89 C 326.54 678.39 317.03 676.35 307.87 673.22 C 322.65 670.65 334.15 659.41 342.84 647.83 C 345.58 642.48 349.54 637.50 350.09 631.32 Z" />
<path fill="#c68216" opacity="1.00" d=" M 300.28 673.52 C 309.88 681.12 322.71 681.29 333.86 685.30 C 331.67 689.24 329.15 693.51 324.83 695.39 C 320.42 696.51 316.33 693.69 312.20 692.61 C 305.59 690.14 298.22 689.47 292.34 685.28 C 295.43 681.67 297.97 677.65 300.28 673.52 Z" />
<path fill="#c68216" opacity="1.00" d=" M 405.01 682.15 C 415.85 677.74 427.98 679.51 439.01 675.61 C 441.08 678.31 443.08 681.06 444.90 683.95 C 435.05 686.96 425.36 690.45 415.86 694.52 C 411.72 690.89 407.15 687.41 405.01 682.15 Z" />
<path fill="#c68216" opacity="1.00" d=" M 398.60 685.48 C 399.74 684.78 400.69 683.81 401.70 682.95 C 403.38 688.11 406.55 692.59 410.59 696.19 C 398.06 696.55 385.52 694.36 373.00 695.77 C 360.03 696.11 347.05 696.75 334.08 696.27 C 336.11 693.14 337.25 689.45 339.54 686.53 C 359.22 687.02 378.92 685.24 398.60 685.48 Z" />
<path fill="#c68216" opacity="1.00" d=" M 437.40 691.65 C 442.01 691.26 446.43 689.93 450.64 688.04 C 456.31 691.25 461.27 695.85 467.82 697.27 C 455.70 703.41 443.54 709.69 430.79 714.49 C 425.58 710.06 421.02 704.91 417.43 699.09 C 424.26 697.09 430.67 693.92 437.40 691.65 Z" />
<path fill="#c68216" opacity="1.00" d=" M 275.81 695.53 C 280.17 693.33 284.25 690.40 289.00 689.09 C 299.37 694.85 311.35 696.61 322.09 701.60 C 318.08 705.59 314.85 710.57 309.87 713.44 C 298.07 708.30 287.87 700.17 275.81 695.53 Z" />
<path fill="#c68216" opacity="1.00" d=" M 327.69 700.21 C 348.38 702.95 369.26 700.26 390.02 700.47 C 397.98 700.71 405.92 702.10 413.89 701.11 C 416.12 706.20 420.27 709.88 423.78 714.03 C 416.22 714.72 408.64 714.54 401.08 714.30 C 381.81 717.04 362.37 714.27 343.03 714.75 C 335.06 714.06 327.04 715.31 319.10 714.08 C 322.34 710.50 326.19 707.38 328.32 702.94 C 328.16 702.26 327.85 700.90 327.69 700.21 Z" />
</g>
<g id="#7e9b28ff">
<path fill="#7e9b28" opacity="1.00" d=" M 210.12 546.94 C 215.16 548.68 219.77 551.41 224.15 554.41 C 218.84 557.13 220.09 563.50 224.48 566.46 C 229.82 570.24 233.74 575.50 237.09 581.04 C 250.32 596.59 264.53 612.98 268.24 633.79 C 274.11 651.61 265.70 669.60 257.64 685.21 C 257.92 676.08 248.59 673.13 241.04 673.76 C 244.19 663.18 248.15 652.60 247.62 641.36 C 247.22 625.48 243.96 609.30 235.39 595.73 C 228.03 586.79 219.00 579.36 210.63 571.41 C 204.09 564.87 205.33 554.12 210.12 546.94 Z" />
<path fill="#7e9b28" opacity="1.00" d=" M 528.56 564.89 C 533.88 563.39 537.59 559.21 541.28 555.38 C 544.19 560.35 543.57 566.71 540.37 571.39 C 533.88 581.65 525.94 590.89 518.38 600.37 C 512.22 608.63 503.06 615.20 500.94 625.89 C 494.91 642.23 498.93 659.74 502.88 676.04 C 498.86 675.93 492.65 672.44 490.45 677.45 C 488.11 684.84 486.14 692.53 486.63 700.36 C 481.02 689.88 478.25 677.84 478.16 665.97 C 476.72 653.61 475.54 640.63 479.62 628.62 C 481.80 621.55 483.70 613.65 489.82 608.85 C 499.06 598.28 511.97 591.74 520.75 580.74 C 524.95 576.43 529.37 571.38 528.56 564.89 Z" />
</g>
</svg>
