<?xml version="1.0" encoding="UTF-8" standalone="no"?>
<svg
   xmlns:dc="http://purl.org/dc/elements/1.1/"
   xmlns:cc="http://creativecommons.org/ns#"
   xmlns:rdf="http://www.w3.org/1999/02/22-rdf-syntax-ns#"
   xmlns:svg="http://www.w3.org/2000/svg"
   xmlns="http://www.w3.org/2000/svg"
   xmlns:sodipodi="http://sodipodi.sourceforge.net/DTD/sodipodi-0.dtd"
   xmlns:inkscape="http://www.inkscape.org/namespaces/inkscape"
   width="736pt"
   height="910pt"
   viewBox="0 0 736 910"
   version="1.1"
   id="svg2985"
   inkscape:version="0.48.4 r9939"
   sodipodi:docname="damacest-final-glow.svg">
  <metadata
     id="metadata3286">
    <rdf:RDF>
      <cc:Work
         rdf:about="">
        <dc:format>image/svg+xml</dc:format>
        <dc:type
           rdf:resource="http://purl.org/dc/dcmitype/StillImage" />
        <dc:title />
      </cc:Work>
    </rdf:RDF>
  </metadata>
  <defs
     id="defs3284">
    <filter
       id="filter3996"
       inkscape:label="Glow"
       inkscape:menu="Shadows and Glows"
       inkscape:menu-tooltip="Glow of object's own color at the edges"
       color-interpolation-filters="sRGB">
      <feGaussianBlur
         id="feGaussianBlur3998"
         stdDeviation="5"
         result="result91" />
      <feComposite
         id="feComposite4000"
         in2="result91"
         in="SourceGraphic"
         operator="over" />
    </filter>
    <filter
       id="filter4002"
       inkscape:label="Glow"
       inkscape:menu="Shadows and Glows"
       inkscape:menu-tooltip="Glow of object's own color at the edges"
       color-interpolation-filters="sRGB">
      <feGaussianBlur
         id="feGaussianBlur4004"
         stdDeviation="5"
         result="result91" />
      <feComposite
         id="feComposite4006"
         in2="result91"
         in="SourceGraphic"
         operator="over" />
    </filter>
    <filter
       id="filter4008"
       inkscape:label="Glow"
       inkscape:menu="Shadows and Glows"
       inkscape:menu-tooltip="Glow of object's own color at the edges"
       color-interpolation-filters="sRGB">
      <feGaussianBlur
         id="feGaussianBlur4010"
         stdDeviation="5"
         result="result91" />
      <feComposite
         id="feComposite4012"
         in2="result91"
         in="SourceGraphic"
         operator="over" />
    </filter>
    <filter
       id="filter4014"
       inkscape:label="Glow"
       inkscape:menu="Shadows and Glows"
       inkscape:menu-tooltip="Glow of object's own color at the edges"
       color-interpolation-filters="sRGB">
      <feGaussianBlur
         id="feGaussianBlur4016"
         stdDeviation="5"
         result="result91" />
      <feComposite
         id="feComposite4018"
         in2="result91"
         in="SourceGraphic"
         operator="over" />
    </filter>
    <filter
       id="filter4020"
       inkscape:label="Glow"
       inkscape:menu="Shadows and Glows"
       inkscape:menu-tooltip="Glow of object's own color at the edges"
       color-interpolation-filters="sRGB">
      <feGaussianBlur
         id="feGaussianBlur4022"
         stdDeviation="5"
         result="result91" />
      <feComposite
         id="feComposite4024"
         in2="result91"
         in="SourceGraphic"
         operator="over" />
    </filter>
    <filter
       id="filter4026"
       inkscape:label="Glow"
       inkscape:menu="Shadows and Glows"
       inkscape:menu-tooltip="Glow of object's own color at the edges"
       color-interpolation-filters="sRGB">
      <feGaussianBlur
         id="feGaussianBlur4028"
         stdDeviation="5"
         result="result91" />
      <feComposite
         id="feComposite4030"
         in2="result91"
         in="SourceGraphic"
         operator="over" />
    </filter>
    <filter
       id="filter4032"
       inkscape:label="Glow"
       inkscape:menu="Shadows and Glows"
       inkscape:menu-tooltip="Glow of object's own color at the edges"
       color-interpolation-filters="sRGB">
      <feGaussianBlur
         id="feGaussianBlur4034"
         stdDeviation="5"
         result="result91" />
      <feComposite
         id="feComposite4036"
         in2="result91"
         in="SourceGraphic"
         operator="over" />
    </filter>
    <filter
       id="filter4038"
       inkscape:label="Glow"
       inkscape:menu="Shadows and Glows"
       inkscape:menu-tooltip="Glow of object's own color at the edges"
       color-interpolation-filters="sRGB">
      <feGaussianBlur
         id="feGaussianBlur4040"
         stdDeviation="5"
         result="result91" />
      <feComposite
         id="feComposite4042"
         in2="result91"
         in="SourceGraphic"
         operator="over" />
    </filter>
    <filter
       id="filter4044"
       inkscape:label="Glow"
       inkscape:menu="Shadows and Glows"
       inkscape:menu-tooltip="Glow of object's own color at the edges"
       color-interpolation-filters="sRGB">
      <feGaussianBlur
         id="feGaussianBlur4046"
         stdDeviation="5"
         result="result91" />
      <feComposite
         id="feComposite4048"
         in2="result91"
         in="SourceGraphic"
         operator="over" />
    </filter>
  </defs>
  <sodipodi:namedview
     pagecolor="#ffffff"
     bordercolor="#666666"
     borderopacity="1"
     objecttolerance="10"
     gridtolerance="10"
     guidetolerance="10"
     inkscape:pageopacity="0"
     inkscape:pageshadow="2"
     inkscape:window-width="698"
     inkscape:window-height="480"
     id="namedview3282"
     showgrid="false"
     inkscape:zoom="1.1736419"
     inkscape:cx="87.38346"
     inkscape:cy="754.66641"
     inkscape:window-x="0"
     inkscape:window-y="0"
     inkscape:window-maximized="0"
     inkscape:current-layer="svg2985" />
  <g
     id="g3357">
    <g
       style="filter:url(#filter3996)"
       transform="matrix(1.0738016,-0.01452129,0.01499407,1.0399432,-36.306815,-11.361989)"
       id="#f4f3f2ff">
      <path
         id="path2988"
         d="m 203.64,88.42 c 37,-22.94 79.74,-34.09 122.31,-41.38 0.8,26.63 4.67,53.11 6.53,79.68 -0.55,7.91 2.8,15.99 -0.02,23.73 -16.19,-7.37 -29.62,-19.27 -44.51,-28.7 -1.45,0.26 -2.88,0.52 -4.32,0.76 -0.14,1.24 -0.28,2.48 -0.41,3.72 13.27,8.83 28.36,15.97 38.38,28.76 6.28,5.6 12.19,11.88 15.42,19.78 -6.62,4.02 -14.68,2.64 -22.04,2.81 -15.08,1.5 -29.15,-6.08 -44.08,-6.49 -4.32,-0.28 -12.43,-3.19 -13.46,2.97 9.47,5.3 20.73,2.38 30.8,5.58 15.9,5.9 33.36,5.12 49.24,11.17 0.49,6.92 2.75,13.56 3.28,20.49 2.12,7.51 -1.36,16.33 3.76,22.95 -11.87,1.8 -21.54,9.81 -33.16,11.92 -5.55,2.35 -11.51,4.17 -15.97,8.44 -9.32,0.75 -18.9,0.84 -27.58,4.81 -21.15,-57.08 -43.29,-113.84 -64.17,-171 z"
         inkscape:connector-curvature="0"
         style="fill:#f4f3f2" />
      <path
         id="path2990"
         d="m 456.2,49.57 c 23.55,7.56 46.66,16.63 68.2,28.9 10,5.4 18.31,13.4 28.19,19 3.79,2.2 6.94,5.27 10.38,7.95 -2.27,13.23 -10.93,24.05 -14.84,36.72 -20.56,49.65 -43.18,98.36 -64.32,147.76 -5.69,13.41 -13.33,26.04 -17.03,40.24 -9.46,-2.76 -18.37,-7.74 -28.32,-8.93 -7.36,-2.21 -14.69,-4.68 -22.31,-5.84 -0.54,-15.18 3.1,-30.01 5.28,-44.93 0.88,-5.26 1.61,-10.58 3.36,-15.65 -1.66,-5.97 0.7,-11.78 2,-17.54 3.39,0.55 6.65,1.59 9.7,3.17 9.1,1.77 16.85,-4.54 25.37,-6.43 3.64,-0.94 7.79,0.42 10.94,-2.15 -0.07,-0.56 -0.19,-1.68 -0.25,-2.24 -3.23,-3.33 -7.42,-7.1 -7.19,-12.13 0.15,-3.24 -2.13,-5.84 -3.38,-8.65 -0.9,-0.17 -1.79,-0.34 -2.68,-0.5 -2.48,-4.04 -7.66,-3.55 -11.73,-4.21 2.72,-2.32 5.15,-5.05 6.83,-8.23 -0.71,-4.3 -3.64,-7.88 -4.22,-12.22 -3.85,-6.12 -5.94,-13.5 -12.02,-17.94 0.09,-5.69 -0.9,-11.62 1.51,-16.98 4.48,-33.2 10.81,-66.16 16.53,-99.17 z"
         inkscape:connector-curvature="0"
         style="fill:#f4f3f2" />
      <path
         id="path2992"
         d="M 55.34,286.53 C 62.32,250.32 77.87,216.44 97,185.17 c 35.7,48.41 72.65,95.86 109.05,143.75 7.02,10.81 16.68,19.93 22.05,31.77 -13.83,10.11 -27.57,20.72 -37.35,35.02 -5.31,-4.56 -10.33,-9.51 -16.35,-13.17 -16.52,-12.79 -32.98,-25.65 -49.37,-38.6 -22.59,-19.89 -47.19,-37.39 -69.69,-57.41 z"
         inkscape:connector-curvature="0"
         style="fill:#f4f3f2" />
      <path
         id="path2994"
         d="m 655.59,247.56 c 4.47,-5.12 10.21,-8.91 14.24,-14.47 4.08,9.51 9.05,18.72 12.56,28.55 4.94,10.22 6.08,21.64 9.49,32.36 2.26,8.17 5.09,16.31 5.29,24.87 3.37,14.47 4.81,29.35 4.61,44.2 -37.33,22.82 -76.26,42.96 -114.43,64.35 -2.96,1.73 -5.86,3.7 -9.2,4.61 -5.78,-13.59 -15.85,-24.5 -23.24,-37.13 -1.01,-0.49 -2.01,-0.97 -3.01,-1.45 -3.75,-7.36 -9.09,-13.8 -15.81,-18.62 39.93,-42.33 80.39,-84.16 119.5,-127.27 z"
         inkscape:connector-curvature="0"
         style="fill:#f4f3f2" />
      <path
         id="path2996"
         d="m 270.79,267.41 c 6.88,2.27 14.15,0.79 21.22,1.49 18.21,1.02 36.37,-0.74 54.56,-0.71 2.61,13.64 0.14,28.16 4.73,41.26 -19.7,1.1 -38.45,8.08 -56.97,14.35 -2.44,-2.92 -2.82,-6.75 -4.08,-10.2 -7.91,-14.75 -12.88,-30.82 -19.46,-46.19 z"
         inkscape:connector-curvature="0"
         style="fill:#f4f3f2" />
      <path
         id="path2998"
         d="m 367.89,351.04 c 11.07,-1.5 22.27,-0.13 33.15,2.1 22.07,2.17 42.81,10.5 62.94,19.29 -1.26,2.42 -3.39,4.12 -6.11,4.59 -0.38,0.53 -1.13,1.58 -1.51,2.1 -3.69,-1.56 -7.09,-3.66 -10.37,-5.92 -33.45,-17.39 -73.01,-20.63 -109.65,-13.91 -16.13,4.49 -33.32,7.32 -47.56,16.57 -3.52,0.07 -6.74,-1.66 -9.85,-3.11 26.64,-16.27 58.38,-20.32 88.96,-21.71 z"
         inkscape:connector-curvature="0"
         style="fill:#f4f3f2" />
      <path
         id="path3000"
         d="m 254.56,388.58 c 5.49,-5.38 12.96,-8.04 18.7,-13.1 2.69,3.59 7.14,4.68 11.37,5.23 1.31,26.06 0.21,53.05 9.69,77.86 3.81,9.26 10.3,17.04 15.96,25.21 0.81,4.76 4.62,8.13 8.73,10.22 8.87,6.44 19.28,10.26 29.59,13.74 -5.9,2.56 -12.07,5.48 -15.88,10.89 -6.94,-4.95 -15.82,-6.54 -23.99,-3.92 -0.89,-2.15 -1.38,-4.42 -1.31,-6.75 0.2,-6.38 -5.36,-11.7 -3.96,-18.15 -3.37,-5.81 -12.29,-6.09 -13.38,-13.48 -5.4,-4.01 -11.06,-7.43 -17.75,-8.79 -5.73,-0.91 -3.97,-9.29 -9.58,-10.23 -4.95,-0.99 -10.03,-1.66 -15.09,-1.52 0.09,0.63 0.28,1.88 0.38,2.51 l -0.17,-0.05 c -3.7,-2.25 -8.16,0.66 -9.68,4.21 -2.49,-6.02 -2.16,-12.71 -0.6,-18.92 -7.02,-4.26 -10.4,-12.4 -9.35,-20.48 1.26,-3.73 2.64,-7.44 3.56,-11.28 -0.58,-0.55 -1.74,-1.67 -2.33,-2.23 8.13,-7.16 17.49,-13.08 25.09,-20.97 z"
         inkscape:connector-curvature="0"
         style="fill:#f4f3f2" />
      <path
         id="path3002"
         d="m 460.34,381.56 c 3.32,-1.25 6.32,-3.19 8.88,-5.65 19.4,9.08 35.59,24.16 49.44,40.26 -1.32,7.75 6.46,13.85 4.1,21.88 -0.27,5.31 -6.93,8.14 -5.84,13.94 2.15,5.02 2.27,10.46 1.64,15.82 -3.14,-4.76 -8.1,-7.39 -13.38,-9.11 -10.22,-6.59 -21.62,1.54 -31.46,5.03 -4.74,1.14 -7.27,5.27 -9.56,9.19 -9.94,3.88 -9.55,17.03 -15.59,24.6 -3.41,3.47 -1.59,8.2 -0.87,12.28 -2.2,3.14 -2.54,7.04 -0.86,10.51 -7.9,-4.06 -16.92,-0.39 -25.19,0.22 -2.91,-5.37 -9,-7.45 -14.38,-9.41 0.04,-0.38 0.12,-1.15 0.16,-1.54 13.77,-6.27 24.92,-17.08 34.69,-28.48 8.51,-15.48 18.47,-31.8 17.42,-50.13 0.1,-4.3 2.33,-8.88 0.09,-12.97 l 1,0.85 c 0.87,-12.42 -0.65,-24.78 -0.29,-37.29 z"
         inkscape:connector-curvature="0"
         style="fill:#f4f3f2" />
      <path
         id="path3004"
         d="m 44.83,401.82 c 0.1,-2.16 2.64,-2.53 4.12,-3.52 35.27,16.99 70.89,33.48 106.04,50.57 -4.55,12.37 -9.09,24.85 -11.97,37.8 -23.74,-1.87 -46.44,-9.99 -69.88,-13.93 -10.6,-2.95 -21.9,-3.69 -31.9,-8.51 0.5,-12.18 0.17,-24.42 0.78,-36.57 1.8,-8.49 1.7,-17.25 2.81,-25.84 z"
         inkscape:connector-curvature="0"
         style="fill:#f4f3f2" />
      <path
         id="path3006"
         d="m 195.85,460.73 c 2.35,-6.85 6.77,-12.7 10.17,-19.04 -3.56,11.16 -4.23,23 -7.01,34.33 -2.17,5.13 -1.08,10.83 -1.69,16.23 -1.31,9.89 3.38,19.3 3.31,29.11 -0.57,0.09 -1.73,0.26 -2.31,0.34 -6.51,6.66 -13.16,13.21 -19.82,19.71 1.82,-6.05 1.36,-12.45 1.96,-18.68 1.14,-21.47 8.09,-41.95 15.39,-62 z"
         inkscape:connector-curvature="0"
         style="fill:#f4f3f2" />
      <path
         id="path3008"
         d="m 543.78,450.34 c 12.76,24.54 18.45,51.77 23.93,78.57 -0.14,6.51 3.49,12.54 1.79,19.18 -5.93,-8.38 -10.63,-18.53 -20.42,-23.26 3.19,-7.9 3.72,-16.46 3.56,-24.88 1.78,-17.04 -4.84,-33.32 -8.86,-49.61 z"
         inkscape:connector-curvature="0"
         style="fill:#f4f3f2" />
      <path
         id="path3010"
         d="m 604.19,504.49 c 32.81,-6.61 65.75,-13 98.65,-18.97 0.18,19.43 -0.14,38.85 -0.25,58.27 -30.86,1.78 -61.81,0.46 -92.69,0.04 -0.11,-9.4 -2.34,-18.52 -2.89,-27.86 -1.45,-3.79 0.33,-8.39 -2.82,-11.48 z"
         inkscape:connector-curvature="0"
         style="fill:#f4f3f2" />
      <path
         id="path3012"
         d="m 337.53,524.45 c 3.03,-6.04 9.44,-9.16 15.71,-10.71 -3.33,3.87 -3.1,9.15 -3.56,13.93 -3.87,3.47 -9.46,11.24 -2.87,14.78 -2.82,8.88 -2.41,18.38 -0.8,27.45 -2,-4.73 -6.17,-7.77 -9.46,-11.47 -3.35,-10.92 -5.08,-23.59 0.98,-33.98 z"
         inkscape:connector-curvature="0"
         style="fill:#f4f3f2" />
      <path
         id="path3014"
         d="m 392.72,514.47 c 9.24,-1.41 16.78,5.38 23.37,10.83 5.16,6.61 4.17,15.71 1.17,23.03 -2.02,4.32 -6.64,7.74 -5.9,12.99 -2.82,2.01 -5.6,4.1 -8.14,6.47 0.02,-7.77 1.52,-16.71 -4.21,-23.02 1.43,-0.2 2.88,-0.41 4.32,-0.61 0.02,-2.41 0.05,-4.81 0.15,-7.21 -2.11,-3.64 -5.97,-6.23 -7.38,-10.17 1.4,-4.58 -0.64,-8.73 -3.38,-12.31 z"
         inkscape:connector-curvature="0"
         style="fill:#f4f3f2" />
      <path
         id="path3016"
         d="m 39.87,543.29 c 23.14,-0.22 46.23,1.23 69.37,1.18 9.09,-0.57 18.28,2.83 27.21,-0.02 0.75,14.08 0.61,28.37 3.44,42.21 -4.01,2.48 -8.75,2.47 -13.27,2.96 -24.04,5.77 -48.47,9.71 -72.78,14.1 -4.83,1.26 -9.83,1.14 -14.77,1.12 0.1,-20.52 0.51,-41.04 0.8,-61.55 z"
         inkscape:connector-curvature="0"
         style="fill:#f4f3f2" />
      <path
         id="path3018"
         d="m 177.67,546.62 c 6.14,5.37 14.36,2.86 21.68,3.95 0.82,-0.61 1.65,-1.21 2.49,-1.79 -0.84,0.88 -1.56,1.87 -2.3,2.84 -1.52,11.21 3.75,22.55 13.31,28.58 8.88,10.79 21.71,19.57 24.81,33.99 3.77,12.43 3.42,25.59 2.91,38.42 -2.4,8.94 -4.76,17.97 -8.63,26.42 -2.25,-3.09 -4.33,-6.28 -6.72,-9.25 -4.31,0.66 -6.85,-2.99 -9.06,-6.01 -6.9,-9.6 -14.4,-19.04 -18.25,-30.37 -8.53,-15.42 -13.31,-32.7 -17.41,-49.8 0.05,-12.33 -1.26,-24.73 -2.83,-36.98 z"
         inkscape:connector-curvature="0"
         style="fill:#f4f3f2" />
      <path
         id="path3020"
         d="m 546.86,554.26 c 6.69,-0.91 13.04,1.63 19.61,2.27 0.78,-0.78 1.56,-1.55 2.36,-2.31 0.33,23.08 -8.15,45.07 -18.12,65.47 -6.25,17.08 -16.14,32.53 -27.05,46.98 -2.07,3.64 -6.24,5.76 -7.31,10.01 -1.92,1.51 -3.81,3.04 -5.63,4.68 -4.76,-15.19 -9.76,-31.66 -5.49,-47.53 1.66,-17.62 17.83,-27.96 27.09,-41.63 8.14,-10.56 20.71,-23.63 14.54,-37.94 z"
         inkscape:connector-curvature="0"
         style="fill:#f4f3f2" />
      <path
         id="path3022"
         d="m 230.99,563.02 c 6.19,1.28 12.45,1.92 18.77,1.56 -1.57,6.38 -1.91,12.98 -2.02,19.53 -6.2,-6.52 -11.51,-13.8 -16.75,-21.09 z"
         inkscape:connector-curvature="0"
         style="fill:#f4f3f2" />
      <path
         id="path3024"
         d="m 405.39,575.55 c 2.87,-3.81 6.12,-7.79 10.79,-9.34 9.67,0.69 14.55,12.86 10.19,20.91 0.47,0.46 1.42,1.38 1.9,1.84 -2.92,1.8 -5.81,3.69 -8.37,5.99 -2.76,-4.02 -7.11,-6.49 -12.09,-5.75 -0.46,-4.6 -0.51,-9.36 -2.42,-13.65 z"
         inkscape:connector-curvature="0"
         style="fill:#f4f3f2" />
      <path
         id="path3026"
         d="m 325.9,574.87 c 3.07,-3.38 6.89,-5.95 11.07,-7.76 2.22,3.52 4.66,6.94 7.89,9.62 -0.64,3.95 -2,7.86 -1.27,11.91 -4.12,0.14 -8.95,-0.39 -11.98,3.02 -2.48,2.95 -5.87,-0.56 -8.13,-2.09 0.06,-4.88 -2.17,-11.22 2.42,-14.7 z"
         inkscape:connector-curvature="0"
         style="fill:#f4f3f2" />
      <path
         id="path3028"
         d="m 503.37,576.69 c 6.3,-4.3 11.53,-12.09 20.34,-9.35 -6.75,12.79 -18.55,21.96 -30.03,30.32 2.67,-7.21 7.71,-13.4 9.69,-20.97 z"
         inkscape:connector-curvature="0"
         style="fill:#f4f3f2" />
      <path
         id="path3030"
         d="m 277.83,605.84 c 8.21,-10.06 21.41,-17.65 34.73,-15.15 4.39,2.8 8.76,5.74 13.91,7.02 -0.06,6.5 2.72,14.04 10.08,15 0.43,6.54 2.99,13.64 8.28,17.83 -4.65,15.23 -16.59,27.54 -30.49,34.82 -5.91,3.43 -12.77,3.03 -19.32,3.5 -3.6,15.4 -20.61,22.19 -34.61,24.93 3.24,-5.25 4.78,-11.39 8.64,-16.28 1.56,-4.83 3.27,-9.91 7.47,-13.13 -0.8,-0.01 -2.4,-0.03 -3.2,-0.05 0.52,-0.26 1.57,-0.78 2.09,-1.04 0.07,-6.66 3.25,-13.18 1.4,-19.85 -0.96,-8.55 -3.17,-16.95 -6.66,-24.82 4.2,-3.09 4.4,-8.91 7.68,-12.78 z"
         inkscape:connector-curvature="0"
         style="fill:#f4f3f2" />
      <path
         id="path3032"
         d="m 421.94,600.05 c 7.89,-6.21 17.94,-9.6 28.05,-9 6.44,-0.52 13.18,1.5 17.64,6.34 5.35,5.69 6.19,13.86 9.11,20.81 -1.33,7.71 -5.5,14.79 -5.01,22.82 -0.5,18.13 1.09,36.47 5.99,53.9 -4.46,-0.94 -7.54,-4.96 -12.13,-5.46 -6,-0.74 -10.04,-5.58 -14.89,-8.63 -0.08,-0.47 -0.24,-1.41 -0.32,-1.88 -4.85,-1.29 -5.8,-5.8 -5.19,-10.22 -12.02,0.62 -21,-9.24 -28.94,-16.98 -6.72,-5.51 -11.28,-13.02 -16.23,-20.05 5.64,-4.24 10.88,-10.83 10.18,-18.25 4.32,-0.87 7.14,-4.24 9.91,-7.36 0.53,-2.03 0.91,-4.14 1.83,-6.04 z"
         inkscape:connector-curvature="0"
         style="fill:#f4f3f2" />
      <path
         id="path3034"
         d="m 602.51,595.05 c 32.91,6.57 65.56,15.07 98.29,21.98 0.42,25.12 -0.82,50.24 -1.25,75.34 -37.19,-15.31 -73.47,-33.22 -110.26,-49.71 -2.04,-0.38 -2.73,-2.28 -1.8,-4.04 6.01,-14.14 11.12,-28.72 15.02,-43.57 z"
         inkscape:connector-curvature="0"
         style="fill:#f4f3f2" />
      <path
         id="path3036"
         d="m 146.9,670.85 c 6.52,-3.21 12.56,-7.85 19.92,-8.96 6.67,12.24 15.37,23.31 25.22,33.14 1.79,1.56 -0.72,3.22 -1.35,4.67 1.19,-0.58 2.37,-1.15 3.57,-1.7 4.82,5.63 9.79,11.19 15.47,15.99 -3.03,1.16 -2.62,5.04 -4.83,7.04 -39.43,41.92 -79.57,83.3 -118.34,125.76 -16.23,-0.1 -32.45,-0.4 -48.66,-1.02 -1.29,-0.03 -2.37,-0.78 -3.47,-1.33 -0.65,-36.96 1.67,-73.89 1.64,-110.84 3.04,-2.04 5.42,-4.81 7.57,-7.73 34.47,-18.22 68.82,-36.74 103.26,-55.02 z"
         inkscape:connector-curvature="0"
         style="fill:#f4f3f2" />
      <path
         id="path3038"
         d="m 237.03,685.06 c -0.11,-7.64 8.8,-5.46 13.55,-4.29 0.9,5.28 -1.33,10.15 -2.7,15.11 -3.6,-3.63 -7.38,-7.07 -10.85,-10.82 z"
         inkscape:connector-curvature="0"
         style="fill:#f4f3f2" />
      <path
         id="path3040"
         d="m 495.29,681.55 c 1.97,-0.14 3.96,-0.07 5.95,-0.08 1.62,1.78 3.3,3.51 4.98,5.24 -4.84,3.44 -9.04,7.69 -13.86,11.15 -0.3,-5.6 1.48,-10.98 2.93,-16.31 z"
         inkscape:connector-curvature="0"
         style="fill:#f4f3f2" />
      <path
         id="path3042"
         d="m 555.33,692.97 c 29.46,21.15 57.33,44.49 85.91,66.81 18.35,15.5 38.19,29.2 55.63,45.77 0.12,16.33 -0.4,32.66 -1.29,48.94 -27.35,0.6 -54.76,0.21 -82.11,-0.56 -27.28,-35.09 -55.12,-70.02 -81.5,-105.92 -4.2,-6.81 -10.67,-12.06 -14.12,-19.36 10.1,-8.18 18.65,-17.91 27.72,-27.17 1.07,-1.25 2.71,-1.69 4.13,-2.4 1.57,-2.31 3.56,-4.26 5.63,-6.11 z"
         inkscape:connector-curvature="0"
         style="fill:#f4f3f2" />
      <path
         id="path3044"
         d="m 255.7,702.24 c 4.17,-2.65 9.35,-5.03 14.34,-3.35 13.3,3.63 24.25,12.29 36.06,19 -3.65,2.11 -7.78,6.61 -12.28,4.14 -13.14,-5.73 -26.08,-12.05 -38.12,-19.79 z"
         inkscape:connector-curvature="0"
         style="fill:#f4f3f2" />
      <path
         id="path3046"
         d="m 433.97,719.85 c 14.16,-5.8 27.01,-13.92 41.15,-19.87 2.11,2.38 4.55,4.64 7.82,5.2 -13.27,8.67 -27.08,17.12 -42.34,21.76 -2.16,-2.42 -4.46,-4.69 -6.63,-7.09 z"
         inkscape:connector-curvature="0"
         style="fill:#f4f3f2" />
      <path
         id="path3048"
         d="m 312.34,719.18 c 16.41,2.62 33.17,0.45 49.7,1.71 22.07,-0.03 44.25,1.1 66.31,-0.35 -0.33,4.09 3.06,6.55 6.28,8.23 -12.24,4.92 -25.27,7.58 -38.39,8.78 -9.28,1.78 -18.72,2.86 -28.16,3.09 -21.09,-1.73 -41.74,-7.14 -61.54,-14.41 1.69,-2.51 3,-5.58 5.8,-7.05 z"
         inkscape:connector-curvature="0"
         style="fill:#f4f3f2" />
      <path
         id="path3050"
         d="m 279.95,760.94 c 11.42,4.57 23.27,8.11 35.26,10.84 6.24,0.91 12.05,4.19 18.49,3.62 -0.27,18.38 -5.69,36.23 -7.99,54.42 -0.91,7.12 -3.97,13.78 -4.28,21.02 -27.12,-0.58 -54.24,-1 -81.36,-1.41 13.18,-29.54 25.64,-59.43 39.88,-88.49 z"
         inkscape:connector-curvature="0"
         style="fill:#f4f3f2" />
      <path
         id="path3052"
         d="m 398.24,777.51 c 19.73,-1.31 38.59,-7.41 57.19,-13.69 11.24,29.65 22.66,59.23 33.66,88.98 -28.3,-0.33 -56.6,-0.19 -84.88,-1.07 -2.36,-24.67 -5.46,-49.41 -5.97,-74.22 z"
         inkscape:connector-curvature="0"
         style="fill:#f4f3f2" />
    </g>
    <g
       transform="matrix(1.0738016,-0.01452129,0.01499407,1.0399432,-36.306815,-11.361989)"
       id="#1b1518ff">
      <path
         id="path3055"
         d="m 294.66,46.66 c 39.19,-9.96 79.87,-15.22 120.29,-11.97 39.18,5.13 76.92,19.07 111.68,37.6 11.04,5.5 19.44,15 30.63,20.29 18.92,14.61 38.24,29.04 54.44,46.75 18.31,20.32 36.87,41 49.55,65.44 16.31,26.72 29.89,55.44 36.96,86.06 8.6,37.41 11.59,75.88 12.22,114.18 -2.21,11.53 -1,23.32 -1.23,34.99 -1.98,50.98 -2.05,102.01 -3.06,153.04 0.26,7.56 -0.67,15.19 0.43,22.72 -1.27,2.96 -1.16,6.2 -1.01,9.35 -0.27,23.42 -0.82,46.83 -1.36,70.24 0.94,0.95 1.9,1.94 2.81,2.95 -0.98,0.58 -1.95,1.15 -2.92,1.74 -0.32,53.25 -3.19,106.53 -1.57,159.78 -6.32,1.43 -12.86,0.55 -19.27,0.54 -29.06,-1.29 -58.17,-1.08 -87.25,-1.27 -23.31,-1.12 -46.67,-0.75 -70,-1.03 -165.29,-2.5 -330.49,-4.13 -495.74,-7.73 -1.44,-2.3 -2.79,-4.67 -3.59,-7.28 2.13,-5.78 1.73,-12.02 1.83,-18.06 1.69,-94.02 4.72,-187.99 6.35,-282.05 -0.39,-0.44 -1.16,-1.31 -1.55,-1.75 2.36,-3.31 1.46,-7.41 1.57,-11.19 1.06,-18.65 0.99,-37.35 1.04,-56.04 0.1,-2.52 -0.42,-5 -1.19,-7.39 0.47,-0.33 1.42,-1 1.89,-1.33 0.68,-13.99 -0.32,-28.02 0.86,-41.98 0.21,-10.66 0.81,-21.38 -0.51,-31.96 2.39,-20.82 3.18,-41.78 4.39,-62.69 0.35,-4.04 1.1,-8.04 1.78,-12.04 1.21,-6.1 2.23,-12.23 3.37,-18.34 2.59,-11.18 4.88,-22.44 8.34,-33.39 3.5,-17.07 11.15,-32.86 18.37,-48.59 6.4,-11.11 11.24,-23.08 18.24,-33.86 8.37,-12.06 15.98,-24.89 26.92,-34.89 20.51,-22.57 45.25,-40.71 70.51,-57.57 3.35,-1.81 6.33,-4.18 9.03,-6.84 1.96,-0.46 3.75,-1.35 5.42,-2.47 4.93,-0.3 8.35,-4.53 12.6,-6.6 25.02,-12.19 51.25,-22.3 78.73,-27.36 m 35.06,-0.26 c 4.22,33.34 6.6,66.86 10.5,100.24 2.86,2.98 3.24,7.31 1.45,10.95 9.55,5.68 18.99,11.59 28.44,17.34 6.36,6.23 15.4,11.51 24.54,8.77 5.3,-3.73 10.65,-7.52 16.82,-9.72 -3.5,-3.36 -3.89,-8.33 -5.82,-12.53 -2.35,-5.69 -6.95,-10.02 -9.36,-15.69 -5.52,-7.75 -18,-11.37 -18.2,-22.3 9.96,-1.14 17.6,6.21 25.41,11.11 9.54,8.45 21.04,15.49 27.62,26.63 2.46,-5.04 2.41,-10.68 3.24,-16.09 6.49,-32.03 10.79,-64.47 16.72,-96.57 -11.75,-3.38 -23.92,-4.71 -35.92,-6.82 -28.47,-1.15 -57.37,-1.24 -85.44,4.68 M 203.64,88.42 c 20.88,57.16 43.02,113.92 64.17,171 8.68,-3.97 18.26,-4.06 27.58,-4.81 4.46,-4.27 10.42,-6.09 15.97,-8.44 11.62,-2.11 21.29,-10.12 33.16,-11.92 -5.12,-6.62 -1.64,-15.44 -3.76,-22.95 -0.53,-6.93 -2.79,-13.57 -3.28,-20.49 -15.88,-6.05 -33.34,-5.27 -49.24,-11.17 -10.07,-3.2 -21.33,-0.28 -30.8,-5.58 1.03,-6.16 9.14,-3.25 13.46,-2.97 14.93,0.41 29,7.99 44.08,6.49 7.36,-0.17 15.42,1.21 22.04,-2.81 -3.23,-7.9 -9.14,-14.18 -15.42,-19.78 -10.02,-12.79 -25.11,-19.93 -38.38,-28.76 0.13,-1.24 0.27,-2.48 0.41,-3.72 1.44,-0.24 2.87,-0.5 4.32,-0.76 14.89,9.43 28.32,21.33 44.51,28.7 2.82,-7.74 -0.53,-15.82 0.02,-23.73 -1.86,-26.57 -5.73,-53.05 -6.53,-79.68 -42.57,7.29 -85.31,18.44 -122.31,41.38 M 456.2,49.57 c -5.72,33.01 -12.05,65.97 -16.53,99.17 -2.41,5.36 -1.42,11.29 -1.51,16.98 6.08,4.44 8.17,11.82 12.02,17.94 0.58,4.34 3.51,7.92 4.22,12.22 -1.68,3.18 -4.11,5.91 -6.83,8.23 4.07,0.66 9.25,0.17 11.73,4.21 0.89,0.16 1.78,0.33 2.68,0.5 1.25,2.81 3.53,5.41 3.38,8.65 -0.23,5.03 3.96,8.8 7.19,12.13 0.06,0.56 0.18,1.68 0.25,2.24 -3.15,2.57 -7.3,1.21 -10.94,2.15 -8.52,1.89 -16.27,8.2 -25.37,6.43 -3.05,-1.58 -6.31,-2.62 -9.7,-3.17 -1.3,5.76 -3.66,11.57 -2,17.54 -1.75,5.07 -2.48,10.39 -3.36,15.65 -2.18,14.92 -5.82,29.75 -5.28,44.93 7.62,1.16 14.95,3.63 22.31,5.84 9.95,1.19 18.86,6.17 28.32,8.93 3.7,-14.2 11.34,-26.83 17.03,-40.24 21.14,-49.4 43.76,-98.11 64.32,-147.76 3.91,-12.67 12.57,-23.49 14.84,-36.72 -3.44,-2.68 -6.59,-5.75 -10.38,-7.95 -9.88,-5.6 -18.19,-13.6 -28.19,-19 C 502.86,66.2 479.75,57.13 456.2,49.57 m -297.35,69.26 c -22.4,17.95 -43.73,37.93 -59.46,62.13 29.41,39.68 59.2,79.09 89.79,117.88 14.78,19.15 28.61,39.07 44.2,57.59 17.42,-11.12 34.18,-23.88 54.26,-29.9 -1.48,-4.11 -3.06,-8.18 -4.84,-12.17 C 272.1,281.2 258.76,248.96 246.87,216.22 230.7,174.35 215.35,132.2 199.28,90.3 c -14.43,8.11 -27.14,18.79 -40.43,28.53 m 394.34,24.38 c -28.19,62.54 -54.62,125.96 -83.52,188.21 12.77,7.39 26.95,12.8 37.87,22.99 8.66,5.29 16.51,11.73 24.79,17.57 11.89,-11.7 23.32,-23.86 34.71,-36.04 26.98,-29.32 54.91,-57.78 81.55,-87.42 6.69,-6.33 11.49,-14.35 18.36,-20.53 -13.27,-25.31 -28.2,-50.03 -48.03,-70.79 -14.67,-17.78 -31.56,-33.71 -50.23,-47.24 -6.33,10.56 -9.34,22.61 -15.5,33.25 m -160.86,-8.74 c 11.25,7.32 21.04,16.55 30.56,25.94 0.6,0.17 1.81,0.53 2.42,0.71 -10.34,-9.61 -20.23,-20.22 -32.98,-26.65 m -55.42,26.66 c 4.29,6.11 5.35,16.97 14.33,17.61 6.75,1.14 13.49,2.38 20.28,3.33 -12.74,-4.84 -22.4,-15.04 -34.61,-20.94 m 75.63,4.36 c 0.39,2.8 0.88,5.58 1.4,8.36 2.75,-0.05 5.51,0.01 8.26,0.21 -3.38,-2.68 -6.44,-5.71 -9.66,-8.57 m 22.08,11.71 c 2.05,5.8 7.98,8.64 13.01,11.43 -3.68,-8.62 -10.98,-14.93 -16.14,-22.63 -1.7,4.04 1.76,7.61 3.13,11.2 m -33.59,8.47 c 1.93,0.53 3.87,1.04 5.8,1.54 4.67,-2.69 8.75,1.42 12.79,3.27 7.38,3.02 14.76,6.71 20.49,12.36 2.24,-1.35 4.36,-2.9 6.22,-4.75 -0.15,-0.64 -0.45,-1.92 -0.6,-2.56 -7.16,-9.58 -18.8,-15.29 -30.61,-16.21 -5.24,0.48 -9.74,3.65 -14.09,6.35 m -70.31,-2.51 c 5.67,1.95 11.4,3.69 17.11,5.51 -2.22,-3.32 -4.82,-6.38 -7.59,-9.26 -3.21,1.15 -6.42,2.32 -9.52,3.75 m 17.59,-2.41 c 8.83,8.46 20.38,12.56 31.78,16.21 13.19,3.88 23.72,13.69 37.14,16.95 4.86,2.16 10.37,2.01 15.13,4.4 2.06,-3.65 4.9,-7 5.6,-11.25 -3.09,-2.83 -6.56,-5.24 -10.59,-6.48 -7.14,-2.26 -12.21,-9.57 -20.2,-9.24 -3.73,0.2 -6.99,-1.86 -10.49,-2.74 -16.44,0.7 -32.35,-4.84 -48.37,-7.85 M 55.34,286.53 c 22.5,20.02 47.1,37.52 69.69,57.41 16.39,12.95 32.85,25.81 49.37,38.6 6.02,3.66 11.04,8.61 16.35,13.17 9.78,-14.3 23.52,-24.91 37.35,-35.02 -5.37,-11.84 -15.03,-20.96 -22.05,-31.77 C 169.65,281.03 132.7,233.58 97,185.17 77.87,216.44 62.32,250.32 55.34,286.53 M 349.1,233 c 7.67,-4.43 16.89,-3.11 25.36,-3.75 -2.89,-5.97 -0.19,-12.46 0.82,-18.54 -6.99,-3.31 -17.1,-4.88 -17.65,-14.51 -3.9,-0.49 -7.66,-1.63 -11.29,-3.08 -2.85,13.18 3.26,26.61 2.76,39.88 m 14.58,-35.21 c 3.68,4.75 9.47,6.12 15.13,6.73 0.32,-0.25 0.96,-0.74 1.28,-0.98 -5.51,-1.81 -10.94,-3.82 -16.41,-5.75 m 15.74,18.8 c -1.47,6.24 -2.45,15.38 4.64,18.52 11.27,4.95 23.63,6.51 35.77,7.31 0.04,-6.96 2.88,-13.71 7.97,-18.47 -14.14,-4.1 -27.73,-10.12 -40.66,-17.19 -5.31,-1.26 -7.26,5.75 -7.72,9.83 m 59.53,3.77 c 2.59,0.66 5.09,1.64 7.42,2.97 4.56,-1.83 8.57,-4.81 13.31,-6.26 -1.83,-5.5 -8.09,-6.34 -12.65,-8.57 -5.01,1.88 -7.81,6.67 -8.08,11.86 m 16.47,3.91 c 2.53,0.66 5.07,1.34 7.61,2.03 -0.79,-1.39 -1.56,-2.79 -2.33,-4.18 -1.76,0.72 -3.53,1.44 -5.28,2.15 m -19.48,1.13 c 0.24,2.07 0.49,4.15 0.74,6.23 1.77,-1.46 3.5,-2.95 5.21,-4.47 -1.98,-0.6 -3.97,-1.19 -5.95,-1.76 m -7.97,7.24 c 1.43,0.44 2.86,0.88 4.29,1.33 -0.04,-2.04 -0.07,-4.08 -0.1,-6.12 -1.38,1.61 -2.8,3.19 -4.19,4.79 m 16.16,1.45 c 4.61,-0.24 8.91,-2.01 12.82,-4.36 -4.86,-1.16 -9.07,1.71 -12.82,4.36 m 211.46,13.47 c -39.11,43.11 -79.57,84.94 -119.5,127.27 6.72,4.82 12.06,11.26 15.81,18.62 1,0.48 2,0.96 3.01,1.45 7.39,12.63 17.46,23.54 23.24,37.13 3.34,-0.91 6.24,-2.88 9.2,-4.61 38.17,-21.39 77.1,-41.53 114.43,-64.35 0.2,-14.85 -1.24,-29.73 -4.61,-44.2 -0.2,-8.56 -3.03,-16.7 -5.29,-24.87 -3.41,-10.72 -4.55,-22.14 -9.49,-32.36 -3.51,-9.83 -8.48,-19.04 -12.56,-28.55 -4.03,5.56 -9.77,9.35 -14.24,14.47 M 352.18,236.33 c 9.41,4.22 20.23,3.21 29.73,6.51 0.42,-0.36 1.27,-1.08 1.69,-1.44 -2.67,-2 -5.01,-4.43 -7.76,-6.31 -7.88,-0.48 -15.9,-0.37 -23.66,1.24 m -21.89,8.9 c 12.36,1.33 24.95,1.37 37.41,1.62 -5.09,-2.79 -11.2,-2.68 -16.41,-5.31 -7.09,-2.56 -14.68,0.42 -21,3.69 m 35.02,15.25 c 17.92,-2.57 36.02,-5.85 53.17,-11.41 -5.96,-1.07 -11.98,-1.67 -17.96,-2.53 -13.28,-5.32 -26.04,5.26 -35.21,13.94 m -60.37,-6.07 c 4.29,2.71 9.37,1.14 14.04,0.81 14.16,-0.43 28.31,-1.2 42.47,-1.25 -11.09,-4.8 -24.48,-1.98 -36.46,-3.4 -6.91,-1.15 -13.83,0.96 -20.05,3.84 m 85.31,6.76 c -12.34,4.49 -25.58,3.21 -38.14,6.16 0.86,14.27 3.84,28.3 4.42,42.6 7.15,-0.87 14.33,-0.12 21.5,-0.11 1.37,0.62 2.7,1.56 4.28,1.6 8.89,0.08 17.64,2.11 26.52,2.47 3.4,-19.58 7.08,-39.15 9.26,-58.93 -8.9,3.56 -18.45,4.78 -27.84,6.21 m -107.07,-1.75 c -1.01,0.67 -2.01,1.35 -3.01,2.04 6.18,1.53 12.67,0.99 18.95,0.48 -5.29,-1.03 -10.81,-0.76 -15.94,-2.52 m 21.74,2.53 c 17.56,0.85 35.37,0.74 52.82,-1.88 -17.65,-0.7 -35.2,1.54 -52.82,1.88 m -34.13,5.46 c 6.58,15.37 11.55,31.44 19.46,46.19 1.26,3.45 1.64,7.28 4.08,10.2 18.52,-6.27 37.27,-13.25 56.97,-14.35 -4.59,-13.1 -2.12,-27.62 -4.73,-41.26 -18.19,-0.03 -36.35,1.73 -54.56,0.71 -7.07,-0.7 -14.34,0.78 -21.22,-1.49 M 54.25,291.24 c -4.22,20.34 -9.22,40.81 -8.41,61.74 -1.51,12.42 -1.14,25 -3.55,37.32 35.01,15.94 69.66,32.69 104.5,49.02 3.94,1.65 8.31,2.23 11.81,4.86 7.9,-16.31 16.49,-32.84 29.57,-45.62 -0.81,-0.03 -2.42,-0.1 -3.23,-0.14 -7.58,-6.92 -14.99,-14.2 -23.37,-20.13 -35.89,-28.86 -71.8,-57.83 -107.32,-87.05 m 279.51,27.4 c -23.91,5.74 -47.79,12.9 -69.52,24.59 -17.96,11.19 -35.59,23.14 -51.11,37.58 7.39,4.87 12.53,12.2 18.9,18.22 21.2,-18.59 44.48,-35.84 71.59,-44.51 21.76,-6.41 44.38,-9.65 67.05,-9.74 -0.34,-9.86 1.28,-19.69 3.51,-29.27 -13.49,0.09 -27.35,-0.88 -40.42,3.13 m 45.69,-1.03 c -1.04,4.05 -2.03,8.18 -1.86,12.39 0.3,4.84 -1.95,9.77 0.66,14.32 16.36,1.29 32.58,4.16 48.55,7.87 13.77,5.3 28.27,8.73 41.45,15.51 20.06,11.14 39.69,24.37 53.58,42.93 6.82,-7.1 13.88,-14.31 22.85,-18.69 -3.34,-4.46 -7.04,-8.72 -11.69,-11.85 -17.71,-15.16 -37.79,-27.66 -59.3,-36.68 -3.72,-2.07 -9.56,-2.82 -10.03,-7.99 -16.17,-7.42 -33.74,-10.86 -50.94,-14.97 -11.06,-0.98 -22.15,-4.5 -33.27,-2.84 m -11.56,33.43 c -30.58,1.39 -62.32,5.44 -88.96,21.71 3.11,1.45 6.33,3.18 9.85,3.11 14.24,-9.25 31.43,-12.08 47.56,-16.57 36.64,-6.72 76.2,-3.48 109.65,13.91 3.28,2.26 6.68,4.36 10.37,5.92 0.38,-0.52 1.13,-1.57 1.51,-2.1 2.72,-0.47 4.85,-2.17 6.11,-4.59 -20.13,-8.79 -40.87,-17.12 -62.94,-19.29 -10.88,-2.23 -22.08,-3.6 -33.15,-2.1 m -32.96,14.72 c -13.85,3.46 -28.13,6.75 -40.49,14.17 21.83,5.77 43.86,11.71 66.57,12.95 23.92,-0.24 48,0.06 71.61,-4.31 5.56,-2.1 11.99,-2.35 16.64,-6.41 -7.99,-6.45 -17.79,-9.61 -27.19,-13.33 -28.1,-8.75 -58.46,-9.42 -87.14,-3.07 m 350.7,12.87 c -35.24,18.57 -69.67,38.68 -105.29,56.53 7.64,14.89 13.7,30.49 19.11,46.3 1.66,6.33 2.12,13.09 5.06,19.03 32.72,-7.98 66.16,-12.71 98.89,-20.61 0.51,-36.53 2.83,-73.13 0.02,-109.59 -6.26,2.01 -12.29,4.74 -17.79,8.34 m -431.07,9.95 c -7.6,7.89 -16.96,13.81 -25.09,20.97 0.59,0.56 1.75,1.68 2.33,2.23 -0.92,3.84 -2.3,7.55 -3.56,11.28 -1.05,8.08 2.33,16.22 9.35,20.48 -1.56,6.21 -1.89,12.9 0.6,18.92 1.52,-3.55 5.98,-6.46 9.68,-4.21 -1.76,2.49 -4.29,4.21 -7.14,5.22 1.65,1.82 2.85,3.97 3.73,6.26 0.95,-1.04 1.91,-2.07 2.88,-3.09 0,-1.19 0,-2.37 0.01,-3.55 5.18,-1.34 10.42,-0.56 15.36,1.29 -0.13,-0.6 -0.39,-1.82 -0.52,-2.42 -4.74,-1.13 -9.37,-2.67 -14.15,-3.66 -0.1,-0.63 -0.29,-1.88 -0.38,-2.51 5.06,-0.14 10.14,0.53 15.09,1.52 5.61,0.94 3.85,9.32 9.58,10.23 6.69,1.36 12.35,4.78 17.75,8.79 1.09,7.39 10.01,7.67 13.38,13.48 -1.4,6.45 4.16,11.77 3.96,18.15 -0.07,2.33 0.42,4.6 1.31,6.75 8.17,-2.62 17.05,-1.03 23.99,3.92 3.81,-5.41 9.98,-8.33 15.88,-10.89 -10.31,-3.48 -20.72,-7.3 -29.59,-13.74 -4.11,-2.09 -7.92,-5.46 -8.73,-10.22 -5.66,-8.17 -12.15,-15.95 -15.96,-25.21 -9.48,-24.81 -8.38,-51.8 -9.69,-77.86 -4.23,-0.55 -8.68,-1.64 -11.37,-5.23 -5.74,5.06 -13.21,7.72 -18.7,13.1 m 205.78,-7.02 c -0.36,12.51 1.16,24.87 0.29,37.29 l -1,-0.85 c 2.24,4.09 0.01,8.67 -0.09,12.97 1.05,18.33 -8.91,34.65 -17.42,50.13 -9.77,11.4 -20.92,22.21 -34.69,28.48 -0.04,0.39 -0.12,1.16 -0.16,1.54 5.38,1.96 11.47,4.04 14.38,9.41 8.27,-0.61 17.29,-4.28 25.19,-0.22 -1.68,-3.47 -1.34,-7.37 0.86,-10.51 -0.72,-4.08 -2.54,-8.81 0.87,-12.28 6.04,-7.57 5.65,-20.72 15.59,-24.6 2.29,-3.92 4.82,-8.05 9.56,-9.19 9.84,-3.49 21.24,-11.62 31.46,-5.03 5.28,1.72 10.24,4.35 13.38,9.11 0.63,-5.36 0.51,-10.8 -1.64,-15.82 -1.09,-5.8 5.57,-8.63 5.84,-13.94 2.36,-8.03 -5.42,-14.13 -4.1,-21.88 -13.85,-16.1 -30.04,-31.18 -49.44,-40.26 -2.56,2.46 -5.56,4.4 -8.88,5.65 m -253.89,4.92 c -11.17,11.6 -21.82,23.78 -30.6,37.32 -7.42,14.9 -16.32,29.28 -21.86,45.12 -5.06,18.01 -8.66,36.52 -9.68,55.22 -0.66,5.04 -1.83,10.12 -0.8,15.21 9.67,0.66 19.36,-0.07 29.03,-0.3 -0.7,-16.25 3.22,-32.16 6.48,-47.96 3.24,-11.14 5.36,-22.78 10.94,-33.07 4.34,-9.36 9.56,-18.28 15.12,-26.95 7.54,-9.3 12.71,-20.54 22.47,-27.89 -4.22,-6.22 -9.27,-11.95 -14.82,-17.01 -1.76,-2.05 -4.52,-1.33 -6.28,0.31 m 85.41,-1.46 c 0,15.29 -0.4,30.7 2.13,45.83 2.68,25.4 15.33,50.95 37.51,64.61 6.63,2.82 13.53,4.99 20.16,7.83 12.67,5.53 26.79,4.53 40.24,5.84 14.51,-4.05 27.76,-12.24 38.04,-23.28 9.19,-8.5 14.23,-20.21 19.7,-31.2 5.53,-22.38 5.72,-45.6 5.95,-68.53 -13.22,8.2 -29.21,9.98 -44.42,11.19 -15.32,1.88 -30.78,0.84 -46.17,1.44 -24.87,-1.45 -49.07,-7.65 -73.14,-13.73 M 42.02,427.66 c -0.61,12.15 -0.28,24.39 -0.78,36.57 10,4.82 21.3,5.56 31.9,8.51 23.44,3.94 46.14,12.06 69.88,13.93 2.88,-12.95 7.42,-25.43 11.97,-37.8 -35.15,-17.09 -70.77,-33.58 -106.04,-50.57 -2.18,-0.96 -4.35,-1.98 -6.52,-2.95 -0.75,10.74 -0.68,21.56 -0.41,32.31 m 505.21,-31.18 c -8.34,4.55 -16.35,10.4 -21.2,18.75 8.75,7.42 13.87,18.09 20.35,27.38 8.19,12.23 12.36,26.52 16.62,40.46 3.1,9.2 6.13,18.51 7.34,28.18 1.54,11.05 5.65,21.69 5.84,32.92 9.01,-0.77 18.08,-0.32 27.11,-0.9 0.36,-2.63 -1.3,-6.59 1.92,-7.87 -0.48,-0.16 -1.44,-0.48 -1.93,-0.63 -1.4,-18.28 -5.1,-36.28 -10.19,-53.86 -5.53,-14.74 -9.53,-30.28 -18.34,-43.54 -7.11,-14.86 -16.2,-28.9 -27.52,-40.89 m -340.47,71.24 c -3.91,11.67 -2.25,23.93 -0.25,35.77 -0.25,4.26 1.29,8.21 3.14,11.96 2.75,-0.04 5.49,-0.02 8.25,0.02 -1.56,-0.68 -3.12,-1.35 -4.67,-2.04 -0.16,-3.75 -1.81,-7.35 -1.73,-11.05 3.94,-7.57 7.23,-15.47 10.25,-23.45 1.79,-6.17 7.33,-10.04 12.13,-13.82 -5.08,-5.69 -5.86,-13.97 -3.53,-21.02 -7.72,-6 -9.06,-17.64 -6.67,-26.57 -11.14,14.33 -14.68,32.56 -16.92,50.2 m 322.07,-35.14 c 0.91,6.89 -0.72,13.99 -6.11,18.71 1.94,5.8 4.41,14.06 -1.4,18.46 3.95,3.48 6.59,8.1 9.46,12.44 8.11,11.38 7.72,27.72 0.74,39.54 3.88,-0.68 7.88,-0.65 11.61,0.77 3.56,-14.64 4.54,-29.9 2.02,-44.78 -2.6,-5.94 -2.96,-12.48 -5.27,-18.52 -1.28,-9.75 -6.95,-18 -11.05,-26.62 m -332.98,28.15 c -7.3,20.05 -14.25,40.53 -15.39,62 -0.6,6.23 -0.14,12.63 -1.96,18.68 6.66,-6.5 13.31,-13.05 19.82,-19.71 0.58,-0.08 1.74,-0.25 2.31,-0.34 0.07,-9.81 -4.62,-19.22 -3.31,-29.11 0.61,-5.4 -0.48,-11.1 1.69,-16.23 2.78,-11.33 3.45,-23.17 7.01,-34.33 -3.4,6.34 -7.82,12.19 -10.17,19.04 m 347.93,-10.39 c 4.02,16.29 10.64,32.57 8.86,49.61 0.16,8.42 -0.37,16.98 -3.56,24.88 9.79,4.73 14.49,14.88 20.42,23.26 1.7,-6.64 -1.93,-12.67 -1.79,-19.18 -5.48,-26.8 -11.17,-54.03 -23.93,-78.57 m -48.46,10.23 c 5.39,3.67 11.6,6.98 12.7,14.12 1.66,-1.51 3.81,-3.01 3.79,-5.51 -1.33,-3.02 -5.08,-2.78 -7.45,-4.46 -2.76,-1.92 -5.27,-5.07 -9.04,-4.15 m -24.9,15.47 c 7.91,-1.33 15.06,-5.49 19.02,-12.65 -7.04,2.42 -17.27,4.09 -19.02,12.65 m 23.82,-10.8 c 0.5,0.5 0.5,0.5 0,0 m -11.49,15.26 c 8.59,0.94 8.53,-8.36 11.71,-13.81 -2.68,5.79 -9,8.31 -11.71,13.81 M 255.03,467.69 c 4.93,3.83 10.68,7.31 17.17,6.85 -4.98,-3.88 -11.08,-5.59 -17.17,-6.85 m 245.43,0.27 c -2.67,4.93 -4.93,10.22 -4.24,15.97 2.39,-2.64 5.35,-4.81 7.31,-7.82 -0.42,-2.9 -1.82,-5.54 -3.07,-8.15 m -281.3,34.35 c -1.72,4.27 1.59,7.57 4.33,10.35 4.66,-8.17 6.74,-19.85 17.05,-22.85 -2.46,-6.67 -2.02,-13.98 -2.3,-20.97 -11.49,7.19 -15.68,21.15 -19.08,33.47 M 40.29,538.62 c 26.53,0.06 53.07,0.81 79.59,0.93 5.97,-1.58 12.04,-0.35 18.04,0.33 -1.93,-15.6 2.01,-30.85 3.99,-46.2 -4.71,0.31 -8.54,-2.88 -13.03,-3.62 -29.28,-6.04 -58.12,-14.26 -87.53,-19.59 -1.02,22.68 -1.09,45.43 -1.06,68.15 m 210.17,-62.13 c 3.08,2.57 3.52,6.72 5.83,9.82 -0.58,-3.75 -1.44,-7.44 -1.92,-11.2 -1.42,-1.32 -2.84,-2.64 -4.26,-3.94 -0.49,1.81 -1.58,3.96 0.35,5.32 m 258.31,9.44 c 1.9,7.38 8.8,12 11.01,19.26 1.58,5.41 3.86,10.56 5.67,15.89 6.56,-7.91 5.48,-18.77 4.81,-28.32 -2.79,-7.65 -8.21,-14.09 -12.99,-20.59 -3.27,4.34 -4.92,9.63 -8.5,13.76 m -230.1,-10.74 c 3.46,5.33 7.09,12.14 14.31,12.51 -2.37,-1.68 -4.79,-3.26 -7.25,-4.78 -0.17,-1.07 -0.34,-2.12 -0.51,-3.17 -2.2,-1.49 -4.38,-3.03 -6.55,-4.56 m -18.24,1.94 c -0.41,4.39 3.83,5.8 7.26,6.76 -1.63,-3.02 -3.7,-5.96 -7.26,-6.76 m -15.55,1.08 c -1.15,3.75 -1.3,7.65 -0.37,11.47 5.93,1.95 5.56,10.3 11.99,11.49 -0.24,-2.53 -0.57,-5.05 -0.9,-7.56 -5.38,-3.73 -5.45,-11.37 -10.72,-15.4 m 26.15,1.58 c 3.95,7.89 11.19,12.38 18.47,16.8 -4.05,-6.56 -11.18,-10.39 -15.01,-17.15 -1.16,0.11 -2.31,0.22 -3.46,0.35 m 199.41,0.07 c -2.84,4.66 -5.74,9.35 -7.33,14.62 5.7,-4.25 9.78,-10.13 14.64,-15.22 -2.34,1.02 -4.85,1.33 -7.31,0.6 m 6.43,6.42 c 1.75,0.99 5.59,0.72 4.68,3.66 -3.81,5.51 -9.47,10.35 -10.37,17.35 4.87,-5.53 8.66,-12.34 15.29,-16.01 2.62,-1.54 4.02,-4.29 5.2,-6.96 -4.95,0.53 -9.96,0.68 -14.8,1.96 m 15.89,13.61 c 4.32,-2.58 8.47,-5.48 13.14,-7.42 -1.51,-2.98 -2.22,-6.26 -1.6,-9.58 -4,5.57 -9.34,10.31 -11.54,17 m 111.43,4.6 c 3.15,3.09 1.37,7.69 2.82,11.48 0.55,9.34 2.78,18.46 2.89,27.86 30.88,0.42 61.83,1.74 92.69,-0.04 0.11,-19.42 0.43,-38.84 0.25,-58.27 -32.9,5.97 -65.84,12.36 -98.65,18.97 M 262.38,487.68 c 0.62,1.69 1.24,3.37 1.86,5.07 -1.1,0.48 -2.19,0.96 -3.28,1.44 6.6,0.43 7.35,7.81 12.64,10.31 -2.36,-6.44 -4.04,-14.13 -11.22,-16.82 m 31.02,5.39 c 1.7,8.31 4.42,16.36 6.21,24.65 0.97,-0.17 1.94,-0.32 2.91,-0.47 -0.67,-5.34 0.95,-11.09 -1.75,-16.02 -1.61,-3.43 -2.68,-8.23 -7.37,-8.16 m -53.36,1.2 c -6.5,6.54 -9.11,15.79 -12.97,23.93 7.89,3.3 14.94,8.41 20.89,14.53 5.43,-3.35 11.48,-5.5 17.06,-8.56 -2.48,-5.59 -3.5,-12.03 -7.47,-16.83 -5.6,-2.32 -11.27,-5.39 -13.45,-11.48 -1.35,-0.54 -2.71,-1.06 -4.06,-1.59 m 38.71,11.69 c -0.34,0.39 -1.01,1.17 -1.35,1.55 1.16,1.2 2.34,2.38 3.51,3.58 3.68,-1.65 5.49,-5.28 6.52,-8.97 -2.21,-2.09 -4.42,-4.16 -6.72,-6.14 -1.58,3.09 -2.42,6.51 -1.96,9.98 m 184.6,-5.67 c 0.17,2.13 0.33,4.26 0.48,6.4 1.88,-3.33 3.77,-6.63 5.54,-10.01 -2.03,1.16 -4.04,2.36 -6.02,3.61 m 14.31,7.41 c 3.37,-0.09 6.74,-0.39 10.11,-0.66 0.23,0.74 0.68,2.24 0.91,2.99 0.77,-1.82 1.56,-3.64 2.34,-5.45 -2.37,-1.82 -3.89,-4.34 -3.51,-7.42 -3.52,3.29 -7.6,6.14 -9.85,10.54 m 23.03,-5.89 c -5.09,2.54 -4.47,9.66 -9.22,12.69 -4.82,3.18 -8.31,8.36 -7.81,14.33 7.07,4.05 15.24,4.82 22.62,7.96 5.14,-3.56 10.07,-7.46 15.62,-10.41 -3.36,-10.13 -6.53,-20.57 -12.51,-29.52 -3.32,0.84 -5.77,3.35 -8.7,4.95 m -240.21,0.43 c 6.29,6.68 5.96,19.93 17.07,21.65 -0.87,-4.12 0.26,-9.79 -3.96,-12.32 -4.89,-3.35 -9.86,-7.2 -11.69,-13.11 -0.49,1.25 -0.97,2.51 -1.42,3.78 m 197.75,0.23 c -0.34,1.56 -0.65,3.12 -0.95,4.7 -0.82,0.05 -2.47,0.16 -3.29,0.22 1.11,2.25 2.42,4.41 4.01,6.37 1.77,-3.58 1.66,-7.63 0.23,-11.29 m -176.86,14.67 c 4.27,-0.41 9.07,-3.86 12.82,-0.24 -0.46,-3.43 -1.06,-6.86 -2.43,-10.05 -1.63,5.02 -5.71,8.24 -10.39,10.29 m 179.61,2.08 c 1.34,0.85 2.65,1.82 4.18,2.33 4.34,-3.56 8.23,-7.93 13.82,-9.56 -7.16,-1.78 -14.18,0.79 -18,7.23 m -101.61,-3.04 c -1.65,3.42 -3.39,6.83 -4.38,10.52 11.74,1.22 23.54,-0.27 35.26,0.83 1.62,-5.66 -0.87,-11 -5.9,-13.86 -8.43,-1.11 -17.23,-1.69 -24.98,2.51 m -21.84,8.27 c -6.06,10.39 -4.33,23.06 -0.98,33.98 3.29,3.7 7.46,6.74 9.46,11.47 -1.61,-9.07 -2.02,-18.57 0.8,-27.45 -6.59,-3.54 -1,-11.31 2.87,-14.78 0.46,-4.78 0.23,-10.06 3.56,-13.93 -6.27,1.55 -12.68,4.67 -15.71,10.71 m 55.19,-9.98 c 2.74,3.58 4.78,7.73 3.38,12.31 1.41,3.94 5.27,6.53 7.38,10.17 -0.1,2.4 -0.13,4.8 -0.15,7.21 -1.44,0.2 -2.89,0.41 -4.32,0.61 5.73,6.31 4.23,15.25 4.21,23.02 2.54,-2.37 5.32,-4.46 8.14,-6.47 -0.74,-5.25 3.88,-8.67 5.9,-12.99 3,-7.32 3.99,-16.42 -1.17,-23.03 -6.59,-5.45 -14.13,-12.24 -23.37,-10.83 m 58.66,0.36 c 0.19,4.93 3.75,8.31 5.74,12.48 2.44,-0.72 4.97,-0.58 7.47,-0.78 -6.49,-0.57 -9.29,-7.26 -13.21,-11.7 m -143.39,2.44 c -0.22,2.4 -0.43,4.81 -0.56,7.23 -6.18,2.54 -8.72,9.88 -15.33,11.35 -2.43,5.5 -7.94,8.5 -12.82,11.5 -6.95,3.05 -14.1,7.2 -21.99,6.17 1.22,7.36 -2.72,14.17 -2.94,21.4 0.52,6.91 0.69,14.44 5.05,20.22 3.29,-7.16 6.93,-14.12 10.67,-21.03 5.3,-6 11.62,-10.62 18.05,-15.29 5.66,-1.17 9.68,-6.38 15.62,-6.53 7.03,-1.15 14.18,-1.41 21.26,-0.49 1.5,1.34 3.01,2.66 4.54,3.98 -4.31,-10.35 -4.76,-23.33 1.3,-33.06 -2.3,-0.28 -4.54,-0.91 -6.53,-2.12 -5.05,-3.16 -11.75,1.2 -16.32,-3.33 m 166.38,4.03 c 0.22,1.55 0.44,3.09 0.65,4.66 -2.86,0.47 -5.76,0.45 -8.64,0.51 3.26,2.69 8.5,0.12 12.36,-0.7 0.38,-3.03 0.85,-6.05 1.24,-9.07 -2.03,1.33 -3.9,2.88 -5.61,4.6 m -192.42,0.32 c 1.51,2.29 1.95,4.89 0.57,7.38 3.84,-0.27 7.53,0.8 10.79,2.78 1.6,-2.38 3.16,-4.79 4.7,-7.2 -1.28,-0.14 -2.56,-0.28 -3.84,-0.41 -1.24,-1.28 -2.47,-2.54 -3.73,-3.79 -2.6,1.53 -5.57,1.72 -8.49,1.24 m -76.71,3.62 c -9,4.31 -14.44,13.09 -22.29,18.94 8.47,0.96 16.84,-0.48 25.05,-2.4 9.26,0.65 16.64,7.06 22.78,13.45 6.3,5.19 15.94,0.74 21.58,6.99 0.58,-6.47 -1.31,-12.66 -4.2,-18.36 -3.14,-10.14 -12.99,-15.61 -21.72,-20.33 -6.66,-3.69 -15.14,-2.7 -21.2,1.71 m 218.95,1.09 c 3.8,10.34 1.73,21.3 -4.05,30.44 9.11,-2.71 18.73,-0.97 27.99,-0.17 7.85,0.52 15.31,3.95 21.2,9.11 11.41,7.23 15.82,21.17 17.26,33.93 2.51,-6.71 4.56,-13.66 8.38,-19.79 1.41,-2.04 -0.09,-4.49 -0.33,-6.65 -1.71,-6.5 -1.73,-13.28 -0.87,-19.9 -6.42,1.12 -13.23,1.86 -19.48,-0.48 -4.32,-2.27 -7.4,-6.51 -12.19,-7.96 -5.44,-1.74 -5.68,-8.56 -9.73,-11.94 0.43,-0.73 0.88,-1.45 1.33,-2.16 -1.6,-1.59 -2.84,-3.47 -3.94,-5.42 -0.62,0.54 -1.23,1.08 -1.84,1.63 -7.26,-4.43 -15.96,-1.92 -23.73,-0.64 m -172.36,11.71 c 2.24,3.5 4.25,7.14 6.18,10.82 10.31,-1.51 20.6,-6.14 27.67,-13.93 -7.34,1.14 -8.22,-10.33 -15.39,-7.85 -5.94,4.02 -12.4,7.14 -18.46,10.96 m 280.7,-10.65 c -6.38,4.18 -14.37,5.71 -19.65,11.56 -9.74,7.27 -16.42,19.76 -12.94,32.06 5.75,-2.38 9.42,-8.6 15.91,-9.35 5.06,-0.39 10.25,-1.39 14.58,-4.18 3.18,-2.55 5.77,-5.98 9.73,-7.41 7.48,-3.02 15.54,-0.6 23.26,-0.25 -5.62,-11.76 -16.23,-25.02 -30.89,-22.43 m -183.27,10.78 c 16.24,1 32.43,-0.42 48.68,0.52 -1.17,-2.87 -3.58,-4.8 -6.1,-6.43 -11.82,-0.89 -23.65,0.85 -35.45,-0.76 -4.44,-1.25 -5.71,3.59 -7.13,6.67 m 110.01,-5.95 c 2.01,3.14 2.11,8.48 6.69,8.88 6.16,0.9 8.49,9.17 15.2,8.36 8.01,-0.42 17.25,-2.3 22.15,-9.28 -8.43,-1.38 -16.6,-4.2 -23.7,-9.04 -6.7,2.71 -13.55,0.3 -20.34,1.08 m -419.4,11.07 c -0.29,20.51 -0.7,41.03 -0.8,61.55 4.94,0.02 9.94,0.14 14.77,-1.12 24.31,-4.39 48.74,-8.33 72.78,-14.1 4.52,-0.49 9.26,-0.48 13.27,-2.96 -2.83,-13.84 -2.69,-28.13 -3.44,-42.21 -8.93,2.85 -18.12,-0.55 -27.21,0.02 -23.14,0.05 -46.23,-1.4 -69.37,-1.18 m 311.06,-0.26 c -2.19,9.79 -1.62,20.18 1.36,29.75 0.47,0.26 1.43,0.79 1.9,1.05 1.7,-0.57 3.4,-1.13 5.11,-1.66 3.15,-9.42 1.77,-19.23 0.11,-28.76 -2.83,-0.13 -5.65,-0.26 -8.48,-0.38 m 24.15,-0.31 c -0.35,3.09 -0.99,6.14 -1.97,9.1 -0.3,-2.49 -0.58,-4.99 -0.94,-7.47 -2.95,-0.52 -5.92,-0.96 -8.9,-1.26 1.33,9.69 4.19,19.5 1.01,29.22 6.67,1.72 13.79,1.14 20.19,-1.33 -0.06,-9.29 0.09,-18.57 -0.75,-27.84 -2.88,-0.23 -5.76,-0.39 -8.64,-0.42 m 13.25,0.42 c -0.09,3.48 0.45,6.92 1.04,10.34 0.81,5.42 -1.75,11.33 0.94,16.41 1.95,0.47 3.98,0.5 5.98,0.65 0.68,-8.86 0.62,-17.97 -2.86,-26.31 -1.7,-0.38 -3.4,-0.75 -5.1,-1.09 m -246.76,1.05 c 0.14,19.19 3.07,38.27 6.99,57.04 10.13,31.88 22.36,64.6 46.45,88.77 7.5,-4.55 14.66,-9.99 20.16,-16.88 -9.28,-13.44 -18.46,-27.05 -25.18,-41.99 -6.25,-14.4 -12.78,-29.01 -14.32,-44.82 -3.04,-13.67 -3.26,-27.67 -4.37,-41.53 -9.91,-0.27 -19.87,0.62 -29.73,-0.59 m 36.1,2.43 c 1.57,12.25 2.88,24.65 2.83,36.98 4.1,17.1 8.88,34.38 17.41,49.8 3.85,11.33 11.35,20.77 18.25,30.37 2.21,3.02 4.75,6.67 9.06,6.01 2.39,2.97 4.47,6.16 6.72,9.25 3.87,-8.45 6.23,-17.48 8.63,-26.42 0.51,-12.83 0.86,-25.99 -2.91,-38.42 -3.1,-14.42 -15.93,-23.2 -24.81,-33.99 -9.56,-6.03 -14.83,-17.37 -13.31,-28.58 0.74,-0.97 1.46,-1.96 2.3,-2.84 -0.84,0.58 -1.67,1.18 -2.49,1.79 -7.32,-1.09 -15.54,1.42 -21.68,-3.95 m 32.45,0.32 c -4.79,7.18 -6.03,17.93 0.51,24.47 8.37,7.95 17.4,15.38 24.76,24.32 8.57,13.57 11.83,29.75 12.23,45.63 0.53,11.24 -3.43,21.82 -6.58,32.4 7.55,-0.63 16.88,2.32 16.6,11.45 8.06,-15.61 16.47,-33.6 10.6,-51.42 -3.71,-20.81 -17.92,-37.2 -31.15,-52.75 -3.35,-5.54 -7.27,-10.8 -12.61,-14.58 -4.39,-2.96 -5.64,-9.33 -0.33,-12.05 -4.38,-3 -8.99,-5.73 -14.03,-7.47 m 366.06,3.02 c -1.01,12.88 -3.24,25.63 -6.11,38.21 -4.64,14.71 -11.59,28.54 -17.13,42.91 -6.23,15.69 -16.51,29.21 -26.04,42.9 3.87,8.78 12.99,12.76 19.94,18.64 15.1,-16.24 27.9,-34.71 34.89,-55.93 12.34,-27.86 20.72,-57.78 20.74,-88.44 -8.74,1.02 -17.75,-0.77 -26.29,1.71 m 33.21,-1.55 c -2.14,14.3 -3.35,28.79 -6.36,42.96 32.78,6.96 65.49,14.49 98.33,21.09 0.32,-21.18 0.8,-42.36 1.04,-63.54 -16.48,0.11 -32.97,-0.1 -49.42,-1.05 -14.51,0.88 -29.06,0.32 -43.59,0.54 m -62.53,5.85 c 6.17,14.31 -6.4,27.38 -14.54,37.94 -9.26,13.67 -25.43,24.01 -27.09,41.63 -4.27,15.87 0.73,32.34 5.49,47.53 1.82,-1.64 3.71,-3.17 5.63,-4.68 1.07,-4.25 5.24,-6.37 7.31,-10.01 10.91,-14.45 20.8,-29.9 27.05,-46.98 9.97,-20.4 18.45,-42.39 18.12,-65.47 -0.8,0.76 -1.58,1.53 -2.36,2.31 -6.57,-0.64 -12.92,-3.18 -19.61,-2.27 m -247.71,5.98 c -11.75,5.68 -23.14,13.78 -28.94,25.85 -4.78,7.53 -10.48,17.72 -3.36,25.72 8.69,-17.7 29.97,-33.29 50.04,-25.65 -1.98,-9.76 5.41,-17.42 12.51,-22.78 1.47,-0.08 2.93,-0.16 4.4,-0.24 -3.46,-2.39 -8.05,-3.15 -10.52,-6.84 -8.15,-0.04 -16.74,0.06 -24.13,3.94 m 229.41,4.65 c 0.81,6.49 -3.61,11.54 -7.81,15.85 -8.78,11 -21.69,17.54 -30.93,28.11 -6.12,4.8 -8.02,12.7 -10.2,19.77 -4.08,12.01 -2.9,24.99 -1.46,37.35 0.09,11.87 2.86,23.91 8.47,34.39 -0.49,-7.83 1.48,-15.52 3.82,-22.91 2.2,-5.01 8.41,-1.52 12.43,-1.41 -3.95,-16.3 -7.97,-33.81 -1.94,-50.15 2.12,-10.69 11.28,-17.26 17.44,-25.52 7.56,-9.48 15.5,-18.72 21.99,-28.98 3.2,-4.68 3.82,-11.04 0.91,-16.01 -3.69,3.83 -7.4,8.01 -12.72,9.51 m -105.67,-2.41 c 7.18,3.82 10.8,11.75 11.87,19.5 0.43,2.26 -1.78,3.74 -2.69,5.54 3.79,-0.28 7.42,-1.46 11.09,-2.4 9.59,-1.84 19.65,1.44 26.87,7.87 5.89,4.78 7.71,12.49 10.37,19.23 0.7,-1.1 1.42,-2.19 2.14,-3.26 -3.53,-12.59 -3.61,-27.13 -13.12,-37.19 -2.34,-1.45 -4.84,-2.65 -6.91,-4.49 -1.08,0.13 -2.15,0.32 -3.23,0.34 -8.67,-6.6 -20.23,-6.07 -30.47,-7.61 -2.4,-0.93 -4.16,1.25 -5.92,2.47 m -191.9,0.54 c 5.24,7.29 10.55,14.57 16.75,21.09 0.11,-6.55 0.45,-13.15 2.02,-19.53 -6.32,0.36 -12.58,-0.28 -18.77,-1.56 m 174.4,12.53 c 1.91,4.29 1.96,9.05 2.42,13.65 4.98,-0.74 9.33,1.73 12.09,5.75 2.56,-2.3 5.45,-4.19 8.37,-5.99 -0.48,-0.46 -1.43,-1.38 -1.9,-1.84 4.36,-8.05 -0.52,-20.22 -10.19,-20.91 -4.67,1.55 -7.92,5.53 -10.79,9.34 m -79.49,-0.68 c -4.59,3.48 -2.36,9.82 -2.42,14.7 2.26,1.53 5.65,5.04 8.13,2.09 3.03,-3.41 7.86,-2.88 11.98,-3.02 -0.73,-4.05 0.63,-7.96 1.27,-11.91 -3.23,-2.68 -5.67,-6.1 -7.89,-9.62 -4.18,1.81 -8,4.38 -11.07,7.76 m 177.47,1.82 c -1.98,7.57 -7.02,13.76 -9.69,20.97 11.48,-8.36 23.28,-17.53 30.03,-30.32 -8.81,-2.74 -14.04,5.05 -20.34,9.35 m -131.45,1.56 c -6.28,-1.62 -12.9,-2.68 -19.22,-0.57 -3.29,2.66 -4.33,6.95 -4.93,10.94 18.48,-0.38 37,-0.2 55.49,0.26 -0.22,-3.03 -0.54,-6.04 -0.97,-9.04 -3.1,-1.57 -6.17,-3.23 -8.82,-5.48 -7.4,0.44 -13.94,5.84 -21.55,3.89 m -94.09,27.59 c -3.28,3.87 -3.48,9.69 -7.68,12.78 3.49,7.87 5.7,16.27 6.66,24.82 1.85,6.67 -1.33,13.19 -1.4,19.85 -0.52,0.26 -1.57,0.78 -2.09,1.04 0.8,0.02 2.4,0.04 3.2,0.05 -4.2,3.22 -5.91,8.3 -7.47,13.13 -3.86,4.89 -5.4,11.03 -8.64,16.28 14,-2.74 31.01,-9.53 34.61,-24.93 6.55,-0.47 13.41,-0.07 19.32,-3.5 13.9,-7.28 25.84,-19.59 30.49,-34.82 -5.29,-4.19 -7.85,-11.29 -8.28,-17.83 -7.36,-0.96 -10.14,-8.5 -10.08,-15 -5.15,-1.28 -9.52,-4.22 -13.91,-7.02 -13.32,-2.5 -26.52,5.09 -34.73,15.15 m 144.11,-5.79 c -0.92,1.9 -1.3,4.01 -1.83,6.04 -2.77,3.12 -5.59,6.49 -9.91,7.36 0.7,7.42 -4.54,14.01 -10.18,18.25 4.95,7.03 9.51,14.54 16.23,20.05 7.94,7.74 16.92,17.6 28.94,16.98 -0.61,4.42 0.34,8.93 5.19,10.22 0.08,0.47 0.24,1.41 0.32,1.88 4.85,3.05 8.89,7.89 14.89,8.63 4.59,0.5 7.67,4.52 12.13,5.46 -4.9,-17.43 -6.49,-35.77 -5.99,-53.9 -0.49,-8.03 3.68,-15.11 5.01,-22.82 -2.92,-6.95 -3.76,-15.12 -9.11,-20.81 -4.46,-4.84 -11.2,-6.86 -17.64,-6.34 -10.11,-0.6 -20.16,2.79 -28.05,9 m -366.52,8.39 c -4.72,1.13 -10.15,0.76 -14.06,4.05 -0.64,0.04 -1.92,0.13 -2.55,0.17 -1.53,37.48 -1.19,75.01 -2.48,112.5 30.77,-16.32 61.55,-32.65 91.78,-49.93 12.15,-6.66 24.97,-12.28 36.39,-20.2 -10.4,-19.58 -18.04,-40.75 -22.73,-62.44 -28.73,5.44 -57.62,10.2 -86.35,15.85 m 282.57,-14.48 c -5.06,0.21 -5.13,6.28 -6.25,9.92 3.65,4.74 10.33,4.59 15.77,4.86 20.76,-0.75 41.52,-2.37 62.3,-1.97 5.08,-0.3 9.23,-6.63 5.21,-10.79 -4.97,-2.42 -10.71,-1.29 -16.03,-2.04 -20.33,-0.32 -40.7,-1.45 -61,0.02 m 264.52,1.09 c -3.9,14.85 -9.01,29.43 -15.02,43.57 -0.93,1.76 -0.24,3.66 1.8,4.04 36.79,16.49 73.07,34.4 110.26,49.71 0.43,-25.1 1.67,-50.22 1.25,-75.34 -32.73,-6.91 -65.38,-15.41 -98.29,-21.98 m -260.73,18.46 c 1.39,4.46 1.93,11.18 7.6,12.12 7.31,0.73 14.75,0.27 21.98,-1 9.42,-1.23 19.02,0.65 28.39,-0.78 3.27,-2.84 5.07,-6.97 6.11,-11.09 -21.31,-1.64 -42.73,1.16 -64.08,0.75 M 367,630.93 c -0.71,11.94 -4.9,23.4 -10.1,34.07 -3.63,5.83 -8.9,10.52 -12.23,16.57 16.16,0.09 32.26,-1.78 48.42,-1.76 2.3,0.06 4.48,-0.79 6.65,-1.46 -11.43,-13.81 -20.5,-30.22 -23.08,-48.16 -3.25,-0.43 -6.51,-0.16 -9.66,0.74 m 13.51,-1.21 c 4.66,17.33 11.94,34.37 24.57,47.42 8.69,-3.14 17.72,-4.47 26.81,-5.82 -11,-6.27 -20.47,-15.05 -28.33,-24.91 -3.63,-4.83 -7.51,-9.96 -8.38,-16.09 -4.87,-0.68 -9.78,-0.61 -14.67,-0.6 m -30.42,1.6 c -0.55,6.18 -4.51,11.16 -7.25,16.51 -8.69,11.58 -20.19,22.82 -34.97,25.39 9.16,3.13 18.67,5.17 28.01,7.67 14.59,-12.48 24.13,-30.62 26.98,-49.52 -4.26,-0.02 -8.51,0.08 -12.77,-0.05 m 208.32,57.31 c 34.32,27.73 69.72,54.2 103.63,82.43 11.98,8.84 23,18.99 35.57,27 0.68,-33.09 1.23,-66.19 2.24,-99.26 -38.49,-17.73 -76.58,-36.3 -115.42,-53.33 -5.31,16.26 -16.22,29.5 -26.02,43.16 M 146.9,670.85 c -34.44,18.28 -68.79,36.8 -103.26,55.02 -3.21,1.47 -8.49,3.22 -7.57,7.73 0.03,36.95 -2.29,73.88 -1.64,110.84 1.1,0.55 2.18,1.3 3.47,1.33 16.21,0.62 32.43,0.92 48.66,1.02 38.77,-42.46 78.91,-83.84 118.34,-125.76 2.21,-2 1.8,-5.88 4.83,-7.04 -5.68,-4.8 -10.65,-10.36 -15.47,-15.99 -1.2,0.55 -2.38,1.12 -3.57,1.7 0.63,-1.45 3.14,-3.11 1.35,-4.67 -9.85,-9.83 -18.55,-20.9 -25.22,-33.14 -7.36,1.11 -13.4,5.75 -19.92,8.96 m 153.38,2.67 c -2.31,4.13 -4.85,8.15 -7.94,11.76 5.88,4.19 13.25,4.86 19.86,7.33 4.13,1.08 8.22,3.9 12.63,2.78 4.32,-1.88 6.84,-6.15 9.03,-10.09 -11.15,-4.01 -23.98,-4.18 -33.58,-11.78 m -83.82,5.95 c -5.52,5.6 -12,10.12 -18.28,14.82 6.9,7.96 15.47,14.24 22.4,22.16 11.97,10.44 25.41,18.97 39.31,26.6 26.54,18.37 58.88,23.86 90.01,29.21 6.19,0.69 12.43,0.08 18.64,0.43 1.18,-8.39 1.68,-17.04 0.46,-25.44 -45.66,-6.37 -92.51,-19.69 -128.48,-49.74 -7.35,-6.06 -12.24,-14.34 -18.66,-21.23 -2.25,0.02 -3.87,1.75 -5.4,3.19 m 188.55,2.68 c 2.14,5.26 6.71,8.74 10.85,12.37 9.5,-4.07 19.19,-7.56 29.04,-10.57 -1.82,-2.89 -3.82,-5.64 -5.89,-8.34 -11.03,3.9 -23.16,2.13 -34,6.54 m -167.98,2.91 c 3.47,3.75 7.25,7.19 10.85,10.82 1.37,-4.96 3.6,-9.83 2.7,-15.11 -4.75,-1.17 -13.66,-3.35 -13.55,4.29 m 269.47,9.44 c -4.15,4.37 -10.24,7.07 -12.64,12.89 -1.18,0.06 -2.34,0.12 -3.5,0.18 -22.3,16.4 -48.22,27.59 -75.18,33.62 -13.46,1.6 -26.72,4.62 -40.25,5.65 -0.03,8.97 -0.66,17.94 -0.6,26.92 7.12,0.55 14.04,-1.64 21.13,-1.96 30.89,-2.47 60.38,-13.55 87.86,-27.39 21.98,-13.41 42.83,-29.21 59.17,-49.32 -7.36,-4.16 -13.52,-9.86 -19.49,-15.76 -5.65,4.9 -10.42,10.75 -16.5,15.17 m -11.21,-12.95 c -1.45,5.33 -3.23,10.71 -2.93,16.31 4.82,-3.46 9.02,-7.71 13.86,-11.15 -1.68,-1.73 -3.36,-3.46 -4.98,-5.24 -1.99,0.01 -3.98,-0.06 -5.95,0.08 m -96.69,3.93 c -19.68,-0.24 -39.38,1.54 -59.06,1.05 -2.29,2.92 -3.43,6.61 -5.46,9.74 12.97,0.48 25.95,-0.16 38.92,-0.5 12.52,-1.41 25.06,0.78 37.59,0.42 -4.04,-3.6 -7.21,-8.08 -8.89,-13.24 -1.01,0.86 -1.96,1.83 -3.1,2.53 m 38.8,6.17 c -6.73,2.27 -13.14,5.44 -19.97,7.44 3.59,5.82 8.15,10.97 13.36,15.4 12.75,-4.8 24.91,-11.08 37.03,-17.22 -6.55,-1.42 -11.51,-6.02 -17.18,-9.23 -4.21,1.89 -8.63,3.22 -13.24,3.61 m -161.59,3.88 c 12.06,4.64 22.26,12.77 34.06,17.91 4.98,-2.87 8.21,-7.85 12.22,-11.84 -10.74,-4.99 -22.72,-6.75 -33.09,-12.51 -4.75,1.31 -8.83,4.24 -13.19,6.44 m 279.52,-2.56 c -2.07,1.85 -4.06,3.8 -5.63,6.11 -1.42,0.71 -3.06,1.15 -4.13,2.4 -9.07,9.26 -17.62,18.99 -27.72,27.17 3.45,7.3 9.92,12.55 14.12,19.36 26.38,35.9 54.22,70.83 81.5,105.92 27.35,0.77 54.76,1.16 82.11,0.56 0.89,-16.28 1.41,-32.61 1.29,-48.94 -17.44,-16.57 -37.28,-30.27 -55.63,-45.77 -28.58,-22.32 -56.45,-45.66 -85.91,-66.81 m -299.63,9.27 c 12.04,7.74 24.98,14.06 38.12,19.79 4.5,2.47 8.63,-2.03 12.28,-4.14 -11.81,-6.71 -22.76,-15.37 -36.06,-19 -4.99,-1.68 -10.17,0.7 -14.34,3.35 m 71.99,-2.03 c 0.16,0.69 0.47,2.05 0.63,2.73 -2.13,4.44 -5.98,7.56 -9.22,11.14 7.94,1.23 15.96,-0.02 23.93,0.67 19.34,-0.48 38.78,2.29 58.05,-0.45 7.56,0.24 15.14,0.42 22.7,-0.27 -3.51,-4.15 -7.66,-7.83 -9.89,-12.92 -7.97,0.99 -15.91,-0.4 -23.87,-0.64 -20.76,-0.21 -41.64,2.48 -62.33,-0.26 m 106.28,19.64 c 2.17,2.4 4.47,4.67 6.63,7.09 15.26,-4.64 29.07,-13.09 42.34,-21.76 -3.27,-0.56 -5.71,-2.82 -7.82,-5.2 -14.14,5.95 -26.99,14.07 -41.15,19.87 m -229.51,8.64 c -37.75,38.73 -75.33,77.8 -111.3,118.18 46.91,1.24 93.84,2.04 140.77,2.6 4.88,-7.17 7.75,-15.45 11.17,-23.37 10.2,-22.48 20.44,-44.95 29.25,-68.01 -8.72,-3.06 -15.89,-9.07 -23.93,-13.44 -12.46,-7.33 -24.84,-15.01 -35.25,-25.15 -4.39,2.04 -7.65,5.55 -10.71,9.19 m 107.88,-9.31 c -2.8,1.47 -4.11,4.54 -5.8,7.05 19.8,7.27 40.45,12.68 61.54,14.41 9.44,-0.23 18.88,-1.31 28.16,-3.09 13.12,-1.2 26.15,-3.86 38.39,-8.78 -3.22,-1.68 -6.61,-4.14 -6.28,-8.23 -22.06,1.45 -44.24,0.32 -66.31,0.35 -16.53,-1.26 -33.29,0.91 -49.7,-1.71 m 182.86,25.06 c -12.07,5.45 -22.65,13.79 -35.35,17.88 9.21,24.55 19.16,48.89 28.64,73.38 1.88,4.46 2.79,9.43 5.96,13.25 0.02,1.33 0.04,2.64 0.08,3.99 37.37,0.54 74.74,0.81 112.11,1.4 -30.3,-41.37 -63.15,-80.86 -92.77,-122.78 -6.51,3.89 -12.19,8.98 -18.67,12.88 m -215.25,16.7 c -14.24,29.06 -26.7,58.95 -39.88,88.49 27.12,0.41 54.24,0.83 81.36,1.41 0.31,-7.24 3.37,-13.9 4.28,-21.02 2.3,-18.19 7.72,-36.04 7.99,-54.42 -6.44,0.57 -12.25,-2.71 -18.49,-3.62 -11.99,-2.73 -23.84,-6.27 -35.26,-10.84 m 118.29,16.57 c 0.51,24.81 3.61,49.55 5.97,74.22 28.28,0.88 56.58,0.74 84.88,1.07 -11,-29.75 -22.42,-59.33 -33.66,-88.98 -18.6,6.28 -37.46,12.38 -57.19,13.69 m -58.28,-0.98 c -4.6,24.64 -7.24,49.61 -11.45,74.31 23.42,0.13 46.84,0.47 70.26,0.77 -0.78,-2.7 -1.6,-5.39 -2.08,-8.15 0.09,-21.04 -3.3,-41.98 -4.14,-63 -0.9,-4.76 -6.47,-1.77 -9.52,-1.33 -14.27,-1.31 -28.87,0.5 -43.07,-2.6 z"
         inkscape:connector-curvature="0"
         style="fill:#1b1518" />
    </g>
    <path
       transform="matrix(1.0738016,-0.01452129,0.01499407,1.0399432,-36.306815,-11.361989)"
       style="fill:#d1e77f;filter:url(#filter4008)"
       inkscape:connector-curvature="0"
       d="m 329.72,46.4 c 28.07,-5.92 56.97,-5.83 85.44,-4.68 12,2.11 24.17,3.44 35.92,6.82 -5.93,32.1 -10.23,64.54 -16.72,96.57 -0.83,5.41 -0.78,11.05 -3.24,16.09 -6.58,-11.14 -18.08,-18.18 -27.62,-26.63 -7.81,-4.9 -15.45,-12.25 -25.41,-11.11 0.2,10.93 12.68,14.55 18.2,22.3 2.41,5.67 7.01,10 9.36,15.69 1.93,4.2 2.32,9.17 5.82,12.53 -6.17,2.2 -11.52,5.99 -16.82,9.72 -9.14,2.74 -18.18,-2.54 -24.54,-8.77 -9.45,-5.75 -18.89,-11.66 -28.44,-17.34 1.79,-3.64 1.41,-7.97 -1.45,-10.95 -3.9,-33.38 -6.28,-66.9 -10.5,-100.24 z"
       id="path3058" />
    <path
       transform="matrix(1.0738016,-0.01452129,0.01499407,1.0399432,-36.306815,-11.361989)"
       style="fill:#d1e77f;filter:url(#filter4008)"
       inkscape:connector-curvature="0"
       d="m 158.85,118.83 c 13.29,-9.74 26,-20.42 40.43,-28.53 16.07,41.9 31.42,84.05 47.59,125.92 11.89,32.74 25.23,64.98 35.93,98.14 1.78,3.99 3.36,8.06 4.84,12.17 -20.08,6.02 -36.84,18.78 -54.26,29.9 -15.59,-18.52 -29.42,-38.44 -44.2,-57.59 -30.59,-38.79 -60.38,-78.2 -89.79,-117.88 15.73,-24.2 37.06,-44.18 59.46,-62.13 z"
       id="path3060" />
    <path
       transform="matrix(1.0738016,-0.01452129,0.01499407,1.0399432,-36.306815,-11.361989)"
       style="fill:#d1e77f;filter:url(#filter4008)"
       inkscape:connector-curvature="0"
       d="m 553.19,143.21 c 6.16,-10.64 9.17,-22.69 15.5,-33.25 18.67,13.53 35.56,29.46 50.23,47.24 19.83,20.76 34.76,45.48 48.03,70.79 -6.87,6.18 -11.67,14.2 -18.36,20.53 -26.64,29.64 -54.57,58.1 -81.55,87.42 -11.39,12.18 -22.82,24.34 -34.71,36.04 -8.28,-5.84 -16.13,-12.28 -24.79,-17.57 -10.92,-10.19 -25.1,-15.6 -37.87,-22.99 28.9,-62.25 55.33,-125.67 83.52,-188.21 z"
       id="path3062" />
    <path
       transform="matrix(1.0738016,-0.01452129,0.01499407,1.0399432,-36.306815,-11.361989)"
       style="fill:#d1e77f;filter:url(#filter4008)"
       inkscape:connector-curvature="0"
       d="m 349.1,233 c 0.5,-13.27 -5.61,-26.7 -2.76,-39.88 3.63,1.45 7.39,2.59 11.29,3.08 0.55,9.63 10.66,11.2 17.65,14.51 -1.01,6.08 -3.71,12.57 -0.82,18.54 -8.47,0.64 -17.69,-0.68 -25.36,3.75 z"
       id="path3064" />
    <path
       transform="matrix(1.0738016,-0.01452129,0.01499407,1.0399432,-36.306815,-11.361989)"
       style="fill:#d1e77f;filter:url(#filter4008)"
       inkscape:connector-curvature="0"
       d="m 390.25,261.17 c 9.39,-1.43 18.94,-2.65 27.84,-6.21 -2.18,19.78 -5.86,39.35 -9.26,58.93 -8.88,-0.36 -17.63,-2.39 -26.52,-2.47 -1.58,-0.04 -2.91,-0.98 -4.28,-1.6 -7.17,-0.01 -14.35,-0.76 -21.5,0.11 -0.58,-14.3 -3.56,-28.33 -4.42,-42.6 12.56,-2.95 25.8,-1.67 38.14,-6.16 z"
       id="path3066" />
    <path
       transform="matrix(1.0738016,-0.01452129,0.01499407,1.0399432,-36.306815,-11.361989)"
       style="fill:#d1e77f;filter:url(#filter4008)"
       inkscape:connector-curvature="0"
       d="m 54.25,291.24 c 35.52,29.22 71.43,58.19 107.32,87.05 8.38,5.93 15.79,13.21 23.37,20.13 0.81,0.04 2.42,0.11 3.23,0.14 -13.08,12.78 -21.67,29.31 -29.57,45.62 -3.5,-2.63 -7.87,-3.21 -11.81,-4.86 -34.84,-16.33 -69.49,-33.08 -104.5,-49.02 2.41,-12.32 2.04,-24.9 3.55,-37.32 -0.81,-20.93 4.19,-41.4 8.41,-61.74 z"
       id="path3068" />
    <path
       transform="matrix(1.0738016,-0.01452129,0.01499407,1.0399432,-36.306815,-11.361989)"
       style="fill:#d1e77f;filter:url(#filter4008)"
       inkscape:connector-curvature="0"
       d="m 685.63,378.63 c 5.5,-3.6 11.53,-6.33 17.79,-8.34 2.81,36.46 0.49,73.06 -0.02,109.59 -32.73,7.9 -66.17,12.63 -98.89,20.61 -2.94,-5.94 -3.4,-12.7 -5.06,-19.03 -5.41,-15.81 -11.47,-31.41 -19.11,-46.3 35.62,-17.85 70.05,-37.96 105.29,-56.53 z"
       id="path3070" />
    <path
       transform="matrix(1.0738016,-0.01452129,0.01499407,1.0399432,-36.306815,-11.361989)"
       style="fill:#d1e77f;filter:url(#filter4008)"
       inkscape:connector-curvature="0"
       d="m 206.76,467.72 c 2.24,-17.64 5.78,-35.87 16.92,-50.2 -2.39,8.93 -1.05,20.57 6.67,26.57 -2.33,7.05 -1.55,15.33 3.53,21.02 -4.8,3.78 -10.34,7.65 -12.13,13.82 -3.02,7.98 -6.31,15.88 -10.25,23.45 -0.08,3.7 1.57,7.3 1.73,11.05 1.55,0.69 3.11,1.36 4.67,2.04 -2.76,-0.04 -5.5,-0.06 -8.25,-0.02 -1.85,-3.75 -3.39,-7.7 -3.14,-11.96 -2,-11.84 -3.66,-24.1 0.25,-35.77 z"
       id="path3072" />
    <path
       transform="matrix(1.0738016,-0.01452129,0.01499407,1.0399432,-36.306815,-11.361989)"
       style="fill:#d1e77f;filter:url(#filter4008)"
       inkscape:connector-curvature="0"
       d="m 528.83,432.58 c 4.1,8.62 9.77,16.87 11.05,26.62 2.31,6.04 2.67,12.58 5.27,18.52 2.52,14.88 1.54,30.14 -2.02,44.78 -3.73,-1.42 -7.73,-1.45 -11.61,-0.77 6.98,-11.82 7.37,-28.16 -0.74,-39.54 -2.87,-4.34 -5.51,-8.96 -9.46,-12.44 5.81,-4.4 3.34,-12.66 1.4,-18.46 5.39,-4.72 7.02,-11.82 6.11,-18.71 z"
       id="path3074" />
    <path
       transform="matrix(1.0738016,-0.01452129,0.01499407,1.0399432,-36.306815,-11.361989)"
       style="fill:#d1e77f;filter:url(#filter4008)"
       inkscape:connector-curvature="0"
       d="m 40.29,538.62 c -0.03,-22.72 0.04,-45.47 1.06,-68.15 29.41,5.33 58.25,13.55 87.53,19.59 4.49,0.74 8.32,3.93 13.03,3.62 -1.98,15.35 -5.92,30.6 -3.99,46.2 -6,-0.68 -12.07,-1.91 -18.04,-0.33 -26.52,-0.12 -53.06,-0.87 -79.59,-0.93 z"
       id="path3076" />
    <path
       transform="matrix(1.0738016,-0.01452129,0.01499407,1.0399432,-36.306815,-11.361989)"
       style="fill:#d1e77f;filter:url(#filter4008)"
       inkscape:connector-curvature="0"
       d="m 307.99,517.27 c 4.57,4.53 11.27,0.17 16.32,3.33 1.99,1.21 4.23,1.84 6.53,2.12 -6.06,9.73 -5.61,22.71 -1.3,33.06 -1.53,-1.32 -3.04,-2.64 -4.54,-3.98 -7.08,-0.92 -14.23,-0.66 -21.26,0.49 -5.94,0.15 -9.96,5.36 -15.62,6.53 -6.43,4.67 -12.75,9.29 -18.05,15.29 -3.74,6.91 -7.38,13.87 -10.67,21.03 -4.36,-5.78 -4.53,-13.31 -5.05,-20.22 0.22,-7.23 4.16,-14.04 2.94,-21.4 7.89,1.03 15.04,-3.12 21.99,-6.17 4.88,-3 10.39,-6 12.82,-11.5 6.61,-1.47 9.15,-8.81 15.33,-11.35 0.13,-2.42 0.34,-4.83 0.56,-7.23 z"
       id="path3078" />
    <path
       transform="matrix(1.0738016,-0.01452129,0.01499407,1.0399432,-36.306815,-11.361989)"
       style="fill:#d1e77f;filter:url(#filter4008)"
       inkscape:connector-curvature="0"
       d="m 205.24,525.24 c 6.06,-4.41 14.54,-5.4 21.2,-1.71 8.73,4.72 18.58,10.19 21.72,20.33 2.89,5.7 4.78,11.89 4.2,18.36 -5.64,-6.25 -15.28,-1.8 -21.58,-6.99 -6.14,-6.39 -13.52,-12.8 -22.78,-13.45 -8.21,1.92 -16.58,3.36 -25.05,2.4 7.85,-5.85 13.29,-14.63 22.29,-18.94 z"
       id="path3080" />
    <path
       transform="matrix(1.0738016,-0.01452129,0.01499407,1.0399432,-36.306815,-11.361989)"
       style="fill:#d1e77f;filter:url(#filter4008)"
       inkscape:connector-curvature="0"
       d="m 424.19,526.33 c 7.77,-1.28 16.47,-3.79 23.73,0.64 0.61,-0.55 1.22,-1.09 1.84,-1.63 1.1,1.95 2.34,3.83 3.94,5.42 -0.45,0.71 -0.9,1.43 -1.33,2.16 4.05,3.38 4.29,10.2 9.73,11.94 4.79,1.45 7.87,5.69 12.19,7.96 6.25,2.34 13.06,1.6 19.48,0.48 -0.86,6.62 -0.84,13.4 0.87,19.9 0.24,2.16 1.74,4.61 0.33,6.65 -3.82,6.13 -5.87,13.08 -8.38,19.79 -1.44,-12.76 -5.85,-26.7 -17.26,-33.93 -5.89,-5.16 -13.35,-8.59 -21.2,-9.11 -9.26,-0.8 -18.88,-2.54 -27.99,0.17 5.78,-9.14 7.85,-20.1 4.05,-30.44 z"
       id="path3082" />
    <path
       transform="matrix(1.0738016,-0.01452129,0.01499407,1.0399432,-36.306815,-11.361989)"
       style="fill:#d1e77f;filter:url(#filter4008)"
       inkscape:connector-curvature="0"
       d="m 532.53,527.39 c 14.66,-2.59 25.27,10.67 30.89,22.43 -7.72,-0.35 -15.78,-2.77 -23.26,0.25 -3.96,1.43 -6.55,4.86 -9.73,7.41 -4.33,2.79 -9.52,3.79 -14.58,4.18 -6.49,0.75 -10.16,6.97 -15.91,9.35 -3.48,-12.3 3.2,-24.79 12.94,-32.06 5.28,-5.85 13.27,-7.38 19.65,-11.56 z"
       id="path3084" />
    <path
       transform="matrix(1.0738016,-0.01452129,0.01499407,1.0399432,-36.306815,-11.361989)"
       style="fill:#d1e77f;filter:url(#filter4008)"
       inkscape:connector-curvature="0"
       d="m 609.39,548.41 c 14.53,-0.22 29.08,0.34 43.59,-0.54 16.45,0.95 32.94,1.16 49.42,1.05 -0.24,21.18 -0.72,42.36 -1.04,63.54 -32.84,-6.6 -65.55,-14.13 -98.33,-21.09 3.01,-14.17 4.22,-28.66 6.36,-42.96 z"
       id="path3086" />
    <path
       transform="matrix(1.0738016,-0.01452129,0.01499407,1.0399432,-36.306815,-11.361989)"
       style="fill:#d1e77f;filter:url(#filter4008)"
       inkscape:connector-curvature="0"
       d="m 299.15,560.24 c 7.39,-3.88 15.98,-3.98 24.13,-3.94 2.47,3.69 7.06,4.45 10.52,6.84 -1.47,0.08 -2.93,0.16 -4.4,0.24 -7.1,5.36 -14.49,13.02 -12.51,22.78 -20.07,-7.64 -41.35,7.95 -50.04,25.65 -7.12,-8 -1.42,-18.19 3.36,-25.72 5.8,-12.07 17.19,-20.17 28.94,-25.85 z"
       id="path3088" />
    <path
       transform="matrix(1.0738016,-0.01452129,0.01499407,1.0399432,-36.306815,-11.361989)"
       style="fill:#d1e77f;filter:url(#filter4008)"
       inkscape:connector-curvature="0"
       d="m 422.89,562.48 c 1.76,-1.22 3.52,-3.4 5.92,-2.47 10.24,1.54 21.8,1.01 30.47,7.61 1.08,-0.02 2.15,-0.21 3.23,-0.34 2.07,1.84 4.57,3.04 6.91,4.49 9.51,10.06 9.59,24.6 13.12,37.19 -0.72,1.07 -1.44,2.16 -2.14,3.26 -2.66,-6.74 -4.48,-14.45 -10.37,-19.23 -7.22,-6.43 -17.28,-9.71 -26.87,-7.87 -3.67,0.94 -7.3,2.12 -11.09,2.4 0.91,-1.8 3.12,-3.28 2.69,-5.54 -1.07,-7.75 -4.69,-15.68 -11.87,-19.5 z"
       id="path3090" />
    <path
       transform="matrix(1.0738016,-0.01452129,0.01499407,1.0399432,-36.306815,-11.361989)"
       style="fill:#d1e77f;filter:url(#filter4008)"
       inkscape:connector-curvature="0"
       d="m 55.42,608.44 c 28.73,-5.65 57.62,-10.41 86.35,-15.85 4.69,21.69 12.33,42.86 22.73,62.44 -11.42,7.92 -24.24,13.54 -36.39,20.2 -30.23,17.28 -61.01,33.61 -91.78,49.93 1.29,-37.49 0.95,-75.02 2.48,-112.5 0.63,-0.04 1.91,-0.13 2.55,-0.17 3.91,-3.29 9.34,-2.92 14.06,-4.05 z"
       id="path3092" />
    <path
       transform="matrix(1.0738016,-0.01452129,0.01499407,1.0399432,-36.306815,-11.361989)"
       style="fill:#d1e77f;filter:url(#filter4008)"
       inkscape:connector-curvature="0"
       d="m 558.41,688.63 c 9.8,-13.66 20.71,-26.9 26.02,-43.16 38.84,17.03 76.93,35.6 115.42,53.33 -1.01,33.07 -1.56,66.17 -2.24,99.26 -12.57,-8.01 -23.59,-18.16 -35.57,-27 -33.91,-28.23 -69.31,-54.7 -103.63,-82.43 z"
       id="path3094" />
    <path
       transform="matrix(1.0738016,-0.01452129,0.01499407,1.0399432,-36.306815,-11.361989)"
       style="fill:#d1e77f;filter:url(#filter4008)"
       inkscape:connector-curvature="0"
       d="m 204.46,728.49 c 3.06,-3.64 6.32,-7.15 10.71,-9.19 10.41,10.14 22.79,17.82 35.25,25.15 8.04,4.37 15.21,10.38 23.93,13.44 -8.81,23.06 -19.05,45.53 -29.25,68.01 -3.42,7.92 -6.29,16.2 -11.17,23.37 -46.93,-0.56 -93.86,-1.36 -140.77,-2.6 35.97,-40.38 73.55,-79.45 111.3,-118.18 z"
       id="path3096" />
    <path
       transform="matrix(1.0738016,-0.01452129,0.01499407,1.0399432,-36.306815,-11.361989)"
       style="fill:#d1e77f;filter:url(#filter4008)"
       inkscape:connector-curvature="0"
       d="m 495.2,744.24 c 6.48,-3.9 12.16,-8.99 18.67,-12.88 29.62,41.92 62.47,81.41 92.77,122.78 -37.37,-0.59 -74.74,-0.86 -112.11,-1.4 -0.04,-1.35 -0.06,-2.66 -0.08,-3.99 -3.17,-3.82 -4.08,-8.79 -5.96,-13.25 -9.48,-24.49 -19.43,-48.83 -28.64,-73.38 12.7,-4.09 23.28,-12.43 35.35,-17.88 z"
       id="path3098" />
    <path
       transform="matrix(1.0738016,-0.01452129,0.01499407,1.0399432,-36.306815,-11.361989)"
       style="fill:#d1e77f;filter:url(#filter4008)"
       inkscape:connector-curvature="0"
       d="m 339.96,776.53 c 14.2,3.1 28.8,1.29 43.07,2.6 3.05,-0.44 8.62,-3.43 9.52,1.33 0.84,21.02 4.23,41.96 4.14,63 0.48,2.76 1.3,5.45 2.08,8.15 -23.42,-0.3 -46.84,-0.64 -70.26,-0.77 4.21,-24.7 6.85,-49.67 11.45,-74.31 z"
       id="path3100" />
    <path
       transform="matrix(1.0738016,-0.01452129,0.01499407,1.0399432,-36.306815,-11.361989)"
       style="fill:#b2cbce;filter:url(#filter4014)"
       inkscape:connector-curvature="0"
       d="m 392.33,134.47 c 12.75,6.43 22.64,17.04 32.98,26.65 -0.61,-0.18 -1.82,-0.54 -2.42,-0.71 -9.52,-9.39 -19.31,-18.62 -30.56,-25.94 z"
       id="path3103" />
    <path
       transform="matrix(1.0738016,-0.01452129,0.01499407,1.0399432,-36.306815,-11.361989)"
       style="fill:#b2cbce;filter:url(#filter4014)"
       inkscape:connector-curvature="0"
       d="m 401.03,185.67 c 4.35,-2.7 8.85,-5.87 14.09,-6.35 11.81,0.92 23.45,6.63 30.61,16.21 0.15,0.64 0.45,1.92 0.6,2.56 -1.86,1.85 -3.98,3.4 -6.22,4.75 -5.73,-5.65 -13.11,-9.34 -20.49,-12.36 -4.04,-1.85 -8.12,-5.96 -12.79,-3.27 -1.93,-0.5 -3.87,-1.01 -5.8,-1.54 z"
       id="path3105" />
    <path
       transform="matrix(1.0738016,-0.01452129,0.01499407,1.0399432,-36.306815,-11.361989)"
       style="fill:#b2cbce;filter:url(#filter4014)"
       inkscape:connector-curvature="0"
       d="m 348.31,180.75 c 16.02,3.01 31.93,8.55 48.37,7.85 3.5,0.88 6.76,2.94 10.49,2.74 7.99,-0.33 13.06,6.98 20.2,9.24 4.03,1.24 7.5,3.65 10.59,6.48 -0.7,4.25 -3.54,7.6 -5.6,11.25 -4.76,-2.39 -10.27,-2.24 -15.13,-4.4 -13.42,-3.26 -23.95,-13.07 -37.14,-16.95 -11.4,-3.65 -22.95,-7.75 -31.78,-16.21 z"
       id="path3107" />
    <path
       transform="matrix(1.0738016,-0.01452129,0.01499407,1.0399432,-36.306815,-11.361989)"
       style="fill:#b2cbce;filter:url(#filter4014)"
       inkscape:connector-curvature="0"
       d="m 363.68,197.79 c 5.47,1.93 10.9,3.94 16.41,5.75 -0.32,0.24 -0.96,0.73 -1.28,0.98 -5.66,-0.61 -11.45,-1.98 -15.13,-6.73 z"
       id="path3109" />
    <path
       transform="matrix(1.0738016,-0.01452129,0.01499407,1.0399432,-36.306815,-11.361989)"
       style="fill:#b2cbce;filter:url(#filter4014)"
       inkscape:connector-curvature="0"
       d="m 379.42,216.59 c 0.46,-4.08 2.41,-11.09 7.72,-9.83 12.93,7.07 26.52,13.09 40.66,17.19 -5.09,4.76 -7.93,11.51 -7.97,18.47 -12.14,-0.8 -24.5,-2.36 -35.77,-7.31 -7.09,-3.14 -6.11,-12.28 -4.64,-18.52 z"
       id="path3111" />
    <path
       transform="matrix(1.0738016,-0.01452129,0.01499407,1.0399432,-36.306815,-11.361989)"
       style="fill:#b2cbce;filter:url(#filter4014)"
       inkscape:connector-curvature="0"
       d="m 438.95,220.36 c 0.27,-5.19 3.07,-9.98 8.08,-11.86 4.56,2.23 10.82,3.07 12.65,8.57 -4.74,1.45 -8.75,4.43 -13.31,6.26 -2.33,-1.33 -4.83,-2.31 -7.42,-2.97 z"
       id="path3113" />
    <path
       transform="matrix(1.0738016,-0.01452129,0.01499407,1.0399432,-36.306815,-11.361989)"
       style="fill:#b2cbce;filter:url(#filter4014)"
       inkscape:connector-curvature="0"
       d="m 427.97,232.64 c 1.39,-1.6 2.81,-3.18 4.19,-4.79 0.03,2.04 0.06,4.08 0.1,6.12 -1.43,-0.45 -2.86,-0.89 -4.29,-1.33 z"
       id="path3115" />
    <path
       transform="matrix(1.0738016,-0.01452129,0.01499407,1.0399432,-36.306815,-11.361989)"
       style="fill:#b2cbce;filter:url(#filter4014)"
       inkscape:connector-curvature="0"
       d="m 365.31,260.48 c 9.17,-8.68 21.93,-19.26 35.21,-13.94 5.98,0.86 12,1.46 17.96,2.53 -17.15,5.56 -35.25,8.84 -53.17,11.41 z"
       id="path3117" />
    <path
       transform="matrix(1.0738016,-0.01452129,0.01499407,1.0399432,-36.306815,-11.361989)"
       style="fill:#b2cbce;filter:url(#filter4014)"
       inkscape:connector-curvature="0"
       d="m 283.18,259.42 c 5.13,1.76 10.65,1.49 15.94,2.52 -6.28,0.51 -12.77,1.05 -18.95,-0.48 1,-0.69 2,-1.37 3.01,-2.04 z"
       id="path3119" />
    <path
       transform="matrix(1.0738016,-0.01452129,0.01499407,1.0399432,-36.306815,-11.361989)"
       style="fill:#b2cbce;filter:url(#filter4014)"
       inkscape:connector-curvature="0"
       d="m 304.92,261.95 c 17.62,-0.34 35.17,-2.58 52.82,-1.88 -17.45,2.62 -35.26,2.73 -52.82,1.88 z"
       id="path3121" />
    <path
       transform="matrix(1.0738016,-0.01452129,0.01499407,1.0399432,-36.306815,-11.361989)"
       style="fill:#b2cbce;filter:url(#filter4014)"
       inkscape:connector-curvature="0"
       d="m 36.07,733.6 c -0.92,-4.51 4.36,-6.26 7.57,-7.73 -2.15,2.92 -4.53,5.69 -7.57,7.73 z"
       id="path3129" />
    <g
       style="filter:url(#filter4020)"
       transform="matrix(1.0738016,-0.01452129,0.01499407,1.0399432,-36.306815,-11.361989)"
       id="#5e6f6fff">
      <path
         id="path3132"
         d="m 336.91,161.13 c 12.21,5.9 21.87,16.1 34.61,20.94 -6.79,-0.95 -13.53,-2.19 -20.28,-3.33 -8.98,-0.64 -10.04,-11.5 -14.33,-17.61 z"
         inkscape:connector-curvature="0"
         style="fill:#5e6f6f" />
      <path
         id="path3134"
         d="m 412.54,165.49 c 3.22,2.86 6.28,5.89 9.66,8.57 -2.75,-0.2 -5.51,-0.26 -8.26,-0.21 -0.52,-2.78 -1.01,-5.56 -1.4,-8.36 z"
         inkscape:connector-curvature="0"
         style="fill:#5e6f6f" />
      <path
         id="path3136"
         d="m 434.62,177.2 c -1.37,-3.59 -4.83,-7.16 -3.13,-11.2 5.16,7.7 12.46,14.01 16.14,22.63 -5.03,-2.79 -10.96,-5.63 -13.01,-11.43 z"
         inkscape:connector-curvature="0"
         style="fill:#5e6f6f" />
      <path
         id="path3138"
         d="m 330.72,183.16 c 3.1,-1.43 6.31,-2.6 9.52,-3.75 2.77,2.88 5.37,5.94 7.59,9.26 -5.71,-1.82 -11.44,-3.56 -17.11,-5.51 z"
         inkscape:connector-curvature="0"
         style="fill:#5e6f6f" />
      <path
         id="path3140"
         d="m 435.94,225.4 c 1.98,0.57 3.97,1.16 5.95,1.76 -1.71,1.52 -3.44,3.01 -5.21,4.47 -0.25,-2.08 -0.5,-4.16 -0.74,-6.23 z"
         inkscape:connector-curvature="0"
         style="fill:#5e6f6f" />
      <path
         id="path3142"
         d="m 352.18,236.33 c 7.76,-1.61 15.78,-1.72 23.66,-1.24 2.75,1.88 5.09,4.31 7.76,6.31 -0.42,0.36 -1.27,1.08 -1.69,1.44 -9.5,-3.3 -20.32,-2.29 -29.73,-6.51 z"
         inkscape:connector-curvature="0"
         style="fill:#5e6f6f" />
      <path
         id="path3144"
         d="m 330.29,245.23 c 6.32,-3.27 13.91,-6.25 21,-3.69 5.21,2.63 11.32,2.52 16.41,5.31 -12.46,-0.25 -25.05,-0.29 -37.41,-1.62 z"
         inkscape:connector-curvature="0"
         style="fill:#5e6f6f" />
      <path
         id="path3146"
         d="m 304.94,254.41 c 6.22,-2.88 13.14,-4.99 20.05,-3.84 11.98,1.42 25.37,-1.4 36.46,3.4 -14.16,0.05 -28.31,0.82 -42.47,1.25 -4.67,0.33 -9.75,1.9 -14.04,-0.81 z"
         inkscape:connector-curvature="0"
         style="fill:#5e6f6f" />
      <path
         id="path3148"
         d="m 494.24,465.24 c 0.5,0.5 0.5,0.5 0,0 z"
         inkscape:connector-curvature="0"
         style="fill:#5e6f6f" />
      <path
         id="path3150"
         d="m 276.02,897.2 c 3.89,-1.09 -0.85,4.11 0,0 z"
         inkscape:connector-curvature="0"
         style="fill:#5e6f6f" />
    </g>
    <g
       style="filter:url(#filter4026)"
       transform="matrix(1.0738016,-0.01452129,0.01499407,1.0399432,-36.306815,-11.361989)"
       id="#c83351ff">
      <path
         id="path3153"
         d="m 455.42,224.27 c 1.75,-0.71 3.52,-1.43 5.28,-2.15 0.77,1.39 1.54,2.79 2.33,4.18 -2.54,-0.69 -5.08,-1.37 -7.61,-2.03 z"
         inkscape:connector-curvature="0"
         style="fill:#c83351" />
      <path
         id="path3155"
         d="m 444.13,234.09 c 3.75,-2.65 7.96,-5.52 12.82,-4.36 -3.91,2.35 -8.21,4.12 -12.82,4.36 z"
         inkscape:connector-curvature="0"
         style="fill:#c83351" />
      <path
         id="path3157"
         d="m 333.76,318.64 c 13.07,-4.01 26.93,-3.04 40.42,-3.13 -2.23,9.58 -3.85,19.41 -3.51,29.27 -22.67,0.09 -45.29,3.33 -67.05,9.74 -27.11,8.67 -50.39,25.92 -71.59,44.51 -6.37,-6.02 -11.51,-13.35 -18.9,-18.22 15.52,-14.44 33.15,-26.39 51.11,-37.58 21.73,-11.69 45.61,-18.85 69.52,-24.59 z"
         inkscape:connector-curvature="0"
         style="fill:#c83351" />
      <path
         id="path3159"
         d="m 379.45,317.61 c 11.12,-1.66 22.21,1.86 33.27,2.84 17.2,4.11 34.77,7.55 50.94,14.97 0.47,5.17 6.31,5.92 10.03,7.99 21.51,9.02 41.59,21.52 59.3,36.68 4.65,3.13 8.35,7.39 11.69,11.85 -8.97,4.38 -16.03,11.59 -22.85,18.69 -13.89,-18.56 -33.52,-31.79 -53.58,-42.93 -13.18,-6.78 -27.68,-10.21 -41.45,-15.51 -15.97,-3.71 -32.19,-6.58 -48.55,-7.87 -2.61,-4.55 -0.36,-9.48 -0.66,-14.32 -0.17,-4.21 0.82,-8.34 1.86,-12.39 z"
         inkscape:connector-curvature="0"
         style="fill:#c83351" />
      <path
         id="path3161"
         d="m 206.45,386.48 c 1.76,-1.64 4.52,-2.36 6.28,-0.31 5.55,5.06 10.6,10.79 14.82,17.01 -9.76,7.35 -14.93,18.59 -22.47,27.89 -5.56,8.67 -10.78,17.59 -15.12,26.95 -5.58,10.29 -7.7,21.93 -10.94,33.07 -3.26,15.8 -7.18,31.71 -6.48,47.96 -9.67,0.23 -19.36,0.96 -29.03,0.3 -1.03,-5.09 0.14,-10.17 0.8,-15.21 1.02,-18.7 4.62,-37.21 9.68,-55.22 5.54,-15.84 14.44,-30.22 21.86,-45.12 8.78,-13.54 19.43,-25.72 30.6,-37.32 z"
         inkscape:connector-curvature="0"
         style="fill:#c83351" />
      <path
         id="path3163"
         d="m 547.23,396.48 c 11.32,11.99 20.41,26.03 27.52,40.89 8.81,13.26 12.81,28.8 18.34,43.54 5.09,17.58 8.79,35.58 10.19,53.86 0.49,0.15 1.45,0.47 1.93,0.63 -3.22,1.28 -1.56,5.24 -1.92,7.87 -9.03,0.58 -18.1,0.13 -27.11,0.9 -0.19,-11.23 -4.3,-21.87 -5.84,-32.92 -1.21,-9.67 -4.24,-18.98 -7.34,-28.18 -4.26,-13.94 -8.43,-28.23 -16.62,-40.46 -6.48,-9.29 -11.6,-19.96 -20.35,-27.38 4.85,-8.35 12.86,-14.2 21.2,-18.75 z"
         inkscape:connector-curvature="0"
         style="fill:#c83351" />
      <path
         id="path3165"
         d="m 247.87,458.25 0.17,0.05 c 4.78,0.99 9.41,2.53 14.15,3.66 0.13,0.6 0.39,1.82 0.52,2.42 -4.94,-1.85 -10.18,-2.63 -15.36,-1.29 -0.01,1.18 -0.01,2.36 -0.01,3.55 -0.97,1.02 -1.93,2.05 -2.88,3.09 -0.88,-2.29 -2.08,-4.44 -3.73,-6.26 2.85,-1.01 5.38,-2.73 7.14,-5.22 z"
         inkscape:connector-curvature="0"
         style="fill:#c83351" />
      <path
         id="path3167"
         d="m 495.32,460.57 c 3.77,-0.92 6.28,2.23 9.04,4.15 2.37,1.68 6.12,1.44 7.45,4.46 0.02,2.5 -2.13,4 -3.79,5.51 -1.1,-7.14 -7.31,-10.45 -12.7,-14.12 z"
         inkscape:connector-curvature="0"
         style="fill:#c83351" />
      <path
         id="path3169"
         d="m 470.42,476.04 c 1.75,-8.56 11.98,-10.23 19.02,-12.65 -3.96,7.16 -11.11,11.32 -19.02,12.65 z"
         inkscape:connector-curvature="0"
         style="fill:#c83351" />
      <path
         id="path3171"
         d="m 482.75,480.5 c 2.71,-5.5 9.03,-8.02 11.71,-13.81 -3.18,5.45 -3.12,14.75 -11.71,13.81 z"
         inkscape:connector-curvature="0"
         style="fill:#c83351" />
      <path
         id="path3173"
         d="m 255.03,467.69 c 6.09,1.26 12.19,2.97 17.17,6.85 -6.49,0.46 -12.24,-3.02 -17.17,-6.85 z"
         inkscape:connector-curvature="0"
         style="fill:#c83351" />
      <path
         id="path3175"
         d="m 500.46,467.96 c 1.25,2.61 2.65,5.25 3.07,8.15 -1.96,3.01 -4.92,5.18 -7.31,7.82 -0.69,-5.75 1.57,-11.04 4.24,-15.97 z"
         inkscape:connector-curvature="0"
         style="fill:#c83351" />
      <path
         id="path3177"
         d="m 219.16,502.31 c 3.4,-12.32 7.59,-26.28 19.08,-33.47 0.28,6.99 -0.16,14.3 2.3,20.97 -10.31,3 -12.39,14.68 -17.05,22.85 -2.74,-2.78 -6.05,-6.08 -4.33,-10.35 z"
         inkscape:connector-curvature="0"
         style="fill:#c83351" />
      <path
         id="path3179"
         d="m 250.46,476.49 c -1.93,-1.36 -0.84,-3.51 -0.35,-5.32 1.42,1.3 2.84,2.62 4.26,3.94 0.48,3.76 1.34,7.45 1.92,11.2 -2.31,-3.1 -2.75,-7.25 -5.83,-9.82 z"
         inkscape:connector-curvature="0"
         style="fill:#c83351" />
      <path
         id="path3181"
         d="m 508.77,485.93 c 3.58,-4.13 5.23,-9.42 8.5,-13.76 4.78,6.5 10.2,12.94 12.99,20.59 0.67,9.55 1.75,20.41 -4.81,28.32 -1.81,-5.33 -4.09,-10.48 -5.67,-15.89 -2.21,-7.26 -9.11,-11.88 -11.01,-19.26 z"
         inkscape:connector-curvature="0"
         style="fill:#c83351" />
      <path
         id="path3183"
         d="m 278.67,475.19 c 2.17,1.53 4.35,3.07 6.55,4.56 0.17,1.05 0.34,2.1 0.51,3.17 2.46,1.52 4.88,3.1 7.25,4.78 -7.22,-0.37 -10.85,-7.18 -14.31,-12.51 z"
         inkscape:connector-curvature="0"
         style="fill:#c83351" />
      <path
         id="path3185"
         d="m 260.43,477.13 c 3.56,0.8 5.63,3.74 7.26,6.76 -3.43,-0.96 -7.67,-2.37 -7.26,-6.76 z"
         inkscape:connector-curvature="0"
         style="fill:#c83351" />
      <path
         id="path3187"
         d="m 244.88,478.21 c 5.27,4.03 5.34,11.67 10.72,15.4 0.33,2.51 0.66,5.03 0.9,7.56 -6.43,-1.19 -6.06,-9.54 -11.99,-11.49 -0.93,-3.82 -0.78,-7.72 0.37,-11.47 z"
         inkscape:connector-curvature="0"
         style="fill:#c83351" />
      <path
         id="path3189"
         d="m 271.03,479.79 c 1.15,-0.13 2.3,-0.24 3.46,-0.35 3.83,6.76 10.96,10.59 15.01,17.15 -7.28,-4.42 -14.52,-8.91 -18.47,-16.8 z"
         inkscape:connector-curvature="0"
         style="fill:#c83351" />
      <path
         id="path3191"
         d="m 470.44,479.86 c 2.46,0.73 4.97,0.42 7.31,-0.6 -4.86,5.09 -8.94,10.97 -14.64,15.22 1.59,-5.27 4.49,-9.96 7.33,-14.62 z"
         inkscape:connector-curvature="0"
         style="fill:#c83351" />
      <path
         id="path3193"
         d="m 476.87,486.28 c 4.84,-1.28 9.85,-1.43 14.8,-1.96 -1.18,2.67 -2.58,5.42 -5.2,6.96 -6.63,3.67 -10.42,10.48 -15.29,16.01 0.9,-7 6.56,-11.84 10.37,-17.35 0.91,-2.94 -2.93,-2.67 -4.68,-3.66 z"
         inkscape:connector-curvature="0"
         style="fill:#c83351" />
      <path
         id="path3195"
         d="m 492.76,499.89 c 2.2,-6.69 7.54,-11.43 11.54,-17 -0.62,3.32 0.09,6.6 1.6,9.58 -4.67,1.94 -8.82,4.84 -13.14,7.42 z"
         inkscape:connector-curvature="0"
         style="fill:#c83351" />
      <path
         id="path3197"
         d="m 262.38,487.68 c 7.18,2.69 8.86,10.38 11.22,16.82 -5.29,-2.5 -6.04,-9.88 -12.64,-10.31 1.09,-0.48 2.18,-0.96 3.28,-1.44 -0.62,-1.7 -1.24,-3.38 -1.86,-5.07 z"
         inkscape:connector-curvature="0"
         style="fill:#c83351" />
      <path
         id="path3199"
         d="m 293.4,493.07 c 4.69,-0.07 5.76,4.73 7.37,8.16 2.7,4.93 1.08,10.68 1.75,16.02 -0.97,0.15 -1.94,0.3 -2.91,0.47 -1.79,-8.29 -4.51,-16.34 -6.21,-24.65 z"
         inkscape:connector-curvature="0"
         style="fill:#c83351" />
      <path
         id="path3201"
         d="m 240.04,494.27 c 1.35,0.53 2.71,1.05 4.06,1.59 2.18,6.09 7.85,9.16 13.45,11.48 3.97,4.8 4.99,11.24 7.47,16.83 -5.58,3.06 -11.63,5.21 -17.06,8.56 -5.95,-6.12 -13,-11.23 -20.89,-14.53 3.86,-8.14 6.47,-17.39 12.97,-23.93 z"
         inkscape:connector-curvature="0"
         style="fill:#c83351" />
      <path
         id="path3203"
         d="m 278.75,505.96 c -0.46,-3.47 0.38,-6.89 1.96,-9.98 2.3,1.98 4.51,4.05 6.72,6.14 -1.03,3.69 -2.84,7.32 -6.52,8.97 -1.17,-1.2 -2.35,-2.38 -3.51,-3.58 0.34,-0.38 1.01,-1.16 1.35,-1.55 z"
         inkscape:connector-curvature="0"
         style="fill:#c83351" />
      <path
         id="path3205"
         d="m 463.35,500.29 c 1.98,-1.25 3.99,-2.45 6.02,-3.61 -1.77,3.38 -3.66,6.68 -5.54,10.01 -0.15,-2.14 -0.31,-4.27 -0.48,-6.4 z"
         inkscape:connector-curvature="0"
         style="fill:#c83351" />
      <path
         id="path3207"
         d="m 477.66,507.7 c 2.25,-4.4 6.33,-7.25 9.85,-10.54 -0.38,3.08 1.14,5.6 3.51,7.42 -0.78,1.81 -1.57,3.63 -2.34,5.45 -0.23,-0.75 -0.68,-2.25 -0.91,-2.99 -3.37,0.27 -6.74,0.57 -10.11,0.66 z"
         inkscape:connector-curvature="0"
         style="fill:#c83351" />
      <path
         id="path3209"
         d="m 500.69,501.81 c 2.93,-1.6 5.38,-4.11 8.7,-4.95 5.98,8.95 9.15,19.39 12.51,29.52 -5.55,2.95 -10.48,6.85 -15.62,10.41 -7.38,-3.14 -15.55,-3.91 -22.62,-7.96 -0.5,-5.97 2.99,-11.15 7.81,-14.33 4.75,-3.03 4.13,-10.15 9.22,-12.69 z"
         inkscape:connector-curvature="0"
         style="fill:#c83351" />
      <path
         id="path3211"
         d="m 260.48,502.24 c 0.45,-1.27 0.93,-2.53 1.42,-3.78 1.83,5.91 6.8,9.76 11.69,13.11 4.22,2.53 3.09,8.2 3.96,12.32 -11.11,-1.72 -10.78,-14.97 -17.07,-21.65 z"
         inkscape:connector-curvature="0"
         style="fill:#c83351" />
      <path
         id="path3213"
         d="m 458.23,502.47 c 1.43,3.66 1.54,7.71 -0.23,11.29 -1.59,-1.96 -2.9,-4.12 -4.01,-6.37 0.82,-0.06 2.47,-0.17 3.29,-0.22 0.3,-1.58 0.61,-3.14 0.95,-4.7 z"
         inkscape:connector-curvature="0"
         style="fill:#c83351" />
      <path
         id="path3215"
         d="m 281.37,517.14 c 4.68,-2.05 8.76,-5.27 10.39,-10.29 1.37,3.19 1.97,6.62 2.43,10.05 -3.75,-3.62 -8.55,-0.17 -12.82,0.24 z"
         inkscape:connector-curvature="0"
         style="fill:#c83351" />
      <path
         id="path3217"
         d="m 460.98,519.22 c 3.82,-6.44 10.84,-9.01 18,-7.23 -5.59,1.63 -9.48,6 -13.82,9.56 -1.53,-0.51 -2.84,-1.48 -4.18,-2.33 z"
         inkscape:connector-curvature="0"
         style="fill:#c83351" />
      <path
         id="path3219"
         d="m 451.38,514.83 c 3.92,4.44 6.72,11.13 13.21,11.7 -2.5,0.2 -5.03,0.06 -7.47,0.78 -1.99,-4.17 -5.55,-7.55 -5.74,-12.48 z"
         inkscape:connector-curvature="0"
         style="fill:#c83351" />
      <path
         id="path3221"
         d="m 474.37,521.3 c 1.71,-1.72 3.58,-3.27 5.61,-4.6 -0.39,3.02 -0.86,6.04 -1.24,9.07 -3.86,0.82 -9.1,3.39 -12.36,0.7 2.88,-0.06 5.78,-0.04 8.64,-0.51 -0.21,-1.57 -0.43,-3.11 -0.65,-4.66 z"
         inkscape:connector-curvature="0"
         style="fill:#c83351" />
      <path
         id="path3223"
         d="m 281.95,521.62 c 2.92,0.48 5.89,0.29 8.49,-1.24 1.26,1.25 2.49,2.51 3.73,3.79 1.28,0.13 2.56,0.27 3.84,0.41 -1.54,2.41 -3.1,4.82 -4.7,7.2 -3.26,-1.98 -6.95,-3.05 -10.79,-2.78 1.38,-2.49 0.94,-5.09 -0.57,-7.38 z"
         inkscape:connector-curvature="0"
         style="fill:#c83351" />
      <path
         id="path3225"
         d="m 251.83,538.04 c 6.06,-3.82 12.52,-6.94 18.46,-10.96 7.17,-2.48 8.05,8.99 15.39,7.85 -7.07,7.79 -17.36,12.42 -27.67,13.93 -1.93,-3.68 -3.94,-7.32 -6.18,-10.82 z"
         inkscape:connector-curvature="0"
         style="fill:#c83351" />
      <path
         id="path3227"
         d="m 459.27,532.22 c 6.79,-0.78 13.64,1.63 20.34,-1.08 7.1,4.84 15.27,7.66 23.7,9.04 -4.9,6.98 -14.14,8.86 -22.15,9.28 -6.71,0.81 -9.04,-7.46 -15.2,-8.36 -4.58,-0.4 -4.68,-5.74 -6.69,-8.88 z"
         inkscape:connector-curvature="0"
         style="fill:#c83351" />
      <path
         id="path3229"
         d="m 141.57,544.19 c 9.86,1.21 19.82,0.32 29.73,0.59 1.11,13.86 1.33,27.86 4.37,41.53 1.54,15.81 8.07,30.42 14.32,44.82 6.72,14.94 15.9,28.55 25.18,41.99 -5.5,6.89 -12.66,12.33 -20.16,16.88 -24.09,-24.17 -36.32,-56.89 -46.45,-88.77 -3.92,-18.77 -6.85,-37.85 -6.99,-57.04 z"
         inkscape:connector-curvature="0"
         style="fill:#c83351" />
      <path
         id="path3231"
         d="m 576.18,549.96 c 8.54,-2.48 17.55,-0.69 26.29,-1.71 -0.02,30.66 -8.4,60.58 -20.74,88.44 -6.99,21.22 -19.79,39.69 -34.89,55.93 -6.95,-5.88 -16.07,-9.86 -19.94,-18.64 9.53,-13.69 19.81,-27.21 26.04,-42.9 5.54,-14.37 12.49,-28.2 17.13,-42.91 2.87,-12.58 5.1,-25.33 6.11,-38.21 z"
         inkscape:connector-curvature="0"
         style="fill:#c83351" />
      <path
         id="path3233"
         d="m 216.46,679.47 c 1.53,-1.44 3.15,-3.17 5.4,-3.19 6.42,6.89 11.31,15.17 18.66,21.23 35.97,30.05 82.82,43.37 128.48,49.74 1.22,8.4 0.72,17.05 -0.46,25.44 -6.21,-0.35 -12.45,0.26 -18.64,-0.43 -31.13,-5.35 -63.47,-10.84 -90.01,-29.21 -13.9,-7.63 -27.34,-16.16 -39.31,-26.6 -6.93,-7.92 -15.5,-14.2 -22.4,-22.16 6.28,-4.7 12.76,-9.22 18.28,-14.82 z"
         inkscape:connector-curvature="0"
         style="fill:#c83351" />
      <path
         id="path3235"
         d="m 506.5,694.5 c 6.08,-4.42 10.85,-10.27 16.5,-15.17 5.97,5.9 12.13,11.6 19.49,15.76 -16.34,20.11 -37.19,35.91 -59.17,49.32 -27.48,13.84 -56.97,24.92 -87.86,27.39 -7.09,0.32 -14.01,2.51 -21.13,1.96 -0.06,-8.98 0.57,-17.95 0.6,-26.92 13.53,-1.03 26.79,-4.05 40.25,-5.65 26.96,-6.03 52.88,-17.22 75.18,-33.62 1.16,-0.06 2.32,-0.12 3.5,-0.18 2.4,-5.82 8.49,-8.52 12.64,-12.89 z"
         inkscape:connector-curvature="0"
         style="fill:#c83351" />
    </g>
    <g
       style="filter:url(#filter4032)"
       transform="matrix(1.0738016,-0.01452129,0.01499407,1.0399432,-36.306815,-11.361989)"
       id="#8e7137ff">
      <path
         id="path3238"
         d="m 334.93,365.76 c 28.68,-6.35 59.04,-5.68 87.14,3.07 9.4,3.72 19.2,6.88 27.19,13.33 -4.65,4.06 -11.08,4.31 -16.64,6.41 -23.61,4.37 -47.69,4.07 -71.61,4.31 -22.71,-1.24 -44.74,-7.18 -66.57,-12.95 12.36,-7.42 26.64,-10.71 40.49,-14.17 z"
         inkscape:connector-curvature="0"
         style="fill:#8e7137" />
    </g>
    <g
       style="filter:url(#filter4038)"
       transform="matrix(1.0738016,-0.01452129,0.01499407,1.0399432,-36.306815,-11.361989)"
       id="#c68216ff">
      <path
         id="path3241"
         d="m 291.86,385.02 c 24.07,6.08 48.27,12.28 73.14,13.73 15.39,-0.6 30.85,0.44 46.17,-1.44 15.21,-1.21 31.2,-2.99 44.42,-11.19 -0.23,22.93 -0.42,46.15 -5.95,68.53 -5.47,10.99 -10.51,22.7 -19.7,31.2 -10.28,11.04 -23.53,19.23 -38.04,23.28 -13.45,-1.31 -27.57,-0.31 -40.24,-5.84 -6.63,-2.84 -13.53,-5.01 -20.16,-7.83 -22.18,-13.66 -34.83,-39.21 -37.51,-64.61 -2.53,-15.13 -2.13,-30.54 -2.13,-45.83 z"
         inkscape:connector-curvature="0"
         style="fill:#c68216" />
      <path
         id="path3243"
         d="m 359.37,516.18 c 7.75,-4.2 16.55,-3.62 24.98,-2.51 5.03,2.86 7.52,8.2 5.9,13.86 -11.72,-1.1 -23.52,0.39 -35.26,-0.83 0.99,-3.69 2.73,-7.1 4.38,-10.52 z"
         inkscape:connector-curvature="0"
         style="fill:#c68216" />
      <path
         id="path3245"
         d="m 349.26,538.17 c 1.42,-3.08 2.69,-7.92 7.13,-6.67 11.8,1.61 23.63,-0.13 35.45,0.76 2.52,1.63 4.93,3.56 6.1,6.43 -16.25,-0.94 -32.44,0.48 -48.68,-0.52 z"
         inkscape:connector-curvature="0"
         style="fill:#c68216" />
      <path
         id="path3247"
         d="m 350.93,543.03 c 2.83,0.12 5.65,0.25 8.48,0.38 1.66,9.53 3.04,19.34 -0.11,28.76 -1.71,0.53 -3.41,1.09 -5.11,1.66 -0.47,-0.26 -1.43,-0.79 -1.9,-1.05 -2.98,-9.57 -3.55,-19.96 -1.36,-29.75 z"
         inkscape:connector-curvature="0"
         style="fill:#c68216" />
      <path
         id="path3249"
         d="m 375.08,542.72 c 2.88,0.03 5.76,0.19 8.64,0.42 0.84,9.27 0.69,18.55 0.75,27.84 -6.4,2.47 -13.52,3.05 -20.19,1.33 3.18,-9.72 0.32,-19.53 -1.01,-29.22 2.98,0.3 5.95,0.74 8.9,1.26 0.36,2.48 0.64,4.98 0.94,7.47 0.98,-2.96 1.62,-6.01 1.97,-9.1 z"
         inkscape:connector-curvature="0"
         style="fill:#c68216" />
      <path
         id="path3251"
         d="m 388.33,543.14 c 1.7,0.34 3.4,0.71 5.1,1.09 3.48,8.34 3.54,17.45 2.86,26.31 -2,-0.15 -4.03,-0.18 -5.98,-0.65 -2.69,-5.08 -0.13,-10.99 -0.94,-16.41 -0.59,-3.42 -1.13,-6.86 -1.04,-10.34 z"
         inkscape:connector-curvature="0"
         style="fill:#c68216" />
      <path
         id="path3253"
         d="m 371.92,578.25 c 7.61,1.95 14.15,-3.45 21.55,-3.89 2.65,2.25 5.72,3.91 8.82,5.48 0.43,3 0.75,6.01 0.97,9.04 -18.49,-0.46 -37.01,-0.64 -55.49,-0.26 0.6,-3.99 1.64,-8.28 4.93,-10.94 6.32,-2.11 12.94,-1.05 19.22,0.57 z"
         inkscape:connector-curvature="0"
         style="fill:#c68216" />
      <path
         id="path3255"
         d="m 337.99,593.96 c 20.3,-1.47 40.67,-0.34 61,-0.02 5.32,0.75 11.06,-0.38 16.03,2.04 4.02,4.16 -0.13,10.49 -5.21,10.79 -20.78,-0.4 -41.54,1.22 -62.3,1.97 -5.44,-0.27 -12.12,-0.12 -15.77,-4.86 1.12,-3.64 1.19,-9.71 6.25,-9.92 z"
         inkscape:connector-curvature="0"
         style="fill:#c68216" />
      <path
         id="path3257"
         d="m 341.78,613.51 c 21.35,0.41 42.77,-2.39 64.08,-0.75 -1.04,4.12 -2.84,8.25 -6.11,11.09 -9.37,1.43 -18.97,-0.45 -28.39,0.78 -7.23,1.27 -14.67,1.73 -21.98,1 -5.67,-0.94 -6.21,-7.66 -7.6,-12.12 z"
         inkscape:connector-curvature="0"
         style="fill:#c68216" />
      <path
         id="path3259"
         d="m 367,630.93 c 3.15,-0.9 6.41,-1.17 9.66,-0.74 2.58,17.94 11.65,34.35 23.08,48.16 -2.17,0.67 -4.35,1.52 -6.65,1.46 -16.16,-0.02 -32.26,1.85 -48.42,1.76 3.33,-6.05 8.6,-10.74 12.23,-16.57 5.2,-10.67 9.39,-22.13 10.1,-34.07 z"
         inkscape:connector-curvature="0"
         style="fill:#c68216" />
      <path
         id="path3261"
         d="m 380.51,629.72 c 4.89,-0.01 9.8,-0.08 14.67,0.6 0.87,6.13 4.75,11.26 8.38,16.09 7.86,9.86 17.33,18.64 28.33,24.91 -9.09,1.35 -18.12,2.68 -26.81,5.82 -12.63,-13.05 -19.91,-30.09 -24.57,-47.42 z"
         inkscape:connector-curvature="0"
         style="fill:#c68216" />
      <path
         id="path3263"
         d="m 350.09,631.32 c 4.26,0.13 8.51,0.03 12.77,0.05 -2.85,18.9 -12.39,37.04 -26.98,49.52 -9.34,-2.5 -18.85,-4.54 -28.01,-7.67 14.78,-2.57 26.28,-13.81 34.97,-25.39 2.74,-5.35 6.7,-10.33 7.25,-16.51 z"
         inkscape:connector-curvature="0"
         style="fill:#c68216" />
      <path
         id="path3265"
         d="m 300.28,673.52 c 9.6,7.6 22.43,7.77 33.58,11.78 -2.19,3.94 -4.71,8.21 -9.03,10.09 -4.41,1.12 -8.5,-1.7 -12.63,-2.78 -6.61,-2.47 -13.98,-3.14 -19.86,-7.33 3.09,-3.61 5.63,-7.63 7.94,-11.76 z"
         inkscape:connector-curvature="0"
         style="fill:#c68216" />
      <path
         id="path3267"
         d="m 405.01,682.15 c 10.84,-4.41 22.97,-2.64 34,-6.54 2.07,2.7 4.07,5.45 5.89,8.34 -9.85,3.01 -19.54,6.5 -29.04,10.57 -4.14,-3.63 -8.71,-7.11 -10.85,-12.37 z"
         inkscape:connector-curvature="0"
         style="fill:#c68216" />
      <path
         id="path3269"
         d="m 398.6,685.48 c 1.14,-0.7 2.09,-1.67 3.1,-2.53 1.68,5.16 4.85,9.64 8.89,13.24 -12.53,0.36 -25.07,-1.83 -37.59,-0.42 -12.97,0.34 -25.95,0.98 -38.92,0.5 2.03,-3.13 3.17,-6.82 5.46,-9.74 19.68,0.49 39.38,-1.29 59.06,-1.05 z"
         inkscape:connector-curvature="0"
         style="fill:#c68216" />
      <path
         id="path3271"
         d="m 437.4,691.65 c 4.61,-0.39 9.03,-1.72 13.24,-3.61 5.67,3.21 10.63,7.81 17.18,9.23 -12.12,6.14 -24.28,12.42 -37.03,17.22 -5.21,-4.43 -9.77,-9.58 -13.36,-15.4 6.83,-2 13.24,-5.17 19.97,-7.44 z"
         inkscape:connector-curvature="0"
         style="fill:#c68216" />
      <path
         id="path3273"
         d="m 275.81,695.53 c 4.36,-2.2 8.44,-5.13 13.19,-6.44 10.37,5.76 22.35,7.52 33.09,12.51 -4.01,3.99 -7.24,8.97 -12.22,11.84 -11.8,-5.14 -22,-13.27 -34.06,-17.91 z"
         inkscape:connector-curvature="0"
         style="fill:#c68216" />
      <path
         id="path3275"
         d="m 327.69,700.21 c 20.69,2.74 41.57,0.05 62.33,0.26 7.96,0.24 15.9,1.63 23.87,0.64 2.23,5.09 6.38,8.77 9.89,12.92 -7.56,0.69 -15.14,0.51 -22.7,0.27 -19.27,2.74 -38.71,-0.03 -58.05,0.45 -7.97,-0.69 -15.99,0.56 -23.93,-0.67 3.24,-3.58 7.09,-6.7 9.22,-11.14 -0.16,-0.68 -0.47,-2.04 -0.63,-2.73 z"
         inkscape:connector-curvature="0"
         style="fill:#c68216" />
    </g>
    <g
       style="filter:url(#filter4044)"
       transform="matrix(1.0738016,-0.01452129,0.01499407,1.0399432,-36.306815,-11.361989)"
       id="#7e9b28ff">
      <path
         id="path3278"
         d="m 210.12,546.94 c 5.04,1.74 9.65,4.47 14.03,7.47 -5.31,2.72 -4.06,9.09 0.33,12.05 5.34,3.78 9.26,9.04 12.61,14.58 13.23,15.55 27.44,31.94 31.15,52.75 5.87,17.82 -2.54,35.81 -10.6,51.42 0.28,-9.13 -9.05,-12.08 -16.6,-11.45 3.15,-10.58 7.11,-21.16 6.58,-32.4 -0.4,-15.88 -3.66,-32.06 -12.23,-45.63 -7.36,-8.94 -16.39,-16.37 -24.76,-24.32 -6.54,-6.54 -5.3,-17.29 -0.51,-24.47 z"
         inkscape:connector-curvature="0"
         style="fill:#7e9b28" />
      <path
         id="path3280"
         d="m 528.56,564.89 c 5.32,-1.5 9.03,-5.68 12.72,-9.51 2.91,4.97 2.29,11.33 -0.91,16.01 -6.49,10.26 -14.43,19.5 -21.99,28.98 -6.16,8.26 -15.32,14.83 -17.44,25.52 -6.03,16.34 -2.01,33.85 1.94,50.15 -4.02,-0.11 -10.23,-3.6 -12.43,1.41 -2.34,7.39 -4.31,15.08 -3.82,22.91 -5.61,-10.48 -8.38,-22.52 -8.47,-34.39 -1.44,-12.36 -2.62,-25.34 1.46,-37.35 2.18,-7.07 4.08,-14.97 10.2,-19.77 9.24,-10.57 22.15,-17.11 30.93,-28.11 4.2,-4.31 8.62,-9.36 7.81,-15.85 z"
         inkscape:connector-curvature="0"
         style="fill:#7e9b28" />
    </g>
  </g>
</svg>
