<?xml version="1.0" encoding="UTF-8" ?>
<!DOCTYPE svg PUBLIC "-//W3C//DTD SVG 1.1//EN" "http://www.w3.org/Graphics/SVG/1.1/DTD/svg11.dtd">
<svg width="736pt" height="910pt" viewBox="0 0 736 910" version="1.1" xmlns="http://www.w3.org/2000/svg">
<g id="#71453bff">
<path fill="#71453b" opacity="1.00" d=" M 0.00 0.00 L 0.11 0.00 C 0.08 0.03 0.03 0.10 0.00 0.13 L 0.00 0.00 Z" />
<path fill="#71453b" opacity="1.00" d=" M 373.54 242.84 C 378.03 245.16 381.90 248.41 385.58 251.82 C 380.84 255.89 375.27 258.77 369.53 261.15 C 370.99 255.08 373.69 249.21 373.54 242.84 Z" />
<path fill="#71453b" opacity="1.00" d=" M 420.94 263.86 C 426.12 260.79 432.22 259.30 438.24 259.64 C 433.10 266.66 425.38 273.57 416.06 272.77 C 416.15 272.09 416.32 270.73 416.40 270.05 C 413.53 271.40 410.50 272.40 407.36 272.88 C 410.32 267.91 416.29 266.66 420.94 263.86 Z" />
<path fill="#71453b" opacity="1.00" d=" M 425.98 276.27 C 428.35 275.02 430.72 273.75 433.09 272.51 C 433.93 276.12 434.55 279.80 434.46 283.52 C 434.11 292.69 436.52 301.63 437.37 310.71 C 437.42 313.35 439.10 315.38 440.86 317.17 C 438.63 317.02 436.40 316.89 434.18 316.77 C 432.74 309.38 434.87 301.69 432.51 294.45 C 430.48 288.31 431.05 281.04 425.98 276.27 Z" />
<path fill="#71453b" opacity="1.00" d=" M 355.39 297.89 C 356.93 295.92 358.76 294.21 360.75 292.69 C 361.83 294.01 362.92 295.34 364.01 296.66 C 361.16 297.24 358.28 297.67 355.39 297.89 Z" />
<path fill="#71453b" opacity="1.00" d=" M 387.78 297.64 C 390.50 295.80 393.32 294.12 396.27 292.69 C 395.58 294.56 394.87 296.43 394.14 298.29 C 392.01 298.07 389.89 297.86 387.78 297.64 Z" />
<path fill="#71453b" opacity="1.00" d=" M 369.10 301.96 C 370.43 301.77 371.76 301.59 373.09 301.42 C 372.93 304.43 372.73 307.43 372.44 310.42 C 371.03 307.73 369.95 304.88 369.10 301.96 Z" />
<path fill="#71453b" opacity="1.00" d=" M 432.24 320.40 C 436.47 324.97 443.29 318.91 447.29 323.64 C 456.07 331.88 462.89 342.52 466.29 354.08 C 458.71 355.97 451.48 359.02 444.01 361.20 C 439.68 362.69 436.60 358.63 436.27 354.76 C 434.87 345.66 430.00 337.72 427.15 329.08 C 429.53 326.64 431.02 323.54 432.24 320.40 Z" />
<path fill="#71453b" opacity="1.00" d=" M 407.93 340.28 C 412.36 337.03 417.19 334.40 422.12 331.99 C 427.80 341.93 430.77 352.83 432.80 364.01 C 430.35 364.54 427.86 364.88 425.36 365.03 C 422.18 359.80 419.60 354.25 417.20 348.64 C 415.44 344.74 412.84 340.12 407.93 340.28 Z" />
<path fill="#71453b" opacity="1.00" d=" M 392.89 349.39 C 397.97 347.29 402.63 344.39 407.38 341.65 C 412.54 350.91 416.73 360.71 419.91 370.82 C 415.03 372.58 408.75 377.25 403.97 373.10 C 400.56 365.07 395.89 357.60 392.89 349.39 Z" />
<path fill="#71453b" opacity="1.00" d=" M 376.13 364.20 C 379.08 358.97 383.45 354.62 388.01 350.75 C 391.45 358.98 396.70 366.86 397.65 375.85 C 395.26 380.46 391.92 385.56 386.77 387.29 C 382.45 386.91 379.08 383.63 375.29 381.80 C 376.76 376.00 375.24 370.02 376.13 364.20 Z" />
<path fill="#71453b" opacity="1.00" d=" M 359.70 371.56 C 361.44 364.85 360.43 357.64 363.50 351.25 C 365.92 355.39 367.91 359.80 370.96 363.55 C 369.57 369.60 371.57 375.86 369.96 381.84 C 368.49 385.75 363.98 386.23 360.36 386.13 C 359.50 381.35 358.63 376.39 359.70 371.56 Z" />
</g>
<g id="#f3f4f4ff">
<path fill="#f3f4f4" opacity="1.00" d=" M 378.44 287.35 C 385.78 283.43 393.85 281.04 401.19 277.05 C 400.07 279.84 399.08 282.68 398.25 285.58 C 392.31 288.84 386.67 293.03 379.75 293.92 C 379.52 291.69 379.12 289.48 378.44 287.35 Z" />
<path fill="#f3f4f4" opacity="1.00" d=" M 406.25 278.10 C 407.71 278.26 409.18 278.43 410.65 278.59 C 409.82 288.79 412.95 300.11 407.45 309.39 C 400.44 315.58 393.09 322.27 384.32 325.63 C 377.60 320.70 376.84 310.13 379.75 302.64 C 384.48 304.13 389.22 305.61 393.97 307.04 C 397.69 302.44 401.35 297.76 405.51 293.54 C 403.75 288.43 403.91 282.99 406.25 278.10 Z" />
<path fill="#f3f4f4" opacity="1.00" d=" M 417.09 279.26 C 418.41 278.96 419.75 278.66 421.08 278.36 C 421.78 280.52 422.58 282.66 423.47 284.76 C 421.79 285.52 420.11 286.29 418.46 287.09 C 418.58 284.39 418.14 281.75 417.09 279.26 Z" />
<path fill="#f3f4f4" opacity="1.00" d=" M 362.52 278.85 C 365.26 280.28 367.62 282.26 369.79 284.44 C 368.80 286.68 367.83 288.92 366.94 291.20 C 365.11 289.27 363.26 287.36 361.41 285.46 C 361.79 283.26 362.14 281.05 362.52 278.85 Z" />
<path fill="#f3f4f4" opacity="1.00" d=" M 422.37 291.29 C 423.09 291.24 424.51 291.14 425.23 291.09 C 425.63 294.27 426.35 297.39 427.21 300.48 C 423.69 300.49 420.42 301.78 417.25 303.14 C 417.97 300.29 418.47 297.39 418.51 294.45 C 419.80 293.40 421.08 292.35 422.37 291.29 Z" />
<path fill="#f3f4f4" opacity="1.00" d=" M 357.26 303.39 C 359.49 303.06 361.72 302.72 363.96 302.38 C 364.50 306.71 367.33 310.14 369.79 313.56 C 370.64 318.50 367.00 322.29 366.49 326.97 C 365.53 326.82 364.57 326.69 363.62 326.56 C 362.57 318.47 359.78 311.07 357.26 303.39 Z" />
<path fill="#f3f4f4" opacity="1.00" d=" M 414.80 309.73 C 419.70 308.98 423.92 306.34 427.87 303.52 C 428.31 308.62 425.63 313.45 426.73 318.54 C 421.61 322.27 416.89 316.11 412.67 313.76 C 413.37 312.41 414.08 311.07 414.80 309.73 Z" />
<path fill="#f3f4f4" opacity="1.00" d=" M 401.36 323.39 C 404.19 320.80 408.61 316.00 412.47 319.51 C 415.26 321.46 418.24 323.11 421.26 324.67 C 418.08 328.36 414.15 331.77 409.16 332.51 C 405.49 331.27 402.80 328.02 400.93 324.75 C 400.29 324.60 399.01 324.32 398.37 324.18 C 399.12 323.98 400.61 323.59 401.36 323.39 Z" />
<path fill="#f3f4f4" opacity="1.00" d=" M 372.68 327.86 C 373.60 325.78 374.50 323.69 375.42 321.61 C 376.32 323.51 377.19 325.43 378.04 327.36 C 376.25 327.52 374.46 327.68 372.68 327.86 Z" />
<path fill="#f3f4f4" opacity="1.00" d=" M 390.08 330.56 C 391.91 329.44 393.71 328.28 395.49 327.07 C 398.06 329.71 400.71 332.31 403.69 334.51 C 403.66 335.09 403.61 336.25 403.59 336.83 C 401.46 338.58 399.11 340.02 396.65 341.25 C 394.49 337.67 392.20 334.16 390.08 330.56 Z" />
<path fill="#f3f4f4" opacity="1.00" d=" M 362.37 333.20 C 363.83 333.35 365.28 333.51 366.75 333.67 C 366.19 337.07 365.22 340.38 364.33 343.71 C 363.85 343.67 362.89 343.59 362.41 343.56 C 362.52 340.10 362.45 336.65 362.37 333.20 Z" />
<path fill="#f3f4f4" opacity="1.00" d=" M 379.97 333.46 C 381.74 333.32 383.52 333.20 385.30 333.10 C 387.27 336.28 389.49 339.29 391.92 342.12 C 390.10 344.64 387.33 345.87 384.26 345.96 C 382.81 341.80 380.89 337.79 379.97 333.46 Z" />
<path fill="#f3f4f4" opacity="1.00" d=" M 368.90 347.46 C 369.60 342.69 371.81 338.38 374.02 334.16 C 375.57 338.39 378.14 342.20 379.38 346.54 C 380.46 351.41 376.70 355.54 372.92 357.99 C 371.80 355.10 371.25 352.05 371.19 348.96 C 370.62 348.59 369.47 347.84 368.90 347.46 Z" />
</g>
<g id="#d5e8f0ff">
<path fill="#d5e8f0" opacity="1.00" d=" M 98.93 0.00 L 107.11 0.00 C 104.98 1.47 102.79 2.85 100.44 3.93 C 99.95 2.62 99.45 1.31 98.93 0.00 Z" />
<path fill="#d5e8f0" opacity="1.00" d=" M 303.20 44.17 C 326.28 37.16 350.62 37.26 374.45 35.56 C 374.58 101.75 370.55 167.87 369.30 234.03 C 370.02 245.73 365.35 256.89 362.27 267.98 C 360.75 269.54 359.20 271.07 357.67 272.61 C 358.24 281.49 356.13 289.85 353.38 298.22 C 351.98 309.44 359.99 319.26 359.35 330.44 C 357.21 340.02 357.23 349.89 355.61 359.56 C 354.74 365.06 351.29 370.31 353.16 375.99 C 352.51 388.10 359.50 398.48 363.41 409.47 C 360.02 414.94 353.87 418.95 352.56 425.45 C 343.80 427.11 334.67 427.19 326.26 430.60 C 299.98 357.23 273.85 283.71 247.73 210.24 C 248.51 210.11 250.06 209.86 250.84 209.73 C 249.80 209.80 248.75 209.89 247.72 209.98 C 240.86 192.26 235.37 174.05 228.62 156.29 C 220.51 133.95 212.22 111.66 205.19 88.96 C 212.02 84.70 219.33 81.29 226.08 76.92 C 243.42 68.54 260.05 58.00 279.08 53.86 C 286.87 50.02 295.44 48.10 303.20 44.17 Z" />
<path fill="#d5e8f0" opacity="1.00" d=" M 375.62 188.02 C 375.94 137.51 377.60 87.02 379.11 36.53 C 388.40 36.46 397.71 36.54 406.99 36.51 C 422.45 40.10 438.53 40.63 453.73 45.44 C 466.54 48.63 478.69 54.01 491.49 57.24 C 490.59 57.40 488.79 57.72 487.88 57.87 C 510.37 61.92 529.96 74.76 549.27 86.30 C 548.63 86.86 548.00 87.41 547.37 87.97 C 547.40 93.30 545.31 98.29 543.38 103.15 C 519.19 169.39 495.31 235.72 471.11 301.95 C 467.24 311.28 464.09 320.90 460.97 330.51 C 456.94 325.44 452.22 320.80 446.86 317.13 C 440.59 303.00 439.12 287.40 439.32 272.04 C 438.64 271.07 437.95 270.10 437.27 269.14 C 440.11 265.17 444.88 261.99 445.73 256.98 C 444.85 256.26 443.99 255.55 443.14 254.83 C 435.01 252.88 427.04 255.75 419.55 258.65 C 410.75 259.09 401.95 257.44 393.75 254.26 C 389.72 246.59 381.36 242.88 374.98 237.54 C 376.34 221.09 374.63 204.52 375.62 188.02 Z" />
<path fill="#d5e8f0" opacity="1.00" d=" M 549.98 102.90 C 550.93 98.47 552.03 94.01 554.67 90.23 C 586.96 114.75 619.03 141.83 637.71 178.56 C 640.71 181.64 643.42 185.12 644.59 189.33 C 644.54 188.49 644.45 186.81 644.41 185.97 C 654.99 202.16 664.77 218.89 672.93 236.47 C 671.86 236.79 670.80 237.11 669.75 237.43 C 610.55 306.13 547.80 371.70 486.78 438.81 C 486.23 423.72 482.98 408.93 481.75 393.90 C 481.30 382.62 476.39 372.21 474.74 361.15 C 471.10 352.79 470.08 343.25 464.19 335.97 C 467.21 323.82 473.05 312.62 476.60 300.63 C 494.57 251.01 512.69 201.37 530.74 151.72 C 536.94 135.37 542.05 118.52 549.98 102.90 Z" />
<path fill="#d5e8f0" opacity="1.00" d=" M 171.48 112.35 C 180.81 104.73 190.55 97.67 200.72 91.22 C 213.07 129.69 227.64 167.37 240.53 205.66 C 260.21 263.27 281.05 320.46 301.24 377.90 C 307.83 395.86 312.79 414.41 319.99 432.14 C 309.19 435.15 298.41 438.74 289.26 445.41 C 285.88 445.90 282.06 446.16 280.23 449.52 C 276.98 449.50 273.74 449.69 270.50 449.80 C 269.46 448.01 268.48 446.18 267.34 444.45 C 253.08 429.37 240.45 412.83 226.87 397.13 C 178.69 337.52 128.21 279.79 80.29 219.98 C 92.48 198.18 106.30 177.35 121.47 157.52 C 129.13 149.16 137.59 141.58 145.51 133.48 C 153.49 125.63 163.19 119.84 171.48 112.35 Z" />
<path fill="#d5e8f0" opacity="1.00" d=" M 78.13 224.58 C 110.88 266.40 145.92 306.33 179.57 347.40 C 205.78 379.24 231.94 411.18 257.97 443.15 C 259.93 447.94 264.83 450.20 268.04 454.01 C 268.12 455.34 268.19 456.67 268.27 458.02 C 258.83 471.97 246.72 484.05 238.20 498.71 C 174.52 463.76 110.58 429.18 47.17 393.69 C 46.53 381.09 50.49 368.35 46.94 355.99 C 47.81 335.96 48.20 315.62 54.11 296.25 C 58.91 271.41 66.75 247.19 78.13 224.58 Z" />
<path fill="#d5e8f0" opacity="1.00" d=" M 622.44 297.51 C 639.82 278.82 656.40 259.36 674.51 241.36 C 677.76 249.98 683.39 257.55 685.27 266.69 C 689.84 284.50 697.30 301.47 700.67 319.58 C 707.64 346.80 705.75 375.16 704.57 402.92 C 635.30 437.10 566.63 472.59 497.00 506.08 C 496.91 499.85 495.11 493.60 491.23 488.66 C 491.44 481.74 491.91 474.49 488.74 468.09 C 486.64 461.29 488.46 453.96 487.45 446.96 C 493.63 437.50 502.16 429.98 509.19 421.17 C 546.62 379.66 585.17 339.17 622.44 297.51 Z" />
<path fill="#d5e8f0" opacity="1.00" d=" M 43.85 563.46 C 44.93 508.50 45.45 453.52 47.14 398.58 C 95.13 425.45 143.37 451.84 191.52 478.42 C 206.27 486.95 220.95 495.61 236.01 503.58 C 224.71 522.81 219.42 545.06 219.15 567.28 C 214.76 567.60 210.40 568.32 205.99 568.24 C 155.98 567.97 105.96 567.19 55.96 566.22 C 51.56 566.56 48.46 562.00 43.85 563.46 Z" />
<path fill="#d5e8f0" opacity="1.00" d=" M 551.02 484.76 C 602.44 459.64 653.53 433.71 704.82 408.36 C 703.62 463.69 701.69 519.03 701.16 574.38 C 696.51 573.25 691.71 573.62 686.98 573.67 C 627.71 573.34 568.41 573.17 509.18 571.40 C 510.11 556.70 506.17 542.51 503.69 528.17 C 502.33 522.66 500.11 517.26 500.40 511.48 C 500.10 511.24 499.49 510.76 499.19 510.52 C 516.04 501.09 533.80 493.46 551.02 484.76 Z" />
<path fill="#d5e8f0" opacity="1.00" d=" M 43.72 571.46 C 47.52 571.97 51.10 570.16 54.89 570.32 C 98.94 570.29 142.95 571.75 187.00 571.87 C 197.70 572.14 208.41 572.63 219.11 572.88 C 218.88 586.53 219.10 600.24 221.08 613.71 C 223.60 622.03 228.50 629.27 233.55 636.24 C 206.67 650.14 179.95 664.36 152.85 677.84 C 146.76 680.14 140.67 682.57 135.77 687.01 C 134.17 686.20 132.58 685.42 130.97 684.65 C 135.32 680.65 136.23 674.56 136.41 668.95 C 137.67 659.22 125.93 654.16 126.28 644.51 C 124.55 643.17 122.61 642.17 120.38 642.16 C 117.52 647.34 119.55 653.70 116.10 658.66 C 115.51 654.72 114.93 650.78 114.48 646.82 C 112.61 645.75 110.54 645.16 108.39 645.02 C 104.02 653.36 96.57 659.46 91.07 666.98 C 88.56 672.18 88.92 678.56 91.70 683.58 C 82.90 690.40 82.14 702.13 80.51 712.19 C 79.76 713.59 79.02 714.99 78.29 716.41 C 65.80 722.93 52.91 729.11 40.99 736.76 C 42.63 681.70 42.20 626.52 43.72 571.46 Z" />
<path fill="#d5e8f0" opacity="1.00" d=" M 508.77 575.88 C 572.74 575.55 636.75 577.91 700.72 577.62 C 699.83 634.03 698.01 690.44 697.18 746.85 C 683.62 739.26 669.58 732.50 656.41 724.21 C 656.81 719.29 657.27 714.29 656.63 709.38 C 655.10 702.82 648.85 699.10 643.28 696.27 C 646.85 689.06 650.14 679.64 644.53 672.60 C 637.63 667.10 633.52 659.26 629.13 651.81 C 625.76 656.43 623.03 661.99 623.40 667.85 C 620.28 663.71 619.47 657.72 614.46 655.29 C 609.93 663.84 607.41 674.12 599.47 680.32 C 599.11 684.19 598.54 688.03 597.66 691.82 C 565.27 674.54 532.40 657.97 500.50 639.69 C 497.60 638.03 491.64 636.37 493.81 631.89 C 503.24 614.77 508.03 595.37 508.77 575.88 Z" />
<path fill="#d5e8f0" opacity="1.00" d=" M 490.13 640.09 C 521.47 656.86 553.00 673.35 584.10 690.52 C 587.24 693.26 590.92 695.15 594.89 696.37 C 590.80 699.76 586.64 703.41 584.46 708.38 C 580.74 716.00 583.23 724.84 586.44 732.18 C 585.67 735.81 584.13 739.24 583.50 742.90 C 585.64 747.50 591.62 749.88 596.08 746.91 C 601.77 745.42 604.41 739.93 607.04 735.23 C 606.96 739.85 609.97 743.17 614.43 743.98 C 614.37 756.70 614.94 769.35 615.87 782.03 C 608.89 770.79 604.61 755.97 591.74 750.16 C 580.51 750.70 571.43 759.67 565.06 768.27 C 565.12 769.28 565.20 770.30 565.29 771.32 C 557.80 769.66 549.66 769.39 542.20 771.31 C 524.71 751.84 508.37 731.39 491.48 711.40 C 481.89 699.11 470.97 687.87 462.03 675.09 C 466.20 669.14 473.10 666.16 477.83 660.82 C 482.74 654.46 487.28 647.65 490.13 640.09 Z" />
<path fill="#d5e8f0" opacity="1.00" d=" M 222.80 648.70 C 227.75 646.81 231.98 643.33 237.16 642.03 C 238.59 644.53 240.05 647.01 241.48 649.52 C 241.19 649.78 240.60 650.30 240.31 650.56 C 247.02 651.36 250.28 658.78 255.28 662.71 C 259.58 667.37 265.32 670.28 269.82 674.68 C 244.54 704.27 218.05 732.81 192.99 762.57 C 182.41 761.87 171.71 763.52 161.65 766.76 C 161.28 761.98 163.32 756.23 159.69 752.31 C 155.70 747.53 153.12 741.45 147.74 737.97 C 146.12 736.80 144.25 738.08 142.69 738.68 C 133.36 742.97 127.94 752.22 122.91 760.70 C 122.21 751.81 123.85 742.63 121.20 733.99 C 123.70 731.36 126.37 728.82 127.99 725.52 C 130.53 729.04 133.80 732.78 138.64 731.93 C 138.70 731.37 138.80 730.25 138.85 729.69 C 141.76 728.38 144.15 726.28 146.37 724.05 C 146.82 720.65 146.22 717.29 144.53 714.31 C 141.97 710.17 145.93 705.30 143.81 701.08 C 142.25 697.70 142.31 693.81 140.44 690.56 C 147.34 689.53 152.72 684.69 158.67 681.46 C 179.98 670.43 201.63 660.02 222.80 648.70 Z" />
<path fill="#d5e8f0" opacity="1.00" d=" M 266.70 685.68 C 269.23 682.92 271.56 679.84 274.95 678.06 C 286.85 689.11 301.73 696.58 316.85 702.16 C 308.77 724.31 299.03 745.82 290.76 767.91 L 290.56 766.50 C 285.15 781.83 278.37 796.95 272.13 812.09 C 267.57 824.22 260.95 835.79 258.17 848.39 C 258.88 848.71 260.29 849.35 261.00 849.67 C 266.38 843.81 267.91 835.93 270.67 828.71 C 280.58 804.26 290.55 779.83 300.08 755.23 C 307.84 738.48 312.88 720.59 321.23 704.10 C 333.94 708.03 346.92 711.85 360.24 712.72 C 361.19 716.40 361.98 720.15 361.72 724.00 C 361.22 757.99 360.19 791.98 359.10 825.95 C 357.63 834.23 360.69 843.63 355.80 851.01 C 279.08 850.51 202.33 848.70 125.58 848.13 C 129.71 842.16 134.44 836.66 139.42 831.39 C 182.05 782.99 223.75 733.81 266.70 685.68 Z" />
<path fill="#d5e8f0" opacity="1.00" d=" M 421.55 703.84 C 434.26 697.12 446.62 689.24 456.96 679.16 C 468.00 688.81 476.13 701.24 485.81 712.16 C 502.53 733.19 520.37 753.27 537.13 774.26 C 536.74 774.64 535.97 775.40 535.59 775.78 C 535.94 776.39 536.64 777.61 537.00 778.22 C 538.21 778.31 539.43 778.42 540.66 778.53 C 547.14 785.67 552.25 794.05 559.52 800.45 C 575.35 817.87 589.83 836.47 605.23 854.23 C 561.38 853.56 517.51 853.38 473.66 852.57 C 458.86 811.51 444.05 770.47 429.81 729.22 C 427.23 720.65 423.10 712.63 421.55 703.84 Z" />
<path fill="#d5e8f0" opacity="1.00" d=" M 366.99 715.59 C 383.80 714.76 400.59 712.18 416.31 706.03 C 434.71 754.35 450.31 803.76 467.61 852.53 C 433.22 852.27 398.84 851.73 364.46 851.25 C 364.14 806.01 364.90 760.74 366.99 715.59 Z" />
<path fill="#d5e8f0" opacity="1.00" d=" M 87.42 729.24 C 91.41 727.55 95.44 725.43 97.90 721.73 C 99.70 727.26 104.14 732.07 109.70 733.93 C 109.76 734.88 109.83 735.84 109.90 736.80 C 117.48 753.61 110.28 772.60 111.26 790.30 C 107.55 781.71 100.93 774.81 96.04 766.89 C 88.44 757.12 78.73 748.55 67.06 744.03 C 60.94 741.59 54.20 742.32 47.94 740.48 C 56.89 734.09 66.84 729.02 77.12 725.18 C 80.12 727.21 83.50 730.59 87.42 729.24 Z" />
<path fill="#d5e8f0" opacity="1.00" d=" M 655.23 730.16 C 668.98 736.49 681.56 745.09 695.22 751.63 C 677.54 759.67 659.57 768.72 646.58 783.59 C 637.73 791.25 633.70 802.67 626.41 811.51 C 626.42 812.55 626.44 813.59 626.48 814.65 C 626.10 815.09 625.34 815.98 624.96 816.43 C 626.87 806.99 624.72 797.36 625.33 787.84 C 625.23 774.07 625.58 760.29 625.44 746.52 C 629.94 743.97 632.84 739.58 635.51 735.29 C 640.14 742.08 646.24 749.11 655.42 747.79 C 656.91 746.16 658.19 744.34 659.05 742.29 C 655.08 739.38 654.93 734.65 655.23 730.16 Z" />
<path fill="#d5e8f0" opacity="1.00" d=" M 39.57 846.51 C 39.61 812.70 40.06 778.81 41.25 745.04 C 51.58 750.71 63.50 754.53 71.54 763.53 C 90.45 780.56 99.52 805.76 103.69 830.30 C 104.52 833.88 104.09 837.94 106.49 840.99 C 106.55 842.21 106.59 843.43 106.62 844.68 C 107.70 845.66 108.78 846.66 109.86 847.66 C 86.43 847.61 62.99 847.27 39.57 846.51 Z" />
<path fill="#d5e8f0" opacity="1.00" d=" M 680.72 768.71 C 685.62 764.02 691.54 760.59 696.72 756.23 C 696.46 789.27 694.30 822.30 694.42 855.32 C 674.28 854.03 653.94 854.85 633.72 854.42 C 636.10 836.83 644.13 820.61 653.91 806.01 C 660.89 792.25 670.92 780.48 680.72 768.71 Z" />
<path fill="#d5e8f0" opacity="1.00" d=" M 136.29 780.40 C 138.17 772.48 142.07 765.23 144.24 757.40 C 148.72 760.42 152.07 764.75 154.60 769.47 C 147.66 771.80 142.05 776.14 136.29 780.40 Z" />
<path fill="#d5e8f0" opacity="1.00" d=" M 156.66 782.63 C 166.72 775.57 178.10 770.73 189.52 766.33 C 168.39 791.19 146.76 815.62 125.09 839.98 C 126.99 817.28 140.83 798.03 156.66 782.63 Z" />
<path fill="#d5e8f0" opacity="1.00" d=" M 577.70 774.91 C 582.04 772.35 585.91 769.13 589.99 766.20 C 595.28 774.64 599.08 783.74 603.33 792.67 C 596.75 784.39 587.62 778.40 577.70 774.91 Z" />
<path fill="#d5e8f0" opacity="1.00" d=" M 546.55 776.48 C 558.64 776.70 570.93 780.70 579.42 789.59 C 584.81 797.54 589.08 806.32 595.56 813.51 C 605.05 824.91 608.01 839.88 612.15 853.74 C 590.37 827.95 568.33 802.31 546.55 776.48 Z" />
</g>
<g id="#110f13ff">
<path fill="#110f13" opacity="1.00" d=" M 345.95 31.57 C 365.64 30.27 385.35 28.89 405.09 29.51 C 416.28 31.85 427.71 33.02 439.02 34.72 C 459.68 38.89 479.87 45.08 499.64 52.34 C 539.28 68.39 575.69 92.78 604.61 124.42 C 618.38 135.83 627.65 151.40 638.96 165.04 C 653.85 187.45 668.45 210.31 679.04 235.14 C 688.10 252.48 692.35 271.73 698.88 290.05 C 703.69 306.79 707.55 323.81 710.29 341.01 C 711.52 348.49 709.54 356.13 711.43 363.54 C 712.37 375.84 709.19 387.98 709.56 400.30 C 710.65 401.23 711.73 402.17 712.82 403.13 C 711.64 404.14 710.46 405.14 709.28 406.14 C 704.31 556.09 703.08 706.17 699.36 856.13 C 698.12 857.38 696.99 858.73 695.99 860.18 C 669.84 860.81 643.63 859.54 617.45 859.26 C 616.81 860.40 616.18 861.56 615.53 862.71 C 612.77 862.89 610.34 861.65 608.94 859.27 C 564.48 858.43 520.00 858.23 475.54 857.43 C 475.26 858.09 474.71 859.42 474.43 860.08 C 472.32 859.92 470.48 858.99 469.04 857.46 C 323.88 855.39 178.53 853.18 33.46 851.52 C 33.21 847.70 31.22 843.24 34.33 840.10 C 37.93 698.76 39.37 557.39 42.25 416.02 C 41.78 399.66 43.46 383.40 42.46 367.05 C 39.05 343.40 42.39 319.32 46.98 296.02 C 51.61 268.16 61.95 241.62 74.31 216.35 C 80.28 207.92 84.00 198.19 89.53 189.49 C 96.75 180.54 101.97 170.18 109.59 161.54 C 116.73 148.76 128.97 140.27 139.33 130.34 C 145.99 121.50 156.38 116.75 164.45 109.40 C 179.45 96.56 195.84 85.36 213.51 76.52 C 234.02 64.52 255.04 52.74 278.01 46.08 C 299.53 36.98 322.95 34.26 345.95 31.57 M 303.20 44.17 C 295.44 48.10 286.87 50.02 279.08 53.86 C 260.05 58.00 243.42 68.54 226.08 76.92 C 219.33 81.29 212.02 84.70 205.19 88.96 C 212.22 111.66 220.51 133.95 228.62 156.29 C 235.37 174.05 240.86 192.26 247.72 209.98 C 248.75 209.89 249.80 209.80 250.84 209.73 C 250.06 209.86 248.51 210.11 247.73 210.24 C 273.85 283.71 299.98 357.23 326.26 430.60 C 334.67 427.19 343.80 427.11 352.56 425.45 C 353.87 418.95 360.02 414.94 363.41 409.47 C 359.50 398.48 352.51 388.10 353.16 375.99 C 351.29 370.31 354.74 365.06 355.61 359.56 C 357.23 349.89 357.21 340.02 359.35 330.44 C 359.99 319.26 351.98 309.44 353.38 298.22 C 356.13 289.85 358.24 281.49 357.67 272.61 C 359.20 271.07 360.75 269.54 362.27 267.98 C 365.35 256.89 370.02 245.73 369.30 234.03 C 370.55 167.87 374.58 101.75 374.45 35.56 C 350.62 37.26 326.28 37.16 303.20 44.17 M 375.62 188.02 C 374.63 204.52 376.34 221.09 374.98 237.54 C 381.36 242.88 389.72 246.59 393.75 254.26 C 401.95 257.44 410.75 259.09 419.55 258.65 C 427.04 255.75 435.01 252.88 443.14 254.83 C 443.99 255.55 444.85 256.26 445.73 256.98 C 444.88 261.99 440.11 265.17 437.27 269.14 C 437.95 270.10 438.64 271.07 439.32 272.04 C 439.12 287.40 440.59 303.00 446.86 317.13 C 452.22 320.80 456.94 325.44 460.97 330.51 C 464.09 320.90 467.24 311.28 471.11 301.95 C 495.31 235.72 519.19 169.39 543.38 103.15 C 545.31 98.29 547.40 93.30 547.37 87.97 C 548.00 87.41 548.63 86.86 549.27 86.30 C 529.96 74.76 510.37 61.92 487.88 57.87 C 488.79 57.72 490.59 57.40 491.49 57.24 C 478.69 54.01 466.54 48.63 453.73 45.44 C 438.53 40.63 422.45 40.10 406.99 36.51 C 397.71 36.54 388.40 36.46 379.11 36.53 C 377.60 87.02 375.94 137.51 375.62 188.02 M 549.98 102.90 C 542.05 118.52 536.94 135.37 530.74 151.72 C 512.69 201.37 494.57 251.01 476.60 300.63 C 473.05 312.62 467.21 323.82 464.19 335.97 C 470.08 343.25 471.10 352.79 474.74 361.15 C 476.39 372.21 481.30 382.62 481.75 393.90 C 482.98 408.93 486.23 423.72 486.78 438.81 C 547.80 371.70 610.55 306.13 669.75 237.43 C 670.80 237.11 671.86 236.79 672.93 236.47 C 664.77 218.89 654.99 202.16 644.41 185.97 C 644.45 186.81 644.54 188.49 644.59 189.33 C 643.42 185.12 640.71 181.64 637.71 178.56 C 619.03 141.83 586.96 114.75 554.67 90.23 C 552.03 94.01 550.93 98.47 549.98 102.90 M 171.48 112.35 C 163.19 119.84 153.49 125.63 145.51 133.48 C 137.59 141.58 129.13 149.16 121.47 157.52 C 106.30 177.35 92.48 198.18 80.29 219.98 C 128.21 279.79 178.69 337.52 226.87 397.13 C 240.45 412.83 253.08 429.37 267.34 444.45 C 268.48 446.18 269.46 448.01 270.50 449.80 C 273.74 449.69 276.98 449.50 280.23 449.52 C 282.06 446.16 285.88 445.90 289.26 445.41 C 298.41 438.74 309.19 435.15 319.99 432.14 C 312.79 414.41 307.83 395.86 301.24 377.90 C 281.05 320.46 260.21 263.27 240.53 205.66 C 227.64 167.37 213.07 129.69 200.72 91.22 C 190.55 97.67 180.81 104.73 171.48 112.35 M 78.13 224.58 C 66.75 247.19 58.91 271.41 54.11 296.25 C 48.20 315.62 47.81 335.96 46.94 355.99 C 50.49 368.35 46.53 381.09 47.17 393.69 C 110.58 429.18 174.52 463.76 238.20 498.71 C 246.72 484.05 258.83 471.97 268.27 458.02 C 268.19 456.67 268.12 455.34 268.04 454.01 C 264.83 450.20 259.93 447.94 257.97 443.15 C 231.94 411.18 205.78 379.24 179.57 347.40 C 145.92 306.33 110.88 266.40 78.13 224.58 M 622.44 297.51 C 585.17 339.17 546.62 379.66 509.19 421.17 C 502.16 429.98 493.63 437.50 487.45 446.96 C 488.46 453.96 486.64 461.29 488.74 468.09 C 491.91 474.49 491.44 481.74 491.23 488.66 C 495.11 493.60 496.91 499.85 497.00 506.08 C 566.63 472.59 635.30 437.10 704.57 402.92 C 705.75 375.16 707.64 346.80 700.67 319.58 C 697.30 301.47 689.84 284.50 685.27 266.69 C 683.39 257.55 677.76 249.98 674.51 241.36 C 656.40 259.36 639.82 278.82 622.44 297.51 M 373.54 242.84 C 373.69 249.21 370.99 255.08 369.53 261.15 C 375.27 258.77 380.84 255.89 385.58 251.82 C 381.90 248.41 378.03 245.16 373.54 242.84 M 361.64 271.65 C 365.07 275.71 370.28 277.61 373.68 281.70 C 380.56 282.13 386.50 278.16 392.55 275.52 C 399.23 272.72 405.01 268.17 410.13 263.12 C 406.11 262.62 401.88 262.62 398.32 260.43 C 397.92 261.01 397.52 261.59 397.14 262.18 C 396.98 261.46 396.66 260.03 396.50 259.31 C 393.86 258.30 391.26 257.21 388.70 256.01 C 378.92 259.98 370.62 266.36 361.64 271.65 M 420.94 263.86 C 416.29 266.66 410.32 267.91 407.36 272.88 C 410.50 272.40 413.53 271.40 416.40 270.05 C 416.32 270.73 416.15 272.09 416.06 272.77 C 425.38 273.57 433.10 266.66 438.24 259.64 C 432.22 259.30 426.12 260.79 420.94 263.86 M 425.98 276.27 C 431.05 281.04 430.48 288.31 432.51 294.45 C 434.87 301.69 432.74 309.38 434.18 316.77 C 436.40 316.89 438.63 317.02 440.86 317.17 C 439.10 315.38 437.42 313.35 437.37 310.71 C 436.52 301.63 434.11 292.69 434.46 283.52 C 434.55 279.80 433.93 276.12 433.09 272.51 C 430.72 273.75 428.35 275.02 425.98 276.27 M 378.44 287.35 C 379.12 289.48 379.52 291.69 379.75 293.92 C 386.67 293.03 392.31 288.84 398.25 285.58 C 399.08 282.68 400.07 279.84 401.19 277.05 C 393.85 281.04 385.78 283.43 378.44 287.35 M 406.25 278.10 C 403.91 282.99 403.75 288.43 405.51 293.54 C 401.35 297.76 397.69 302.44 393.97 307.04 C 389.22 305.61 384.48 304.13 379.75 302.64 C 376.84 310.13 377.60 320.70 384.32 325.63 C 393.09 322.27 400.44 315.58 407.45 309.39 C 412.95 300.11 409.82 288.79 410.65 278.59 C 409.18 278.43 407.71 278.26 406.25 278.10 M 417.09 279.26 C 418.14 281.75 418.58 284.39 418.46 287.09 C 420.11 286.29 421.79 285.52 423.47 284.76 C 422.58 282.66 421.78 280.52 421.08 278.36 C 419.75 278.66 418.41 278.96 417.09 279.26 M 362.52 278.85 C 362.14 281.05 361.79 283.26 361.41 285.46 C 363.26 287.36 365.11 289.27 366.94 291.20 C 367.83 288.92 368.80 286.68 369.79 284.44 C 367.62 282.26 365.26 280.28 362.52 278.85 M 422.37 291.29 C 421.08 292.35 419.80 293.40 418.51 294.45 C 418.47 297.39 417.97 300.29 417.25 303.14 C 420.42 301.78 423.69 300.49 427.21 300.48 C 426.35 297.39 425.63 294.27 425.23 291.09 C 424.51 291.14 423.09 291.24 422.37 291.29 M 373.22 292.65 C 372.25 293.41 372.38 295.53 373.80 295.67 C 375.82 295.55 375.19 291.56 373.22 292.65 M 355.39 297.89 C 358.28 297.67 361.16 297.24 364.01 296.66 C 362.92 295.34 361.83 294.01 360.75 292.69 C 358.76 294.21 356.93 295.92 355.39 297.89 M 387.78 297.64 C 389.89 297.86 392.01 298.07 394.14 298.29 C 394.87 296.43 395.58 294.56 396.27 292.69 C 393.32 294.12 390.50 295.80 387.78 297.64 M 369.10 301.96 C 369.95 304.88 371.03 307.73 372.44 310.42 C 372.73 307.43 372.93 304.43 373.09 301.42 C 371.76 301.59 370.43 301.77 369.10 301.96 M 357.26 303.39 C 359.78 311.07 362.57 318.47 363.62 326.56 C 364.57 326.69 365.53 326.82 366.49 326.97 C 367.00 322.29 370.64 318.50 369.79 313.56 C 367.33 310.14 364.50 306.71 363.96 302.38 C 361.72 302.72 359.49 303.06 357.26 303.39 M 414.80 309.73 C 414.08 311.07 413.37 312.41 412.67 313.76 C 416.89 316.11 421.61 322.27 426.73 318.54 C 425.63 313.45 428.31 308.62 427.87 303.52 C 423.92 306.34 419.70 308.98 414.80 309.73 M 401.36 323.39 C 400.61 323.59 399.12 323.98 398.37 324.18 C 399.01 324.32 400.29 324.60 400.93 324.75 C 402.80 328.02 405.49 331.27 409.16 332.51 C 414.15 331.77 418.08 328.36 421.26 324.67 C 418.24 323.11 415.26 321.46 412.47 319.51 C 408.61 316.00 404.19 320.80 401.36 323.39 M 432.24 320.40 C 431.02 323.54 429.53 326.64 427.15 329.08 C 430.00 337.72 434.87 345.66 436.27 354.76 C 436.60 358.63 439.68 362.69 444.01 361.20 C 451.48 359.02 458.71 355.97 466.29 354.08 C 462.89 342.52 456.07 331.88 447.29 323.64 C 443.29 318.91 436.47 324.97 432.24 320.40 M 372.68 327.86 C 374.46 327.68 376.25 327.52 378.04 327.36 C 377.19 325.43 376.32 323.51 375.42 321.61 C 374.50 323.69 373.60 325.78 372.68 327.86 M 390.08 330.56 C 392.20 334.16 394.49 337.67 396.65 341.25 C 399.11 340.02 401.46 338.58 403.59 336.83 C 403.61 336.25 403.66 335.09 403.69 334.51 C 400.71 332.31 398.06 329.71 395.49 327.07 C 393.71 328.28 391.91 329.44 390.08 330.56 M 407.93 340.28 C 412.84 340.12 415.44 344.74 417.20 348.64 C 419.60 354.25 422.18 359.80 425.36 365.03 C 427.86 364.88 430.35 364.54 432.80 364.01 C 430.77 352.83 427.80 341.93 422.12 331.99 C 417.19 334.40 412.36 337.03 407.93 340.28 M 362.37 333.20 C 362.45 336.65 362.52 340.10 362.41 343.56 C 362.89 343.59 363.85 343.67 364.33 343.71 C 365.22 340.38 366.19 337.07 366.75 333.67 C 365.28 333.51 363.83 333.35 362.37 333.20 M 379.97 333.46 C 380.89 337.79 382.81 341.80 384.26 345.96 C 387.33 345.87 390.10 344.64 391.92 342.12 C 389.49 339.29 387.27 336.28 385.30 333.10 C 383.52 333.20 381.74 333.32 379.97 333.46 M 368.90 347.46 C 369.47 347.84 370.62 348.59 371.19 348.96 C 371.25 352.05 371.80 355.10 372.92 357.99 C 376.70 355.54 380.46 351.41 379.38 346.54 C 378.14 342.20 375.57 338.39 374.02 334.16 C 371.81 338.38 369.60 342.69 368.90 347.46 M 392.89 349.39 C 395.89 357.60 400.56 365.07 403.97 373.10 C 408.75 377.25 415.03 372.58 419.91 370.82 C 416.73 360.71 412.54 350.91 407.38 341.65 C 402.63 344.39 397.97 347.29 392.89 349.39 M 376.13 364.20 C 375.24 370.02 376.76 376.00 375.29 381.80 C 379.08 383.63 382.45 386.91 386.77 387.29 C 391.92 385.56 395.26 380.46 397.65 375.85 C 396.70 366.86 391.45 358.98 388.01 350.75 C 383.45 354.62 379.08 358.97 376.13 364.20 M 359.70 371.56 C 358.63 376.39 359.50 381.35 360.36 386.13 C 363.98 386.23 368.49 385.75 369.96 381.84 C 371.57 375.86 369.57 369.60 370.96 363.55 C 367.91 359.80 365.92 355.39 363.50 351.25 C 360.43 357.64 361.44 364.85 359.70 371.56 M 461.82 360.35 C 464.77 370.82 467.56 381.36 468.87 392.19 C 469.98 398.36 469.36 405.36 473.43 410.57 C 474.96 410.43 476.50 410.29 478.04 410.17 C 476.70 395.54 474.28 381.00 470.19 366.87 C 469.20 363.69 466.99 361.11 465.12 358.43 C 464.01 359.06 462.91 359.70 461.82 360.35 M 452.48 363.24 C 455.59 372.98 458.05 382.91 460.17 392.91 C 461.33 400.45 460.30 408.59 464.68 415.30 C 465.86 414.56 467.05 413.82 468.25 413.09 C 465.14 409.44 464.32 404.61 463.93 399.99 C 463.06 388.22 461.28 376.47 457.76 365.18 C 457.40 362.57 454.28 363.53 452.48 363.24 M 443.54 366.54 C 446.31 382.91 449.92 399.12 453.72 415.29 C 455.06 415.97 456.40 416.65 457.75 417.33 C 457.10 413.56 455.90 409.88 455.66 406.05 C 455.15 392.32 451.72 378.92 447.66 365.87 C 446.28 366.09 444.91 366.31 443.54 366.54 M 423.69 370.00 C 423.80 372.02 423.72 374.06 423.43 376.07 C 416.58 378.30 409.66 380.65 402.36 380.39 C 397.13 385.56 391.58 393.48 383.17 391.78 C 379.93 390.13 377.41 387.42 374.60 385.18 C 370.98 388.23 367.32 392.39 362.07 391.61 C 365.92 403.38 370.88 414.68 376.16 425.87 C 383.29 434.50 389.37 443.96 396.58 452.55 C 405.23 451.92 413.45 454.89 421.88 456.26 C 425.48 455.51 428.91 453.45 432.73 454.29 C 441.64 455.62 451.88 449.65 459.49 456.51 C 463.99 456.89 468.44 457.58 470.87 461.92 C 470.18 464.65 469.29 467.32 468.27 469.95 C 464.91 469.02 461.58 467.95 458.33 466.72 C 457.21 468.32 456.08 469.92 454.94 471.51 C 455.57 476.86 456.55 482.25 459.22 487.01 C 469.14 483.21 475.90 473.47 480.42 464.18 C 476.47 459.76 471.61 456.53 466.85 453.14 C 455.68 437.02 446.85 418.76 443.85 399.23 C 441.94 388.51 439.38 377.92 436.77 367.36 C 433.08 370.47 428.17 369.94 423.69 370.00 M 43.85 563.46 C 48.46 562.00 51.56 566.56 55.96 566.22 C 105.96 567.19 155.98 567.97 205.99 568.24 C 210.40 568.32 214.76 567.60 219.15 567.28 C 219.42 545.06 224.71 522.81 236.01 503.58 C 220.95 495.61 206.27 486.95 191.52 478.42 C 143.37 451.84 95.13 425.45 47.14 398.58 C 45.45 453.52 44.93 508.50 43.85 563.46 M 551.02 484.76 C 533.80 493.46 516.04 501.09 499.19 510.52 C 499.49 510.76 500.10 511.24 500.40 511.48 C 500.11 517.26 502.33 522.66 503.69 528.17 C 506.17 542.51 510.11 556.70 509.18 571.40 C 568.41 573.17 627.71 573.34 686.98 573.67 C 691.71 573.62 696.51 573.25 701.16 574.38 C 701.69 519.03 703.62 463.69 704.82 408.36 C 653.53 433.71 602.44 459.64 551.02 484.76 M 474.51 416.77 C 475.04 425.10 478.42 432.92 478.82 441.26 C 479.13 445.72 479.97 450.16 481.57 454.35 C 480.51 440.95 479.69 427.51 478.42 414.11 C 477.12 415.01 475.81 415.89 474.51 416.77 M 359.05 423.12 C 360.36 427.86 364.34 431.36 366.49 435.75 C 370.09 435.36 373.73 435.43 377.29 436.19 C 372.53 430.02 369.70 422.72 365.50 416.24 C 362.28 416.46 360.52 420.55 359.05 423.12 M 465.52 419.73 C 468.32 429.99 470.11 440.73 475.03 450.24 C 473.72 439.56 470.43 429.28 469.05 418.60 C 467.87 418.97 466.69 419.35 465.52 419.73 M 456.82 420.64 C 458.33 428.47 462.30 435.49 465.98 442.47 C 464.48 435.07 461.40 428.09 460.10 420.64 C 459.51 421.65 458.93 422.67 458.35 423.70 C 457.97 422.93 457.20 421.41 456.82 420.64 M 356.80 429.73 C 346.44 432.71 333.85 430.68 325.11 437.53 C 314.67 437.34 305.13 442.88 295.65 446.68 C 296.13 447.92 296.62 449.15 297.12 450.40 C 315.12 449.45 333.13 451.01 351.12 451.52 C 352.65 445.22 355.69 438.90 362.16 436.51 C 360.37 434.25 358.58 432.00 356.80 429.73 M 364.84 443.17 C 364.21 442.29 363.59 441.42 362.97 440.55 C 358.81 445.06 355.83 451.59 358.32 457.65 C 362.53 466.02 373.78 470.76 382.38 466.44 C 389.22 459.85 385.90 449.54 381.76 442.41 C 376.10 441.49 369.65 438.35 364.84 443.17 M 285.21 451.26 C 285.09 454.05 285.41 456.84 286.29 459.50 C 287.44 459.65 288.60 459.80 289.76 459.97 C 291.18 458.05 292.59 456.12 293.99 454.19 C 293.40 453.19 292.81 452.19 292.23 451.20 C 289.89 451.19 287.55 451.21 285.21 451.26 M 273.03 455.83 C 275.31 455.86 277.60 455.77 279.87 455.55 C 277.64 454.09 275.12 454.06 273.03 455.83 M 298.67 454.45 C 298.50 455.04 298.18 456.21 298.02 456.80 C 316.31 457.24 334.56 458.52 352.79 460.03 C 352.83 459.23 352.91 457.62 352.95 456.81 C 334.91 455.13 316.78 454.61 298.67 454.45 M 397.13 457.72 C 396.36 459.46 395.57 461.19 394.78 462.93 C 396.77 460.97 398.89 459.15 401.17 457.53 C 399.82 457.59 398.47 457.65 397.13 457.72 M 449.55 458.64 C 449.42 460.63 449.30 462.63 449.18 464.62 C 450.15 464.84 452.08 465.29 453.04 465.51 C 452.69 463.13 452.23 460.77 451.67 458.44 C 451.14 458.49 450.08 458.59 449.55 458.64 M 421.08 462.35 C 425.21 463.20 429.16 461.81 432.27 459.08 C 428.42 459.72 424.66 460.82 421.08 462.35 M 438.14 459.68 L 438.21 460.94 C 440.83 460.88 443.65 461.17 445.92 459.55 C 443.32 459.42 440.73 459.52 438.14 459.68 M 273.01 460.91 C 269.82 465.68 266.53 470.41 262.75 474.74 C 249.30 490.01 239.34 507.94 232.06 526.88 C 225.73 547.23 224.12 568.84 225.61 590.05 C 223.03 612.35 236.09 632.72 250.34 648.67 C 259.06 659.65 271.09 667.06 282.12 675.41 C 299.05 670.19 315.94 663.04 334.06 663.40 C 343.40 652.58 349.41 639.02 350.61 624.73 C 352.90 614.74 354.85 604.69 356.39 594.56 C 360.11 580.37 361.58 565.66 361.37 551.01 C 360.57 523.14 362.03 495.29 360.61 467.44 C 359.00 466.53 357.39 465.61 355.79 464.69 C 342.14 465.05 328.62 462.45 314.98 462.47 C 308.23 461.82 301.42 463.05 294.72 461.72 C 293.92 462.46 293.11 463.22 292.31 463.98 C 294.23 466.13 295.74 468.62 296.39 471.46 C 295.53 472.30 294.68 473.15 293.82 474.00 C 296.50 485.41 298.77 496.92 302.11 508.17 C 306.38 524.50 309.26 541.16 313.48 557.51 C 317.21 571.07 320.87 584.62 323.84 598.38 C 325.01 598.78 326.18 599.20 327.36 599.61 C 327.51 603.19 327.91 606.96 326.25 610.29 C 321.09 622.92 310.38 634.24 296.63 636.98 C 290.95 638.36 285.03 637.22 279.25 637.29 C 263.20 632.12 246.48 618.75 246.43 600.17 C 257.44 558.90 268.97 517.76 280.40 476.61 C 280.85 470.88 283.76 465.25 281.95 459.49 C 279.00 460.12 276.01 460.60 273.01 460.91 M 405.12 461.52 C 408.71 462.14 413.77 460.54 415.84 464.56 C 413.49 466.93 410.09 466.94 407.01 467.41 C 412.52 472.19 418.01 477.35 424.86 480.13 C 430.83 481.88 435.27 487.49 442.08 485.84 C 442.73 479.05 445.70 472.75 446.09 465.91 C 439.92 467.87 433.25 464.00 427.53 467.44 C 423.75 469.26 418.32 468.77 416.06 464.85 C 416.61 463.35 417.18 461.86 417.76 460.38 C 413.54 460.42 409.04 459.47 405.12 461.52 M 458.63 462.27 C 458.43 462.84 458.04 463.98 457.85 464.55 C 460.16 464.03 462.48 463.48 464.79 462.90 C 462.74 462.60 460.68 462.41 458.63 462.27 M 391.18 468.12 C 390.40 467.97 388.82 467.67 388.03 467.52 C 385.99 470.99 382.05 472.10 378.53 473.43 C 376.16 488.56 376.94 503.90 376.63 519.15 C 377.95 539.95 377.20 560.95 380.35 581.61 C 382.38 589.49 381.88 597.70 383.59 605.63 C 386.69 625.65 388.62 646.98 400.36 664.18 C 413.57 664.35 426.56 667.04 439.12 671.01 C 442.99 672.57 445.88 675.71 448.41 678.93 C 455.46 673.91 462.07 668.29 467.94 661.93 C 477.24 655.49 480.57 644.13 485.66 634.59 C 490.84 627.05 493.01 618.05 496.56 609.73 C 506.85 580.60 504.41 548.53 495.63 519.36 C 492.54 527.64 492.14 537.37 485.40 543.82 C 480.02 543.35 475.10 540.93 469.80 540.11 C 473.95 560.66 478.66 581.07 483.64 601.42 C 485.87 611.74 480.72 621.59 473.51 628.61 C 458.09 639.15 436.35 637.71 421.92 626.11 C 415.63 619.89 411.75 611.78 408.61 603.63 C 407.31 598.66 410.62 594.35 411.63 589.69 C 415.03 576.84 419.41 564.26 422.28 551.27 C 426.38 534.97 432.83 519.31 435.99 502.78 C 430.87 498.71 428.78 492.08 426.35 486.24 C 420.05 482.83 412.81 480.60 408.05 474.95 C 404.23 470.03 398.91 467.15 392.72 466.49 C 392.33 466.90 391.57 467.71 391.18 468.12 M 465.64 489.61 C 468.44 495.03 471.63 500.24 473.85 505.95 C 485.49 498.34 488.98 482.60 483.17 470.24 C 478.72 477.82 472.34 484.02 465.64 489.61 M 367.35 471.98 C 364.52 489.55 366.49 507.32 366.70 525.01 C 367.68 535.68 366.04 546.35 366.62 557.03 C 366.87 583.71 358.55 609.42 354.59 635.57 C 351.75 645.51 348.05 655.19 342.10 663.71 C 352.88 664.70 363.12 670.03 368.44 679.77 C 375.74 672.94 383.48 665.61 393.80 664.07 C 383.35 646.99 380.73 626.33 378.57 606.73 C 372.08 565.87 369.79 524.30 372.38 482.98 C 372.52 479.54 373.04 475.97 371.61 472.71 C 370.18 472.47 368.76 472.23 367.35 471.98 M 252.63 599.43 C 263.19 599.35 273.73 600.48 284.30 600.02 C 284.36 558.86 286.19 517.64 286.10 476.49 C 274.18 517.25 263.45 558.37 252.63 599.43 M 290.87 482.51 C 289.89 521.71 289.61 560.96 290.43 600.12 C 299.84 599.23 309.31 599.38 318.76 599.30 C 312.14 578.09 308.83 556.05 303.38 534.53 C 302.90 532.06 301.44 530.01 299.74 528.23 C 300.02 527.88 300.59 527.18 300.87 526.83 C 300.36 518.66 296.66 511.17 295.78 503.07 C 294.91 496.01 290.77 489.75 290.87 482.51 M 435.17 492.47 C 436.12 494.26 437.08 496.04 438.05 497.84 C 438.59 495.68 439.13 493.53 439.67 491.39 C 438.17 491.74 436.67 492.10 435.17 492.47 M 451.75 504.39 C 453.44 504.84 455.14 505.29 456.84 505.73 C 455.54 500.42 454.54 495.03 452.75 489.86 C 451.32 494.58 451.91 499.54 451.75 504.39 M 459.68 490.76 C 458.96 495.97 461.29 500.89 462.51 505.85 C 464.26 505.29 466.00 504.73 467.76 504.18 C 465.61 499.46 464.70 493.38 459.68 490.76 M 442.90 501.84 C 444.14 502.37 445.39 502.90 446.64 503.44 C 446.60 499.28 446.59 495.12 446.35 490.98 C 444.60 494.38 443.39 498.03 442.90 501.84 M 478.65 509.51 C 477.52 509.50 476.39 509.50 475.28 509.51 C 478.44 518.10 482.33 526.40 485.11 535.13 C 489.38 522.67 494.29 508.91 489.08 495.92 C 485.52 500.39 482.83 505.53 478.65 509.51 M 463.07 510.19 C 464.46 517.27 465.90 524.35 467.62 531.35 C 469.02 536.56 475.48 536.07 479.60 537.50 C 477.66 527.48 473.37 518.21 469.50 508.85 C 467.35 509.31 465.21 509.77 463.07 510.19 M 439.41 510.09 C 431.68 539.77 421.96 568.89 413.98 598.52 C 423.96 599.58 434.01 599.64 444.03 599.53 C 444.59 574.34 445.23 549.14 446.12 523.96 C 446.86 518.32 441.96 514.53 439.41 510.09 M 451.55 509.88 C 451.73 512.60 451.33 515.39 451.97 518.07 C 454.19 522.33 458.68 524.69 461.87 528.14 C 460.07 522.20 459.25 516.03 457.85 510.00 C 455.74 509.95 453.65 509.91 451.55 509.88 M 450.80 526.10 C 450.68 531.47 452.32 536.87 450.75 542.16 C 450.45 561.48 449.41 580.78 449.91 600.13 C 458.86 599.52 467.93 601.40 476.79 599.65 C 472.48 583.20 470.37 566.23 465.97 549.78 C 464.38 544.91 465.54 538.47 460.98 535.07 C 457.42 532.26 454.19 529.09 450.80 526.10 M 43.72 571.46 C 42.20 626.52 42.63 681.70 40.99 736.76 C 52.91 729.11 65.80 722.93 78.29 716.41 C 79.02 714.99 79.76 713.59 80.51 712.19 C 82.14 702.13 82.90 690.40 91.70 683.58 C 88.92 678.56 88.56 672.18 91.07 666.98 C 96.57 659.46 104.02 653.36 108.39 645.02 C 110.54 645.16 112.61 645.75 114.48 646.82 C 114.93 650.78 115.51 654.72 116.10 658.66 C 119.55 653.70 117.52 647.34 120.38 642.16 C 122.61 642.17 124.55 643.17 126.28 644.51 C 125.93 654.16 137.67 659.22 136.41 668.95 C 136.23 674.56 135.32 680.65 130.97 684.65 C 132.58 685.42 134.17 686.20 135.77 687.01 C 140.67 682.57 146.76 680.14 152.85 677.84 C 179.95 664.36 206.67 650.14 233.55 636.24 C 228.50 629.27 223.60 622.03 221.08 613.71 C 219.10 600.24 218.88 586.53 219.11 572.88 C 208.41 572.63 197.70 572.14 187.00 571.87 C 142.95 571.75 98.94 570.29 54.89 570.32 C 51.10 570.16 47.52 571.97 43.72 571.46 M 508.77 575.88 C 508.03 595.37 503.24 614.77 493.81 631.89 C 491.64 636.37 497.60 638.03 500.50 639.69 C 532.40 657.97 565.27 674.54 597.66 691.82 C 598.54 688.03 599.11 684.19 599.47 680.32 C 607.41 674.12 609.93 663.84 614.46 655.29 C 619.47 657.72 620.28 663.71 623.40 667.85 C 623.03 661.99 625.76 656.43 629.13 651.81 C 633.52 659.26 637.63 667.10 644.53 672.60 C 650.14 679.64 646.85 689.06 643.28 696.27 C 648.85 699.10 655.10 702.82 656.63 709.38 C 657.27 714.29 656.81 719.29 656.41 724.21 C 669.58 732.50 683.62 739.26 697.18 746.85 C 698.01 690.44 699.83 634.03 700.72 577.62 C 636.75 577.91 572.74 575.55 508.77 575.88 M 416.52 604.41 C 416.27 608.21 417.07 612.28 420.13 614.85 C 427.24 621.14 434.40 629.45 444.72 629.40 C 459.84 631.69 478.71 622.20 479.11 605.32 C 458.26 605.77 437.38 604.73 416.52 604.41 M 253.06 605.61 C 253.79 616.10 263.33 622.57 271.52 627.52 C 283.83 634.90 301.10 632.36 310.97 621.97 C 315.29 617.31 319.23 612.26 322.06 606.55 C 317.77 604.07 312.69 605.33 308.01 605.21 C 299.33 605.87 290.64 605.30 281.95 605.48 C 272.30 606.34 262.67 603.61 253.06 605.61 M 490.13 640.09 C 487.28 647.65 482.74 654.46 477.83 660.82 C 473.10 666.16 466.20 669.14 462.03 675.09 C 470.97 687.87 481.89 699.11 491.48 711.40 C 508.37 731.39 524.71 751.84 542.20 771.31 C 549.66 769.39 557.80 769.66 565.29 771.32 C 565.20 770.30 565.12 769.28 565.06 768.27 C 571.43 759.67 580.51 750.70 591.74 750.16 C 604.61 755.97 608.89 770.79 615.87 782.03 C 614.94 769.35 614.37 756.70 614.43 743.98 C 609.97 743.17 606.96 739.85 607.04 735.23 C 604.41 739.93 601.77 745.42 596.08 746.91 C 591.62 749.88 585.64 747.50 583.50 742.90 C 584.13 739.24 585.67 735.81 586.44 732.18 C 583.23 724.84 580.74 716.00 584.46 708.38 C 586.64 703.41 590.80 699.76 594.89 696.37 C 590.92 695.15 587.24 693.26 584.10 690.52 C 553.00 673.35 521.47 656.86 490.13 640.09 M 222.80 648.70 C 201.63 660.02 179.98 670.43 158.67 681.46 C 152.72 684.69 147.34 689.53 140.44 690.56 C 142.31 693.81 142.25 697.70 143.81 701.08 C 145.93 705.30 141.97 710.17 144.53 714.31 C 146.22 717.29 146.82 720.65 146.37 724.05 C 144.15 726.28 141.76 728.38 138.85 729.69 C 138.80 730.25 138.70 731.37 138.64 731.93 C 133.80 732.78 130.53 729.04 127.99 725.52 C 126.37 728.82 123.70 731.36 121.20 733.99 C 123.85 742.63 122.21 751.81 122.91 760.70 C 127.94 752.22 133.36 742.97 142.69 738.68 C 144.25 738.08 146.12 736.80 147.74 737.97 C 153.12 741.45 155.70 747.53 159.69 752.31 C 163.32 756.23 161.28 761.98 161.65 766.76 C 171.71 763.52 182.41 761.87 192.99 762.57 C 218.05 732.81 244.54 704.27 269.82 674.68 C 265.32 670.28 259.58 667.37 255.28 662.71 C 250.28 658.78 247.02 651.36 240.31 650.56 C 240.60 650.30 241.19 649.78 241.48 649.52 C 240.05 647.01 238.59 644.53 237.16 642.03 C 231.98 643.33 227.75 646.81 222.80 648.70 M 97.57 667.56 C 94.42 671.18 95.22 676.41 96.43 680.64 C 97.75 684.45 102.40 684.80 105.51 686.52 C 108.46 686.14 111.44 686.06 114.41 686.14 C 115.78 683.16 117.59 680.13 117.36 676.74 C 117.46 668.95 109.91 663.83 109.89 656.03 C 106.35 660.50 100.75 662.75 97.57 667.56 M 121.30 666.84 C 126.00 674.54 122.34 683.29 119.58 690.90 C 123.80 685.76 126.52 679.54 129.35 673.57 C 132.39 666.99 127.52 661.01 124.14 655.76 C 122.73 659.26 118.42 662.98 121.30 666.84 M 615.86 665.51 C 612.64 673.37 607.31 680.06 600.55 685.16 C 603.58 690.89 606.33 697.91 613.35 699.62 C 612.06 694.62 610.69 689.37 612.13 684.24 C 613.20 679.29 617.91 676.37 619.72 671.80 C 619.46 669.24 617.34 667.44 615.86 665.51 M 631.22 665.54 C 627.63 676.23 613.17 683.03 616.92 695.65 C 621.37 696.67 625.92 698.20 628.95 701.83 C 631.02 698.70 633.87 696.10 637.66 695.35 C 640.19 689.82 643.71 683.52 641.67 677.32 C 638.79 672.90 633.76 670.29 631.22 665.54 M 290.54 678.42 C 299.29 677.55 308.17 675.02 316.95 677.05 C 326.73 680.35 336.96 682.72 345.85 688.21 C 352.30 693.65 358.85 699.02 364.84 704.98 C 365.19 698.46 365.13 691.91 365.60 685.41 C 361.74 675.18 351.02 667.99 340.02 668.64 C 322.95 667.25 306.31 672.48 290.54 678.42 M 389.62 669.62 C 382.85 673.51 376.55 678.49 371.48 684.44 C 369.99 691.66 369.93 699.12 370.47 706.46 C 374.27 699.92 378.86 693.49 385.45 689.51 C 391.95 685.68 397.48 680.06 404.86 677.86 C 412.78 674.85 421.37 675.15 429.57 673.46 C 416.71 669.22 403.03 668.04 389.62 669.62 M 266.70 685.68 C 223.75 733.81 182.05 782.99 139.42 831.39 C 134.44 836.66 129.71 842.16 125.58 848.13 C 202.33 848.70 279.08 850.51 355.80 851.01 C 360.69 843.63 357.63 834.23 359.10 825.95 C 360.19 791.98 361.22 757.99 361.72 724.00 C 361.98 720.15 361.19 716.40 360.24 712.72 C 346.92 711.85 333.94 708.03 321.23 704.10 C 312.88 720.59 307.84 738.48 300.08 755.23 C 290.55 779.83 280.58 804.26 270.67 828.71 C 267.91 835.93 266.38 843.81 261.00 849.67 C 260.29 849.35 258.88 848.71 258.17 848.39 C 260.95 835.79 267.57 824.22 272.13 812.09 C 278.37 796.95 285.15 781.83 290.56 766.50 L 290.76 767.91 C 299.03 745.82 308.77 724.31 316.85 702.16 C 301.73 696.58 286.85 689.11 274.95 678.06 C 271.56 679.84 269.23 682.92 266.70 685.68 M 410.35 681.34 C 396.28 686.45 383.45 696.05 375.49 708.85 C 401.83 708.65 426.96 697.62 447.00 681.00 C 442.45 681.58 438.21 680.25 434.03 678.73 C 426.10 678.60 418.07 679.56 410.35 681.34 M 421.55 703.84 C 423.10 712.63 427.23 720.65 429.81 729.22 C 444.05 770.47 458.86 811.51 473.66 852.57 C 517.51 853.38 561.38 853.56 605.23 854.23 C 589.83 836.47 575.35 817.87 559.52 800.45 C 552.25 794.05 547.14 785.67 540.66 778.53 C 539.43 778.42 538.21 778.31 537.00 778.22 C 536.64 777.61 535.94 776.39 535.59 775.78 C 535.97 775.40 536.74 774.64 537.13 774.26 C 520.37 753.27 502.53 733.19 485.81 712.16 C 476.13 701.24 468.00 688.81 456.96 679.16 C 446.62 689.24 434.26 697.12 421.55 703.84 M 290.92 683.74 C 312.06 696.03 335.47 704.30 359.69 707.79 C 355.43 705.29 352.81 701.03 349.26 697.75 C 342.17 690.43 332.50 686.92 322.90 684.28 C 312.72 679.87 301.41 681.58 290.92 683.74 M 92.75 690.99 C 95.04 691.84 97.30 692.78 99.54 693.78 C 99.98 692.82 100.42 691.87 100.85 690.93 C 99.42 689.80 98.01 688.64 96.60 687.49 C 95.31 688.65 94.03 689.82 92.75 690.99 M 122.89 690.46 C 123.09 691.61 123.29 692.77 123.50 693.94 C 126.73 693.81 129.95 693.39 133.05 692.42 C 131.37 691.13 129.70 689.85 128.01 688.59 C 126.31 689.21 124.60 689.83 122.89 690.46 M 106.35 690.18 C 106.15 691.55 105.96 692.92 105.77 694.31 C 108.76 695.79 111.21 698.09 112.85 701.01 C 113.83 699.34 114.86 697.70 115.91 696.08 C 115.09 694.49 114.28 692.89 113.48 691.31 C 111.10 690.93 108.72 690.56 106.35 690.18 M 88.73 695.75 C 88.16 704.40 87.52 713.06 83.02 720.75 C 83.65 721.91 84.28 723.08 84.91 724.27 C 89.08 721.96 93.73 718.90 94.61 713.85 C 94.74 707.83 94.95 701.80 95.49 695.79 C 93.23 695.76 90.98 695.75 88.73 695.75 M 99.46 696.65 C 97.85 708.56 100.35 722.25 110.72 729.64 C 112.10 725.16 111.14 720.50 111.78 715.95 C 113.69 707.54 107.35 699.09 99.46 696.65 M 129.46 697.87 C 132.76 705.26 128.54 712.84 128.64 720.42 C 131.24 721.96 133.40 724.09 135.28 726.44 C 138.32 725.57 140.65 723.49 142.23 720.81 C 135.17 714.49 141.30 704.64 135.97 697.81 C 133.80 697.86 131.62 697.80 129.46 697.87 M 116.48 704.16 C 116.60 713.28 116.78 722.41 115.80 731.50 C 119.84 727.72 126.13 721.86 123.46 715.94 C 124.30 715.70 125.13 715.46 125.97 715.24 C 125.29 709.71 125.71 704.12 124.86 698.61 C 121.70 699.86 118.80 701.66 116.48 704.16 M 633.40 704.70 C 637.66 704.89 642.07 705.09 646.04 703.20 C 642.18 699.86 635.80 699.48 633.40 704.70 M 596.39 702.68 C 598.90 704.32 601.47 705.88 604.09 707.37 C 605.73 706.99 607.38 706.63 609.03 706.26 C 608.33 705.09 607.65 703.92 606.97 702.77 C 604.23 702.34 601.51 701.85 598.83 701.20 C 598.01 701.69 597.20 702.19 596.39 702.68 M 613.39 707.28 C 616.03 707.92 618.67 708.63 621.25 709.50 C 622.86 708.56 624.46 707.60 626.06 706.64 C 624.64 704.20 622.53 702.34 619.92 701.27 C 617.41 702.89 615.20 704.91 613.39 707.28 M 366.99 715.59 C 364.90 760.74 364.14 806.01 364.46 851.25 C 398.84 851.73 433.22 852.27 467.61 852.53 C 450.31 803.76 434.71 754.35 416.31 706.03 C 400.59 712.18 383.80 714.76 366.99 715.59 M 592.01 705.71 C 587.79 712.68 586.85 721.70 591.21 728.85 C 594.00 732.75 591.26 737.13 589.78 740.94 C 590.11 741.43 590.77 742.42 591.11 742.91 C 597.19 742.05 601.25 737.34 603.67 732.04 C 601.00 724.81 597.46 717.61 599.16 709.70 C 596.60 708.70 594.26 707.26 592.01 705.71 M 640.84 710.31 C 642.79 717.36 641.97 724.80 638.36 731.19 C 642.20 735.21 644.05 742.69 650.72 742.45 C 646.17 730.71 655.29 718.45 650.00 706.91 C 647.01 708.21 643.95 709.34 640.84 710.31 M 623.33 714.21 C 624.11 723.47 621.75 732.66 622.52 741.93 C 624.81 740.12 627.22 738.25 628.45 735.51 C 630.53 730.73 635.43 727.61 636.33 722.25 C 637.77 717.84 636.10 713.36 634.01 709.49 C 630.03 709.97 626.37 711.61 623.33 714.21 M 600.74 714.02 C 603.00 717.04 603.83 720.72 604.89 724.26 C 607.29 729.66 612.02 733.64 614.22 739.18 C 615.40 739.13 616.58 739.10 617.78 739.07 C 617.14 732.35 618.34 725.70 618.43 719.00 C 619.86 709.33 605.96 709.10 600.74 714.02 M 87.42 729.24 C 83.50 730.59 80.12 727.21 77.12 725.18 C 66.84 729.02 56.89 734.09 47.94 740.48 C 54.20 742.32 60.94 741.59 67.06 744.03 C 78.73 748.55 88.44 757.12 96.04 766.89 C 100.93 774.81 107.55 781.71 111.26 790.30 C 110.28 772.60 117.48 753.61 109.90 736.80 C 109.83 735.84 109.76 734.88 109.70 733.93 C 104.14 732.07 99.70 727.26 97.90 721.73 C 95.44 725.43 91.41 727.55 87.42 729.24 M 655.23 730.16 C 654.93 734.65 655.08 739.38 659.05 742.29 C 658.19 744.34 656.91 746.16 655.42 747.79 C 646.24 749.11 640.14 742.08 635.51 735.29 C 632.84 739.58 629.94 743.97 625.44 746.52 C 625.58 760.29 625.23 774.07 625.33 787.84 C 624.72 797.36 626.87 806.99 624.96 816.43 C 625.34 815.98 626.10 815.09 626.48 814.65 C 626.44 813.59 626.42 812.55 626.41 811.51 C 633.70 802.67 637.73 791.25 646.58 783.59 C 659.57 768.72 677.54 759.67 695.22 751.63 C 681.56 745.09 668.98 736.49 655.23 730.16 M 114.37 734.57 C 114.74 741.32 117.59 747.79 116.71 754.61 C 116.83 759.28 115.14 764.47 117.95 768.65 C 118.15 757.44 118.51 746.16 116.83 735.04 C 116.22 734.92 114.99 734.69 114.37 734.57 M 122.76 771.77 C 119.86 781.59 121.98 791.90 121.35 801.95 C 123.33 798.42 125.37 794.94 127.90 791.78 C 128.68 782.42 133.17 774.03 136.34 765.35 C 138.93 757.70 141.46 750.02 143.94 742.34 C 132.89 748.71 128.02 760.85 122.76 771.77 M 148.35 743.21 C 147.24 746.63 146.30 750.10 145.51 753.61 C 150.01 755.90 153.78 759.29 157.02 763.13 C 158.28 755.15 152.41 749.29 148.35 743.21 M 619.74 767.11 C 620.92 778.31 617.64 789.88 621.56 800.77 C 621.58 784.18 620.81 767.60 621.17 751.00 C 621.31 748.50 620.97 746.01 620.04 743.69 C 617.46 751.29 619.92 759.30 619.74 767.11 M 39.57 846.51 C 62.99 847.27 86.43 847.61 109.86 847.66 C 108.78 846.66 107.70 845.66 106.62 844.68 C 106.59 843.43 106.55 842.21 106.49 840.99 C 104.09 837.94 104.52 833.88 103.69 830.30 C 99.52 805.76 90.45 780.56 71.54 763.53 C 63.50 754.53 51.58 750.71 41.25 745.04 C 40.06 778.81 39.61 812.70 39.57 846.51 M 55.13 746.37 C 60.24 750.07 67.06 750.76 71.50 755.48 C 77.01 761.29 84.01 765.94 87.58 773.34 C 92.21 782.52 98.82 790.94 100.78 801.24 C 105.52 810.60 104.95 821.46 109.95 830.78 C 112.74 820.18 112.56 809.31 111.57 798.50 C 102.23 786.66 95.70 772.76 85.15 761.84 C 77.78 752.79 66.62 747.55 55.13 746.37 M 569.26 769.68 C 570.37 769.92 571.47 770.70 572.65 770.48 C 580.72 767.76 586.91 761.71 593.58 756.71 C 592.36 755.90 591.21 755.01 589.87 754.44 C 580.84 755.52 574.37 762.78 569.26 769.68 M 680.72 768.71 C 670.92 780.48 660.89 792.25 653.91 806.01 C 644.13 820.61 636.10 836.83 633.72 854.42 C 653.94 854.85 674.28 854.03 694.42 855.32 C 694.30 822.30 696.46 789.27 696.72 756.23 C 691.54 760.59 685.62 764.02 680.72 768.71 M 136.29 780.40 C 142.05 776.14 147.66 771.80 154.60 769.47 C 152.07 764.75 148.72 760.42 144.24 757.40 C 142.07 765.23 138.17 772.48 136.29 780.40 M 591.85 763.98 C 592.97 764.56 594.22 764.99 595.21 765.84 C 601.24 774.70 605.39 784.60 609.59 794.42 C 613.91 805.05 615.29 816.67 619.94 827.17 C 621.38 802.41 609.91 779.17 596.87 758.86 C 595.30 760.67 593.66 762.41 591.85 763.98 M 156.66 782.63 C 140.83 798.03 126.99 817.28 125.09 839.98 C 146.76 815.62 168.39 791.19 189.52 766.33 C 178.10 770.73 166.72 775.57 156.66 782.63 M 577.70 774.91 C 587.62 778.40 596.75 784.39 603.33 792.67 C 599.08 783.74 595.28 774.64 589.99 766.20 C 585.91 769.13 582.04 772.35 577.70 774.91 M 138.49 784.47 C 133.12 793.64 124.33 800.62 120.67 810.79 C 113.75 822.02 114.70 835.61 112.38 848.10 C 114.90 848.12 117.41 848.18 119.92 848.26 C 121.61 835.53 121.60 821.86 128.61 810.60 C 134.81 800.21 142.46 790.57 151.12 782.13 C 157.47 775.97 165.76 772.74 172.79 767.57 C 160.53 771.20 147.79 775.37 138.49 784.47 M 646.25 791.28 C 639.84 801.65 632.78 811.72 628.01 823.01 C 626.17 827.32 625.90 832.46 622.36 835.87 C 623.78 842.70 625.31 849.56 628.06 855.99 C 630.50 849.88 630.17 843.12 632.15 836.88 C 634.49 829.76 637.50 822.83 641.50 816.47 C 651.02 799.05 661.63 782.00 675.42 767.67 C 664.20 773.35 654.60 781.96 646.25 791.28 M 546.55 776.48 C 568.33 802.31 590.37 827.95 612.15 853.74 C 608.01 839.88 605.05 824.91 595.56 813.51 C 589.08 806.32 584.81 797.54 579.42 789.59 C 570.93 780.70 558.64 776.70 546.55 776.48 M 571.28 777.71 C 576.06 781.59 581.48 784.79 585.69 789.30 C 591.69 798.88 598.74 807.78 604.36 817.59 C 609.84 829.27 614.60 841.58 615.56 854.57 C 617.25 854.51 618.94 854.46 620.65 854.42 C 620.69 838.09 611.58 823.80 606.05 808.93 C 600.12 793.68 587.00 782.14 571.28 777.71 Z" />
</g>
<g id="#bd6e84ff">
<path fill="#bd6e84" opacity="1.00" d=" M 361.64 271.65 C 370.62 266.36 378.92 259.98 388.70 256.01 C 391.26 257.21 393.86 258.30 396.50 259.31 C 396.66 260.03 396.98 261.46 397.14 262.18 C 397.52 261.59 397.92 261.01 398.32 260.43 C 401.88 262.62 406.11 262.62 410.13 263.12 C 405.01 268.17 399.23 272.72 392.55 275.52 C 386.50 278.16 380.56 282.13 373.68 281.70 C 370.28 277.61 365.07 275.71 361.64 271.65 Z" />
<path fill="#bd6e84" opacity="1.00" d=" M 461.82 360.35 C 462.91 359.70 464.01 359.06 465.12 358.43 C 466.99 361.11 469.20 363.69 470.19 366.87 C 474.28 381.00 476.70 395.54 478.04 410.17 C 476.50 410.29 474.96 410.43 473.43 410.57 C 469.36 405.36 469.98 398.36 468.87 392.19 C 467.56 381.36 464.77 370.82 461.82 360.35 Z" />
<path fill="#bd6e84" opacity="1.00" d=" M 452.48 363.24 C 454.28 363.53 457.40 362.57 457.76 365.18 C 461.28 376.47 463.06 388.22 463.93 399.99 C 464.32 404.61 465.14 409.44 468.25 413.09 C 467.05 413.82 465.86 414.56 464.68 415.30 C 460.30 408.59 461.33 400.45 460.17 392.91 C 458.05 382.91 455.59 372.98 452.48 363.24 Z" />
<path fill="#bd6e84" opacity="1.00" d=" M 443.54 366.54 C 444.91 366.31 446.28 366.09 447.66 365.87 C 451.72 378.92 455.15 392.32 455.66 406.05 C 455.90 409.88 457.10 413.56 457.75 417.33 C 456.40 416.65 455.06 415.97 453.72 415.29 C 449.92 399.12 446.31 382.91 443.54 366.54 Z" />
<path fill="#bd6e84" opacity="1.00" d=" M 474.51 416.77 C 475.81 415.89 477.12 415.01 478.42 414.11 C 479.69 427.51 480.51 440.95 481.57 454.35 C 479.97 450.16 479.13 445.72 478.82 441.26 C 478.42 432.92 475.04 425.10 474.51 416.77 Z" />
<path fill="#bd6e84" opacity="1.00" d=" M 465.52 419.73 C 466.69 419.35 467.87 418.97 469.05 418.60 C 470.43 429.28 473.72 439.56 475.03 450.24 C 470.11 440.73 468.32 429.99 465.52 419.73 Z" />
<path fill="#bd6e84" opacity="1.00" d=" M 456.82 420.64 C 457.20 421.41 457.97 422.93 458.35 423.70 C 458.93 422.67 459.51 421.65 460.10 420.64 C 461.40 428.09 464.48 435.07 465.98 442.47 C 462.30 435.49 458.33 428.47 456.82 420.64 Z" />
<path fill="#bd6e84" opacity="1.00" d=" M 397.13 457.72 C 398.47 457.65 399.82 457.59 401.17 457.53 C 398.89 459.15 396.77 460.97 394.78 462.93 C 395.57 461.19 396.36 459.46 397.13 457.72 Z" />
<path fill="#bd6e84" opacity="1.00" d=" M 421.08 462.35 C 424.66 460.82 428.42 459.72 432.27 459.08 C 429.16 461.81 425.21 463.20 421.08 462.35 Z" />
<path fill="#bd6e84" opacity="1.00" d=" M 465.64 489.61 C 472.34 484.02 478.72 477.82 483.17 470.24 C 488.98 482.60 485.49 498.34 473.85 505.95 C 471.63 500.24 468.44 495.03 465.64 489.61 Z" />
<path fill="#bd6e84" opacity="1.00" d=" M 435.17 492.47 C 436.67 492.10 438.17 491.74 439.67 491.39 C 439.13 493.53 438.59 495.68 438.05 497.84 C 437.08 496.04 436.12 494.26 435.17 492.47 Z" />
<path fill="#bd6e84" opacity="1.00" d=" M 451.75 504.39 C 451.91 499.54 451.32 494.58 452.75 489.86 C 454.54 495.03 455.54 500.42 456.84 505.73 C 455.14 505.29 453.44 504.84 451.75 504.39 Z" />
<path fill="#bd6e84" opacity="1.00" d=" M 459.68 490.76 C 464.70 493.38 465.61 499.46 467.76 504.18 C 466.00 504.73 464.26 505.29 462.51 505.85 C 461.29 500.89 458.96 495.97 459.68 490.76 Z" />
<path fill="#bd6e84" opacity="1.00" d=" M 442.90 501.84 C 443.39 498.03 444.60 494.38 446.35 490.98 C 446.59 495.12 446.60 499.28 446.64 503.44 C 445.39 502.90 444.14 502.37 442.90 501.84 Z" />
<path fill="#bd6e84" opacity="1.00" d=" M 478.65 509.51 C 482.83 505.53 485.52 500.39 489.08 495.92 C 494.29 508.91 489.38 522.67 485.11 535.13 C 482.33 526.40 478.44 518.10 475.28 509.51 C 476.39 509.50 477.52 509.50 478.65 509.51 Z" />
<path fill="#bd6e84" opacity="1.00" d=" M 463.07 510.19 C 465.21 509.77 467.35 509.31 469.50 508.85 C 473.37 518.21 477.66 527.48 479.60 537.50 C 475.48 536.07 469.02 536.56 467.62 531.35 C 465.90 524.35 464.46 517.27 463.07 510.19 Z" />
<path fill="#bd6e84" opacity="1.00" d=" M 451.55 509.88 C 453.65 509.91 455.74 509.95 457.85 510.00 C 459.25 516.03 460.07 522.20 461.87 528.14 C 458.68 524.69 454.19 522.33 451.97 518.07 C 451.33 515.39 451.73 512.60 451.55 509.88 Z" />
</g>
<g id="#80809aff">
<path fill="#80809a" opacity="1.00" d=" M 373.22 292.65 C 375.19 291.56 375.82 295.55 373.80 295.67 C 372.38 295.53 372.25 293.41 373.22 292.65 Z" />
</g>
<g id="#dba22eff">
<path fill="#dba22e" opacity="1.00" d=" M 423.69 370.00 C 428.17 369.94 433.08 370.47 436.77 367.36 C 439.38 377.92 441.94 388.51 443.85 399.23 C 446.85 418.76 455.68 437.02 466.85 453.14 C 471.61 456.53 476.47 459.76 480.42 464.18 C 475.90 473.47 469.14 483.21 459.22 487.01 C 456.55 482.25 455.57 476.86 454.94 471.51 C 456.08 469.92 457.21 468.32 458.33 466.72 C 461.58 467.95 464.91 469.02 468.27 469.95 C 469.29 467.32 470.18 464.65 470.87 461.92 C 468.44 457.58 463.99 456.89 459.49 456.51 C 451.88 449.65 441.64 455.62 432.73 454.29 C 428.91 453.45 425.48 455.51 421.88 456.26 C 413.45 454.89 405.23 451.92 396.58 452.55 C 389.37 443.96 383.29 434.50 376.16 425.87 C 370.88 414.68 365.92 403.38 362.07 391.61 C 367.32 392.39 370.98 388.23 374.60 385.18 C 377.41 387.42 379.93 390.13 383.17 391.78 C 391.58 393.48 397.13 385.56 402.36 380.39 C 409.66 380.65 416.58 378.30 423.43 376.07 C 423.72 374.06 423.80 372.02 423.69 370.00 Z" />
<path fill="#dba22e" opacity="1.00" d=" M 415.84 464.56 L 416.06 464.85 C 418.32 468.77 423.75 469.26 427.53 467.44 C 433.25 464.00 439.92 467.87 446.09 465.91 C 445.70 472.75 442.73 479.05 442.08 485.84 C 435.27 487.49 430.83 481.88 424.86 480.13 C 418.01 477.35 412.52 472.19 407.01 467.41 C 410.09 466.94 413.49 466.93 415.84 464.56 Z" />
<path fill="#dba22e" opacity="1.00" d=" M 92.75 690.99 C 94.03 689.82 95.31 688.65 96.60 687.49 C 98.01 688.64 99.42 689.80 100.85 690.93 C 100.42 691.87 99.98 692.82 99.54 693.78 C 97.30 692.78 95.04 691.84 92.75 690.99 Z" />
<path fill="#dba22e" opacity="1.00" d=" M 122.89 690.46 C 124.60 689.83 126.31 689.21 128.01 688.59 C 129.70 689.85 131.37 691.13 133.05 692.42 C 129.95 693.39 126.73 693.81 123.50 693.94 C 123.29 692.77 123.09 691.61 122.89 690.46 Z" />
<path fill="#dba22e" opacity="1.00" d=" M 106.35 690.18 C 108.72 690.56 111.10 690.93 113.48 691.31 C 114.28 692.89 115.09 694.49 115.91 696.08 C 114.86 697.70 113.83 699.34 112.85 701.01 C 111.21 698.09 108.76 695.79 105.77 694.31 C 105.96 692.92 106.15 691.55 106.35 690.18 Z" />
<path fill="#dba22e" opacity="1.00" d=" M 633.40 704.70 C 635.80 699.48 642.18 699.86 646.04 703.20 C 642.07 705.09 637.66 704.89 633.40 704.70 Z" />
<path fill="#dba22e" opacity="1.00" d=" M 596.39 702.68 C 597.20 702.19 598.01 701.69 598.83 701.20 C 601.51 701.85 604.23 702.34 606.97 702.77 C 607.65 703.92 608.33 705.09 609.03 706.26 C 607.38 706.63 605.73 706.99 604.09 707.37 C 601.47 705.88 598.90 704.32 596.39 702.68 Z" />
<path fill="#dba22e" opacity="1.00" d=" M 613.39 707.28 C 615.20 704.91 617.41 702.89 619.92 701.27 C 622.53 702.34 624.64 704.20 626.06 706.64 C 624.46 707.60 622.86 708.56 621.25 709.50 C 618.67 708.63 616.03 707.92 613.39 707.28 Z" />
</g>
<g id="#cf8034ff">
<path fill="#cf8034" opacity="1.00" d=" M 359.05 423.12 C 360.52 420.55 362.28 416.46 365.50 416.24 C 369.70 422.72 372.53 430.02 377.29 436.19 C 373.73 435.43 370.09 435.36 366.49 435.75 C 364.34 431.36 360.36 427.86 359.05 423.12 Z" />
<path fill="#cf8034" opacity="1.00" d=" M 364.84 443.17 C 369.65 438.35 376.10 441.49 381.76 442.41 C 385.90 449.54 389.22 459.85 382.38 466.44 C 373.78 470.76 362.53 466.02 358.32 457.65 C 355.83 451.59 358.81 445.06 362.97 440.55 C 363.59 441.42 364.21 442.29 364.84 443.17 Z" />
<path fill="#cf8034" opacity="1.00" d=" M 285.21 451.26 C 287.55 451.21 289.89 451.19 292.23 451.20 C 292.81 452.19 293.40 453.19 293.99 454.19 C 292.59 456.12 291.18 458.05 289.76 459.97 C 288.60 459.80 287.44 459.65 286.29 459.50 C 285.41 456.84 285.09 454.05 285.21 451.26 Z" />
<path fill="#cf8034" opacity="1.00" d=" M 273.03 455.83 C 275.12 454.06 277.64 454.09 279.87 455.55 C 277.60 455.77 275.31 455.86 273.03 455.83 Z" />
<path fill="#cf8034" opacity="1.00" d=" M 298.67 454.45 C 316.78 454.61 334.91 455.13 352.95 456.81 C 352.91 457.62 352.83 459.23 352.79 460.03 C 334.56 458.52 316.31 457.24 298.02 456.80 C 298.18 456.21 298.50 455.04 298.67 454.45 Z" />
<path fill="#cf8034" opacity="1.00" d=" M 449.55 458.64 C 450.08 458.59 451.14 458.49 451.67 458.44 C 452.23 460.77 452.69 463.13 453.04 465.51 C 452.08 465.29 450.15 464.84 449.18 464.62 C 449.30 462.63 449.42 460.63 449.55 458.64 Z" />
<path fill="#cf8034" opacity="1.00" d=" M 438.14 459.68 C 440.73 459.52 443.32 459.42 445.92 459.55 C 443.65 461.17 440.83 460.88 438.21 460.94 L 438.14 459.68 Z" />
<path fill="#cf8034" opacity="1.00" d=" M 405.12 461.52 C 409.04 459.47 413.54 460.42 417.76 460.38 C 417.18 461.86 416.61 463.35 416.06 464.85 L 415.84 464.56 C 413.77 460.54 408.71 462.14 405.12 461.52 Z" />
<path fill="#cf8034" opacity="1.00" d=" M 458.63 462.27 C 460.68 462.41 462.74 462.60 464.79 462.90 C 462.48 463.48 460.16 464.03 457.85 464.55 C 458.04 463.98 458.43 462.84 458.63 462.27 Z" />
<path fill="#cf8034" opacity="1.00" d=" M 367.35 471.98 C 368.76 472.23 370.18 472.47 371.61 472.71 C 373.04 475.97 372.52 479.54 372.38 482.98 C 369.79 524.30 372.08 565.87 378.57 606.73 C 380.73 626.33 383.35 646.99 393.80 664.07 C 383.48 665.61 375.74 672.94 368.44 679.77 C 363.12 670.03 352.88 664.70 342.10 663.71 C 348.05 655.19 351.75 645.51 354.59 635.57 C 358.55 609.42 366.87 583.71 366.62 557.03 C 366.04 546.35 367.68 535.68 366.70 525.01 C 366.49 507.32 364.52 489.55 367.35 471.98 Z" />
<path fill="#cf8034" opacity="1.00" d=" M 416.52 604.41 C 437.38 604.73 458.26 605.77 479.11 605.32 C 478.71 622.20 459.84 631.69 444.72 629.40 C 434.40 629.45 427.24 621.14 420.13 614.85 C 417.07 612.28 416.27 608.21 416.52 604.41 Z" />
<path fill="#cf8034" opacity="1.00" d=" M 253.06 605.61 C 262.67 603.61 272.30 606.34 281.95 605.48 C 290.64 605.30 299.33 605.87 308.01 605.21 C 312.69 605.33 317.77 604.07 322.06 606.55 C 319.23 612.26 315.29 617.31 310.97 621.97 C 301.10 632.36 283.83 634.90 271.52 627.52 C 263.33 622.57 253.79 616.10 253.06 605.61 Z" />
<path fill="#cf8034" opacity="1.00" d=" M 290.54 678.42 C 306.31 672.48 322.95 667.25 340.02 668.64 C 351.02 667.99 361.74 675.18 365.60 685.41 C 365.13 691.91 365.19 698.46 364.84 704.98 C 358.85 699.02 352.30 693.65 345.85 688.21 C 336.96 682.72 326.73 680.35 316.95 677.05 C 308.17 675.02 299.29 677.55 290.54 678.42 Z" />
<path fill="#cf8034" opacity="1.00" d=" M 389.62 669.62 C 403.03 668.04 416.71 669.22 429.57 673.46 C 421.37 675.15 412.78 674.85 404.86 677.86 C 397.48 680.06 391.95 685.68 385.45 689.51 C 378.86 693.49 374.27 699.92 370.47 706.46 C 369.93 699.12 369.99 691.66 371.48 684.44 C 376.55 678.49 382.85 673.51 389.62 669.62 Z" />
</g>
<g id="#6ba8d8ff">
<path fill="#6ba8d8" opacity="1.00" d=" M 356.80 429.73 C 358.58 432.00 360.37 434.25 362.16 436.51 C 355.69 438.90 352.65 445.22 351.12 451.52 C 333.13 451.01 315.12 449.45 297.12 450.40 C 296.62 449.15 296.13 447.92 295.65 446.68 C 305.13 442.88 314.67 437.34 325.11 437.53 C 333.85 430.68 346.44 432.71 356.80 429.73 Z" />
<path fill="#6ba8d8" opacity="1.00" d=" M 273.01 460.91 C 276.01 460.60 279.00 460.12 281.95 459.49 C 283.76 465.25 280.85 470.88 280.40 476.61 C 268.97 517.76 257.44 558.90 246.43 600.17 C 246.48 618.75 263.20 632.12 279.25 637.29 C 285.03 637.22 290.95 638.36 296.63 636.98 C 310.38 634.24 321.09 622.92 326.25 610.29 C 327.91 606.96 327.51 603.19 327.36 599.61 C 326.18 599.20 325.01 598.78 323.84 598.38 C 320.87 584.62 317.21 571.07 313.48 557.51 C 309.26 541.16 306.38 524.50 302.11 508.17 C 298.77 496.92 296.50 485.41 293.82 474.00 C 294.68 473.15 295.53 472.30 296.39 471.46 C 295.74 468.62 294.23 466.13 292.31 463.98 C 293.11 463.22 293.92 462.46 294.72 461.72 C 301.42 463.05 308.23 461.82 314.98 462.47 C 328.62 462.45 342.14 465.05 355.79 464.69 C 357.39 465.61 359.00 466.53 360.61 467.44 C 362.03 495.29 360.57 523.14 361.37 551.01 C 361.58 565.66 360.11 580.37 356.39 594.56 C 354.85 604.69 352.90 614.74 350.61 624.73 C 349.41 639.02 343.40 652.58 334.06 663.40 C 315.94 663.04 299.05 670.19 282.12 675.41 C 271.09 667.06 259.06 659.65 250.34 648.67 C 236.09 632.72 223.03 612.35 225.61 590.05 C 224.12 568.84 225.73 547.23 232.06 526.88 C 239.34 507.94 249.30 490.01 262.75 474.74 C 266.53 470.41 269.82 465.68 273.01 460.91 Z" />
<path fill="#6ba8d8" opacity="1.00" d=" M 391.18 468.12 C 391.57 467.71 392.33 466.90 392.72 466.49 C 398.91 467.15 404.23 470.03 408.05 474.95 C 412.81 480.60 420.05 482.83 426.35 486.24 C 428.78 492.08 430.87 498.71 435.99 502.78 C 432.83 519.31 426.38 534.97 422.28 551.27 C 419.41 564.26 415.03 576.84 411.63 589.69 C 410.62 594.35 407.31 598.66 408.61 603.63 C 411.75 611.78 415.63 619.89 421.92 626.11 C 436.35 637.71 458.09 639.15 473.51 628.61 C 480.72 621.59 485.87 611.74 483.64 601.42 C 478.66 581.07 473.95 560.66 469.80 540.11 C 475.10 540.93 480.02 543.35 485.40 543.82 C 492.14 537.37 492.54 527.64 495.63 519.36 C 504.41 548.53 506.85 580.60 496.56 609.73 C 493.01 618.05 490.84 627.05 485.66 634.59 C 480.57 644.13 477.24 655.49 467.94 661.93 C 462.07 668.29 455.46 673.91 448.41 678.93 C 445.88 675.71 442.99 672.57 439.12 671.01 C 426.56 667.04 413.57 664.35 400.36 664.18 C 388.62 646.98 386.69 625.65 383.59 605.63 C 381.88 597.70 382.38 589.49 380.35 581.61 C 377.20 560.95 377.95 539.95 376.63 519.15 C 376.94 503.90 376.16 488.56 378.53 473.43 C 382.05 472.10 385.99 470.99 388.03 467.52 C 388.82 467.67 390.40 467.97 391.18 468.12 Z" />
<path fill="#6ba8d8" opacity="1.00" d=" M 252.63 599.43 C 263.45 558.37 274.18 517.25 286.10 476.49 C 286.19 517.64 284.36 558.86 284.30 600.02 C 273.73 600.48 263.19 599.35 252.63 599.43 Z" />
<path fill="#6ba8d8" opacity="1.00" d=" M 290.87 482.51 C 290.77 489.75 294.91 496.01 295.78 503.07 C 296.66 511.17 300.36 518.66 300.87 526.83 C 300.59 527.18 300.02 527.88 299.74 528.23 C 301.44 530.01 302.90 532.06 303.38 534.53 C 308.83 556.05 312.14 578.09 318.76 599.30 C 309.31 599.38 299.84 599.23 290.43 600.12 C 289.61 560.96 289.89 521.71 290.87 482.51 Z" />
<path fill="#6ba8d8" opacity="1.00" d=" M 439.41 510.09 C 441.96 514.53 446.86 518.32 446.12 523.96 C 445.23 549.14 444.59 574.34 444.03 599.53 C 434.01 599.64 423.96 599.58 413.98 598.52 C 421.96 568.89 431.68 539.77 439.41 510.09 Z" />
<path fill="#6ba8d8" opacity="1.00" d=" M 450.80 526.10 C 454.19 529.09 457.42 532.26 460.98 535.07 C 465.54 538.47 464.38 544.91 465.97 549.78 C 470.37 566.23 472.48 583.20 476.79 599.65 C 467.93 601.40 458.86 599.52 449.91 600.13 C 449.41 580.78 450.45 561.48 450.75 542.16 C 452.32 536.87 450.68 531.47 450.80 526.10 Z" />
<path fill="#6ba8d8" opacity="1.00" d=" M 410.35 681.34 C 418.07 679.56 426.10 678.60 434.03 678.73 C 438.21 680.25 442.45 681.58 447.00 681.00 C 426.96 697.62 401.83 708.65 375.49 708.85 C 383.45 696.05 396.28 686.45 410.35 681.34 Z" />
<path fill="#6ba8d8" opacity="1.00" d=" M 290.92 683.74 C 301.41 681.58 312.72 679.87 322.90 684.28 C 332.50 686.92 342.17 690.43 349.26 697.75 C 352.81 701.03 355.43 705.29 359.69 707.79 C 335.47 704.30 312.06 696.03 290.92 683.74 Z" />
</g>
<g id="#5f55b4ff">
<path fill="#5f55b4" opacity="1.00" d=" M 97.57 667.56 C 100.75 662.75 106.35 660.50 109.89 656.03 C 109.91 663.83 117.46 668.95 117.36 676.74 C 117.59 680.13 115.78 683.16 114.41 686.14 C 111.44 686.06 108.46 686.14 105.51 686.52 C 102.40 684.80 97.75 684.45 96.43 680.64 C 95.22 676.41 94.42 671.18 97.57 667.56 Z" />
<path fill="#5f55b4" opacity="1.00" d=" M 121.30 666.84 C 118.42 662.98 122.73 659.26 124.14 655.76 C 127.52 661.01 132.39 666.99 129.35 673.57 C 126.52 679.54 123.80 685.76 119.58 690.90 C 122.34 683.29 126.00 674.54 121.30 666.84 Z" />
<path fill="#5f55b4" opacity="1.00" d=" M 615.86 665.51 C 617.34 667.44 619.46 669.24 619.72 671.80 C 617.91 676.37 613.20 679.29 612.13 684.24 C 610.69 689.37 612.06 694.62 613.35 699.62 C 606.33 697.91 603.58 690.89 600.55 685.16 C 607.31 680.06 612.64 673.37 615.86 665.51 Z" />
<path fill="#5f55b4" opacity="1.00" d=" M 631.22 665.54 C 633.76 670.29 638.79 672.90 641.67 677.32 C 643.71 683.52 640.19 689.82 637.66 695.35 C 633.87 696.10 631.02 698.70 628.95 701.83 C 625.92 698.20 621.37 696.67 616.92 695.65 C 613.17 683.03 627.63 676.23 631.22 665.54 Z" />
<path fill="#5f55b4" opacity="1.00" d=" M 88.73 695.75 C 90.98 695.75 93.23 695.76 95.49 695.79 C 94.95 701.80 94.74 707.83 94.61 713.85 C 93.73 718.90 89.08 721.96 84.91 724.27 C 84.28 723.08 83.65 721.91 83.02 720.75 C 87.52 713.06 88.16 704.40 88.73 695.75 Z" />
<path fill="#5f55b4" opacity="1.00" d=" M 99.46 696.65 C 107.35 699.09 113.69 707.54 111.78 715.95 C 111.14 720.50 112.10 725.16 110.72 729.64 C 100.35 722.25 97.85 708.56 99.46 696.65 Z" />
<path fill="#5f55b4" opacity="1.00" d=" M 129.46 697.87 C 131.62 697.80 133.80 697.86 135.97 697.81 C 141.30 704.64 135.17 714.49 142.23 720.81 C 140.65 723.49 138.32 725.57 135.28 726.44 C 133.40 724.09 131.24 721.96 128.64 720.42 C 128.54 712.84 132.76 705.26 129.46 697.87 Z" />
<path fill="#5f55b4" opacity="1.00" d=" M 116.48 704.16 C 118.80 701.66 121.70 699.86 124.86 698.61 C 125.71 704.12 125.29 709.71 125.97 715.24 C 125.13 715.46 124.30 715.70 123.46 715.94 C 126.13 721.86 119.84 727.72 115.80 731.50 C 116.78 722.41 116.60 713.28 116.48 704.16 Z" />
<path fill="#5f55b4" opacity="1.00" d=" M 592.01 705.71 C 594.26 707.26 596.60 708.70 599.16 709.70 C 597.46 717.61 601.00 724.81 603.67 732.04 C 601.25 737.34 597.19 742.05 591.11 742.91 C 590.77 742.42 590.11 741.43 589.78 740.94 C 591.26 737.13 594.00 732.75 591.21 728.85 C 586.85 721.70 587.79 712.68 592.01 705.71 Z" />
<path fill="#5f55b4" opacity="1.00" d=" M 640.84 710.31 C 643.95 709.34 647.01 708.21 650.00 706.91 C 655.29 718.45 646.17 730.71 650.72 742.45 C 644.05 742.69 642.20 735.21 638.36 731.19 C 641.97 724.80 642.79 717.36 640.84 710.31 Z" />
<path fill="#5f55b4" opacity="1.00" d=" M 623.33 714.21 C 626.37 711.61 630.03 709.97 634.01 709.49 C 636.10 713.36 637.77 717.84 636.33 722.25 C 635.43 727.61 630.53 730.73 628.45 735.51 C 627.22 738.25 624.81 740.12 622.52 741.93 C 621.75 732.66 624.11 723.47 623.33 714.21 Z" />
<path fill="#5f55b4" opacity="1.00" d=" M 600.74 714.02 C 605.96 709.10 619.86 709.33 618.43 719.00 C 618.34 725.70 617.14 732.35 617.78 739.07 C 616.58 739.10 615.40 739.13 614.22 739.18 C 612.02 733.64 607.29 729.66 604.89 724.26 C 603.83 720.72 603.00 717.04 600.74 714.02 Z" />
</g>
<g id="#acac26ff">
<path fill="#acac26" opacity="1.00" d=" M 114.37 734.57 C 114.99 734.69 116.22 734.92 116.83 735.04 C 118.51 746.16 118.15 757.44 117.95 768.65 C 115.14 764.47 116.83 759.28 116.71 754.61 C 117.59 747.79 114.74 741.32 114.37 734.57 Z" />
<path fill="#acac26" opacity="1.00" d=" M 122.76 771.77 C 128.02 760.85 132.89 748.71 143.94 742.34 C 141.46 750.02 138.93 757.70 136.34 765.35 C 133.17 774.03 128.68 782.42 127.90 791.78 C 125.37 794.94 123.33 798.42 121.35 801.95 C 121.98 791.90 119.86 781.59 122.76 771.77 Z" />
<path fill="#acac26" opacity="1.00" d=" M 148.35 743.21 C 152.41 749.29 158.28 755.15 157.02 763.13 C 153.78 759.29 150.01 755.90 145.51 753.61 C 146.30 750.10 147.24 746.63 148.35 743.21 Z" />
<path fill="#acac26" opacity="1.00" d=" M 619.74 767.11 C 619.92 759.30 617.46 751.29 620.04 743.69 C 620.97 746.01 621.31 748.50 621.17 751.00 C 620.81 767.60 621.58 784.18 621.56 800.77 C 617.64 789.88 620.92 778.31 619.74 767.11 Z" />
<path fill="#acac26" opacity="1.00" d=" M 55.13 746.37 C 66.62 747.55 77.78 752.79 85.15 761.84 C 95.70 772.76 102.23 786.66 111.57 798.50 C 112.56 809.31 112.74 820.18 109.95 830.78 C 104.95 821.46 105.52 810.60 100.78 801.24 C 98.82 790.94 92.21 782.52 87.58 773.34 C 84.01 765.94 77.01 761.29 71.50 755.48 C 67.06 750.76 60.24 750.07 55.13 746.37 Z" />
<path fill="#acac26" opacity="1.00" d=" M 569.26 769.68 C 574.37 762.78 580.84 755.52 589.87 754.44 C 591.21 755.01 592.36 755.90 593.58 756.71 C 586.91 761.71 580.72 767.76 572.65 770.48 C 571.47 770.70 570.37 769.92 569.26 769.68 Z" />
<path fill="#acac26" opacity="1.00" d=" M 591.85 763.98 C 593.66 762.41 595.30 760.67 596.87 758.86 C 609.91 779.17 621.38 802.41 619.94 827.17 C 615.29 816.67 613.91 805.05 609.59 794.42 C 605.39 784.60 601.24 774.70 595.21 765.84 C 594.22 764.99 592.97 764.56 591.85 763.98 Z" />
<path fill="#acac26" opacity="1.00" d=" M 138.49 784.47 C 147.79 775.37 160.53 771.20 172.79 767.57 C 165.76 772.74 157.47 775.97 151.12 782.13 C 142.46 790.57 134.81 800.21 128.61 810.60 C 121.60 821.86 121.61 835.53 119.92 848.26 C 117.41 848.18 114.90 848.12 112.38 848.10 C 114.70 835.61 113.75 822.02 120.67 810.79 C 124.33 800.62 133.12 793.64 138.49 784.47 Z" />
<path fill="#acac26" opacity="1.00" d=" M 646.25 791.28 C 654.60 781.96 664.20 773.35 675.42 767.67 C 661.63 782.00 651.02 799.05 641.50 816.47 C 637.50 822.83 634.49 829.76 632.15 836.88 C 630.17 843.12 630.50 849.88 628.06 855.99 C 625.31 849.56 623.78 842.70 622.36 835.87 C 625.90 832.46 626.17 827.32 628.01 823.01 C 632.78 811.72 639.84 801.65 646.25 791.28 Z" />
<path fill="#acac26" opacity="1.00" d=" M 571.28 777.71 C 587.00 782.14 600.12 793.68 606.05 808.93 C 611.58 823.80 620.69 838.09 620.65 854.42 C 618.94 854.46 617.25 854.51 615.56 854.57 C 614.60 841.58 609.84 829.27 604.36 817.59 C 598.74 807.78 591.69 798.88 585.69 789.30 C 581.48 784.79 576.06 781.59 571.28 777.71 Z" />
</g>
</svg>
