<?xml version="1.0" encoding="UTF-8" standalone="no"?>
<svg
   xmlns:dc="http://purl.org/dc/elements/1.1/"
   xmlns:cc="http://creativecommons.org/ns#"
   xmlns:rdf="http://www.w3.org/1999/02/22-rdf-syntax-ns#"
   xmlns:svg="http://www.w3.org/2000/svg"
   xmlns="http://www.w3.org/2000/svg"
   xmlns:sodipodi="http://sodipodi.sourceforge.net/DTD/sodipodi-0.dtd"
   xmlns:inkscape="http://www.inkscape.org/namespaces/inkscape"
   width="736pt"
   height="910pt"
   viewBox="0 0 736 910"
   version="1.1"
   id="svg3246"
   inkscape:version="0.48.4 r9939"
   sodipodi:docname="draco-final-glow.svg">
  <metadata
     id="metadata3505">
    <rdf:RDF>
      <cc:Work
         rdf:about="">
        <dc:format>image/svg+xml</dc:format>
        <dc:type
           rdf:resource="http://purl.org/dc/dcmitype/StillImage" />
        <dc:title />
      </cc:Work>
    </rdf:RDF>
  </metadata>
  <defs
     id="defs3503">
    <filter
       id="filter3797"
       inkscape:label="Glow"
       inkscape:menu="Shadows and Glows"
       inkscape:menu-tooltip="Glow of object's own color at the edges"
       color-interpolation-filters="sRGB">
      <feGaussianBlur
         id="feGaussianBlur3799"
         stdDeviation="5"
         result="result91" />
      <feComposite
         id="feComposite3801"
         in2="result91"
         in="SourceGraphic"
         operator="over" />
    </filter>
    <filter
       id="filter3803"
       inkscape:label="Glow"
       inkscape:menu="Shadows and Glows"
       inkscape:menu-tooltip="Glow of object's own color at the edges"
       color-interpolation-filters="sRGB">
      <feGaussianBlur
         id="feGaussianBlur3805"
         stdDeviation="5"
         result="result91" />
      <feComposite
         id="feComposite3807"
         in2="result91"
         in="SourceGraphic"
         operator="over" />
    </filter>
    <filter
       id="filter3809"
       inkscape:label="Glow"
       inkscape:menu="Shadows and Glows"
       inkscape:menu-tooltip="Glow of object's own color at the edges"
       color-interpolation-filters="sRGB">
      <feGaussianBlur
         id="feGaussianBlur3811"
         stdDeviation="5"
         result="result91" />
      <feComposite
         id="feComposite3813"
         in2="result91"
         in="SourceGraphic"
         operator="over" />
    </filter>
    <filter
       id="filter3815"
       inkscape:label="Glow"
       inkscape:menu="Shadows and Glows"
       inkscape:menu-tooltip="Glow of object's own color at the edges"
       color-interpolation-filters="sRGB">
      <feGaussianBlur
         id="feGaussianBlur3817"
         stdDeviation="5"
         result="result91" />
      <feComposite
         id="feComposite3819"
         in2="result91"
         in="SourceGraphic"
         operator="over" />
    </filter>
    <filter
       id="filter3821"
       inkscape:label="Glow"
       inkscape:menu="Shadows and Glows"
       inkscape:menu-tooltip="Glow of object's own color at the edges"
       color-interpolation-filters="sRGB">
      <feGaussianBlur
         id="feGaussianBlur3823"
         stdDeviation="5"
         result="result91" />
      <feComposite
         id="feComposite3825"
         in2="result91"
         in="SourceGraphic"
         operator="over" />
    </filter>
    <filter
       id="filter3827"
       inkscape:label="Glow"
       inkscape:menu="Shadows and Glows"
       inkscape:menu-tooltip="Glow of object's own color at the edges"
       color-interpolation-filters="sRGB">
      <feGaussianBlur
         id="feGaussianBlur3829"
         stdDeviation="5"
         result="result91" />
      <feComposite
         id="feComposite3831"
         in2="result91"
         in="SourceGraphic"
         operator="over" />
    </filter>
    <filter
       id="filter3833"
       inkscape:label="Glow"
       inkscape:menu="Shadows and Glows"
       inkscape:menu-tooltip="Glow of object's own color at the edges"
       color-interpolation-filters="sRGB">
      <feGaussianBlur
         id="feGaussianBlur3835"
         stdDeviation="5"
         result="result91" />
      <feComposite
         id="feComposite3837"
         in2="result91"
         in="SourceGraphic"
         operator="over" />
    </filter>
    <filter
       id="filter3839"
       inkscape:label="Glow"
       inkscape:menu="Shadows and Glows"
       inkscape:menu-tooltip="Glow of object's own color at the edges"
       color-interpolation-filters="sRGB">
      <feGaussianBlur
         id="feGaussianBlur3841"
         stdDeviation="5"
         result="result91" />
      <feComposite
         id="feComposite3843"
         in2="result91"
         in="SourceGraphic"
         operator="over" />
    </filter>
    <filter
       id="filter3845"
       inkscape:label="Glow"
       inkscape:menu="Shadows and Glows"
       inkscape:menu-tooltip="Glow of object's own color at the edges"
       color-interpolation-filters="sRGB">
      <feGaussianBlur
         id="feGaussianBlur3847"
         stdDeviation="5"
         result="result91" />
      <feComposite
         id="feComposite3849"
         in2="result91"
         in="SourceGraphic"
         operator="over" />
    </filter>
    <filter
       id="filter3851"
       inkscape:label="Glow"
       inkscape:menu="Shadows and Glows"
       inkscape:menu-tooltip="Glow of object's own color at the edges"
       color-interpolation-filters="sRGB">
      <feGaussianBlur
         id="feGaussianBlur3853"
         stdDeviation="5"
         result="result91" />
      <feComposite
         id="feComposite3855"
         in2="result91"
         in="SourceGraphic"
         operator="over" />
    </filter>
    <filter
       id="filter3857"
       inkscape:label="Glow"
       inkscape:menu="Shadows and Glows"
       inkscape:menu-tooltip="Glow of object's own color at the edges"
       color-interpolation-filters="sRGB">
      <feGaussianBlur
         id="feGaussianBlur3859"
         stdDeviation="5"
         result="result91" />
      <feComposite
         id="feComposite3861"
         in2="result91"
         in="SourceGraphic"
         operator="over" />
    </filter>
    <filter
       id="filter3863"
       inkscape:label="Glow"
       inkscape:menu="Shadows and Glows"
       inkscape:menu-tooltip="Glow of object's own color at the edges"
       color-interpolation-filters="sRGB">
      <feGaussianBlur
         id="feGaussianBlur3865"
         stdDeviation="5"
         result="result91" />
      <feComposite
         id="feComposite3867"
         in2="result91"
         in="SourceGraphic"
         operator="over" />
    </filter>
    <filter
       id="filter3869"
       inkscape:label="Glow"
       inkscape:menu="Shadows and Glows"
       inkscape:menu-tooltip="Glow of object's own color at the edges"
       color-interpolation-filters="sRGB">
      <feGaussianBlur
         id="feGaussianBlur3871"
         stdDeviation="5"
         result="result91" />
      <feComposite
         id="feComposite3873"
         in2="result91"
         in="SourceGraphic"
         operator="over" />
    </filter>
    <filter
       id="filter3875"
       inkscape:label="Glow"
       inkscape:menu="Shadows and Glows"
       inkscape:menu-tooltip="Glow of object's own color at the edges"
       color-interpolation-filters="sRGB">
      <feGaussianBlur
         id="feGaussianBlur3877"
         stdDeviation="5"
         result="result91" />
      <feComposite
         id="feComposite3879"
         in2="result91"
         in="SourceGraphic"
         operator="over" />
    </filter>
    <filter
       id="filter3881"
       inkscape:label="Glow"
       inkscape:menu="Shadows and Glows"
       inkscape:menu-tooltip="Glow of object's own color at the edges"
       color-interpolation-filters="sRGB">
      <feGaussianBlur
         id="feGaussianBlur3883"
         stdDeviation="5"
         result="result91" />
      <feComposite
         id="feComposite3885"
         in2="result91"
         in="SourceGraphic"
         operator="over" />
    </filter>
    <filter
       id="filter3887"
       inkscape:label="Glow"
       inkscape:menu="Shadows and Glows"
       inkscape:menu-tooltip="Glow of object's own color at the edges"
       color-interpolation-filters="sRGB">
      <feGaussianBlur
         id="feGaussianBlur3889"
         stdDeviation="5"
         result="result91" />
      <feComposite
         id="feComposite3891"
         in2="result91"
         in="SourceGraphic"
         operator="over" />
    </filter>
    <filter
       id="filter3893"
       inkscape:label="Glow"
       inkscape:menu="Shadows and Glows"
       inkscape:menu-tooltip="Glow of object's own color at the edges"
       color-interpolation-filters="sRGB">
      <feGaussianBlur
         id="feGaussianBlur3895"
         stdDeviation="5"
         result="result91" />
      <feComposite
         id="feComposite3897"
         in2="result91"
         in="SourceGraphic"
         operator="over" />
    </filter>
    <filter
       id="filter3899"
       inkscape:label="Glow"
       inkscape:menu="Shadows and Glows"
       inkscape:menu-tooltip="Glow of object's own color at the edges"
       color-interpolation-filters="sRGB">
      <feGaussianBlur
         id="feGaussianBlur3901"
         stdDeviation="5"
         result="result91" />
      <feComposite
         id="feComposite3903"
         in2="result91"
         in="SourceGraphic"
         operator="over" />
    </filter>
    <filter
       id="filter3905"
       inkscape:label="Glow"
       inkscape:menu="Shadows and Glows"
       inkscape:menu-tooltip="Glow of object's own color at the edges"
       color-interpolation-filters="sRGB">
      <feGaussianBlur
         id="feGaussianBlur3907"
         stdDeviation="5"
         result="result91" />
      <feComposite
         id="feComposite3909"
         in2="result91"
         in="SourceGraphic"
         operator="over" />
    </filter>
    <filter
       id="filter3911"
       inkscape:label="Glow"
       inkscape:menu="Shadows and Glows"
       inkscape:menu-tooltip="Glow of object's own color at the edges"
       color-interpolation-filters="sRGB">
      <feGaussianBlur
         id="feGaussianBlur3913"
         stdDeviation="5"
         result="result91" />
      <feComposite
         id="feComposite3915"
         in2="result91"
         in="SourceGraphic"
         operator="over" />
    </filter>
    <filter
       id="filter3917"
       inkscape:label="Glow"
       inkscape:menu="Shadows and Glows"
       inkscape:menu-tooltip="Glow of object's own color at the edges"
       color-interpolation-filters="sRGB">
      <feGaussianBlur
         id="feGaussianBlur3919"
         stdDeviation="5"
         result="result91" />
      <feComposite
         id="feComposite3921"
         in2="result91"
         in="SourceGraphic"
         operator="over" />
    </filter>
    <filter
       id="filter3923"
       inkscape:label="Glow"
       inkscape:menu="Shadows and Glows"
       inkscape:menu-tooltip="Glow of object's own color at the edges"
       color-interpolation-filters="sRGB">
      <feGaussianBlur
         id="feGaussianBlur3925"
         stdDeviation="5"
         result="result91" />
      <feComposite
         id="feComposite3927"
         in2="result91"
         in="SourceGraphic"
         operator="over" />
    </filter>
    <filter
       id="filter3929"
       inkscape:label="Glow"
       inkscape:menu="Shadows and Glows"
       inkscape:menu-tooltip="Glow of object's own color at the edges"
       color-interpolation-filters="sRGB">
      <feGaussianBlur
         id="feGaussianBlur3931"
         stdDeviation="5"
         result="result91" />
      <feComposite
         id="feComposite3933"
         in2="result91"
         in="SourceGraphic"
         operator="over" />
    </filter>
    <filter
       id="filter3935"
       inkscape:label="Glow"
       inkscape:menu="Shadows and Glows"
       inkscape:menu-tooltip="Glow of object's own color at the edges"
       color-interpolation-filters="sRGB">
      <feGaussianBlur
         id="feGaussianBlur3937"
         stdDeviation="5"
         result="result91" />
      <feComposite
         id="feComposite3939"
         in2="result91"
         in="SourceGraphic"
         operator="over" />
    </filter>
    <filter
       id="filter3941"
       inkscape:label="Glow"
       inkscape:menu="Shadows and Glows"
       inkscape:menu-tooltip="Glow of object's own color at the edges"
       color-interpolation-filters="sRGB">
      <feGaussianBlur
         id="feGaussianBlur3943"
         stdDeviation="5"
         result="result91" />
      <feComposite
         id="feComposite3945"
         in2="result91"
         in="SourceGraphic"
         operator="over" />
    </filter>
    <filter
       id="filter3947"
       inkscape:label="Glow"
       inkscape:menu="Shadows and Glows"
       inkscape:menu-tooltip="Glow of object's own color at the edges"
       color-interpolation-filters="sRGB">
      <feGaussianBlur
         id="feGaussianBlur3949"
         stdDeviation="5"
         result="result91" />
      <feComposite
         id="feComposite3951"
         in2="result91"
         in="SourceGraphic"
         operator="over" />
    </filter>
    <filter
       id="filter3953"
       inkscape:label="Glow"
       inkscape:menu="Shadows and Glows"
       inkscape:menu-tooltip="Glow of object's own color at the edges"
       color-interpolation-filters="sRGB">
      <feGaussianBlur
         id="feGaussianBlur3955"
         stdDeviation="5"
         result="result91" />
      <feComposite
         id="feComposite3957"
         in2="result91"
         in="SourceGraphic"
         operator="over" />
    </filter>
    <filter
       id="filter3959"
       inkscape:label="Glow"
       inkscape:menu="Shadows and Glows"
       inkscape:menu-tooltip="Glow of object's own color at the edges"
       color-interpolation-filters="sRGB">
      <feGaussianBlur
         id="feGaussianBlur3961"
         stdDeviation="5"
         result="result91" />
      <feComposite
         id="feComposite3963"
         in2="result91"
         in="SourceGraphic"
         operator="over" />
    </filter>
    <filter
       id="filter3965"
       inkscape:label="Glow"
       inkscape:menu="Shadows and Glows"
       inkscape:menu-tooltip="Glow of object's own color at the edges"
       color-interpolation-filters="sRGB">
      <feGaussianBlur
         id="feGaussianBlur3967"
         stdDeviation="5"
         result="result91" />
      <feComposite
         id="feComposite3969"
         in2="result91"
         in="SourceGraphic"
         operator="over" />
    </filter>
    <filter
       id="filter3971"
       inkscape:label="Glow"
       inkscape:menu="Shadows and Glows"
       inkscape:menu-tooltip="Glow of object's own color at the edges"
       color-interpolation-filters="sRGB">
      <feGaussianBlur
         id="feGaussianBlur3973"
         stdDeviation="5"
         result="result91" />
      <feComposite
         id="feComposite3975"
         in2="result91"
         in="SourceGraphic"
         operator="over" />
    </filter>
    <filter
       id="filter3977"
       inkscape:label="Glow"
       inkscape:menu="Shadows and Glows"
       inkscape:menu-tooltip="Glow of object's own color at the edges"
       color-interpolation-filters="sRGB">
      <feGaussianBlur
         id="feGaussianBlur3979"
         stdDeviation="5"
         result="result91" />
      <feComposite
         id="feComposite3981"
         in2="result91"
         in="SourceGraphic"
         operator="over" />
    </filter>
    <filter
       id="filter3983"
       inkscape:label="Glow"
       inkscape:menu="Shadows and Glows"
       inkscape:menu-tooltip="Glow of object's own color at the edges"
       color-interpolation-filters="sRGB">
      <feGaussianBlur
         id="feGaussianBlur3985"
         stdDeviation="5"
         result="result91" />
      <feComposite
         id="feComposite3987"
         in2="result91"
         in="SourceGraphic"
         operator="over" />
    </filter>
    <filter
       id="filter3989"
       inkscape:label="Glow"
       inkscape:menu="Shadows and Glows"
       inkscape:menu-tooltip="Glow of object's own color at the edges"
       color-interpolation-filters="sRGB">
      <feGaussianBlur
         id="feGaussianBlur3991"
         stdDeviation="5"
         result="result91" />
      <feComposite
         id="feComposite3993"
         in2="result91"
         in="SourceGraphic"
         operator="over" />
    </filter>
    <filter
       id="filter3995"
       inkscape:label="Glow"
       inkscape:menu="Shadows and Glows"
       inkscape:menu-tooltip="Glow of object's own color at the edges"
       color-interpolation-filters="sRGB">
      <feGaussianBlur
         id="feGaussianBlur3997"
         stdDeviation="5"
         result="result91" />
      <feComposite
         id="feComposite3999"
         in2="result91"
         in="SourceGraphic"
         operator="over" />
    </filter>
  </defs>
  <sodipodi:namedview
     pagecolor="#ffffff"
     bordercolor="#666666"
     borderopacity="1"
     objecttolerance="10"
     gridtolerance="10"
     guidetolerance="10"
     inkscape:pageopacity="0"
     inkscape:pageshadow="2"
     inkscape:window-width="640"
     inkscape:window-height="480"
     id="namedview3501"
     showgrid="false"
     inkscape:zoom="1.1736419"
     inkscape:cx="28.488934"
     inkscape:cy="1126.622"
     inkscape:window-x="0"
     inkscape:window-y="0"
     inkscape:window-maximized="0"
     inkscape:current-layer="svg3246" />
  <g
     id="g3354">
    <g
       style="filter:url(#filter3797)"
       transform="matrix(1.0512314,-0.01834932,0.01834932,1.0512314,-31.430914,1.0183445)"
       id="#71453bff">
      <path
         id="path3249"
         d="M 0,0 0.11,0 C 0.08,0.03 0.03,0.1 0,0.13 L 0,0 z"
         inkscape:connector-curvature="0"
         style="fill:#71453b" />
      <path
         id="path3251"
         d="m 373.54,242.84 c 4.49,2.32 8.36,5.57 12.04,8.98 -4.74,4.07 -10.31,6.95 -16.05,9.33 1.46,-6.07 4.16,-11.94 4.01,-18.31 z"
         inkscape:connector-curvature="0"
         style="fill:#71453b" />
      <path
         id="path3253"
         d="m 420.94,263.86 c 5.18,-3.07 11.28,-4.56 17.3,-4.22 -5.14,7.02 -12.86,13.93 -22.18,13.13 0.09,-0.68 0.26,-2.04 0.34,-2.72 -2.87,1.35 -5.9,2.35 -9.04,2.83 2.96,-4.97 8.93,-6.22 13.58,-9.02 z"
         inkscape:connector-curvature="0"
         style="fill:#71453b" />
      <path
         id="path3255"
         d="m 425.98,276.27 c 2.37,-1.25 4.74,-2.52 7.11,-3.76 0.84,3.61 1.46,7.29 1.37,11.01 -0.35,9.17 2.06,18.11 2.91,27.19 0.05,2.64 1.73,4.67 3.49,6.46 -2.23,-0.15 -4.46,-0.28 -6.68,-0.4 -1.44,-7.39 0.69,-15.08 -1.67,-22.32 -2.03,-6.14 -1.46,-13.41 -6.53,-18.18 z"
         inkscape:connector-curvature="0"
         style="fill:#71453b" />
      <path
         id="path3257"
         d="m 355.39,297.89 c 1.54,-1.97 3.37,-3.68 5.36,-5.2 1.08,1.32 2.17,2.65 3.26,3.97 -2.85,0.58 -5.73,1.01 -8.62,1.23 z"
         inkscape:connector-curvature="0"
         style="fill:#71453b" />
      <path
         id="path3259"
         d="m 387.78,297.64 c 2.72,-1.84 5.54,-3.52 8.49,-4.95 -0.69,1.87 -1.4,3.74 -2.13,5.6 -2.13,-0.22 -4.25,-0.43 -6.36,-0.65 z"
         inkscape:connector-curvature="0"
         style="fill:#71453b" />
      <path
         id="path3261"
         d="m 369.1,301.96 c 1.33,-0.19 2.66,-0.37 3.99,-0.54 -0.16,3.01 -0.36,6.01 -0.65,9 -1.41,-2.69 -2.49,-5.54 -3.34,-8.46 z"
         inkscape:connector-curvature="0"
         style="fill:#71453b" />
      <path
         id="path3263"
         d="m 432.24,320.4 c 4.23,4.57 11.05,-1.49 15.05,3.24 8.78,8.24 15.6,18.88 19,30.44 -7.58,1.89 -14.81,4.94 -22.28,7.12 -4.33,1.49 -7.41,-2.57 -7.74,-6.44 -1.4,-9.1 -6.27,-17.04 -9.12,-25.68 2.38,-2.44 3.87,-5.54 5.09,-8.68 z"
         inkscape:connector-curvature="0"
         style="fill:#71453b" />
      <path
         id="path3265"
         d="m 407.93,340.28 c 4.43,-3.25 9.26,-5.88 14.19,-8.29 5.68,9.94 8.65,20.84 10.68,32.02 -2.45,0.53 -4.94,0.87 -7.44,1.02 -3.18,-5.23 -5.76,-10.78 -8.16,-16.39 -1.76,-3.9 -4.36,-8.52 -9.27,-8.36 z"
         inkscape:connector-curvature="0"
         style="fill:#71453b" />
      <path
         id="path3267"
         d="m 392.89,349.39 c 5.08,-2.1 9.74,-5 14.49,-7.74 5.16,9.26 9.35,19.06 12.53,29.17 -4.88,1.76 -11.16,6.43 -15.94,2.28 -3.41,-8.03 -8.08,-15.5 -11.08,-23.71 z"
         inkscape:connector-curvature="0"
         style="fill:#71453b" />
      <path
         id="path3269"
         d="m 376.13,364.2 c 2.95,-5.23 7.32,-9.58 11.88,-13.45 3.44,8.23 8.69,16.11 9.64,25.1 -2.39,4.61 -5.73,9.71 -10.88,11.44 -4.32,-0.38 -7.69,-3.66 -11.48,-5.49 1.47,-5.8 -0.05,-11.78 0.84,-17.6 z"
         inkscape:connector-curvature="0"
         style="fill:#71453b" />
      <path
         id="path3271"
         d="m 359.7,371.56 c 1.74,-6.71 0.73,-13.92 3.8,-20.31 2.42,4.14 4.41,8.55 7.46,12.3 -1.39,6.05 0.61,12.31 -1,18.29 -1.47,3.91 -5.98,4.39 -9.6,4.29 -0.86,-4.78 -1.73,-9.74 -0.66,-14.57 z"
         inkscape:connector-curvature="0"
         style="fill:#71453b" />
    </g>
    <g
       style="filter:url(#filter3803)"
       transform="matrix(1.0512314,-0.01834932,0.01834932,1.0512314,-31.430914,1.0183445)"
       id="#f3f4f4ff">
      <path
         id="path3274"
         d="m 378.44,287.35 c 7.34,-3.92 15.41,-6.31 22.75,-10.3 -1.12,2.79 -2.11,5.63 -2.94,8.53 -5.94,3.26 -11.58,7.45 -18.5,8.34 -0.23,-2.23 -0.63,-4.44 -1.31,-6.57 z"
         inkscape:connector-curvature="0"
         style="fill:#f3f4f4" />
      <path
         id="path3276"
         d="m 406.25,278.1 c 1.46,0.16 2.93,0.33 4.4,0.49 -0.83,10.2 2.3,21.52 -3.2,30.8 -7.01,6.19 -14.36,12.88 -23.13,16.24 -6.72,-4.93 -7.48,-15.5 -4.57,-22.99 4.73,1.49 9.47,2.97 14.22,4.4 3.72,-4.6 7.38,-9.28 11.54,-13.5 -1.76,-5.11 -1.6,-10.55 0.74,-15.44 z"
         inkscape:connector-curvature="0"
         style="fill:#f3f4f4" />
      <path
         id="path3278"
         d="m 417.09,279.26 c 1.32,-0.3 2.66,-0.6 3.99,-0.9 0.7,2.16 1.5,4.3 2.39,6.4 -1.68,0.76 -3.36,1.53 -5.01,2.33 0.12,-2.7 -0.32,-5.34 -1.37,-7.83 z"
         inkscape:connector-curvature="0"
         style="fill:#f3f4f4" />
      <path
         id="path3280"
         d="m 362.52,278.85 c 2.74,1.43 5.1,3.41 7.27,5.59 -0.99,2.24 -1.96,4.48 -2.85,6.76 -1.83,-1.93 -3.68,-3.84 -5.53,-5.74 0.38,-2.2 0.73,-4.41 1.11,-6.61 z"
         inkscape:connector-curvature="0"
         style="fill:#f3f4f4" />
      <path
         id="path3282"
         d="m 422.37,291.29 c 0.72,-0.05 2.14,-0.15 2.86,-0.2 0.4,3.18 1.12,6.3 1.98,9.39 -3.52,0.01 -6.79,1.3 -9.96,2.66 0.72,-2.85 1.22,-5.75 1.26,-8.69 1.29,-1.05 2.57,-2.1 3.86,-3.16 z"
         inkscape:connector-curvature="0"
         style="fill:#f3f4f4" />
      <path
         id="path3284"
         d="m 357.26,303.39 c 2.23,-0.33 4.46,-0.67 6.7,-1.01 0.54,4.33 3.37,7.76 5.83,11.18 0.85,4.94 -2.79,8.73 -3.3,13.41 -0.96,-0.15 -1.92,-0.28 -2.87,-0.41 -1.05,-8.09 -3.84,-15.49 -6.36,-23.17 z"
         inkscape:connector-curvature="0"
         style="fill:#f3f4f4" />
      <path
         id="path3286"
         d="m 414.8,309.73 c 4.9,-0.75 9.12,-3.39 13.07,-6.21 0.44,5.1 -2.24,9.93 -1.14,15.02 -5.12,3.73 -9.84,-2.43 -14.06,-4.78 0.7,-1.35 1.41,-2.69 2.13,-4.03 z"
         inkscape:connector-curvature="0"
         style="fill:#f3f4f4" />
      <path
         id="path3288"
         d="m 401.36,323.39 c 2.83,-2.59 7.25,-7.39 11.11,-3.88 2.79,1.95 5.77,3.6 8.79,5.16 -3.18,3.69 -7.11,7.1 -12.1,7.84 -3.67,-1.24 -6.36,-4.49 -8.23,-7.76 -0.64,-0.15 -1.92,-0.43 -2.56,-0.57 0.75,-0.2 2.24,-0.59 2.99,-0.79 z"
         inkscape:connector-curvature="0"
         style="fill:#f3f4f4" />
      <path
         id="path3290"
         d="m 372.68,327.86 c 0.92,-2.08 1.82,-4.17 2.74,-6.25 0.9,1.9 1.77,3.82 2.62,5.75 -1.79,0.16 -3.58,0.32 -5.36,0.5 z"
         inkscape:connector-curvature="0"
         style="fill:#f3f4f4" />
      <path
         id="path3292"
         d="m 390.08,330.56 c 1.83,-1.12 3.63,-2.28 5.41,-3.49 2.57,2.64 5.22,5.24 8.2,7.44 -0.03,0.58 -0.08,1.74 -0.1,2.32 -2.13,1.75 -4.48,3.19 -6.94,4.42 -2.16,-3.58 -4.45,-7.09 -6.57,-10.69 z"
         inkscape:connector-curvature="0"
         style="fill:#f3f4f4" />
      <path
         id="path3294"
         d="m 362.37,333.2 c 1.46,0.15 2.91,0.31 4.38,0.47 -0.56,3.4 -1.53,6.71 -2.42,10.04 -0.48,-0.04 -1.44,-0.12 -1.92,-0.15 0.11,-3.46 0.04,-6.91 -0.04,-10.36 z"
         inkscape:connector-curvature="0"
         style="fill:#f3f4f4" />
      <path
         id="path3296"
         d="m 379.97,333.46 c 1.77,-0.14 3.55,-0.26 5.33,-0.36 1.97,3.18 4.19,6.19 6.62,9.02 -1.82,2.52 -4.59,3.75 -7.66,3.84 -1.45,-4.16 -3.37,-8.17 -4.29,-12.5 z"
         inkscape:connector-curvature="0"
         style="fill:#f3f4f4" />
      <path
         id="path3298"
         d="m 368.9,347.46 c 0.7,-4.77 2.91,-9.08 5.12,-13.3 1.55,4.23 4.12,8.04 5.36,12.38 1.08,4.87 -2.68,9 -6.46,11.45 -1.12,-2.89 -1.67,-5.94 -1.73,-9.03 -0.57,-0.37 -1.72,-1.12 -2.29,-1.5 z"
         inkscape:connector-curvature="0"
         style="fill:#f3f4f4" />
    </g>
    <path
       transform="matrix(1.0513915,0,0,1.0513915,-23.572762,-5.5906088)"
       style="fill:#d5e8f0;filter:url(#filter3815)"
       inkscape:connector-curvature="0"
       d="m 296.45065,45.157613 c 22.95414,-7.411734 47.29218,-7.736541 71.08888,-9.852173 1.28515,66.17765 -1.59028,132.35791 -1.68544,198.52965 0.92409,11.68566 -3.55043,22.92546 -6.43642,34.06752 -1.49254,1.58629 -3.0156,3.14311 -4.51849,4.70958 0.72489,8.8687 -1.23889,17.26425 -3.84239,25.68097 -1.20397,11.24272 6.97619,20.92143 6.53141,32.1109 -1.97248,9.61589 -1.78023,19.48404 -3.23122,29.18084 -0.77388,5.51434 -4.13173,10.82376 -2.16288,16.47025 -0.43856,12.1195 6.73153,22.37593 10.83274,33.29602 -3.29402,5.52833 -9.3731,9.64505 -10.56946,16.16692 -8.72969,1.81263 -17.85691,2.05196 -26.20611,5.60822 -27.55648,-72.90018 -54.9656,-145.95295 -82.36385,-218.9559 0.77761,-0.1436 2.32301,-0.42061 3.10062,-0.5642 -1.03862,0.0881 -2.08689,0.19645 -3.11516,0.30441 -7.16821,-17.59758 -12.97518,-35.70899 -20.03411,-53.34848 -8.49865,-22.19506 -17.1764,-44.33699 -24.6015,-66.910838 6.75461,-4.378551 14.00398,-7.915609 20.67669,-12.402747 17.19111,-8.681348 33.63462,-19.509977 52.58947,-23.981466 7.7218,-3.975369 16.25699,-6.044644 23.94722,-10.109476 z"
       id="path3303" />
    <path
       transform="matrix(1.0513915,0,0,1.0513915,-23.572762,-5.5906088)"
       style="fill:#d5e8f0;filter:url(#filter3821)"
       inkscape:connector-curvature="0"
       d="m 371.37015,187.7218 c -0.56157,-50.50789 0.217,-101.019172 0.8456,-151.527836 9.28736,-0.232122 18.59734,-0.314616 27.8754,-0.50657 15.5203,3.319639 31.6071,3.568924 46.88873,8.112914 12.86373,2.965949 25.10577,8.133083 37.96019,11.1392 -0.89707,0.175683 -2.69121,0.527049 -3.59845,0.692908 22.55725,3.656878 42.36836,16.15303 61.87682,27.354266 -0.63013,0.571084 -1.25044,1.131996 -1.87057,1.702905 0.12302,5.328665 -1.87957,10.354381 -3.72446,15.247324 C 514.59314,166.589 491.8744,233.32566 468.83396,299.96792 c -3.70658,9.39612 -6.68821,19.06963 -9.64002,28.73262 -4.11787,-4.9989 -8.91813,-9.55582 -14.34136,-13.13171 -6.51565,-14.01842 -8.25769,-29.59039 -8.32578,-44.95154 -0.69683,-0.95799 -1.40365,-1.9158 -2.1003,-2.86378 2.77028,-4.01896 7.48405,-7.28173 8.24649,-12.3058 -0.89244,-0.70453 -1.7647,-1.39941 -2.62713,-2.10447 -8.1628,-1.80782 -16.08149,1.20084 -23.51974,4.23112 -8.79098,0.59351 -17.61844,-0.90265 -25.87269,-3.93906 -4.16324,-7.5985 -12.58672,-11.16203 -19.05894,-16.38987 1.0727,-16.47123 -0.92623,-33.00886 -0.22434,-49.52363 z"
       id="path3305" />
    <path
       transform="matrix(1.0513915,0,0,1.0513915,-23.572762,-5.5906088)"
       style="fill:#d5e8f0;filter:url(#filter3827)"
       inkscape:connector-curvature="0"
       d="m 544.21804,99.571763 c 0.87254,-4.445905 1.89454,-8.924424 4.46816,-12.749922 32.71302,23.952729 65.25075,50.468899 84.56893,86.867299 3.0533,3.02717 5.82362,6.45935 7.06691,10.64829 -0.0647,-0.839 -0.18395,-2.51718 -0.23861,-3.35635 10.86094,16.00289 20.93143,32.55966 29.397,49.99457 -1.06425,0.33862 -2.1185,0.67707 -3.16276,1.01535 -57.992,69.72272 -119.58809,136.37787 -179.42756,204.5426 -0.81328,-15.07811 -4.3209,-29.80913 -5.81303,-44.81538 -0.64679,-11.27043 -5.73772,-21.59315 -7.58049,-32.62267 -3.78535,-8.2952 -4.97169,-17.81594 -10.98785,-24.99204 2.80749,-12.20086 8.45114,-23.50107 11.79134,-35.5512 17.10128,-49.92607 34.35218,-99.87474 51.53292,-149.8322 5.91371,-16.45571 10.72886,-33.39233 18.38504,-49.148347 z"
       id="path3307" />
    <path
       transform="matrix(1.0513915,0,0,1.0513915,-23.572762,-5.5906088)"
       style="fill:#d5e8f0;filter:url(#filter3833)"
       inkscape:connector-curvature="0"
       d="m 165.94061,115.62606 c 9.19559,-7.78167 18.8109,-15.01058 28.86678,-21.63709 13.01951,38.2486 28.2449,75.66858 41.80119,113.72779 20.68244,57.25776 42.51737,114.07535 63.70676,171.15423 6.90244,17.84226 12.18543,36.30287 19.69376,53.90451 -10.74582,3.19803 -21.46153,6.97562 -30.49373,13.80429 -3.37093,0.54892 -7.18581,0.87554 -8.95689,4.26697 -3.24986,0.0367 -6.48605,0.28324 -9.72363,0.44977 -1.07108,-1.77158 -2.08287,-3.5842 -3.25289,-5.29404 C 253.06095,431.17366 240.14421,414.8566 226.29227,399.396 177.07927,340.63594 125.59943,283.79573 76.642903,224.83115 c 11.807681,-22.00942 25.262047,-43.07744 40.083647,-63.16917 7.51294,-8.49242 15.83936,-16.21891 23.61679,-24.4559 7.84178,-7.98807 17.43925,-13.94648 25.59727,-21.58002 z"
       id="path3309" />
    <path
       transform="matrix(1.0513915,0,0,1.0513915,-23.572762,-5.5906088)"
       style="fill:#d5e8f0;filter:url(#filter3839)"
       inkscape:connector-curvature="0"
       d="m 74.563513,229.46815 c 33.474877,41.24206 69.206407,80.55445 103.568057,121.03092 26.76169,31.37773 53.47514,62.85631 80.05913,94.36715 2.0433,4.75506 6.98199,6.9292 10.258,10.6826 0.1032,1.3284 0.1964,2.65698 0.29995,4.00538 -9.19511,14.11262 -21.09244,26.40213 -29.35529,41.20859 -64.28026,-33.8333 -128.81403,-67.29213 -192.833754,-101.67007 -0.859803,-12.58691 2.87725,-25.39408 -0.887921,-37.69024 0.520295,-20.04214 0.555254,-40.38584 6.126301,-59.85604 4.365751,-24.91999 11.781859,-49.27312 22.765527,-72.07829 z"
       id="path3311" />
    <path
       transform="matrix(1.0513915,0,0,1.0513915,-23.572762,-5.5906088)"
       style="fill:#d5e8f0;filter:url(#filter3845)"
       inkscape:connector-curvature="0"
       d="m 620.06342,292.88752 c 17.05117,-18.99047 33.28902,-38.73687 51.08212,-57.05019 3.39994,8.56196 9.1612,16.03255 11.20043,25.13835 4.88013,17.72753 12.63516,34.56475 16.32071,52.61318 7.44399,27.09421 6.04923,55.48288 5.35389,83.25924 -68.66293,35.38372 -136.70308,72.06678 -205.738,106.76689 -0.19871,-6.22748 -2.10752,-12.44512 -6.07314,-17.31665 0.0892,-6.92261 0.4326,-14.17971 -2.84862,-20.52341 -2.21835,-6.76231 -0.52656,-14.12296 -1.65857,-21.10427 6.01396,-9.56641 14.41142,-17.23414 21.28659,-26.16549 36.69985,-42.15692 74.53733,-83.31354 111.07459,-125.61765 z"
       id="path3313" />
    <path
       transform="matrix(1.0513915,0,0,1.0513915,-23.572762,-5.5906088)"
       style="fill:#d5e8f0;filter:url(#filter3851)"
       inkscape:connector-curvature="0"
       d="m 46.203007,568.89481 c 0.120651,-54.97048 -0.318962,-109.95118 0.411945,-164.91231 48.451638,26.02837 97.144858,51.57244 145.751408,77.30806 14.89663,8.27128 29.72553,16.67376 44.92233,24.37971 -10.96267,19.42429 -15.86355,41.76322 -15.74571,63.98455 -4.38375,0.39657 -8.73052,1.19255 -13.14124,1.18953 -50.0071,0.60283 -100.0331,0.69592 -150.042409,0.59869 -4.393396,0.41674 -7.572507,-4.08847 -12.156324,-2.54823 z"
       id="path3315" />
    <path
       transform="matrix(1.0513915,0,0,1.0513915,-23.572762,-5.5906088)"
       style="fill:#d5e8f0;filter:url(#filter3857)"
       inkscape:connector-curvature="0"
       d="m 551.92226,481.35545 c 50.97376,-26.01357 101.60344,-52.83127 152.44321,-79.07254 -0.23417,55.34252 -1.19806,110.70777 -0.76199,166.05859 -4.66901,-1.04867 -9.46183,-0.59496 -14.19023,-0.46242 -59.26674,0.70446 -118.56067,1.56941 -177.81254,0.83339 0.67331,-14.71399 -3.51374,-28.83307 -6.24363,-43.1276 -1.45596,-5.48543 -3.76986,-10.84586 -3.58078,-16.63004 -0.30414,-0.23473 -0.92243,-0.70401 -1.22657,-0.93874 16.68286,-9.72264 34.30699,-17.66143 51.37253,-26.66064 z"
       id="path3317" />
    <path
       transform="matrix(1.0513915,0,0,1.0513915,-23.572762,-5.5906088)"
       style="fill:#d5e8f0;filter:url(#filter3863)"
       inkscape:connector-curvature="0"
       d="m 46.212646,576.89586 c 3.808322,0.4436 7.356188,-1.4286 11.148403,-1.33477 44.042771,-0.79878 88.071541,-0.10708 132.116931,-0.75588 10.70308,0.0832 21.42,0.38623 32.12274,0.44945 0.008,13.65194 0.4675,27.35601 2.68228,40.7894 2.66482,8.27476 7.69043,15.42814 12.8613,22.30894 -26.63332,14.36701 -53.10107,29.05117 -79.96169,43.00207 -6.04893,2.40594 -12.09559,4.94185 -16.91736,9.4667 -1.61389,-0.78196 -3.21726,-1.53409 -4.84045,-2.27587 4.27952,-4.07531 5.0831,-10.18027 5.16516,-15.79255 1.09,-9.75051 -10.73652,-14.60485 -10.55499,-24.25949 -1.75312,-1.3096 -3.71028,-2.27559 -5.94011,-2.24667 -2.76917,5.22912 -0.62848,11.55273 -3.99139,16.57218 -0.65867,-3.9291 -1.30734,-7.85838 -1.82639,-11.80992 -1.88839,-1.0372 -3.96837,-1.59099 -6.12048,-1.69344 -4.22379,8.41499 -11.56619,14.64409 -16.934111,22.25893 -2.418866,5.24301 -1.947574,11.61576 0.919614,16.58648 -8.679635,6.97254 -9.234802,18.71402 -10.688983,28.80093 -0.725452,1.41288 -1.440906,2.82558 -2.146012,4.2581 C 70.9328,727.95744 58.152619,734.36146 46.367945,742.21833 47.046766,687.13809 45.653807,631.974 46.212646,576.89586 z"
       id="path3319" />
    <path
       transform="matrix(1.0513915,0,0,1.0513915,-23.572762,-5.5906088)"
       style="fill:#d5e8f0;filter:url(#filter3869)"
       inkscape:connector-curvature="0"
       d="m 511.26896,573.19894 c 63.9545,-1.44638 127.99594,-0.20387 191.95113,-1.61025 0.0946,56.41694 -0.7406,112.85011 -0.58599,169.266 -13.6904,-7.35218 -27.84624,-13.86612 -41.15891,-21.92501 0.31407,-4.92623 0.68674,-9.9335 -0.0389,-14.83158 -1.64426,-6.5323 -7.95823,-10.14266 -13.57677,-12.87502 3.44362,-7.2712 6.56872,-16.74719 0.83671,-23.68821 -6.99494,-5.37874 -11.24114,-13.14582 -15.76049,-20.51806 -3.28886,4.67811 -5.92141,10.2849 -5.44919,16.13755 -3.19178,-4.08491 -4.1062,-10.05986 -9.15784,-12.40206 -4.38009,8.62776 -6.7203,18.95017 -14.55089,25.2878 -0.2924,3.8757 -0.7953,7.72506 -1.60902,11.52984 -32.68664,-16.71209 -65.84082,-32.7059 -98.05499,-50.42639 -2.92853,-1.60913 -8.9166,-3.16486 -6.82511,-7.68205 9.12977,-17.28197 13.58047,-36.76261 13.98021,-56.26256 z"
       id="path3321" />
    <path
       transform="matrix(1.0513915,0,0,1.0513915,-23.572762,-5.5906088)"
       style="fill:#d5e8f0;filter:url(#filter3875)"
       inkscape:connector-curvature="0"
       d="m 493.75242,637.72448 c 31.6279,16.22048 63.44089,32.1577 94.83581,48.78231 3.18734,2.68478 6.89977,4.51027 10.89045,5.6608 -4.03021,3.46086 -8.12588,7.18291 -10.2188,12.1902 -3.58645,7.68376 -0.94255,16.47896 2.39506,23.76182 -0.70653,3.64288 -2.18643,7.09924 -2.75246,10.76968 2.21995,4.56195 8.24058,6.83722 12.64807,3.78983 5.66313,-1.58907 8.20691,-7.12431 10.75448,-11.8695 6.5e-4,4.6207 3.06813,7.88766 7.54159,8.6197 0.162,12.71911 0.95269,25.35723 2.10384,38.01907 -7.1751,-11.11647 -11.71309,-25.85951 -24.68253,-31.44402 -11.21887,0.73591 -20.14094,9.86301 -26.35988,18.57287 0.0776,1.0088 0.17541,2.02725 0.2832,3.04553 -7.51783,-1.52903 -15.6613,-1.65693 -23.08666,0.39297 -17.82713,-19.16179 -34.52155,-39.3235 -51.75785,-59.01569 -9.80303,-12.12076 -20.91753,-23.16846 -30.07921,-35.79049 4.06552,-6.02187 10.91246,-9.12184 15.54855,-14.54358 4.79825,-6.44472 9.21871,-13.33292 11.93634,-20.9415 z"
       id="path3323" />
    <path
       transform="matrix(1.0513915,0,0,1.0513915,-23.572762,-5.5906088)"
       style="fill:#d5e8f0;filter:url(#filter3881)"
       inkscape:connector-curvature="0"
       d="m 226.6134,650.99872 c 4.91626,-1.9761 9.08488,-5.5294 14.2414,-6.9196 1.47341,2.47466 2.97647,4.9288 4.45006,7.41346 -0.28542,0.26502 -0.86625,0.79524 -1.15167,1.06026 6.72294,0.68277 10.11194,8.04475 15.17977,11.88689 4.38067,4.58424 10.17058,7.39362 14.74669,11.71442 -24.75973,30.02669 -50.74761,59.02466 -75.28441,89.21748 -10.5906,-0.51525 -21.26018,1.32124 -31.2621,4.73632 -0.45337,-4.77281 1.48597,-10.55754 -2.21189,-14.41359 -4.07281,-4.70964 -6.75853,-10.74368 -12.19845,-14.12926 -1.64017,-1.14155 -3.48754,0.17089 -5.03684,0.79803 -9.2537,4.45217 -14.51144,13.79536 -19.39268,22.36185 -0.85505,-8.87643 0.62449,-18.08365 -2.17589,-26.67609 2.45372,-2.67323 5.07898,-5.25944 6.64114,-8.58721 2.60105,3.47514 5.93582,7.1575 10.76025,6.22316 0.0502,-0.56097 0.13065,-1.68254 0.17087,-2.24333 2.8867,-1.36059 5.23968,-3.50198 7.42043,-5.77038 0.39059,-3.40734 -0.26796,-6.75635 -2.00971,-9.70641 -2.63186,-4.09469 1.24254,-9.03306 -0.95079,-13.21541 -1.61875,-3.35226 -1.62665,-7.24272 -3.55308,-10.45959 6.88097,-1.15026 12.17568,-6.08342 18.0684,-9.41677 21.11426,-11.40023 42.57928,-22.18649 63.5485,-33.87423 z"
       id="path3325" />
    <path
       transform="matrix(1.0513915,0,0,1.0513915,-23.572762,-5.5906088)"
       style="fill:#d5e8f0;filter:url(#filter3887)"
       inkscape:connector-curvature="0"
       d="m 271.1521,687.20692 c 2.48145,-2.80373 4.75734,-5.92393 8.11576,-7.76282 12.09103,10.84064 27.09914,18.04981 42.31422,23.36508 -7.6922,22.28764 -17.05532,43.96435 -24.93853,66.19532 l -0.22458,-1.4063 c -5.14163,15.42208 -11.65672,30.65811 -17.63154,45.90471 -4.34761,12.20773 -10.76467,23.8915 -13.32435,36.5381 0.71548,0.30756 2.13643,0.92286 2.85191,1.23042 5.27691,-5.953 6.66915,-13.85851 9.30272,-21.12558 9.48178,-24.61923 19.0239,-49.2195 28.12312,-73.98208 7.46649,-16.88288 12.1935,-34.85811 20.25444,-51.49133 12.77665,3.70758 25.82134,7.30047 39.1545,7.93787 1.01408,3.66286 1.8694,7.3985 1.67664,11.25245 0.0933,33.99355 -0.34336,67.99635 -0.84033,101.9802 -1.32527,8.30439 1.89831,17.64956 -2.86214,25.11377 -76.71704,0.83903 -153.48694,0.36878 -230.2352,1.13834 4.02518,-6.04117 8.65847,-11.62288 13.54574,-16.97899 41.77881,-49.13663 82.61415,-99.03691 124.71762,-147.90916 z"
       id="path3327" />
    <path
       transform="matrix(1.0513915,0,0,1.0513915,-23.572762,-5.5906088)"
       style="fill:#d5e8f0;filter:url(#filter3893)"
       inkscape:connector-curvature="0"
       d="m 426.29545,702.66165 c 12.59079,-6.94079 24.81138,-15.03531 34.97388,-25.29423 11.20674,9.45586 19.55243,21.74208 29.42154,32.49147 17.08448,20.735 35.2722,40.50059 52.39598,61.19489 -0.38331,0.38675 -1.13993,1.16007 -1.51324,1.54664 0.36059,0.6038 1.08178,1.8114 1.45237,2.41502 1.21139,0.0689 2.43312,0.15756 3.66485,0.24608 6.60363,7.02582 11.8591,15.31536 19.23969,21.58751 16.13161,17.14108 30.93402,35.48553 46.64163,52.97406 -43.85502,0.0954 -87.72148,0.68105 -131.57894,0.63647 -15.51434,-40.79545 -31.03833,-81.57073 -45.99607,-122.56593 -2.72918,-8.52367 -6.99852,-16.47037 -8.70169,-25.23198 z"
       id="path3329" />
    <path
       transform="matrix(1.0513915,0,0,1.0513915,-23.572762,-5.5906088)"
       style="fill:#d5e8f0;filter:url(#filter3899)"
       inkscape:connector-curvature="0"
       d="m 371.94883,715.36207 c 16.79295,-1.12325 33.53537,-3.99589 49.14564,-10.4193 19.2405,47.99152 35.70045,97.12173 53.84897,145.58238 -34.3893,0.34023 -68.77349,0.40032 -103.15663,0.52041 -1.1095,-45.22753 -1.13969,-90.50389 0.16202,-135.68349 z"
       id="path3331" />
    <path
       transform="matrix(1.0513915,0,0,1.0513915,-23.572762,-5.5906088)"
       style="fill:#d5e8f0;filter:url(#filter3905)"
       inkscape:connector-curvature="0"
       d="m 92.659632,733.88916 c 3.959897,-1.75938 7.952288,-3.94939 10.347338,-7.69176 1.89624,5.49774 6.41951,10.22952 12.01112,11.9922 0.0766,0.94881 0.16331,1.90744 0.25006,2.86608 7.87222,16.67515 1.00474,35.78791 2.29349,53.46811 -3.85935,-8.52394 -10.59876,-15.30735 -15.62624,-23.14081 -7.769351,-9.63587 -17.627439,-18.0351 -29.374546,-22.35074 -6.161652,-2.33282 -12.887885,-1.48531 -19.179045,-3.21577 8.837117,-6.54523 18.697117,-11.78811 28.908535,-15.80693 3.034971,1.97733 6.473445,5.29783 10.369288,3.87962 z"
       id="path3333" />
    <path
       transform="matrix(1.0513915,0,0,1.0513915,-23.572762,-5.5906088)"
       style="fill:#d5e8f0;filter:url(#filter3911)"
       inkscape:connector-curvature="0"
       d="m 660.39921,724.89936 c 13.85838,6.08907 26.58655,14.46821 40.35861,20.76881 -17.53699,8.34734 -35.34631,17.70958 -48.07481,32.80402 -8.71497,7.81329 -12.54505,19.30188 -19.67966,28.26776 0.0282,1.03967 0.0663,2.07916 0.12479,3.1383 -0.37226,0.44657 -1.11661,1.3497 -1.4887,1.80626 1.74496,-9.4719 -0.57278,-19.06291 -0.12902,-28.5921 -0.34031,-13.76616 -0.23085,-27.55017 -0.61115,-41.31563 4.45481,-2.62815 7.27775,-7.06809 9.87247,-11.40403 4.7478,6.70816 10.96956,13.63063 20.12513,12.15061 1.46132,-1.65575 2.70936,-3.49781 3.53346,-5.56251 -4.02019,-2.84027 -4.25271,-7.56693 -4.03112,-12.06149 z"
       id="path3335" />
    <path
       transform="matrix(1.0513915,0,0,1.0513915,-23.572762,-5.5906088)"
       style="fill:#d5e8f0;filter:url(#filter3917)"
       inkscape:connector-curvature="0"
       d="m 46.863563,851.9764 c -0.550072,-33.80555 -0.691603,-67.69825 -0.09115,-101.48387 10.427382,5.48885 22.412235,9.10024 30.608082,17.95855 19.204335,16.69738 28.712755,41.73525 33.310395,66.19874 0.89236,3.56497 0.53328,7.63185 2.98614,10.6395 0.0813,1.21877 0.14257,2.43788 0.19438,3.68717 1.09694,0.961 2.19423,1.942 3.29152,2.923 -23.427304,0.35892 -46.869668,0.42805 -70.299365,0.0769 z"
       id="path3337" />
    <path
       transform="matrix(1.0513915,0,0,1.0513915,-23.572762,-5.5906088)"
       style="fill:#d5e8f0;filter:url(#filter3923)"
       inkscape:connector-curvature="0"
       d="m 686.55812,762.99863 c 4.8174,-4.7748 10.67664,-8.3076 15.77976,-12.75734 0.31666,33.03951 -1.26655,66.10218 -0.57029,99.11505 -20.15945,-0.93831 -40.48204,0.23655 -60.70647,0.1595 2.07265,-17.62886 9.81835,-33.98653 19.34206,-48.75499 6.73879,-13.87972 16.56185,-25.82298 26.15494,-37.76222 z"
       id="path3339" />
    <path
       transform="matrix(1.0513915,0,0,1.0513915,-23.572762,-5.5906088)"
       style="fill:#d5e8f0;filter:url(#filter3929)"
       inkscape:connector-curvature="0"
       d="m 142.41505,784.18847 c 1.74149,-7.95161 5.51437,-15.26857 7.54739,-23.13525 4.53202,2.94136 7.95708,7.21223 10.56907,11.88736 -6.89828,2.45076 -12.43168,6.88801 -18.11646,11.24789 z"
       id="path3341" />
    <path
       transform="matrix(1.0513915,0,0,1.0513915,-23.572762,-5.5906088)"
       style="fill:#d5e8f0;filter:url(#filter3935)"
       inkscape:connector-curvature="0"
       d="m 162.82087,786.06262 c 9.93525,-7.23449 21.22905,-12.27237 32.57052,-16.871 -20.69291,25.22498 -41.89326,50.02876 -63.13482,74.76324 1.50355,-22.7297 15.00548,-42.21831 30.5643,-57.89224 z"
       id="path3343" />
    <path
       transform="matrix(1.0513915,0,0,1.0513915,-23.572762,-5.5906088)"
       style="fill:#d5e8f0;filter:url(#filter3941)"
       inkscape:connector-curvature="0"
       d="m 583.66201,770.99563 c 4.29466,-2.63535 8.10788,-5.9224 12.13612,-8.92316 5.43649,8.34639 9.39473,17.37869 13.79993,26.23315 -6.7235,-8.1639 -15.95665,-13.99364 -25.93605,-17.30999 z"
       id="path3345" />
    <path
       transform="matrix(1.0513915,0,0,1.0513915,-23.572762,-5.5906088)"
       style="fill:#d5e8f0;filter:url(#filter3947)"
       inkscape:connector-curvature="0"
       d="m 552.54416,773.10904 c 12.092,0.009 24.44993,3.79387 33.09379,12.53434 5.52793,7.85472 9.95051,16.55886 16.55501,23.63468 9.68751,11.23264 12.90832,26.1487 17.28958,39.93433 -22.22678,-25.40596 -44.7109,-50.6574 -66.93838,-76.10335 z"
       id="path3347" />
    <g
       transform="matrix(1.0512314,-0.01834932,0.01834932,1.0512314,-31.430914,1.0183445)"
       id="#110f13ff">
      <path
         id="path3350"
         d="m 345.95,31.57 c 19.69,-1.3 39.4,-2.68 59.14,-2.06 11.19,2.34 22.62,3.51 33.93,5.21 20.66,4.17 40.85,10.36 60.62,17.62 39.64,16.05 76.05,40.44 104.97,72.08 13.77,11.41 23.04,26.98 34.35,40.62 14.89,22.41 29.49,45.27 40.08,70.1 9.06,17.34 13.31,36.59 19.84,54.91 4.81,16.74 8.67,33.76 11.41,50.96 1.23,7.48 -0.75,15.12 1.14,22.53 0.94,12.3 -2.24,24.44 -1.87,36.76 1.09,0.93 2.17,1.87 3.26,2.83 -1.18,1.01 -2.36,2.01 -3.54,3.01 -4.97,149.95 -6.2,300.03 -9.92,449.99 -1.24,1.25 -2.37,2.6 -3.37,4.05 -26.15,0.63 -52.36,-0.64 -78.54,-0.92 -0.64,1.14 -1.27,2.3 -1.92,3.45 -2.76,0.18 -5.19,-1.06 -6.59,-3.44 -44.46,-0.84 -88.94,-1.04 -133.4,-1.84 -0.28,0.66 -0.83,1.99 -1.11,2.65 -2.11,-0.16 -3.95,-1.09 -5.39,-2.62 -145.16,-2.07 -290.51,-4.28 -435.58,-5.94 -0.25,-3.82 -2.24,-8.28 0.87,-11.42 3.6,-141.34 5.04,-282.71 7.92,-424.08 -0.47,-16.36 1.21,-32.62 0.21,-48.97 -3.41,-23.65 -0.07,-47.73 4.52,-71.03 4.63,-27.86 14.97,-54.4 27.33,-79.67 5.97,-8.43 9.69,-18.16 15.22,-26.86 7.22,-8.95 12.44,-19.31 20.06,-27.95 7.14,-12.78 19.38,-21.27 29.74,-31.2 6.66,-8.84 17.05,-13.59 25.12,-20.94 15,-12.84 31.39,-24.04 49.06,-32.88 20.51,-12 41.53,-23.78 64.5,-30.44 21.52,-9.1 44.94,-11.82 67.94,-14.51 m -42.75,12.6 c -7.76,3.93 -16.33,5.85 -24.12,9.69 -19.03,4.14 -35.66,14.68 -53,23.06 -6.75,4.37 -14.06,7.78 -20.89,12.04 7.03,22.7 15.32,44.99 23.43,67.33 6.75,17.76 12.24,35.97 19.1,53.69 1.03,-0.09 2.08,-0.18 3.12,-0.25 -0.78,0.13 -2.33,0.38 -3.11,0.51 26.12,73.47 52.25,146.99 78.53,220.36 8.41,-3.41 17.54,-3.49 26.3,-5.15 1.31,-6.5 7.46,-10.51 10.85,-15.98 -3.91,-10.99 -10.9,-21.37 -10.25,-33.48 -1.87,-5.68 1.58,-10.93 2.45,-16.43 1.62,-9.67 1.6,-19.54 3.74,-29.12 0.64,-11.18 -7.37,-21 -5.97,-32.22 2.75,-8.37 4.86,-16.73 4.29,-25.61 1.53,-1.54 3.08,-3.07 4.6,-4.63 3.08,-11.09 7.75,-22.25 7.03,-33.95 1.25,-66.16 5.28,-132.28 5.15,-198.47 -23.83,1.7 -48.17,1.6 -71.25,8.61 m 72.42,143.85 c -0.99,16.5 0.72,33.07 -0.64,49.52 6.38,5.34 14.74,9.05 18.77,16.72 8.2,3.18 17,4.83 25.8,4.39 7.49,-2.9 15.46,-5.77 23.59,-3.82 0.85,0.72 1.71,1.43 2.59,2.15 -0.85,5.01 -5.62,8.19 -8.46,12.16 0.68,0.96 1.37,1.93 2.05,2.9 -0.2,15.36 1.27,30.96 7.54,45.09 5.36,3.67 10.08,8.31 14.11,13.38 3.12,-9.61 6.27,-19.23 10.14,-28.56 24.2,-66.23 48.08,-132.56 72.27,-198.8 1.93,-4.86 4.02,-9.85 3.99,-15.18 0.63,-0.56 1.26,-1.11 1.9,-1.67 -19.31,-11.54 -38.9,-24.38 -61.39,-28.43 0.91,-0.15 2.71,-0.47 3.61,-0.63 -12.8,-3.23 -24.95,-8.61 -37.76,-11.8 -15.2,-4.81 -31.28,-5.34 -46.74,-8.93 -9.28,0.03 -18.59,-0.05 -27.88,0.02 -1.51,50.49 -3.17,100.98 -3.49,151.49 M 549.98,102.9 c -7.93,15.62 -13.04,32.47 -19.24,48.82 -18.05,49.65 -36.17,99.29 -54.14,148.91 -3.55,11.99 -9.39,23.19 -12.41,35.34 5.89,7.28 6.91,16.82 10.55,25.18 1.65,11.06 6.56,21.47 7.01,32.75 1.23,15.03 4.48,29.82 5.03,44.91 61.02,-67.11 123.77,-132.68 182.97,-201.38 1.05,-0.32 2.11,-0.64 3.18,-0.96 -8.16,-17.58 -17.94,-34.31 -28.52,-50.5 0.04,0.84 0.13,2.52 0.18,3.36 -1.17,-4.21 -3.88,-7.69 -6.88,-10.77 -18.68,-36.73 -50.75,-63.81 -83.04,-88.33 -2.64,3.78 -3.74,8.24 -4.69,12.67 m -378.5,9.45 c -8.29,7.49 -17.99,13.28 -25.97,21.13 -7.92,8.1 -16.38,15.68 -24.04,24.04 -15.17,19.83 -28.99,40.66 -41.18,62.46 47.92,59.81 98.4,117.54 146.58,177.15 13.58,15.7 26.21,32.24 40.47,47.32 1.14,1.73 2.12,3.56 3.16,5.35 3.24,-0.11 6.48,-0.3 9.73,-0.28 1.83,-3.36 5.65,-3.62 9.03,-4.11 9.15,-6.67 19.93,-10.26 30.73,-13.27 -7.2,-17.73 -12.16,-36.28 -18.75,-54.24 -20.19,-57.44 -41.03,-114.63 -60.71,-172.24 -12.89,-38.29 -27.46,-75.97 -39.81,-114.44 -10.17,6.45 -19.91,13.51 -29.24,21.13 M 78.13,224.58 c -11.38,22.61 -19.22,46.83 -24.02,71.67 -5.91,19.37 -6.3,39.71 -7.17,59.74 3.55,12.36 -0.41,25.1 0.23,37.7 63.41,35.49 127.35,70.07 191.03,105.02 8.52,-14.66 20.63,-26.74 30.07,-40.69 -0.08,-1.35 -0.15,-2.68 -0.23,-4.01 -3.21,-3.81 -8.11,-6.07 -10.07,-10.86 -26.03,-31.97 -52.19,-63.91 -78.4,-95.75 -33.65,-41.07 -68.69,-81 -101.44,-122.82 m 544.31,72.93 c -37.27,41.66 -75.82,82.15 -113.25,123.66 -7.03,8.81 -15.56,16.33 -21.74,25.79 1.01,7 -0.81,14.33 1.29,21.13 3.17,6.4 2.7,13.65 2.49,20.57 3.88,4.94 5.68,11.19 5.77,17.42 69.63,-33.49 138.3,-68.98 207.57,-103.16 1.18,-27.76 3.07,-56.12 -3.9,-83.34 -3.37,-18.11 -10.83,-35.08 -15.4,-52.89 -1.88,-9.14 -7.51,-16.71 -10.76,-25.33 -18.11,18 -34.69,37.46 -52.07,56.15 m -248.9,-54.67 c 0.15,6.37 -2.55,12.24 -4.01,18.31 5.74,-2.38 11.31,-5.26 16.05,-9.33 -3.68,-3.41 -7.55,-6.66 -12.04,-8.98 m -11.9,28.81 c 3.43,4.06 8.64,5.96 12.04,10.05 6.88,0.43 12.82,-3.54 18.87,-6.18 6.68,-2.8 12.46,-7.35 17.58,-12.4 -4.02,-0.5 -8.25,-0.5 -11.81,-2.69 -0.4,0.58 -0.8,1.16 -1.18,1.75 -0.16,-0.72 -0.48,-2.15 -0.64,-2.87 -2.64,-1.01 -5.24,-2.1 -7.8,-3.3 -9.78,3.97 -18.08,10.35 -27.06,15.64 m 59.3,-7.79 c -4.65,2.8 -10.62,4.05 -13.58,9.02 3.14,-0.48 6.17,-1.48 9.04,-2.83 -0.08,0.68 -0.25,2.04 -0.34,2.72 9.32,0.8 17.04,-6.11 22.18,-13.13 -6.02,-0.34 -12.12,1.15 -17.3,4.22 m 5.04,12.41 c 5.07,4.77 4.5,12.04 6.53,18.18 2.36,7.24 0.23,14.93 1.67,22.32 2.22,0.12 4.45,0.25 6.68,0.4 -1.76,-1.79 -3.44,-3.82 -3.49,-6.46 -0.85,-9.08 -3.26,-18.02 -2.91,-27.19 0.09,-3.72 -0.53,-7.4 -1.37,-11.01 -2.37,1.24 -4.74,2.51 -7.11,3.76 m -47.54,11.08 c 0.68,2.13 1.08,4.34 1.31,6.57 6.92,-0.89 12.56,-5.08 18.5,-8.34 0.83,-2.9 1.82,-5.74 2.94,-8.53 -7.34,3.99 -15.41,6.38 -22.75,10.3 m 27.81,-9.25 c -2.34,4.89 -2.5,10.33 -0.74,15.44 -4.16,4.22 -7.82,8.9 -11.54,13.5 -4.75,-1.43 -9.49,-2.91 -14.22,-4.4 -2.91,7.49 -2.15,18.06 4.57,22.99 8.77,-3.36 16.12,-10.05 23.13,-16.24 5.5,-9.28 2.37,-20.6 3.2,-30.8 -1.47,-0.16 -2.94,-0.33 -4.4,-0.49 m 10.84,1.16 c 1.05,2.49 1.49,5.13 1.37,7.83 1.65,-0.8 3.33,-1.57 5.01,-2.33 -0.89,-2.1 -1.69,-4.24 -2.39,-6.4 -1.33,0.3 -2.67,0.6 -3.99,0.9 m -54.57,-0.41 c -0.38,2.2 -0.73,4.41 -1.11,6.61 1.85,1.9 3.7,3.81 5.53,5.74 0.89,-2.28 1.86,-4.52 2.85,-6.76 -2.17,-2.18 -4.53,-4.16 -7.27,-5.59 m 59.85,12.44 c -1.29,1.06 -2.57,2.11 -3.86,3.16 -0.04,2.94 -0.54,5.84 -1.26,8.69 3.17,-1.36 6.44,-2.65 9.96,-2.66 -0.86,-3.09 -1.58,-6.21 -1.98,-9.39 -0.72,0.05 -2.14,0.15 -2.86,0.2 m -49.15,1.36 c -0.97,0.76 -0.84,2.88 0.58,3.02 2.02,-0.12 1.39,-4.11 -0.58,-3.02 m -17.83,5.24 c 2.89,-0.22 5.77,-0.65 8.62,-1.23 -1.09,-1.32 -2.18,-2.65 -3.26,-3.97 -1.99,1.52 -3.82,3.23 -5.36,5.2 m 32.39,-0.25 c 2.11,0.22 4.23,0.43 6.36,0.65 0.73,-1.86 1.44,-3.73 2.13,-5.6 -2.95,1.43 -5.77,3.11 -8.49,4.95 m -18.68,4.32 c 0.85,2.92 1.93,5.77 3.34,8.46 0.29,-2.99 0.49,-5.99 0.65,-9 -1.33,0.17 -2.66,0.35 -3.99,0.54 m -11.84,1.43 c 2.52,7.68 5.31,15.08 6.36,23.17 0.95,0.13 1.91,0.26 2.87,0.41 0.51,-4.68 4.15,-8.47 3.3,-13.41 -2.46,-3.42 -5.29,-6.85 -5.83,-11.18 -2.24,0.34 -4.47,0.68 -6.7,1.01 m 57.54,6.34 c -0.72,1.34 -1.43,2.68 -2.13,4.03 4.22,2.35 8.94,8.51 14.06,4.78 -1.1,-5.09 1.58,-9.92 1.14,-15.02 -3.95,2.82 -8.17,5.46 -13.07,6.21 m -13.44,13.66 c -0.75,0.2 -2.24,0.59 -2.99,0.79 0.64,0.14 1.92,0.42 2.56,0.57 1.87,3.27 4.56,6.52 8.23,7.76 4.99,-0.74 8.92,-4.15 12.1,-7.84 -3.02,-1.56 -6,-3.21 -8.79,-5.16 -3.86,-3.51 -8.28,1.29 -11.11,3.88 m 30.88,-2.99 c -1.22,3.14 -2.71,6.24 -5.09,8.68 2.85,8.64 7.72,16.58 9.12,25.68 0.33,3.87 3.41,7.93 7.74,6.44 7.47,-2.18 14.7,-5.23 22.28,-7.12 -3.4,-11.56 -10.22,-22.2 -19,-30.44 -4,-4.73 -10.82,1.33 -15.05,-3.24 m -59.56,7.46 c 1.78,-0.18 3.57,-0.34 5.36,-0.5 -0.85,-1.93 -1.72,-3.85 -2.62,-5.75 -0.92,2.08 -1.82,4.17 -2.74,6.25 m 17.4,2.7 c 2.12,3.6 4.41,7.11 6.57,10.69 2.46,-1.23 4.81,-2.67 6.94,-4.42 0.02,-0.58 0.07,-1.74 0.1,-2.32 -2.98,-2.2 -5.63,-4.8 -8.2,-7.44 -1.78,1.21 -3.58,2.37 -5.41,3.49 m 17.85,9.72 c 4.91,-0.16 7.51,4.46 9.27,8.36 2.4,5.61 4.98,11.16 8.16,16.39 2.5,-0.15 4.99,-0.49 7.44,-1.02 -2.03,-11.18 -5,-22.08 -10.68,-32.02 -4.93,2.41 -9.76,5.04 -14.19,8.29 m -45.56,-7.08 c 0.08,3.45 0.15,6.9 0.04,10.36 0.48,0.03 1.44,0.11 1.92,0.15 0.89,-3.33 1.86,-6.64 2.42,-10.04 -1.47,-0.16 -2.92,-0.32 -4.38,-0.47 m 17.6,0.26 c 0.92,4.33 2.84,8.34 4.29,12.5 3.07,-0.09 5.84,-1.32 7.66,-3.84 -2.43,-2.83 -4.65,-5.84 -6.62,-9.02 -1.78,0.1 -3.56,0.22 -5.33,0.36 m -11.07,14 c 0.57,0.38 1.72,1.13 2.29,1.5 0.06,3.09 0.61,6.14 1.73,9.03 3.78,-2.45 7.54,-6.58 6.46,-11.45 -1.24,-4.34 -3.81,-8.15 -5.36,-12.38 -2.21,4.22 -4.42,8.53 -5.12,13.3 m 23.99,1.93 c 3,8.21 7.67,15.68 11.08,23.71 4.78,4.15 11.06,-0.52 15.94,-2.28 -3.18,-10.11 -7.37,-19.91 -12.53,-29.17 -4.75,2.74 -9.41,5.64 -14.49,7.74 m -16.76,14.81 c -0.89,5.82 0.63,11.8 -0.84,17.6 3.79,1.83 7.16,5.11 11.48,5.49 5.15,-1.73 8.49,-6.83 10.88,-11.44 -0.95,-8.99 -6.2,-16.87 -9.64,-25.1 -4.56,3.87 -8.93,8.22 -11.88,13.45 m -16.43,7.36 c -1.07,4.83 -0.2,9.79 0.66,14.57 3.62,0.1 8.13,-0.38 9.6,-4.29 1.61,-5.98 -0.39,-12.24 1,-18.29 -3.05,-3.75 -5.04,-8.16 -7.46,-12.3 -3.07,6.39 -2.06,13.6 -3.8,20.31 m 102.12,-11.21 c 2.95,10.47 5.74,21.01 7.05,31.84 1.11,6.17 0.49,13.17 4.56,18.38 1.53,-0.14 3.07,-0.28 4.61,-0.4 -1.34,-14.63 -3.76,-29.17 -7.85,-43.3 -0.99,-3.18 -3.2,-5.76 -5.07,-8.44 -1.11,0.63 -2.21,1.27 -3.3,1.92 m -9.34,2.89 c 3.11,9.74 5.57,19.67 7.69,29.67 1.16,7.54 0.13,15.68 4.51,22.39 1.18,-0.74 2.37,-1.48 3.57,-2.21 -3.11,-3.65 -3.93,-8.48 -4.32,-13.1 -0.87,-11.77 -2.65,-23.52 -6.17,-34.81 -0.36,-2.61 -3.48,-1.65 -5.28,-1.94 m -8.94,3.3 c 2.77,16.37 6.38,32.58 10.18,48.75 1.34,0.68 2.68,1.36 4.03,2.04 -0.65,-3.77 -1.85,-7.45 -2.09,-11.28 -0.51,-13.73 -3.94,-27.13 -8,-40.18 -1.38,0.22 -2.75,0.44 -4.12,0.67 M 423.69,370 c 0.11,2.02 0.03,4.06 -0.26,6.07 -6.85,2.23 -13.77,4.58 -21.07,4.32 -5.23,5.17 -10.78,13.09 -19.19,11.39 -3.24,-1.65 -5.76,-4.36 -8.57,-6.6 -3.62,3.05 -7.28,7.21 -12.53,6.43 3.85,11.77 8.81,23.07 14.09,34.26 7.13,8.63 13.21,18.09 20.42,26.68 8.65,-0.63 16.87,2.34 25.3,3.71 3.6,-0.75 7.03,-2.81 10.85,-1.97 8.91,1.33 19.15,-4.64 26.76,2.22 4.5,0.38 8.95,1.07 11.38,5.41 -0.69,2.73 -1.58,5.4 -2.6,8.03 -3.36,-0.93 -6.69,-2 -9.94,-3.23 -1.12,1.6 -2.25,3.2 -3.39,4.79 0.63,5.35 1.61,10.74 4.28,15.5 9.92,-3.8 16.68,-13.54 21.2,-22.83 -3.95,-4.42 -8.81,-7.65 -13.57,-11.04 -11.17,-16.12 -20,-34.38 -23,-53.91 -1.91,-10.72 -4.47,-21.31 -7.08,-31.87 -3.69,3.11 -8.6,2.58 -13.08,2.64 M 43.85,563.46 c 4.61,-1.46 7.71,3.1 12.11,2.76 50,0.97 100.02,1.75 150.03,2.02 4.41,0.08 8.77,-0.64 13.16,-0.96 0.27,-22.22 5.56,-44.47 16.86,-63.7 -15.06,-7.97 -29.74,-16.63 -44.49,-25.16 C 143.37,451.84 95.13,425.45 47.14,398.58 45.45,453.52 44.93,508.5 43.85,563.46 m 507.17,-78.7 c -17.22,8.7 -34.98,16.33 -51.83,25.76 0.3,0.24 0.91,0.72 1.21,0.96 -0.29,5.78 1.93,11.18 3.29,16.69 2.48,14.34 6.42,28.53 5.49,43.23 59.23,1.77 118.53,1.94 177.8,2.27 4.73,-0.05 9.53,-0.42 14.18,0.71 0.53,-55.35 2.46,-110.69 3.66,-166.02 -51.29,25.35 -102.38,51.28 -153.8,76.4 m -76.51,-67.99 c 0.53,8.33 3.91,16.15 4.31,24.49 0.31,4.46 1.15,8.9 2.75,13.09 -1.06,-13.4 -1.88,-26.84 -3.15,-40.24 -1.3,0.9 -2.61,1.78 -3.91,2.66 m -115.46,6.35 c 1.31,4.74 5.29,8.24 7.44,12.63 3.6,-0.39 7.24,-0.32 10.8,0.44 -4.76,-6.17 -7.59,-13.47 -11.79,-19.95 -3.22,0.22 -4.98,4.31 -6.45,6.88 m 106.47,-3.39 c 2.8,10.26 4.59,21 9.51,30.51 -1.31,-10.68 -4.6,-20.96 -5.98,-31.64 -1.18,0.37 -2.36,0.75 -3.53,1.13 m -8.7,0.91 c 1.51,7.83 5.48,14.85 9.16,21.83 -1.5,-7.4 -4.58,-14.38 -5.88,-21.83 -0.59,1.01 -1.17,2.03 -1.75,3.06 -0.38,-0.77 -1.15,-2.29 -1.53,-3.06 m -100.02,9.09 c -10.36,2.98 -22.95,0.95 -31.69,7.8 -10.44,-0.19 -19.98,5.35 -29.46,9.15 0.48,1.24 0.97,2.47 1.47,3.72 18,-0.95 36.01,0.61 54,1.12 1.53,-6.3 4.57,-12.62 11.04,-15.01 -1.79,-2.26 -3.58,-4.51 -5.36,-6.78 m 8.04,13.44 c -0.63,-0.88 -1.25,-1.75 -1.87,-2.62 -4.16,4.51 -7.14,11.04 -4.65,17.1 4.21,8.37 15.46,13.11 24.06,8.79 6.84,-6.59 3.52,-16.9 -0.62,-24.03 -5.66,-0.92 -12.11,-4.06 -16.92,0.76 m -79.63,8.09 c -0.12,2.79 0.2,5.58 1.08,8.24 1.15,0.15 2.31,0.3 3.47,0.47 1.42,-1.92 2.83,-3.85 4.23,-5.78 -0.59,-1 -1.18,-2 -1.76,-2.99 -2.34,-0.01 -4.68,0.01 -7.02,0.06 m -12.18,4.57 c 2.28,0.03 4.57,-0.06 6.84,-0.28 -2.23,-1.46 -4.75,-1.49 -6.84,0.28 m 25.64,-1.38 c -0.17,0.59 -0.49,1.76 -0.65,2.35 18.29,0.44 36.54,1.72 54.77,3.23 0.04,-0.8 0.12,-2.41 0.16,-3.22 -18.04,-1.68 -36.17,-2.2 -54.28,-2.36 m 98.46,3.27 c -0.77,1.74 -1.56,3.47 -2.35,5.21 1.99,-1.96 4.11,-3.78 6.39,-5.4 -1.35,0.06 -2.7,0.12 -4.04,0.19 m 52.42,0.92 c -0.13,1.99 -0.25,3.99 -0.37,5.98 0.97,0.22 2.9,0.67 3.86,0.89 -0.35,-2.38 -0.81,-4.74 -1.37,-7.07 -0.53,0.05 -1.59,0.15 -2.12,0.2 m -28.47,3.71 c 4.13,0.85 8.08,-0.54 11.19,-3.27 -3.85,0.64 -7.61,1.74 -11.19,3.27 m 17.06,-2.67 0.07,1.26 c 2.62,-0.06 5.44,0.23 7.71,-1.39 -2.6,-0.13 -5.19,-0.03 -7.78,0.13 m -165.13,1.23 c -3.19,4.77 -6.48,9.5 -10.26,13.83 -13.45,15.27 -23.41,33.2 -30.69,52.14 -6.33,20.35 -7.94,41.96 -6.45,63.17 -2.58,22.3 10.48,42.67 24.73,58.62 8.72,10.98 20.75,18.39 31.78,26.74 16.93,-5.22 33.82,-12.37 51.94,-12.01 9.34,-10.82 15.35,-24.38 16.55,-38.67 2.29,-9.99 4.24,-20.04 5.78,-30.17 3.72,-14.19 5.19,-28.9 4.98,-43.55 -0.8,-27.87 0.66,-55.72 -0.76,-83.57 -1.61,-0.91 -3.22,-1.83 -4.82,-2.75 -13.65,0.36 -27.17,-2.24 -40.81,-2.22 -6.75,-0.65 -13.56,0.58 -20.26,-0.75 -0.8,0.74 -1.61,1.5 -2.41,2.26 1.92,2.15 3.43,4.64 4.08,7.48 -0.86,0.84 -1.71,1.69 -2.57,2.54 2.68,11.41 4.95,22.92 8.29,34.17 4.27,16.33 7.15,32.99 11.37,49.34 3.73,13.56 7.39,27.11 10.36,40.87 1.17,0.4 2.34,0.82 3.52,1.23 0.15,3.58 0.55,7.35 -1.11,10.68 -5.16,12.63 -15.87,23.95 -29.62,26.69 -5.68,1.38 -11.6,0.24 -17.38,0.31 -16.05,-5.17 -32.77,-18.54 -32.82,-37.12 11.01,-41.27 22.54,-82.41 33.97,-123.56 0.45,-5.73 3.36,-11.36 1.55,-17.12 -2.95,0.63 -5.94,1.11 -8.94,1.42 m 132.11,0.61 c 3.59,0.62 8.65,-0.98 10.72,3.04 -2.35,2.37 -5.75,2.38 -8.83,2.85 5.51,4.78 11,9.94 17.85,12.72 5.97,1.75 10.41,7.36 17.22,5.71 0.65,-6.79 3.62,-13.09 4.01,-19.93 -6.17,1.96 -12.84,-1.91 -18.56,1.53 -3.78,1.82 -9.21,1.33 -11.47,-2.59 0.55,-1.5 1.12,-2.99 1.7,-4.47 -4.22,0.04 -8.72,-0.91 -12.64,1.14 m 53.51,0.75 c -0.2,0.57 -0.59,1.71 -0.78,2.28 2.31,-0.52 4.63,-1.07 6.94,-1.65 -2.05,-0.3 -4.11,-0.49 -6.16,-0.63 m -67.45,5.85 c -0.78,-0.15 -2.36,-0.45 -3.15,-0.6 -2.04,3.47 -5.98,4.58 -9.5,5.91 -2.37,15.13 -1.59,30.47 -1.9,45.72 1.32,20.8 0.57,41.8 3.72,62.46 2.03,7.88 1.53,16.09 3.24,24.02 3.1,20.02 5.03,41.35 16.77,58.55 13.21,0.17 26.2,2.86 38.76,6.83 3.87,1.56 6.76,4.7 9.29,7.92 7.05,-5.02 13.66,-10.64 19.53,-17 9.3,-6.44 12.63,-17.8 17.72,-27.34 5.18,-7.54 7.35,-16.54 10.9,-24.86 10.29,-29.13 7.85,-61.2 -0.93,-90.37 -3.09,8.28 -3.49,18.01 -10.23,24.46 -5.38,-0.47 -10.3,-2.89 -15.6,-3.71 4.15,20.55 8.86,40.96 13.84,61.31 2.23,10.32 -2.92,20.17 -10.13,27.19 -15.42,10.54 -37.16,9.1 -51.59,-2.5 -6.29,-6.22 -10.17,-14.33 -13.31,-22.48 -1.3,-4.97 2.01,-9.28 3.02,-13.94 3.4,-12.85 7.78,-25.43 10.65,-38.42 4.1,-16.3 10.55,-31.96 13.71,-48.49 -5.12,-4.07 -7.21,-10.7 -9.64,-16.54 -6.3,-3.41 -13.54,-5.64 -18.3,-11.29 -3.82,-4.92 -9.14,-7.8 -15.33,-8.46 -0.39,0.41 -1.15,1.22 -1.54,1.63 m 74.46,21.49 c 2.8,5.42 5.99,10.63 8.21,16.34 11.64,-7.61 15.13,-23.35 9.32,-35.71 -4.45,7.58 -10.83,13.78 -17.53,19.37 m -98.29,-17.63 c -2.83,17.57 -0.86,35.34 -0.65,53.03 0.98,10.67 -0.66,21.34 -0.08,32.02 0.25,26.68 -8.07,52.39 -12.03,78.54 -2.84,9.94 -6.54,19.62 -12.49,28.14 10.78,0.99 21.02,6.32 26.34,16.06 7.3,-6.83 15.04,-14.16 25.36,-15.7 -10.45,-17.08 -13.07,-37.74 -15.23,-57.34 -6.49,-40.86 -8.78,-82.43 -6.19,-123.75 0.14,-3.44 0.66,-7.01 -0.77,-10.27 -1.43,-0.24 -2.85,-0.48 -4.26,-0.73 M 252.63,599.43 c 10.56,-0.08 21.1,1.05 31.67,0.59 0.06,-41.16 1.89,-82.38 1.8,-123.53 -11.92,40.76 -22.65,81.88 -33.47,122.94 m 38.24,-116.92 c -0.98,39.2 -1.26,78.45 -0.44,117.61 9.41,-0.89 18.88,-0.74 28.33,-0.82 -6.62,-21.21 -9.93,-43.25 -15.38,-64.77 -0.48,-2.47 -1.94,-4.52 -3.64,-6.3 0.28,-0.35 0.85,-1.05 1.13,-1.4 -0.51,-8.17 -4.21,-15.66 -5.09,-23.76 -0.87,-7.06 -5.01,-13.32 -4.91,-20.56 m 144.3,9.96 c 0.95,1.79 1.91,3.57 2.88,5.37 0.54,-2.16 1.08,-4.31 1.62,-6.45 -1.5,0.35 -3,0.71 -4.5,1.08 m 16.58,11.92 c 1.69,0.45 3.39,0.9 5.09,1.34 -1.3,-5.31 -2.3,-10.7 -4.09,-15.87 -1.43,4.72 -0.84,9.68 -1,14.53 m 7.93,-13.63 c -0.72,5.21 1.61,10.13 2.83,15.09 1.75,-0.56 3.49,-1.12 5.25,-1.67 -2.15,-4.72 -3.06,-10.8 -8.08,-13.42 m -16.78,11.08 c 1.24,0.53 2.49,1.06 3.74,1.6 -0.04,-4.16 -0.05,-8.32 -0.29,-12.46 -1.75,3.4 -2.96,7.05 -3.45,10.86 m 35.75,7.67 c -1.13,-0.01 -2.26,-0.01 -3.37,0 3.16,8.59 7.05,16.89 9.83,25.62 4.27,-12.46 9.18,-26.22 3.97,-39.21 -3.56,4.47 -6.25,9.61 -10.43,13.59 m -15.58,0.68 c 1.39,7.08 2.83,14.16 4.55,21.16 1.4,5.21 7.86,4.72 11.98,6.15 -1.94,-10.02 -6.23,-19.29 -10.1,-28.65 -2.15,0.46 -4.29,0.92 -6.43,1.34 m -23.66,-0.1 c -7.73,29.68 -17.45,58.8 -25.43,88.43 9.98,1.06 20.03,1.12 30.05,1.01 0.56,-25.19 1.2,-50.39 2.09,-75.57 0.74,-5.64 -4.16,-9.43 -6.71,-13.87 m 12.14,-0.21 c 0.18,2.72 -0.22,5.51 0.42,8.19 2.22,4.26 6.71,6.62 9.9,10.07 -1.8,-5.94 -2.62,-12.11 -4.02,-18.14 -2.11,-0.05 -4.2,-0.09 -6.3,-0.12 m -0.75,16.22 c -0.12,5.37 1.52,10.77 -0.05,16.06 -0.3,19.32 -1.34,38.62 -0.84,57.97 8.95,-0.61 18.02,1.27 26.88,-0.48 -4.31,-16.45 -6.42,-33.42 -10.82,-49.87 -1.59,-4.87 -0.43,-11.31 -4.99,-14.71 -3.56,-2.81 -6.79,-5.98 -10.18,-8.97 M 43.72,571.46 c -1.52,55.06 -1.09,110.24 -2.73,165.3 11.92,-7.65 24.81,-13.83 37.3,-20.35 0.73,-1.42 1.47,-2.82 2.22,-4.22 1.63,-10.06 2.39,-21.79 11.19,-28.61 -2.78,-5.02 -3.14,-11.4 -0.63,-16.6 5.5,-7.52 12.95,-13.62 17.32,-21.96 2.15,0.14 4.22,0.73 6.09,1.8 0.45,3.96 1.03,7.9 1.62,11.84 3.45,-4.96 1.42,-11.32 4.28,-16.5 2.23,0.01 4.17,1.01 5.9,2.35 -0.35,9.65 11.39,14.71 10.13,24.44 -0.18,5.61 -1.09,11.7 -5.44,15.7 1.61,0.77 3.2,1.55 4.8,2.36 4.9,-4.44 10.99,-6.87 17.08,-9.17 27.1,-13.48 53.82,-27.7 80.7,-41.6 -5.05,-6.97 -9.95,-14.21 -12.47,-22.53 -1.98,-13.47 -2.2,-27.18 -1.97,-40.83 -10.7,-0.25 -21.41,-0.74 -32.11,-1.01 -44.05,-0.12 -88.06,-1.58 -132.11,-1.55 -3.79,-0.16 -7.37,1.65 -11.17,1.14 m 465.05,4.42 c -0.74,19.49 -5.53,38.89 -14.96,56.01 -2.17,4.48 3.79,6.14 6.69,7.8 31.9,18.28 64.77,34.85 97.16,52.13 0.88,-3.79 1.45,-7.63 1.81,-11.5 7.94,-6.2 10.46,-16.48 14.99,-25.03 5.01,2.43 5.82,8.42 8.94,12.56 -0.37,-5.86 2.36,-11.42 5.73,-16.04 4.39,7.45 8.5,15.29 15.4,20.79 5.61,7.04 2.32,16.46 -1.25,23.67 5.57,2.83 11.82,6.55 13.35,13.11 0.64,4.91 0.18,9.91 -0.22,14.83 13.17,8.29 27.21,15.05 40.77,22.64 0.83,-56.41 2.65,-112.82 3.54,-169.23 -63.97,0.29 -127.98,-2.07 -191.95,-1.74 m -92.25,28.53 c -0.25,3.8 0.55,7.87 3.61,10.44 7.11,6.29 14.27,14.6 24.59,14.55 15.12,2.29 33.99,-7.2 34.39,-24.08 -20.85,0.45 -41.73,-0.59 -62.59,-0.91 m -163.46,1.2 c 0.73,10.49 10.27,16.96 18.46,21.91 12.31,7.38 29.58,4.84 39.45,-5.55 4.32,-4.66 8.26,-9.71 11.09,-15.42 -4.29,-2.48 -9.37,-1.22 -14.05,-1.34 -8.68,0.66 -17.37,0.09 -26.06,0.27 -9.65,0.86 -19.28,-1.87 -28.89,0.13 m 237.07,34.48 c -2.85,7.56 -7.39,14.37 -12.3,20.73 -4.73,5.34 -11.63,8.32 -15.8,14.27 8.94,12.78 19.86,24.02 29.45,36.31 16.89,19.99 33.23,40.44 50.72,59.91 7.46,-1.92 15.6,-1.65 23.09,0.01 -0.09,-1.02 -0.17,-2.04 -0.23,-3.05 6.37,-8.6 15.45,-17.57 26.68,-18.11 12.87,5.81 17.15,20.63 24.13,31.87 -0.93,-12.68 -1.5,-25.33 -1.44,-38.05 -4.46,-0.81 -7.47,-4.13 -7.39,-8.75 -2.63,4.7 -5.27,10.19 -10.96,11.68 -4.46,2.97 -10.44,0.59 -12.58,-4.01 0.63,-3.66 2.17,-7.09 2.94,-10.72 -3.21,-7.34 -5.7,-16.18 -1.98,-23.8 2.18,-4.97 6.34,-8.62 10.43,-12.01 -3.97,-1.22 -7.65,-3.11 -10.79,-5.85 C 553,673.35 521.47,656.86 490.13,640.09 M 222.8,648.7 c -21.17,11.32 -42.82,21.73 -64.13,32.76 -5.95,3.23 -11.33,8.07 -18.23,9.1 1.87,3.25 1.81,7.14 3.37,10.52 2.12,4.22 -1.84,9.09 0.72,13.23 1.69,2.98 2.29,6.34 1.84,9.74 -2.22,2.23 -4.61,4.33 -7.52,5.64 -0.05,0.56 -0.15,1.68 -0.21,2.24 -4.84,0.85 -8.11,-2.89 -10.65,-6.41 -1.62,3.3 -4.29,5.84 -6.79,8.47 2.65,8.64 1.01,17.82 1.71,26.71 5.03,-8.48 10.45,-17.73 19.78,-22.02 1.56,-0.6 3.43,-1.88 5.05,-0.71 5.38,3.48 7.96,9.56 11.95,14.34 3.63,3.92 1.59,9.67 1.96,14.45 10.06,-3.24 20.76,-4.89 31.34,-4.19 25.06,-29.76 51.55,-58.3 76.83,-87.89 -4.5,-4.4 -10.24,-7.31 -14.54,-11.97 -5,-3.93 -8.26,-11.35 -14.97,-12.15 0.29,-0.26 0.88,-0.78 1.17,-1.04 -1.43,-2.51 -2.89,-4.99 -4.32,-7.49 -5.18,1.3 -9.41,4.78 -14.36,6.67 M 97.57,667.56 c -3.15,3.62 -2.35,8.85 -1.14,13.08 1.32,3.81 5.97,4.16 9.08,5.88 2.95,-0.38 5.93,-0.46 8.9,-0.38 1.37,-2.98 3.18,-6.01 2.95,-9.4 0.1,-7.79 -7.45,-12.91 -7.47,-20.71 -3.54,4.47 -9.14,6.72 -12.32,11.53 m 23.73,-0.72 c 4.7,7.7 1.04,16.45 -1.72,24.06 4.22,-5.14 6.94,-11.36 9.77,-17.33 3.04,-6.58 -1.83,-12.56 -5.21,-17.81 -1.41,3.5 -5.72,7.22 -2.84,11.08 m 494.56,-1.33 c -3.22,7.86 -8.55,14.55 -15.31,19.65 3.03,5.73 5.78,12.75 12.8,14.46 -1.29,-5 -2.66,-10.25 -1.22,-15.38 1.07,-4.95 5.78,-7.87 7.59,-12.44 -0.26,-2.56 -2.38,-4.36 -3.86,-6.29 m 15.36,0.03 c -3.59,10.69 -18.05,17.49 -14.3,30.11 4.45,1.02 9,2.55 12.03,6.18 2.07,-3.13 4.92,-5.73 8.71,-6.48 2.53,-5.53 6.05,-11.83 4.01,-18.03 -2.88,-4.42 -7.91,-7.03 -10.45,-11.78 m -340.68,12.88 c 8.75,-0.87 17.63,-3.4 26.41,-1.37 9.78,3.3 20.01,5.67 28.9,11.16 6.45,5.44 13,10.81 18.99,16.77 0.35,-6.52 0.29,-13.07 0.76,-19.57 -3.86,-10.23 -14.58,-17.42 -25.58,-16.77 -17.07,-1.39 -33.71,3.84 -49.48,9.78 m 99.08,-8.8 c -6.77,3.89 -13.07,8.87 -18.14,14.82 -1.49,7.22 -1.55,14.68 -1.01,22.02 3.8,-6.54 8.39,-12.97 14.98,-16.95 6.5,-3.83 12.03,-9.45 19.41,-11.65 7.92,-3.01 16.51,-2.71 24.71,-4.4 -12.86,-4.24 -26.54,-5.42 -39.95,-3.84 M 266.7,685.68 c -42.95,48.13 -84.65,97.31 -127.28,145.71 -4.98,5.27 -9.71,10.77 -13.84,16.74 76.75,0.57 153.5,2.38 230.22,2.88 4.89,-7.38 1.83,-16.78 3.3,-25.06 1.09,-33.97 2.12,-67.96 2.62,-101.95 0.26,-3.85 -0.53,-7.6 -1.48,-11.28 -13.32,-0.87 -26.3,-4.69 -39.01,-8.62 -8.35,16.49 -13.39,34.38 -21.15,51.13 -9.53,24.6 -19.5,49.03 -29.41,73.48 -2.76,7.22 -4.29,15.1 -9.67,20.96 -0.71,-0.32 -2.12,-0.96 -2.83,-1.28 2.78,-12.6 9.4,-24.17 13.96,-36.3 6.24,-15.14 13.02,-30.26 18.43,-45.59 l 0.2,1.41 c 8.27,-22.09 18.01,-43.6 26.09,-65.75 -15.12,-5.58 -30,-13.05 -41.9,-24.1 -3.39,1.78 -5.72,4.86 -8.25,7.62 m 143.65,-4.34 c -14.07,5.11 -26.9,14.71 -34.86,27.51 26.34,-0.2 51.47,-11.23 71.51,-27.85 -4.55,0.58 -8.79,-0.75 -12.97,-2.27 -7.93,-0.13 -15.96,0.83 -23.68,2.61 m 11.2,22.5 c 1.55,8.79 5.68,16.81 8.26,25.38 14.24,41.25 29.05,82.29 43.85,123.35 43.85,0.81 87.72,0.99 131.57,1.66 -15.4,-17.76 -29.88,-36.36 -45.71,-53.78 -7.27,-6.4 -12.38,-14.78 -18.86,-21.92 -1.23,-0.11 -2.45,-0.22 -3.66,-0.31 -0.36,-0.61 -1.06,-1.83 -1.41,-2.44 0.38,-0.38 1.15,-1.14 1.54,-1.52 -16.76,-20.99 -34.6,-41.07 -51.32,-62.1 -9.68,-10.92 -17.81,-23.35 -28.85,-33 -10.34,10.08 -22.7,17.96 -35.41,24.68 m -130.63,-20.1 c 21.14,12.29 44.55,20.56 68.77,24.05 -4.26,-2.5 -6.88,-6.76 -10.43,-10.04 -7.09,-7.32 -16.76,-10.83 -26.36,-13.47 -10.18,-4.41 -21.49,-2.7 -31.98,-0.54 m -198.17,7.25 c 2.29,0.85 4.55,1.79 6.79,2.79 0.44,-0.96 0.88,-1.91 1.31,-2.85 -1.43,-1.13 -2.84,-2.29 -4.25,-3.44 -1.29,1.16 -2.57,2.33 -3.85,3.5 m 30.14,-0.53 c 0.2,1.15 0.4,2.31 0.61,3.48 3.23,-0.13 6.45,-0.55 9.55,-1.52 -1.68,-1.29 -3.35,-2.57 -5.04,-3.83 -1.7,0.62 -3.41,1.24 -5.12,1.87 m -16.54,-0.28 c -0.2,1.37 -0.39,2.74 -0.58,4.13 2.99,1.48 5.44,3.78 7.08,6.7 0.98,-1.67 2.01,-3.31 3.06,-4.93 -0.82,-1.59 -1.63,-3.19 -2.43,-4.77 -2.38,-0.38 -4.76,-0.75 -7.13,-1.13 m -17.62,5.57 c -0.57,8.65 -1.21,17.31 -5.71,25 0.63,1.16 1.26,2.33 1.89,3.52 4.17,-2.31 8.82,-5.37 9.7,-10.42 0.13,-6.02 0.34,-12.05 0.88,-18.06 -2.26,-0.03 -4.51,-0.04 -6.76,-0.04 m 10.73,0.9 c -1.61,11.91 0.89,25.6 11.26,32.99 1.38,-4.48 0.42,-9.14 1.06,-13.69 1.91,-8.41 -4.43,-16.86 -12.32,-19.3 m 30,1.22 c 3.3,7.39 -0.92,14.97 -0.82,22.55 2.6,1.54 4.76,3.67 6.64,6.02 3.04,-0.87 5.37,-2.95 6.95,-5.63 -7.06,-6.32 -0.93,-16.17 -6.26,-23 -2.17,0.05 -4.35,-0.01 -6.51,0.06 m -12.98,6.29 c 0.12,9.12 0.3,18.25 -0.68,27.34 4.04,-3.78 10.33,-9.64 7.66,-15.56 0.84,-0.24 1.67,-0.48 2.51,-0.7 -0.68,-5.53 -0.26,-11.12 -1.11,-16.63 -3.16,1.25 -6.06,3.05 -8.38,5.55 m 516.92,0.54 c 4.26,0.19 8.67,0.39 12.64,-1.5 -3.86,-3.34 -10.24,-3.72 -12.64,1.5 m -37.01,-2.02 c 2.51,1.64 5.08,3.2 7.7,4.69 1.64,-0.38 3.29,-0.74 4.94,-1.11 -0.7,-1.17 -1.38,-2.34 -2.06,-3.49 -2.74,-0.43 -5.46,-0.92 -8.14,-1.57 -0.82,0.49 -1.63,0.99 -2.44,1.48 m 17,4.6 c 2.64,0.64 5.28,1.35 7.86,2.22 1.61,-0.94 3.21,-1.9 4.81,-2.86 -1.42,-2.44 -3.53,-4.3 -6.14,-5.37 -2.51,1.62 -4.72,3.64 -6.53,6.01 m -246.4,8.31 c -2.09,45.15 -2.85,90.42 -2.53,135.66 34.38,0.48 68.76,1.02 103.15,1.28 -17.3,-48.77 -32.9,-98.18 -51.3,-146.5 -15.72,6.15 -32.51,8.73 -49.32,9.56 m 225.02,-9.88 c -4.22,6.97 -5.16,15.99 -0.8,23.14 2.79,3.9 0.05,8.28 -1.43,12.09 0.33,0.49 0.99,1.48 1.33,1.97 6.08,-0.86 10.14,-5.57 12.56,-10.87 -2.67,-7.23 -6.21,-14.43 -4.51,-22.34 -2.56,-1 -4.9,-2.44 -7.15,-3.99 m 48.83,4.6 c 1.95,7.05 1.13,14.49 -2.48,20.88 3.84,4.02 5.69,11.5 12.36,11.26 -4.55,-11.74 4.57,-24 -0.72,-35.54 -2.99,1.3 -6.05,2.43 -9.16,3.4 m -17.51,3.9 c 0.78,9.26 -1.58,18.45 -0.81,27.72 2.29,-1.81 4.7,-3.68 5.93,-6.42 2.08,-4.78 6.98,-7.9 7.88,-13.26 1.44,-4.41 -0.23,-8.89 -2.32,-12.76 -3.98,0.48 -7.64,2.12 -10.68,4.72 m -22.59,-0.19 c 2.26,3.02 3.09,6.7 4.15,10.24 2.4,5.4 7.13,9.38 9.33,14.92 1.18,-0.05 2.36,-0.08 3.56,-0.11 -0.64,-6.72 0.56,-13.37 0.65,-20.07 1.43,-9.67 -12.47,-9.9 -17.69,-4.98 M 87.42,729.24 c -3.92,1.35 -7.3,-2.03 -10.3,-4.06 -10.28,3.84 -20.23,8.91 -29.18,15.3 6.26,1.84 13,1.11 19.12,3.55 11.67,4.52 21.38,13.09 28.98,22.86 4.89,7.92 11.51,14.82 15.22,23.41 -0.98,-17.7 6.22,-36.69 -1.36,-53.5 -0.07,-0.96 -0.14,-1.92 -0.2,-2.87 -5.56,-1.86 -10,-6.67 -11.8,-12.2 -2.46,3.7 -6.49,5.82 -10.48,7.51 m 567.81,0.92 c -0.3,4.49 -0.15,9.22 3.82,12.13 -0.86,2.05 -2.14,3.87 -3.63,5.5 -9.18,1.32 -15.28,-5.71 -19.91,-12.5 -2.67,4.29 -5.57,8.68 -10.07,11.23 0.14,13.77 -0.21,27.55 -0.11,41.32 -0.61,9.52 1.54,19.15 -0.37,28.59 0.38,-0.45 1.14,-1.34 1.52,-1.78 -0.04,-1.06 -0.06,-2.1 -0.07,-3.14 7.29,-8.84 11.32,-20.26 20.17,-27.92 12.99,-14.87 30.96,-23.92 48.64,-31.96 -13.66,-6.54 -26.24,-15.14 -39.99,-21.47 m -540.86,4.41 c 0.37,6.75 3.22,13.22 2.34,20.04 0.12,4.67 -1.57,9.86 1.24,14.04 0.2,-11.21 0.56,-22.49 -1.12,-33.61 -0.61,-0.12 -1.84,-0.35 -2.46,-0.47 m 8.39,37.2 c -2.9,9.82 -0.78,20.13 -1.41,30.18 1.98,-3.53 4.02,-7.01 6.55,-10.17 0.78,-9.36 5.27,-17.75 8.44,-26.43 2.59,-7.65 5.12,-15.33 7.6,-23.01 -11.05,6.37 -15.92,18.51 -21.18,29.43 m 25.59,-28.56 c -1.11,3.42 -2.05,6.89 -2.84,10.4 4.5,2.29 8.27,5.68 11.51,9.52 1.26,-7.98 -4.61,-13.84 -8.67,-19.92 m 471.39,23.9 c 1.18,11.2 -2.1,22.77 1.82,33.66 0.02,-16.59 -0.75,-33.17 -0.39,-49.77 0.14,-2.5 -0.2,-4.99 -1.13,-7.31 -2.58,7.6 -0.12,15.61 -0.3,23.42 m -580.17,79.4 c 23.42,0.76 46.86,1.1 70.29,1.15 -1.08,-1 -2.16,-2 -3.24,-2.98 -0.03,-1.25 -0.07,-2.47 -0.13,-3.69 -2.4,-3.05 -1.97,-7.11 -2.8,-10.69 -4.17,-24.54 -13.24,-49.74 -32.15,-66.77 -8.04,-9 -19.96,-12.82 -30.29,-18.49 -1.19,33.77 -1.64,67.66 -1.68,101.47 M 55.13,746.37 c 5.11,3.7 11.93,4.39 16.37,9.11 5.51,5.81 12.51,10.46 16.08,17.86 4.63,9.18 11.24,17.6 13.2,27.9 4.74,9.36 4.17,20.22 9.17,29.54 2.79,-10.6 2.61,-21.47 1.62,-32.28 C 102.23,786.66 95.7,772.76 85.15,761.84 77.78,752.79 66.62,747.55 55.13,746.37 m 514.13,23.31 c 1.11,0.24 2.21,1.02 3.39,0.8 8.07,-2.72 14.26,-8.77 20.93,-13.77 -1.22,-0.81 -2.37,-1.7 -3.71,-2.27 -9.03,1.08 -15.5,8.34 -20.61,15.24 m 111.46,-0.97 c -9.8,11.77 -19.83,23.54 -26.81,37.3 -9.78,14.6 -17.81,30.82 -20.19,48.41 20.22,0.43 40.56,-0.39 60.7,0.9 -0.12,-33.02 2.04,-66.05 2.3,-99.09 -5.18,4.36 -11.1,7.79 -16,12.48 M 136.29,780.4 c 5.76,-4.26 11.37,-8.6 18.31,-10.93 -2.53,-4.72 -5.88,-9.05 -10.36,-12.07 -2.17,7.83 -6.07,15.08 -7.95,23 m 455.56,-16.42 c 1.12,0.58 2.37,1.01 3.36,1.86 6.03,8.86 10.18,18.76 14.38,28.58 4.32,10.63 5.7,22.25 10.35,32.75 1.44,-24.76 -10.03,-48 -23.07,-68.31 -1.57,1.81 -3.21,3.55 -5.02,5.12 m -435.19,18.65 c -15.83,15.4 -29.67,34.65 -31.57,57.35 21.67,-24.36 43.3,-48.79 64.43,-73.65 -11.42,4.4 -22.8,9.24 -32.86,16.3 m 421.04,-7.72 c 9.92,3.49 19.05,9.48 25.63,17.76 -4.25,-8.93 -8.05,-18.03 -13.34,-26.47 -4.08,2.93 -7.95,6.15 -12.29,8.71 m -439.21,9.56 c -5.37,9.17 -14.16,16.15 -17.82,26.32 -6.92,11.23 -5.97,24.82 -8.29,37.31 2.52,0.02 5.03,0.08 7.54,0.16 1.69,-12.73 1.68,-26.4 8.69,-37.66 6.2,-10.39 13.85,-20.03 22.51,-28.47 6.35,-6.16 14.64,-9.39 21.67,-14.56 -12.26,3.63 -25,7.8 -34.3,16.9 m 507.76,6.81 c -6.41,10.37 -13.47,20.44 -18.24,31.73 -1.84,4.31 -2.11,9.45 -5.65,12.86 1.42,6.83 2.95,13.69 5.7,20.12 2.44,-6.11 2.11,-12.87 4.09,-19.11 2.34,-7.12 5.35,-14.05 9.35,-20.41 9.52,-17.42 20.13,-34.47 33.92,-48.8 -11.22,5.68 -20.82,14.29 -29.17,23.61 m -99.7,-14.8 c 21.78,25.83 43.82,51.47 65.6,77.26 -4.14,-13.86 -7.1,-28.83 -16.59,-40.23 -6.48,-7.19 -10.75,-15.97 -16.14,-23.92 -8.49,-8.89 -20.78,-12.89 -32.87,-13.11 m 24.73,1.23 c 4.78,3.88 10.2,7.08 14.41,11.59 6,9.58 13.05,18.48 18.67,28.29 5.48,11.68 10.24,23.99 11.2,36.98 1.69,-0.06 3.38,-0.11 5.09,-0.15 0.04,-16.33 -9.07,-30.62 -14.6,-45.49 -5.93,-15.25 -19.05,-26.79 -34.77,-31.22 z"
         inkscape:connector-curvature="0"
         style="fill:#110f13" />
    </g>
    <g
       style="filter:url(#filter3959)"
       transform="matrix(1.0512314,-0.01834932,0.01834932,1.0512314,-31.430914,1.0183445)"
       id="#bd6e84ff">
      <path
         id="path3353"
         d="m 361.64,271.65 c 8.98,-5.29 17.28,-11.67 27.06,-15.64 2.56,1.2 5.16,2.29 7.8,3.3 0.16,0.72 0.48,2.15 0.64,2.87 0.38,-0.59 0.78,-1.17 1.18,-1.75 3.56,2.19 7.79,2.19 11.81,2.69 -5.12,5.05 -10.9,9.6 -17.58,12.4 -6.05,2.64 -11.99,6.61 -18.87,6.18 -3.4,-4.09 -8.61,-5.99 -12.04,-10.05 z"
         inkscape:connector-curvature="0"
         style="fill:#bd6e84" />
      <path
         id="path3355"
         d="m 461.82,360.35 c 1.09,-0.65 2.19,-1.29 3.3,-1.92 1.87,2.68 4.08,5.26 5.07,8.44 4.09,14.13 6.51,28.67 7.85,43.3 -1.54,0.12 -3.08,0.26 -4.61,0.4 -4.07,-5.21 -3.45,-12.21 -4.56,-18.38 -1.31,-10.83 -4.1,-21.37 -7.05,-31.84 z"
         inkscape:connector-curvature="0"
         style="fill:#bd6e84" />
      <path
         id="path3357"
         d="m 452.48,363.24 c 1.8,0.29 4.92,-0.67 5.28,1.94 3.52,11.29 5.3,23.04 6.17,34.81 0.39,4.62 1.21,9.45 4.32,13.1 -1.2,0.73 -2.39,1.47 -3.57,2.21 -4.38,-6.71 -3.35,-14.85 -4.51,-22.39 -2.12,-10 -4.58,-19.93 -7.69,-29.67 z"
         inkscape:connector-curvature="0"
         style="fill:#bd6e84" />
      <path
         id="path3359"
         d="m 443.54,366.54 c 1.37,-0.23 2.74,-0.45 4.12,-0.67 4.06,13.05 7.49,26.45 8,40.18 0.24,3.83 1.44,7.51 2.09,11.28 -1.35,-0.68 -2.69,-1.36 -4.03,-2.04 -3.8,-16.17 -7.41,-32.38 -10.18,-48.75 z"
         inkscape:connector-curvature="0"
         style="fill:#bd6e84" />
      <path
         id="path3361"
         d="m 474.51,416.77 c 1.3,-0.88 2.61,-1.76 3.91,-2.66 1.27,13.4 2.09,26.84 3.15,40.24 -1.6,-4.19 -2.44,-8.63 -2.75,-13.09 -0.4,-8.34 -3.78,-16.16 -4.31,-24.49 z"
         inkscape:connector-curvature="0"
         style="fill:#bd6e84" />
      <path
         id="path3363"
         d="m 465.52,419.73 c 1.17,-0.38 2.35,-0.76 3.53,-1.13 1.38,10.68 4.67,20.96 5.98,31.64 -4.92,-9.51 -6.71,-20.25 -9.51,-30.51 z"
         inkscape:connector-curvature="0"
         style="fill:#bd6e84" />
      <path
         id="path3365"
         d="m 456.82,420.64 c 0.38,0.77 1.15,2.29 1.53,3.06 0.58,-1.03 1.16,-2.05 1.75,-3.06 1.3,7.45 4.38,14.43 5.88,21.83 -3.68,-6.98 -7.65,-14 -9.16,-21.83 z"
         inkscape:connector-curvature="0"
         style="fill:#bd6e84" />
      <path
         id="path3367"
         d="m 397.13,457.72 c 1.34,-0.07 2.69,-0.13 4.04,-0.19 -2.28,1.62 -4.4,3.44 -6.39,5.4 0.79,-1.74 1.58,-3.47 2.35,-5.21 z"
         inkscape:connector-curvature="0"
         style="fill:#bd6e84" />
      <path
         id="path3369"
         d="m 421.08,462.35 c 3.58,-1.53 7.34,-2.63 11.19,-3.27 -3.11,2.73 -7.06,4.12 -11.19,3.27 z"
         inkscape:connector-curvature="0"
         style="fill:#bd6e84" />
      <path
         id="path3371"
         d="m 465.64,489.61 c 6.7,-5.59 13.08,-11.79 17.53,-19.37 5.81,12.36 2.32,28.1 -9.32,35.71 -2.22,-5.71 -5.41,-10.92 -8.21,-16.34 z"
         inkscape:connector-curvature="0"
         style="fill:#bd6e84" />
      <path
         id="path3373"
         d="m 435.17,492.47 c 1.5,-0.37 3,-0.73 4.5,-1.08 -0.54,2.14 -1.08,4.29 -1.62,6.45 -0.97,-1.8 -1.93,-3.58 -2.88,-5.37 z"
         inkscape:connector-curvature="0"
         style="fill:#bd6e84" />
      <path
         id="path3375"
         d="m 451.75,504.39 c 0.16,-4.85 -0.43,-9.81 1,-14.53 1.79,5.17 2.79,10.56 4.09,15.87 -1.7,-0.44 -3.4,-0.89 -5.09,-1.34 z"
         inkscape:connector-curvature="0"
         style="fill:#bd6e84" />
      <path
         id="path3377"
         d="m 459.68,490.76 c 5.02,2.62 5.93,8.7 8.08,13.42 -1.76,0.55 -3.5,1.11 -5.25,1.67 -1.22,-4.96 -3.55,-9.88 -2.83,-15.09 z"
         inkscape:connector-curvature="0"
         style="fill:#bd6e84" />
      <path
         id="path3379"
         d="m 442.9,501.84 c 0.49,-3.81 1.7,-7.46 3.45,-10.86 0.24,4.14 0.25,8.3 0.29,12.46 -1.25,-0.54 -2.5,-1.07 -3.74,-1.6 z"
         inkscape:connector-curvature="0"
         style="fill:#bd6e84" />
      <path
         id="path3381"
         d="m 478.65,509.51 c 4.18,-3.98 6.87,-9.12 10.43,-13.59 5.21,12.99 0.3,26.75 -3.97,39.21 -2.78,-8.73 -6.67,-17.03 -9.83,-25.62 1.11,-0.01 2.24,-0.01 3.37,0 z"
         inkscape:connector-curvature="0"
         style="fill:#bd6e84" />
      <path
         id="path3383"
         d="m 463.07,510.19 c 2.14,-0.42 4.28,-0.88 6.43,-1.34 3.87,9.36 8.16,18.63 10.1,28.65 -4.12,-1.43 -10.58,-0.94 -11.98,-6.15 -1.72,-7 -3.16,-14.08 -4.55,-21.16 z"
         inkscape:connector-curvature="0"
         style="fill:#bd6e84" />
      <path
         id="path3385"
         d="m 451.55,509.88 c 2.1,0.03 4.19,0.07 6.3,0.12 1.4,6.03 2.22,12.2 4.02,18.14 -3.19,-3.45 -7.68,-5.81 -9.9,-10.07 -0.64,-2.68 -0.24,-5.47 -0.42,-8.19 z"
         inkscape:connector-curvature="0"
         style="fill:#bd6e84" />
    </g>
    <g
       style="filter:url(#filter3965)"
       transform="matrix(1.0512314,-0.01834932,0.01834932,1.0512314,-31.430914,1.0183445)"
       id="#80809aff">
      <path
         id="path3388"
         d="m 373.22,292.65 c 1.97,-1.09 2.6,2.9 0.58,3.02 -1.42,-0.14 -1.55,-2.26 -0.58,-3.02 z"
         inkscape:connector-curvature="0"
         style="fill:#80809a" />
    </g>
    <g
       style="filter:url(#filter3971)"
       transform="matrix(1.0512314,-0.01834932,0.01834932,1.0512314,-31.430914,1.0183445)"
       id="#dba22eff">
      <path
         id="path3391"
         d="m 423.69,370 c 4.48,-0.06 9.39,0.47 13.08,-2.64 2.61,10.56 5.17,21.15 7.08,31.87 3,19.53 11.83,37.79 23,53.91 4.76,3.39 9.62,6.62 13.57,11.04 -4.52,9.29 -11.28,19.03 -21.2,22.83 -2.67,-4.76 -3.65,-10.15 -4.28,-15.5 1.14,-1.59 2.27,-3.19 3.39,-4.79 3.25,1.23 6.58,2.3 9.94,3.23 1.02,-2.63 1.91,-5.3 2.6,-8.03 -2.43,-4.34 -6.88,-5.03 -11.38,-5.41 -7.61,-6.86 -17.85,-0.89 -26.76,-2.22 -3.82,-0.84 -7.25,1.22 -10.85,1.97 -8.43,-1.37 -16.65,-4.34 -25.3,-3.71 -7.21,-8.59 -13.29,-18.05 -20.42,-26.68 -5.28,-11.19 -10.24,-22.49 -14.09,-34.26 5.25,0.78 8.91,-3.38 12.53,-6.43 2.81,2.24 5.33,4.95 8.57,6.6 8.41,1.7 13.96,-6.22 19.19,-11.39 7.3,0.26 14.22,-2.09 21.07,-4.32 0.29,-2.01 0.37,-4.05 0.26,-6.07 z"
         inkscape:connector-curvature="0"
         style="fill:#dba22e" />
      <path
         id="path3393"
         d="m 415.84,464.56 0.22,0.29 c 2.26,3.92 7.69,4.41 11.47,2.59 5.72,-3.44 12.39,0.43 18.56,-1.53 -0.39,6.84 -3.36,13.14 -4.01,19.93 -6.81,1.65 -11.25,-3.96 -17.22,-5.71 -6.85,-2.78 -12.34,-7.94 -17.85,-12.72 3.08,-0.47 6.48,-0.48 8.83,-2.85 z"
         inkscape:connector-curvature="0"
         style="fill:#dba22e" />
      <path
         id="path3395"
         d="m 92.75,690.99 c 1.28,-1.17 2.56,-2.34 3.85,-3.5 1.41,1.15 2.82,2.31 4.25,3.44 -0.43,0.94 -0.87,1.89 -1.31,2.85 -2.24,-1 -4.5,-1.94 -6.79,-2.79 z"
         inkscape:connector-curvature="0"
         style="fill:#dba22e" />
      <path
         id="path3397"
         d="m 122.89,690.46 c 1.71,-0.63 3.42,-1.25 5.12,-1.87 1.69,1.26 3.36,2.54 5.04,3.83 -3.1,0.97 -6.32,1.39 -9.55,1.52 -0.21,-1.17 -0.41,-2.33 -0.61,-3.48 z"
         inkscape:connector-curvature="0"
         style="fill:#dba22e" />
      <path
         id="path3399"
         d="m 106.35,690.18 c 2.37,0.38 4.75,0.75 7.13,1.13 0.8,1.58 1.61,3.18 2.43,4.77 -1.05,1.62 -2.08,3.26 -3.06,4.93 -1.64,-2.92 -4.09,-5.22 -7.08,-6.7 0.19,-1.39 0.38,-2.76 0.58,-4.13 z"
         inkscape:connector-curvature="0"
         style="fill:#dba22e" />
      <path
         id="path3401"
         d="m 633.4,704.7 c 2.4,-5.22 8.78,-4.84 12.64,-1.5 -3.97,1.89 -8.38,1.69 -12.64,1.5 z"
         inkscape:connector-curvature="0"
         style="fill:#dba22e" />
      <path
         id="path3403"
         d="m 596.39,702.68 c 0.81,-0.49 1.62,-0.99 2.44,-1.48 2.68,0.65 5.4,1.14 8.14,1.57 0.68,1.15 1.36,2.32 2.06,3.49 -1.65,0.37 -3.3,0.73 -4.94,1.11 -2.62,-1.49 -5.19,-3.05 -7.7,-4.69 z"
         inkscape:connector-curvature="0"
         style="fill:#dba22e" />
      <path
         id="path3405"
         d="m 613.39,707.28 c 1.81,-2.37 4.02,-4.39 6.53,-6.01 2.61,1.07 4.72,2.93 6.14,5.37 -1.6,0.96 -3.2,1.92 -4.81,2.86 -2.58,-0.87 -5.22,-1.58 -7.86,-2.22 z"
         inkscape:connector-curvature="0"
         style="fill:#dba22e" />
    </g>
    <g
       style="filter:url(#filter3977)"
       transform="matrix(1.0512314,-0.01834932,0.01834932,1.0512314,-31.430914,1.0183445)"
       id="#cf8034ff">
      <path
         id="path3408"
         d="m 359.05,423.12 c 1.47,-2.57 3.23,-6.66 6.45,-6.88 4.2,6.48 7.03,13.78 11.79,19.95 -3.56,-0.76 -7.2,-0.83 -10.8,-0.44 -2.15,-4.39 -6.13,-7.89 -7.44,-12.63 z"
         inkscape:connector-curvature="0"
         style="fill:#cf8034" />
      <path
         id="path3410"
         d="m 364.84,443.17 c 4.81,-4.82 11.26,-1.68 16.92,-0.76 4.14,7.13 7.46,17.44 0.62,24.03 -8.6,4.32 -19.85,-0.42 -24.06,-8.79 -2.49,-6.06 0.49,-12.59 4.65,-17.1 0.62,0.87 1.24,1.74 1.87,2.62 z"
         inkscape:connector-curvature="0"
         style="fill:#cf8034" />
      <path
         id="path3412"
         d="m 285.21,451.26 c 2.34,-0.05 4.68,-0.07 7.02,-0.06 0.58,0.99 1.17,1.99 1.76,2.99 -1.4,1.93 -2.81,3.86 -4.23,5.78 -1.16,-0.17 -2.32,-0.32 -3.47,-0.47 -0.88,-2.66 -1.2,-5.45 -1.08,-8.24 z"
         inkscape:connector-curvature="0"
         style="fill:#cf8034" />
      <path
         id="path3414"
         d="m 273.03,455.83 c 2.09,-1.77 4.61,-1.74 6.84,-0.28 -2.27,0.22 -4.56,0.31 -6.84,0.28 z"
         inkscape:connector-curvature="0"
         style="fill:#cf8034" />
      <path
         id="path3416"
         d="m 298.67,454.45 c 18.11,0.16 36.24,0.68 54.28,2.36 -0.04,0.81 -0.12,2.42 -0.16,3.22 -18.23,-1.51 -36.48,-2.79 -54.77,-3.23 0.16,-0.59 0.48,-1.76 0.65,-2.35 z"
         inkscape:connector-curvature="0"
         style="fill:#cf8034" />
      <path
         id="path3418"
         d="m 449.55,458.64 c 0.53,-0.05 1.59,-0.15 2.12,-0.2 0.56,2.33 1.02,4.69 1.37,7.07 -0.96,-0.22 -2.89,-0.67 -3.86,-0.89 0.12,-1.99 0.24,-3.99 0.37,-5.98 z"
         inkscape:connector-curvature="0"
         style="fill:#cf8034" />
      <path
         id="path3420"
         d="m 438.14,459.68 c 2.59,-0.16 5.18,-0.26 7.78,-0.13 -2.27,1.62 -5.09,1.33 -7.71,1.39 l -0.07,-1.26 z"
         inkscape:connector-curvature="0"
         style="fill:#cf8034" />
      <path
         id="path3422"
         d="m 405.12,461.52 c 3.92,-2.05 8.42,-1.1 12.64,-1.14 -0.58,1.48 -1.15,2.97 -1.7,4.47 l -0.22,-0.29 c -2.07,-4.02 -7.13,-2.42 -10.72,-3.04 z"
         inkscape:connector-curvature="0"
         style="fill:#cf8034" />
      <path
         id="path3424"
         d="m 458.63,462.27 c 2.05,0.14 4.11,0.33 6.16,0.63 -2.31,0.58 -4.63,1.13 -6.94,1.65 0.19,-0.57 0.58,-1.71 0.78,-2.28 z"
         inkscape:connector-curvature="0"
         style="fill:#cf8034" />
      <path
         id="path3426"
         d="m 367.35,471.98 c 1.41,0.25 2.83,0.49 4.26,0.73 1.43,3.26 0.91,6.83 0.77,10.27 -2.59,41.32 -0.3,82.89 6.19,123.75 2.16,19.6 4.78,40.26 15.23,57.34 -10.32,1.54 -18.06,8.87 -25.36,15.7 -5.32,-9.74 -15.56,-15.07 -26.34,-16.06 5.95,-8.52 9.65,-18.2 12.49,-28.14 3.96,-26.15 12.28,-51.86 12.03,-78.54 -0.58,-10.68 1.06,-21.35 0.08,-32.02 -0.21,-17.69 -2.18,-35.46 0.65,-53.03 z"
         inkscape:connector-curvature="0"
         style="fill:#cf8034" />
      <path
         id="path3428"
         d="m 416.52,604.41 c 20.86,0.32 41.74,1.36 62.59,0.91 -0.4,16.88 -19.27,26.37 -34.39,24.08 -10.32,0.05 -17.48,-8.26 -24.59,-14.55 -3.06,-2.57 -3.86,-6.64 -3.61,-10.44 z"
         inkscape:connector-curvature="0"
         style="fill:#cf8034" />
      <path
         id="path3430"
         d="m 253.06,605.61 c 9.61,-2 19.24,0.73 28.89,-0.13 8.69,-0.18 17.38,0.39 26.06,-0.27 4.68,0.12 9.76,-1.14 14.05,1.34 -2.83,5.71 -6.77,10.76 -11.09,15.42 -9.87,10.39 -27.14,12.93 -39.45,5.55 -8.19,-4.95 -17.73,-11.42 -18.46,-21.91 z"
         inkscape:connector-curvature="0"
         style="fill:#cf8034" />
      <path
         id="path3432"
         d="m 290.54,678.42 c 15.77,-5.94 32.41,-11.17 49.48,-9.78 11,-0.65 21.72,6.54 25.58,16.77 -0.47,6.5 -0.41,13.05 -0.76,19.57 -5.99,-5.96 -12.54,-11.33 -18.99,-16.77 -8.89,-5.49 -19.12,-7.86 -28.9,-11.16 -8.78,-2.03 -17.66,0.5 -26.41,1.37 z"
         inkscape:connector-curvature="0"
         style="fill:#cf8034" />
      <path
         id="path3434"
         d="m 389.62,669.62 c 13.41,-1.58 27.09,-0.4 39.95,3.84 -8.2,1.69 -16.79,1.39 -24.71,4.4 -7.38,2.2 -12.91,7.82 -19.41,11.65 -6.59,3.98 -11.18,10.41 -14.98,16.95 -0.54,-7.34 -0.48,-14.8 1.01,-22.02 5.07,-5.95 11.37,-10.93 18.14,-14.82 z"
         inkscape:connector-curvature="0"
         style="fill:#cf8034" />
    </g>
    <g
       style="filter:url(#filter3983)"
       transform="matrix(1.0512314,-0.01834932,0.01834932,1.0512314,-31.430914,1.0183445)"
       id="#6ba8d8ff">
      <path
         id="path3437"
         d="m 356.8,429.73 c 1.78,2.27 3.57,4.52 5.36,6.78 -6.47,2.39 -9.51,8.71 -11.04,15.01 -17.99,-0.51 -36,-2.07 -54,-1.12 -0.5,-1.25 -0.99,-2.48 -1.47,-3.72 9.48,-3.8 19.02,-9.34 29.46,-9.15 8.74,-6.85 21.33,-4.82 31.69,-7.8 z"
         inkscape:connector-curvature="0"
         style="fill:#6ba8d8" />
      <path
         id="path3439"
         d="m 273.01,460.91 c 3,-0.31 5.99,-0.79 8.94,-1.42 1.81,5.76 -1.1,11.39 -1.55,17.12 -11.43,41.15 -22.96,82.29 -33.97,123.56 0.05,18.58 16.77,31.95 32.82,37.12 5.78,-0.07 11.7,1.07 17.38,-0.31 13.75,-2.74 24.46,-14.06 29.62,-26.69 1.66,-3.33 1.26,-7.1 1.11,-10.68 -1.18,-0.41 -2.35,-0.83 -3.52,-1.23 -2.97,-13.76 -6.63,-27.31 -10.36,-40.87 -4.22,-16.35 -7.1,-33.01 -11.37,-49.34 -3.34,-11.25 -5.61,-22.76 -8.29,-34.17 0.86,-0.85 1.71,-1.7 2.57,-2.54 -0.65,-2.84 -2.16,-5.33 -4.08,-7.48 0.8,-0.76 1.61,-1.52 2.41,-2.26 6.7,1.33 13.51,0.1 20.26,0.75 13.64,-0.02 27.16,2.58 40.81,2.22 1.6,0.92 3.21,1.84 4.82,2.75 1.42,27.85 -0.04,55.7 0.76,83.57 0.21,14.65 -1.26,29.36 -4.98,43.55 -1.54,10.13 -3.49,20.18 -5.78,30.17 -1.2,14.29 -7.21,27.85 -16.55,38.67 -18.12,-0.36 -35.01,6.79 -51.94,12.01 -11.03,-8.35 -23.06,-15.76 -31.78,-26.74 -14.25,-15.95 -27.31,-36.32 -24.73,-58.62 -1.49,-21.21 0.12,-42.82 6.45,-63.17 7.28,-18.94 17.24,-36.87 30.69,-52.14 3.78,-4.33 7.07,-9.06 10.26,-13.83 z"
         inkscape:connector-curvature="0"
         style="fill:#6ba8d8" />
      <path
         id="path3441"
         d="m 391.18,468.12 c 0.39,-0.41 1.15,-1.22 1.54,-1.63 6.19,0.66 11.51,3.54 15.33,8.46 4.76,5.65 12,7.88 18.3,11.29 2.43,5.84 4.52,12.47 9.64,16.54 -3.16,16.53 -9.61,32.19 -13.71,48.49 -2.87,12.99 -7.25,25.57 -10.65,38.42 -1.01,4.66 -4.32,8.97 -3.02,13.94 3.14,8.15 7.02,16.26 13.31,22.48 14.43,11.6 36.17,13.04 51.59,2.5 7.21,-7.02 12.36,-16.87 10.13,-27.19 -4.98,-20.35 -9.69,-40.76 -13.84,-61.31 5.3,0.82 10.22,3.24 15.6,3.71 6.74,-6.45 7.14,-16.18 10.23,-24.46 8.78,29.17 11.22,61.24 0.93,90.37 -3.55,8.32 -5.72,17.32 -10.9,24.86 -5.09,9.54 -8.42,20.9 -17.72,27.34 -5.87,6.36 -12.48,11.98 -19.53,17 -2.53,-3.22 -5.42,-6.36 -9.29,-7.92 -12.56,-3.97 -25.55,-6.66 -38.76,-6.83 -11.74,-17.2 -13.67,-38.53 -16.77,-58.55 -1.71,-7.93 -1.21,-16.14 -3.24,-24.02 -3.15,-20.66 -2.4,-41.66 -3.72,-62.46 0.31,-15.25 -0.47,-30.59 1.9,-45.72 3.52,-1.33 7.46,-2.44 9.5,-5.91 0.79,0.15 2.37,0.45 3.15,0.6 z"
         inkscape:connector-curvature="0"
         style="fill:#6ba8d8" />
      <path
         id="path3443"
         d="m 252.63,599.43 c 10.82,-41.06 21.55,-82.18 33.47,-122.94 0.09,41.15 -1.74,82.37 -1.8,123.53 -10.57,0.46 -21.11,-0.67 -31.67,-0.59 z"
         inkscape:connector-curvature="0"
         style="fill:#6ba8d8" />
      <path
         id="path3445"
         d="m 290.87,482.51 c -0.1,7.24 4.04,13.5 4.91,20.56 0.88,8.1 4.58,15.59 5.09,23.76 -0.28,0.35 -0.85,1.05 -1.13,1.4 1.7,1.78 3.16,3.83 3.64,6.3 5.45,21.52 8.76,43.56 15.38,64.77 -9.45,0.08 -18.92,-0.07 -28.33,0.82 -0.82,-39.16 -0.54,-78.41 0.44,-117.61 z"
         inkscape:connector-curvature="0"
         style="fill:#6ba8d8" />
      <path
         id="path3447"
         d="m 439.41,510.09 c 2.55,4.44 7.45,8.23 6.71,13.87 -0.89,25.18 -1.53,50.38 -2.09,75.57 -10.02,0.11 -20.07,0.05 -30.05,-1.01 7.98,-29.63 17.7,-58.75 25.43,-88.43 z"
         inkscape:connector-curvature="0"
         style="fill:#6ba8d8" />
      <path
         id="path3449"
         d="m 450.8,526.1 c 3.39,2.99 6.62,6.16 10.18,8.97 4.56,3.4 3.4,9.84 4.99,14.71 4.4,16.45 6.51,33.42 10.82,49.87 -8.86,1.75 -17.93,-0.13 -26.88,0.48 -0.5,-19.35 0.54,-38.65 0.84,-57.97 1.57,-5.29 -0.07,-10.69 0.05,-16.06 z"
         inkscape:connector-curvature="0"
         style="fill:#6ba8d8" />
      <path
         id="path3451"
         d="m 410.35,681.34 c 7.72,-1.78 15.75,-2.74 23.68,-2.61 4.18,1.52 8.42,2.85 12.97,2.27 -20.04,16.62 -45.17,27.65 -71.51,27.85 7.96,-12.8 20.79,-22.4 34.86,-27.51 z"
         inkscape:connector-curvature="0"
         style="fill:#6ba8d8" />
      <path
         id="path3453"
         d="m 290.92,683.74 c 10.49,-2.16 21.8,-3.87 31.98,0.54 9.6,2.64 19.27,6.15 26.36,13.47 3.55,3.28 6.17,7.54 10.43,10.04 -24.22,-3.49 -47.63,-11.76 -68.77,-24.05 z"
         inkscape:connector-curvature="0"
         style="fill:#6ba8d8" />
    </g>
    <g
       style="filter:url(#filter3989)"
       transform="matrix(1.0512314,-0.01834932,0.01834932,1.0512314,-31.430914,1.0183445)"
       id="#5f55b4ff">
      <path
         id="path3456"
         d="m 97.57,667.56 c 3.18,-4.81 8.78,-7.06 12.32,-11.53 0.02,7.8 7.57,12.92 7.47,20.71 0.23,3.39 -1.58,6.42 -2.95,9.4 -2.97,-0.08 -5.95,0 -8.9,0.38 -3.11,-1.72 -7.76,-2.07 -9.08,-5.88 -1.21,-4.23 -2.01,-9.46 1.14,-13.08 z"
         inkscape:connector-curvature="0"
         style="fill:#5f55b4" />
      <path
         id="path3458"
         d="m 121.3,666.84 c -2.88,-3.86 1.43,-7.58 2.84,-11.08 3.38,5.25 8.25,11.23 5.21,17.81 -2.83,5.97 -5.55,12.19 -9.77,17.33 2.76,-7.61 6.42,-16.36 1.72,-24.06 z"
         inkscape:connector-curvature="0"
         style="fill:#5f55b4" />
      <path
         id="path3460"
         d="m 615.86,665.51 c 1.48,1.93 3.6,3.73 3.86,6.29 -1.81,4.57 -6.52,7.49 -7.59,12.44 -1.44,5.13 -0.07,10.38 1.22,15.38 -7.02,-1.71 -9.77,-8.73 -12.8,-14.46 6.76,-5.1 12.09,-11.79 15.31,-19.65 z"
         inkscape:connector-curvature="0"
         style="fill:#5f55b4" />
      <path
         id="path3462"
         d="m 631.22,665.54 c 2.54,4.75 7.57,7.36 10.45,11.78 2.04,6.2 -1.48,12.5 -4.01,18.03 -3.79,0.75 -6.64,3.35 -8.71,6.48 -3.03,-3.63 -7.58,-5.16 -12.03,-6.18 -3.75,-12.62 10.71,-19.42 14.3,-30.11 z"
         inkscape:connector-curvature="0"
         style="fill:#5f55b4" />
      <path
         id="path3464"
         d="m 88.73,695.75 c 2.25,0 4.5,0.01 6.76,0.04 -0.54,6.01 -0.75,12.04 -0.88,18.06 -0.88,5.05 -5.53,8.11 -9.7,10.42 -0.63,-1.19 -1.26,-2.36 -1.89,-3.52 4.5,-7.69 5.14,-16.35 5.71,-25 z"
         inkscape:connector-curvature="0"
         style="fill:#5f55b4" />
      <path
         id="path3466"
         d="m 99.46,696.65 c 7.89,2.44 14.23,10.89 12.32,19.3 -0.64,4.55 0.32,9.21 -1.06,13.69 -10.37,-7.39 -12.87,-21.08 -11.26,-32.99 z"
         inkscape:connector-curvature="0"
         style="fill:#5f55b4" />
      <path
         id="path3468"
         d="m 129.46,697.87 c 2.16,-0.07 4.34,-0.01 6.51,-0.06 5.33,6.83 -0.8,16.68 6.26,23 -1.58,2.68 -3.91,4.76 -6.95,5.63 -1.88,-2.35 -4.04,-4.48 -6.64,-6.02 -0.1,-7.58 4.12,-15.16 0.82,-22.55 z"
         inkscape:connector-curvature="0"
         style="fill:#5f55b4" />
      <path
         id="path3470"
         d="m 116.48,704.16 c 2.32,-2.5 5.22,-4.3 8.38,-5.55 0.85,5.51 0.43,11.1 1.11,16.63 -0.84,0.22 -1.67,0.46 -2.51,0.7 2.67,5.92 -3.62,11.78 -7.66,15.56 0.98,-9.09 0.8,-18.22 0.68,-27.34 z"
         inkscape:connector-curvature="0"
         style="fill:#5f55b4" />
      <path
         id="path3472"
         d="m 592.01,705.71 c 2.25,1.55 4.59,2.99 7.15,3.99 -1.7,7.91 1.84,15.11 4.51,22.34 -2.42,5.3 -6.48,10.01 -12.56,10.87 -0.34,-0.49 -1,-1.48 -1.33,-1.97 1.48,-3.81 4.22,-8.19 1.43,-12.09 -4.36,-7.15 -3.42,-16.17 0.8,-23.14 z"
         inkscape:connector-curvature="0"
         style="fill:#5f55b4" />
      <path
         id="path3474"
         d="m 640.84,710.31 c 3.11,-0.97 6.17,-2.1 9.16,-3.4 5.29,11.54 -3.83,23.8 0.72,35.54 -6.67,0.24 -8.52,-7.24 -12.36,-11.26 3.61,-6.39 4.43,-13.83 2.48,-20.88 z"
         inkscape:connector-curvature="0"
         style="fill:#5f55b4" />
      <path
         id="path3476"
         d="m 623.33,714.21 c 3.04,-2.6 6.7,-4.24 10.68,-4.72 2.09,3.87 3.76,8.35 2.32,12.76 -0.9,5.36 -5.8,8.48 -7.88,13.26 -1.23,2.74 -3.64,4.61 -5.93,6.42 -0.77,-9.27 1.59,-18.46 0.81,-27.72 z"
         inkscape:connector-curvature="0"
         style="fill:#5f55b4" />
      <path
         id="path3478"
         d="m 600.74,714.02 c 5.22,-4.92 19.12,-4.69 17.69,4.98 -0.09,6.7 -1.29,13.35 -0.65,20.07 -1.2,0.03 -2.38,0.06 -3.56,0.11 -2.2,-5.54 -6.93,-9.52 -9.33,-14.92 -1.06,-3.54 -1.89,-7.22 -4.15,-10.24 z"
         inkscape:connector-curvature="0"
         style="fill:#5f55b4" />
    </g>
    <g
       style="filter:url(#filter3995)"
       transform="matrix(1.0512314,-0.01834932,0.01834932,1.0512314,-31.430914,1.0183445)"
       id="#acac26ff">
      <path
         id="path3481"
         d="m 114.37,734.57 c 0.62,0.12 1.85,0.35 2.46,0.47 1.68,11.12 1.32,22.4 1.12,33.61 -2.81,-4.18 -1.12,-9.37 -1.24,-14.04 0.88,-6.82 -1.97,-13.29 -2.34,-20.04 z"
         inkscape:connector-curvature="0"
         style="fill:#acac26" />
      <path
         id="path3483"
         d="m 122.76,771.77 c 5.26,-10.92 10.13,-23.06 21.18,-29.43 -2.48,7.68 -5.01,15.36 -7.6,23.01 -3.17,8.68 -7.66,17.07 -8.44,26.43 -2.53,3.16 -4.57,6.64 -6.55,10.17 0.63,-10.05 -1.49,-20.36 1.41,-30.18 z"
         inkscape:connector-curvature="0"
         style="fill:#acac26" />
      <path
         id="path3485"
         d="m 148.35,743.21 c 4.06,6.08 9.93,11.94 8.67,19.92 -3.24,-3.84 -7.01,-7.23 -11.51,-9.52 0.79,-3.51 1.73,-6.98 2.84,-10.4 z"
         inkscape:connector-curvature="0"
         style="fill:#acac26" />
      <path
         id="path3487"
         d="m 619.74,767.11 c 0.18,-7.81 -2.28,-15.82 0.3,-23.42 0.93,2.32 1.27,4.81 1.13,7.31 -0.36,16.6 0.41,33.18 0.39,49.77 -3.92,-10.89 -0.64,-22.46 -1.82,-33.66 z"
         inkscape:connector-curvature="0"
         style="fill:#acac26" />
      <path
         id="path3489"
         d="m 55.13,746.37 c 11.49,1.18 22.65,6.42 30.02,15.47 10.55,10.92 17.08,24.82 26.42,36.66 0.99,10.81 1.17,21.68 -1.62,32.28 -5,-9.32 -4.43,-20.18 -9.17,-29.54 -1.96,-10.3 -8.57,-18.72 -13.2,-27.9 -3.57,-7.4 -10.57,-12.05 -16.08,-17.86 -4.44,-4.72 -11.26,-5.41 -16.37,-9.11 z"
         inkscape:connector-curvature="0"
         style="fill:#acac26" />
      <path
         id="path3491"
         d="m 569.26,769.68 c 5.11,-6.9 11.58,-14.16 20.61,-15.24 1.34,0.57 2.49,1.46 3.71,2.27 -6.67,5 -12.86,11.05 -20.93,13.77 -1.18,0.22 -2.28,-0.56 -3.39,-0.8 z"
         inkscape:connector-curvature="0"
         style="fill:#acac26" />
      <path
         id="path3493"
         d="m 591.85,763.98 c 1.81,-1.57 3.45,-3.31 5.02,-5.12 13.04,20.31 24.51,43.55 23.07,68.31 -4.65,-10.5 -6.03,-22.12 -10.35,-32.75 -4.2,-9.82 -8.35,-19.72 -14.38,-28.58 -0.99,-0.85 -2.24,-1.28 -3.36,-1.86 z"
         inkscape:connector-curvature="0"
         style="fill:#acac26" />
      <path
         id="path3495"
         d="m 138.49,784.47 c 9.3,-9.1 22.04,-13.27 34.3,-16.9 -7.03,5.17 -15.32,8.4 -21.67,14.56 -8.66,8.44 -16.31,18.08 -22.51,28.47 -7.01,11.26 -7,24.93 -8.69,37.66 -2.51,-0.08 -5.02,-0.14 -7.54,-0.16 2.32,-12.49 1.37,-26.08 8.29,-37.31 3.66,-10.17 12.45,-17.15 17.82,-26.32 z"
         inkscape:connector-curvature="0"
         style="fill:#acac26" />
      <path
         id="path3497"
         d="m 646.25,791.28 c 8.35,-9.32 17.95,-17.93 29.17,-23.61 -13.79,14.33 -24.4,31.38 -33.92,48.8 -4,6.36 -7.01,13.29 -9.35,20.41 -1.98,6.24 -1.65,13 -4.09,19.11 -2.75,-6.43 -4.28,-13.29 -5.7,-20.12 3.54,-3.41 3.81,-8.55 5.65,-12.86 4.77,-11.29 11.83,-21.36 18.24,-31.73 z"
         inkscape:connector-curvature="0"
         style="fill:#acac26" />
      <path
         id="path3499"
         d="m 571.28,777.71 c 15.72,4.43 28.84,15.97 34.77,31.22 5.53,14.87 14.64,29.16 14.6,45.49 -1.71,0.04 -3.4,0.09 -5.09,0.15 -0.96,-12.99 -5.72,-25.3 -11.2,-36.98 -5.62,-9.81 -12.67,-18.71 -18.67,-28.29 -4.21,-4.51 -9.63,-7.71 -14.41,-11.59 z"
         inkscape:connector-curvature="0"
         style="fill:#acac26" />
    </g>
  </g>
</svg>
