<?xml version="1.0" encoding="UTF-8" ?>
<!DOCTYPE svg PUBLIC "-//W3C//DTD SVG 1.1//EN" "http://www.w3.org/Graphics/SVG/1.1/DTD/svg11.dtd">
<svg width="736pt" height="910pt" viewBox="0 0 736 910" version="1.1" xmlns="http://www.w3.org/2000/svg">
<g id="#787471ff">
<path fill="#787471" opacity="1.00" d=" M 0.00 0.00 L 0.25 0.00 C 0.19 0.06 0.06 0.19 0.00 0.25 L 0.00 0.00 Z" />
<path fill="#787471" opacity="1.00" d=" M 371.61 30.96 C 380.74 30.77 389.85 29.99 398.99 30.15 C 417.44 31.98 435.74 35.64 453.35 41.47 C 465.16 44.97 478.03 45.86 488.48 52.96 C 483.22 64.50 477.34 75.76 472.20 87.36 C 456.58 80.75 440.89 73.55 423.96 71.11 C 406.82 67.42 389.07 64.82 371.59 67.16 C 371.42 55.09 372.45 43.02 371.61 30.96 Z" />
<path fill="#787471" opacity="1.00" d=" M 258.52 54.19 C 293.35 41.59 330.01 33.66 367.00 31.78 C 367.99 43.46 366.76 55.26 367.04 67.00 C 346.72 70.02 327.04 75.81 306.97 80.13 C 295.78 81.61 284.89 84.78 274.15 88.21 C 268.61 77.01 264.47 65.20 258.52 54.19 Z" />
<path fill="#787471" opacity="1.00" d=" M 230.43 66.39 C 237.95 61.79 246.40 59.17 254.58 56.01 C 259.27 67.37 264.84 78.35 269.11 89.89 C 241.03 101.70 214.70 117.24 190.11 135.21 C 188.06 136.39 185.48 139.27 183.19 136.92 C 173.63 127.51 164.99 117.22 155.38 107.84 C 164.74 99.55 174.97 92.20 185.45 85.37 C 196.57 78.32 208.96 73.70 220.45 67.35 C 223.57 65.52 227.38 68.41 230.43 66.39 Z" />
<path fill="#787471" opacity="1.00" d=" M 485.17 72.22 C 489.04 67.13 490.30 60.65 493.88 55.39 C 525.06 69.89 552.81 90.93 578.15 113.95 C 571.99 120.04 566.60 126.99 559.97 132.51 C 559.25 135.31 556.34 139.49 553.20 136.93 C 545.54 129.74 536.40 124.44 528.39 117.67 C 511.90 106.84 494.12 98.18 476.67 89.04 C 478.85 83.15 481.28 77.22 485.17 72.22 Z" />
<path fill="#787471" opacity="1.00" d=" M 123.84 137.85 C 133.54 128.65 141.74 117.73 152.94 110.22 C 162.23 121.38 172.44 131.74 181.94 142.73 C 173.89 150.47 167.39 159.62 159.06 167.08 C 144.02 184.47 131.83 204.02 120.71 224.08 C 105.44 221.58 90.86 215.83 75.68 212.72 C 87.24 185.19 105.11 160.80 123.84 137.85 Z" />
<path fill="#787471" opacity="1.00" d=" M 565.31 136.32 C 571.32 130.30 575.90 122.83 583.00 117.93 C 603.46 133.70 620.37 153.58 636.42 173.66 C 643.08 187.57 654.60 198.96 660.17 213.64 C 649.74 218.94 639.16 223.93 628.14 227.95 C 621.73 215.97 615.20 203.98 606.50 193.47 C 594.04 174.18 576.72 158.77 559.82 143.49 C 560.62 140.43 563.24 138.51 565.31 136.32 Z" />
<path fill="#787471" opacity="1.00" d=" M 73.22 215.55 C 88.56 219.83 103.82 224.47 118.98 229.37 C 110.71 249.30 101.98 269.16 97.53 290.38 C 94.12 300.28 92.55 310.63 91.06 320.96 C 74.71 321.23 58.34 321.16 41.98 320.84 C 45.95 307.28 46.51 292.89 51.61 279.63 C 56.37 257.57 63.85 236.12 73.22 215.55 Z" />
<path fill="#787471" opacity="1.00" d=" M 630.56 233.05 C 641.79 229.64 652.07 224.06 662.68 219.16 C 679.75 253.77 694.89 290.57 696.17 329.68 C 680.47 328.95 664.78 328.89 649.05 328.93 C 648.11 311.85 648.03 294.47 643.12 277.91 C 641.46 265.98 636.30 254.82 635.01 242.91 C 633.70 239.54 632.00 236.35 630.56 233.05 Z" />
<path fill="#787471" opacity="1.00" d=" M 42.44 323.97 C 58.36 324.27 74.26 324.98 90.18 325.14 C 85.85 360.59 86.44 396.33 86.02 432.00 C 70.01 432.08 53.99 432.17 37.98 432.00 C 37.95 416.66 38.17 401.32 38.01 385.97 C 42.26 365.62 38.54 344.44 42.44 323.97 Z" />
<path fill="#787471" opacity="1.00" d=" M 648.77 333.47 C 664.79 333.15 680.89 332.73 696.89 333.94 C 697.51 345.65 696.39 357.29 696.34 369.00 C 694.16 392.59 695.89 416.35 694.23 439.95 C 678.86 439.64 663.35 441.01 648.08 439.10 C 646.17 426.02 647.31 412.78 647.45 399.64 C 649.24 388.48 647.37 377.15 648.91 365.97 C 649.59 355.15 648.77 344.30 648.77 333.47 Z" />
<path fill="#787471" opacity="1.00" d=" M 37.96 435.64 C 54.21 435.30 70.49 435.82 86.76 435.85 C 85.63 475.22 85.00 514.62 84.88 554.02 C 68.94 553.99 52.98 554.17 37.05 553.80 C 36.09 514.42 37.44 475.02 37.96 435.64 Z" />
<path fill="#787471" opacity="1.00" d=" M 646.97 443.07 C 652.55 441.41 658.32 442.88 664.00 442.84 C 673.97 442.94 683.96 443.46 693.93 443.17 C 694.81 454.09 693.90 465.05 694.10 475.99 C 692.97 503.44 693.55 530.95 692.16 558.39 C 677.10 558.23 662.05 558.38 647.00 558.15 C 646.20 519.78 646.72 481.43 646.97 443.07 Z" />
<path fill="#787471" opacity="1.00" d=" M 37.00 557.82 C 52.82 558.18 68.70 557.44 84.49 558.59 C 83.73 595.00 84.18 631.41 82.94 667.82 C 67.37 669.70 51.63 668.32 35.99 668.94 C 36.01 631.87 36.02 594.88 37.00 557.82 Z" />
<path fill="#787471" opacity="1.00" d=" M 646.93 562.11 C 662.22 562.28 677.51 562.59 692.80 562.86 C 692.30 599.21 691.00 635.55 690.98 671.89 C 675.68 671.09 660.14 674.35 645.06 670.72 C 645.23 634.50 645.79 598.31 646.93 562.11 Z" />
<path fill="#787471" opacity="1.00" d=" M 447.64 624.73 C 458.84 628.12 470.60 628.48 482.17 629.48 C 503.55 630.58 524.93 631.25 546.26 629.99 C 545.78 657.71 545.83 685.47 544.01 713.13 C 538.00 713.86 531.94 713.05 525.92 713.57 C 518.60 711.16 510.91 707.71 503.08 710.02 C 497.88 707.33 491.80 708.30 486.37 709.63 C 481.17 710.78 476.68 714.80 471.09 713.98 C 462.72 713.35 454.37 712.57 445.96 712.88 C 447.72 683.56 447.46 653.83 447.64 624.73 Z" />
<path fill="#787471" opacity="1.00" d=" M 35.90 673.04 C 51.57 672.89 67.23 673.09 82.89 673.18 C 82.95 710.16 81.73 746.95 81.85 784.02 C 66.25 785.04 50.63 784.33 35.02 784.86 C 34.67 747.56 35.29 710.29 35.90 673.04 Z" />
<path fill="#787471" opacity="1.00" d=" M 645.14 675.31 C 660.27 676.40 675.47 675.55 690.64 676.00 C 690.26 711.87 689.53 747.74 688.89 783.62 C 673.98 784.27 659.05 783.96 644.13 783.91 C 645.19 747.72 644.83 711.50 645.14 675.31 Z" />
<path fill="#787471" opacity="1.00" d=" M 471.15 788.51 C 474.39 788.75 477.48 787.33 480.67 787.40 C 484.37 789.03 487.66 791.63 491.75 792.35 C 496.36 793.18 500.07 797.51 505.02 796.16 C 504.55 811.11 505.79 826.16 504.16 841.04 C 458.10 841.11 412.01 840.90 365.98 841.83 C 366.02 824.07 365.63 806.28 366.44 788.52 C 401.36 788.62 436.22 788.50 471.15 788.51 Z" />
<path fill="#787471" opacity="1.00" d=" M 35.19 787.94 C 50.72 787.30 66.31 787.99 81.85 788.16 C 81.38 806.53 80.40 825.00 81.58 843.34 C 66.05 844.41 50.48 843.87 34.94 844.09 C 34.91 825.39 34.58 806.69 35.19 787.94 Z" />
<path fill="#787471" opacity="1.00" d=" M 87.03 788.10 C 132.34 787.88 177.65 788.04 222.97 787.99 C 223.39 806.01 222.28 824.09 223.03 842.14 C 212.96 842.37 202.45 843.52 192.57 841.69 C 191.04 843.06 188.94 842.86 187.03 842.88 C 153.15 842.83 119.27 843.24 85.40 843.19 C 87.92 832.32 85.81 821.00 86.76 809.95 C 87.85 802.69 86.32 795.38 87.03 788.10 Z" />
<path fill="#787471" opacity="1.00" d=" M 228.19 788.16 C 243.39 788.21 258.58 787.85 273.78 788.34 C 279.71 787.92 285.61 790.29 291.47 788.75 C 299.28 787.92 307.21 788.34 315.00 789.21 C 330.20 787.97 345.51 788.26 360.77 788.49 C 360.60 803.10 362.05 817.97 359.66 832.39 C 360.12 835.37 360.46 838.41 359.65 841.38 C 323.14 842.70 286.55 841.53 250.01 842.25 C 242.47 842.57 234.92 842.46 227.39 842.11 C 228.81 836.71 228.13 831.25 227.32 825.84 C 228.32 813.31 227.89 800.71 228.19 788.16 Z" />
<path fill="#787471" opacity="1.00" d=" M 562.74 791.63 C 566.12 787.53 571.73 788.40 576.42 788.49 C 597.59 787.58 618.79 788.58 639.96 788.21 C 640.23 805.46 639.45 822.72 639.84 839.97 C 604.37 840.57 568.88 839.83 533.42 840.67 C 525.76 840.49 518.08 841.58 510.44 840.67 C 509.95 826.40 510.08 812.07 510.56 797.79 C 514.13 799.62 517.75 801.50 521.73 802.30 C 526.88 803.53 531.84 800.44 537.01 800.98 C 546.47 802.57 556.41 798.81 562.74 791.63 Z" />
<path fill="#787471" opacity="1.00" d=" M 645.52 788.62 C 659.91 788.01 674.36 788.22 688.77 788.44 C 688.46 805.32 688.11 822.21 687.82 839.10 C 673.32 839.79 658.70 840.30 644.10 839.98 C 643.58 832.53 644.71 825.11 644.27 817.68 C 644.59 817.47 645.24 817.04 645.57 816.83 C 643.38 814.36 644.08 810.97 644.17 807.98 C 644.77 801.52 643.37 794.90 645.52 788.62 Z" />
</g>
<g id="#f1f1f1ff">
<path fill="#f1f1f1" opacity="1.00" d=" M 272.75 502.46 C 282.29 499.71 292.45 501.84 301.83 498.52 C 304.02 502.43 306.32 506.27 308.62 510.12 C 300.38 511.55 291.76 510.75 283.88 507.96 C 280.01 506.56 275.08 506.28 272.75 502.46 Z" />
<path fill="#f1f1f1" opacity="1.00" d=" M 320.66 499.49 C 328.00 499.79 335.59 500.74 342.52 503.01 C 333.44 505.81 324.47 508.92 315.09 510.65 C 314.27 510.23 313.45 509.81 312.65 509.39 C 312.46 508.09 312.29 506.80 312.09 505.52 C 315.04 503.64 317.93 501.68 320.66 499.49 Z" />
<path fill="#f1f1f1" opacity="1.00" d=" M 403.19 569.40 C 403.39 568.93 403.80 567.99 404.00 567.52 C 404.18 569.14 404.33 570.77 404.52 572.42 C 406.32 573.48 408.07 574.73 409.02 576.67 C 402.25 574.90 394.73 575.92 388.55 571.87 C 393.03 569.54 398.23 569.21 403.19 569.40 Z" />
<path fill="#f1f1f1" opacity="1.00" d=" M 413.57 576.63 C 415.57 573.87 417.66 571.06 420.77 569.49 C 424.69 572.18 429.78 570.57 433.69 573.15 C 427.13 574.66 420.35 577.81 413.57 576.63 Z" />
<path fill="#f1f1f1" opacity="1.00" d=" M 329.73 620.71 C 337.31 614.44 348.32 615.61 357.60 615.42 C 359.92 618.02 361.42 621.35 361.83 624.82 C 362.53 625.51 363.24 626.20 363.96 626.90 C 352.33 626.30 341.00 623.43 329.73 620.71 Z" />
<path fill="#f1f1f1" opacity="1.00" d=" M 366.77 620.29 C 369.66 619.76 372.54 618.74 374.30 616.23 C 380.59 616.94 386.79 618.17 393.08 618.85 C 384.71 622.89 375.82 626.41 366.36 626.01 C 366.60 624.11 366.73 622.20 366.77 620.29 Z" />
</g>
<g id="#aaa29cff">
<path fill="#aaa29c" opacity="1.00" d=" M 371.92 73.16 C 388.98 71.48 406.09 74.14 422.83 77.31 C 438.82 79.21 453.50 85.85 467.96 92.54 C 448.62 115.72 428.08 137.86 408.01 160.37 C 396.71 147.23 381.43 137.75 371.71 123.29 C 371.17 106.66 371.19 89.84 371.92 73.16 Z" />
<path fill="#aaa29c" opacity="1.00" d=" M 340.74 77.63 C 349.19 74.99 358.15 74.58 366.95 74.75 C 366.66 91.19 366.20 107.64 366.40 124.09 C 364.81 124.95 363.23 125.82 361.67 126.72 C 358.95 132.37 353.55 135.91 349.58 140.59 C 342.60 149.24 332.23 153.91 323.32 160.21 C 307.85 137.78 292.56 115.24 278.02 92.21 C 298.71 86.37 320.01 83.32 340.74 77.63 Z" />
<path fill="#aaa29c" opacity="1.00" d=" M 230.02 115.05 C 244.28 107.57 258.77 100.41 273.71 94.40 C 284.91 112.38 296.31 130.24 308.12 147.82 C 311.09 153.52 315.89 158.36 317.51 164.69 C 306.81 171.42 297.42 179.91 286.95 186.93 C 278.89 192.85 272.45 200.58 264.98 207.15 C 238.93 186.66 215.16 163.47 189.34 142.69 C 201.26 131.20 216.53 124.36 230.02 115.05 Z" />
<path fill="#aaa29c" opacity="1.00" d=" M 411.15 163.05 C 432.07 140.50 452.19 117.25 473.06 94.67 C 501.31 107.54 528.99 122.72 552.05 143.73 C 523.13 165.44 493.70 186.47 464.10 207.23 C 463.63 206.09 463.17 204.94 462.73 203.80 C 462.05 205.93 461.15 208.00 460.12 209.99 C 455.22 204.86 450.94 199.10 445.27 194.75 C 436.89 188.53 430.00 180.52 421.38 174.60 C 417.84 170.89 414.68 166.79 411.15 163.05 Z" />
<path fill="#aaa29c" opacity="1.00" d=" M 186.27 146.11 C 211.50 167.57 235.58 190.39 261.25 211.30 C 247.63 222.73 236.54 236.87 224.70 250.05 C 192.24 241.83 159.25 235.44 126.62 227.71 C 128.49 219.54 134.72 213.48 138.07 205.98 C 144.67 195.99 152.10 186.59 158.62 176.56 C 168.38 166.91 177.41 156.59 186.27 146.11 Z" />
<path fill="#aaa29c" opacity="1.00" d=" M 462.55 212.82 C 493.75 191.04 524.68 168.63 556.14 147.33 C 563.55 155.46 572.24 162.23 579.74 170.26 C 593.81 182.46 603.87 198.37 614.64 213.38 C 617.77 218.67 621.33 223.95 622.61 230.06 C 582.87 238.40 542.71 244.95 502.78 252.34 C 497.36 247.32 493.89 240.44 487.48 236.50 C 479.27 228.52 471.24 220.29 462.55 212.82 Z" />
<path fill="#aaa29c" opacity="1.00" d=" M 125.02 231.11 C 143.77 235.87 162.63 240.18 181.46 244.65 C 184.69 245.54 188.70 245.53 190.63 248.75 C 191.03 247.60 191.75 247.15 192.80 247.38 C 202.40 249.37 211.83 252.19 221.48 254.04 C 209.53 270.27 198.19 287.09 189.07 305.00 C 158.34 311.29 127.01 314.97 96.25 321.34 C 101.66 296.95 107.10 272.21 117.50 249.38 C 119.97 243.27 122.49 237.19 125.02 231.11 Z" />
<path fill="#aaa29c" opacity="1.00" d=" M 506.34 256.09 C 546.04 249.35 585.45 240.90 625.32 235.21 C 632.44 253.61 635.90 273.09 640.73 292.15 C 642.66 304.38 643.20 316.78 643.84 329.13 C 611.99 322.50 580.48 314.37 548.76 307.17 C 544.69 306.05 539.78 305.55 537.65 301.33 C 527.31 286.24 520.27 268.50 506.34 256.09 Z" />
<path fill="#aaa29c" opacity="1.00" d=" M 96.19 325.45 C 126.41 320.19 156.80 315.57 187.01 310.48 C 180.50 325.73 175.70 341.68 174.35 358.27 C 172.38 365.66 175.55 374.70 169.95 380.85 C 143.60 397.30 117.71 414.56 91.52 431.30 C 90.81 413.18 92.60 395.13 92.18 377.03 C 93.67 359.86 92.92 342.43 96.19 325.45 Z" />
<path fill="#aaa29c" opacity="1.00" d=" M 543.63 310.32 C 576.97 318.47 610.36 326.47 643.80 334.20 C 644.81 353.39 643.16 372.52 643.63 391.69 C 641.98 406.54 644.93 421.33 643.65 436.23 C 614.59 417.14 584.80 399.17 555.87 379.91 C 553.90 369.72 555.79 359.21 554.08 348.98 C 553.52 342.05 550.50 335.69 548.89 328.99 C 547.18 322.75 546.32 316.26 543.63 310.32 Z" />
<path fill="#aaa29c" opacity="1.00" d=" M 554.12 384.57 C 584.25 403.35 614.13 422.70 643.52 442.56 C 643.93 479.92 642.44 517.36 642.70 554.76 C 613.36 534.05 581.92 516.09 552.41 495.55 C 552.26 461.07 554.46 426.53 553.46 392.03 C 553.52 389.53 553.85 387.04 554.12 384.57 Z" />
<path fill="#aaa29c" opacity="1.00" d=" M 92.68 435.84 C 118.41 418.55 145.59 403.45 170.97 385.60 C 170.19 402.38 169.98 419.20 170.95 435.97 C 170.27 456.80 170.63 477.66 169.87 498.49 C 153.70 509.41 137.50 520.27 121.53 531.48 C 118.34 533.42 115.54 536.20 111.81 537.05 C 105.47 543.79 96.75 547.98 89.31 553.48 C 89.87 526.99 89.19 500.49 89.83 474.00 C 89.37 461.26 88.79 447.84 92.68 435.84 Z" />
<path fill="#aaa29c" opacity="1.00" d=" M 174.47 442.02 C 179.48 448.27 183.14 455.50 188.33 461.61 C 195.41 470.24 200.51 480.43 208.44 488.37 C 208.21 491.12 207.82 493.85 207.25 496.55 C 199.36 492.36 194.45 484.78 188.55 478.40 C 187.14 476.51 184.90 478.30 183.27 478.78 C 188.73 488.65 197.86 495.55 204.62 504.39 C 209.24 513.00 212.02 522.52 216.53 531.19 C 214.33 541.62 213.49 552.35 210.40 562.63 C 202.07 568.56 192.73 573.17 185.34 580.34 C 181.98 583.43 178.17 585.98 174.33 588.42 C 173.96 539.62 174.20 490.83 174.47 442.02 Z" />
<path fill="#aaa29c" opacity="1.00" d=" M 552.05 501.47 C 581.75 520.51 611.98 538.90 640.54 559.64 C 641.52 560.13 642.06 560.90 642.15 561.95 C 642.74 597.42 641.44 632.91 641.76 668.37 C 638.15 666.69 634.50 665.07 631.22 662.79 C 605.03 645.44 577.44 630.21 551.61 612.34 C 550.51 605.64 551.01 598.76 551.24 592.00 C 551.46 561.82 552.14 531.65 552.05 501.47 Z" />
<path fill="#aaa29c" opacity="1.00" d=" M 107.96 546.97 C 128.25 532.27 149.32 518.66 170.00 504.50 C 169.74 539.66 169.53 574.82 168.87 609.97 C 142.11 629.44 115.00 648.45 88.01 667.61 C 88.61 631.72 88.59 595.82 89.32 559.92 C 96.04 556.37 101.52 550.97 107.96 546.97 Z" />
<path fill="#aaa29c" opacity="1.00" d=" M 213.71 625.79 C 230.55 608.45 244.87 588.44 264.14 573.60 C 265.02 587.97 264.03 602.51 264.72 616.77 C 257.21 622.20 250.59 628.96 242.38 633.35 C 231.05 634.03 219.68 633.95 208.34 633.03 C 209.96 630.50 211.53 627.89 213.71 625.79 Z" />
<path fill="#aaa29c" opacity="1.00" d=" M 88.59 674.65 C 114.61 654.38 142.23 636.23 168.67 616.50 C 168.15 650.63 168.83 684.67 167.82 718.85 C 140.88 739.46 113.97 760.09 86.96 780.63 C 87.52 745.31 86.91 709.90 88.59 674.65 Z" />
<path fill="#aaa29c" opacity="1.00" d=" M 550.97 617.95 C 580.88 637.25 611.61 655.48 641.20 675.15 C 641.14 710.18 640.61 745.25 640.11 780.29 C 614.74 761.86 589.40 743.37 563.98 724.98 C 559.79 721.50 554.71 719.05 551.16 714.86 C 548.18 711.09 551.46 706.27 550.11 702.02 C 549.72 674.02 550.88 645.97 550.97 617.95 Z" />
<path fill="#aaa29c" opacity="1.00" d=" M 224.16 669.44 C 237.84 667.92 251.40 665.23 264.86 662.59 C 263.37 679.97 264.62 697.43 263.60 714.84 C 245.74 716.18 227.89 714.36 210.02 714.83 C 199.49 713.94 188.92 716.63 178.43 715.06 C 176.76 715.64 174.98 715.65 173.23 715.71 C 173.27 702.43 173.53 689.07 173.59 675.78 C 190.20 671.55 207.39 672.37 224.16 669.44 Z" />
<path fill="#aaa29c" opacity="1.00" d=" M 447.34 718.45 C 454.96 716.42 462.89 717.91 470.64 718.03 C 467.01 719.67 462.56 721.48 461.66 725.86 C 459.62 733.62 458.86 741.71 456.03 749.28 C 445.43 750.20 434.98 752.72 424.29 752.43 C 413.86 752.37 403.40 754.54 393.03 752.63 C 384.27 753.16 375.55 752.99 366.82 752.52 C 366.70 750.92 366.60 749.33 366.50 747.76 C 376.91 746.94 387.33 744.94 397.27 741.68 C 401.92 740.48 403.86 735.37 403.60 730.98 C 410.66 732.07 417.74 730.56 424.75 729.71 C 433.14 728.46 442.07 725.48 447.34 718.45 Z" />
<path fill="#aaa29c" opacity="1.00" d=" M 530.90 718.71 C 536.93 718.90 543.19 718.79 549.08 719.82 C 577.81 741.40 607.17 762.14 635.80 783.85 C 614.03 784.53 592.24 784.13 570.49 783.94 C 568.25 780.25 564.13 778.64 561.04 775.89 C 559.04 773.49 557.15 770.97 554.56 769.18 C 556.00 768.19 558.85 768.07 558.85 765.84 C 559.05 756.37 559.03 745.18 551.69 738.18 C 547.08 736.67 542.96 734.07 538.44 732.43 C 534.31 728.83 534.26 722.87 530.90 718.71 Z" />
<path fill="#aaa29c" opacity="1.00" d=" M 173.26 721.62 C 184.57 721.98 195.84 719.86 207.16 720.55 C 225.74 719.68 244.31 721.53 262.88 720.21 C 263.34 722.58 263.74 724.96 264.11 727.36 C 262.78 727.20 261.46 727.06 260.13 726.93 C 260.47 727.49 261.16 728.62 261.50 729.19 C 258.79 734.15 254.86 738.24 251.73 742.92 C 244.92 742.59 238.18 745.08 231.21 744.57 C 201.17 750.94 169.62 752.55 141.40 765.57 C 139.01 770.13 137.51 779.85 144.36 780.77 C 169.25 774.71 193.61 766.33 218.92 761.79 C 226.19 759.65 233.96 760.86 241.02 757.82 C 235.97 766.32 229.68 774.02 224.06 782.14 C 222.88 784.39 220.35 784.69 218.06 784.63 C 175.59 784.28 133.12 784.56 90.65 784.19 C 93.22 778.15 99.33 775.87 104.25 772.26 C 109.28 766.96 116.50 764.73 121.84 759.81 C 138.97 747.08 156.13 734.29 173.26 721.62 Z" />
<path fill="#aaa29c" opacity="1.00" d=" M 266.46 733.21 C 284.44 737.21 302.90 736.70 321.17 736.37 C 326.95 742.10 335.10 744.87 343.00 746.06 C 349.23 747.91 355.84 748.42 362.27 747.41 C 362.22 749.32 362.17 751.24 362.13 753.17 C 348.15 750.40 334.52 745.74 320.21 744.68 C 300.52 741.31 280.59 738.97 260.58 740.67 C 262.28 737.99 264.42 735.64 266.46 733.21 Z" />
<path fill="#aaa29c" opacity="1.00" d=" M 263.02 756.86 C 273.72 757.02 285.00 753.27 295.22 757.89 C 311.38 760.20 327.95 761.09 343.73 765.58 C 349.41 768.24 355.77 766.54 361.72 768.03 C 361.60 773.57 361.56 779.10 361.27 784.64 C 317.10 784.86 272.89 784.33 228.73 784.63 C 235.60 776.35 241.23 767.14 247.78 758.64 C 252.31 756.11 258.03 757.77 263.02 756.86 Z" />
<path fill="#aaa29c" opacity="1.00" d=" M 406.98 769.32 C 426.00 768.68 444.97 766.90 463.64 763.14 C 470.51 768.52 470.63 778.33 476.17 784.75 C 439.57 784.12 402.97 784.95 366.36 784.77 C 366.66 779.24 366.44 773.71 366.73 768.18 C 380.14 768.42 393.62 767.91 406.98 769.32 Z" />
</g>
<g id="#181317ff">
<path fill="#181317" opacity="1.00" d=" M 409.24 23.61 C 410.79 24.53 412.34 25.57 414.18 25.76 C 434.85 28.57 454.42 36.11 474.48 41.46 C 477.67 41.97 480.86 42.68 483.74 44.22 C 502.48 53.19 521.53 62.09 538.09 74.82 C 543.97 78.99 549.95 83.01 555.84 87.17 C 578.81 107.07 603.73 125.29 622.51 149.49 C 632.53 161.30 642.26 173.45 650.29 186.73 C 665.09 205.72 672.45 228.93 682.57 250.47 C 689.93 268.37 695.32 287.04 698.93 306.03 C 701.45 325.96 701.60 346.02 702.14 366.00 C 701.49 370.20 702.92 374.98 700.46 378.72 C 699.32 449.82 696.96 520.88 696.85 591.98 C 695.81 653.32 694.81 714.65 693.82 775.97 C 693.48 779.09 693.51 782.26 694.40 785.31 C 691.75 804.71 694.91 824.91 692.16 844.15 C 676.35 845.62 660.29 844.42 644.42 845.34 C 643.22 845.75 642.22 846.56 641.15 847.22 C 640.43 846.42 639.72 845.64 639.02 844.86 C 618.02 845.13 596.98 844.84 576.01 846.11 C 512.68 846.03 449.29 845.19 386.00 847.08 C 311.47 846.79 236.96 846.95 162.42 847.32 C 120.67 848.96 78.81 847.57 37.01 848.21 C 34.38 848.24 29.04 850.52 28.59 846.57 C 30.00 763.77 30.08 680.84 31.03 597.98 C 30.93 584.08 32.25 569.94 30.36 556.17 C 31.70 551.90 31.17 547.39 31.24 543.00 C 30.65 505.92 32.53 468.83 31.82 431.79 C 33.29 407.56 31.08 383.03 34.19 359.00 C 33.78 320.17 43.31 281.98 55.37 245.33 C 59.19 231.84 65.05 219.07 71.91 206.88 C 80.00 188.56 91.62 172.19 102.78 155.67 C 112.23 144.20 120.80 131.91 131.92 121.93 C 137.43 115.78 144.16 110.89 149.85 104.99 C 160.64 98.33 169.69 88.95 181.03 83.02 C 191.36 75.32 204.02 71.78 214.83 64.88 C 258.00 45.54 303.52 29.89 350.99 26.08 C 370.24 22.67 390.01 25.05 409.24 23.61 M 371.61 30.96 C 372.45 43.02 371.42 55.09 371.59 67.16 C 389.07 64.82 406.82 67.42 423.96 71.11 C 440.89 73.55 456.58 80.75 472.20 87.36 C 477.34 75.76 483.22 64.50 488.48 52.96 C 478.03 45.86 465.16 44.97 453.35 41.47 C 435.74 35.64 417.44 31.98 398.99 30.15 C 389.85 29.99 380.74 30.77 371.61 30.96 M 258.52 54.19 C 264.47 65.20 268.61 77.01 274.15 88.21 C 284.89 84.78 295.78 81.61 306.97 80.13 C 327.04 75.81 346.72 70.02 367.04 67.00 C 366.76 55.26 367.99 43.46 367.00 31.78 C 330.01 33.66 293.35 41.59 258.52 54.19 M 230.43 66.39 C 227.38 68.41 223.57 65.52 220.45 67.35 C 208.96 73.70 196.57 78.32 185.45 85.37 C 174.97 92.20 164.74 99.55 155.38 107.84 C 164.99 117.22 173.63 127.51 183.19 136.92 C 185.48 139.27 188.06 136.39 190.11 135.21 C 214.70 117.24 241.03 101.70 269.11 89.89 C 264.84 78.35 259.27 67.37 254.58 56.01 C 246.40 59.17 237.95 61.79 230.43 66.39 M 485.17 72.22 C 481.28 77.22 478.85 83.15 476.67 89.04 C 494.12 98.18 511.90 106.84 528.39 117.67 C 536.40 124.44 545.54 129.74 553.20 136.93 C 556.34 139.49 559.25 135.31 559.97 132.51 C 566.60 126.99 571.99 120.04 578.15 113.95 C 552.81 90.93 525.06 69.89 493.88 55.39 C 490.30 60.65 489.04 67.13 485.17 72.22 M 371.92 73.16 C 371.19 89.84 371.17 106.66 371.71 123.29 C 381.43 137.75 396.71 147.23 408.01 160.37 C 428.08 137.86 448.62 115.72 467.96 92.54 C 453.50 85.85 438.82 79.21 422.83 77.31 C 406.09 74.14 388.98 71.48 371.92 73.16 M 340.74 77.63 C 320.01 83.32 298.71 86.37 278.02 92.21 C 292.56 115.24 307.85 137.78 323.32 160.21 C 332.23 153.91 342.60 149.24 349.58 140.59 C 353.55 135.91 358.95 132.37 361.67 126.72 C 363.23 125.82 364.81 124.95 366.40 124.09 C 366.20 107.64 366.66 91.19 366.95 74.75 C 358.15 74.58 349.19 74.99 340.74 77.63 M 230.02 115.05 C 216.53 124.36 201.26 131.20 189.34 142.69 C 215.16 163.47 238.93 186.66 264.98 207.15 C 272.45 200.58 278.89 192.85 286.95 186.93 C 297.42 179.91 306.81 171.42 317.51 164.69 C 315.89 158.36 311.09 153.52 308.12 147.82 C 296.31 130.24 284.91 112.38 273.71 94.40 C 258.77 100.41 244.28 107.57 230.02 115.05 M 411.15 163.05 C 414.68 166.79 417.84 170.89 421.38 174.60 C 430.00 180.52 436.89 188.53 445.27 194.75 C 450.94 199.10 455.22 204.86 460.12 209.99 C 461.15 208.00 462.05 205.93 462.73 203.80 C 463.17 204.94 463.63 206.09 464.10 207.23 C 493.70 186.47 523.13 165.44 552.05 143.73 C 528.99 122.72 501.31 107.54 473.06 94.67 C 452.19 117.25 432.07 140.50 411.15 163.05 M 123.84 137.85 C 105.11 160.80 87.24 185.19 75.68 212.72 C 90.86 215.83 105.44 221.58 120.71 224.08 C 131.83 204.02 144.02 184.47 159.06 167.08 C 167.39 159.62 173.89 150.47 181.94 142.73 C 172.44 131.74 162.23 121.38 152.94 110.22 C 141.74 117.73 133.54 128.65 123.84 137.85 M 565.31 136.32 C 563.24 138.51 560.62 140.43 559.82 143.49 C 576.72 158.77 594.04 174.18 606.50 193.47 C 615.20 203.98 621.73 215.97 628.14 227.95 C 639.16 223.93 649.74 218.94 660.17 213.64 C 654.60 198.96 643.08 187.57 636.42 173.66 C 620.37 153.58 603.46 133.70 583.00 117.93 C 575.90 122.83 571.32 130.30 565.31 136.32 M 369.12 130.02 C 358.47 138.05 351.41 149.96 339.89 156.93 C 331.42 162.22 323.44 168.22 315.34 174.03 C 317.08 181.80 312.56 189.23 313.44 197.05 C 311.01 221.86 313.40 247.00 319.78 271.10 C 320.43 279.27 325.62 285.89 327.64 293.67 C 332.22 288.09 337.24 282.72 340.36 276.13 C 341.78 276.43 343.19 276.78 344.60 277.11 C 345.85 287.53 338.42 296.14 334.35 305.11 C 337.90 313.07 341.31 321.29 347.29 327.79 C 352.83 317.95 359.92 309.06 365.16 299.12 C 366.59 296.65 370.73 298.95 369.38 301.47 C 365.56 309.87 362.69 318.81 357.44 326.49 C 355.45 329.34 354.18 332.57 352.93 335.79 C 361.12 346.16 370.22 355.80 380.35 364.27 C 392.69 345.02 403.94 325.06 416.92 306.24 C 419.20 306.88 422.89 306.86 422.77 310.09 C 422.23 315.88 420.46 321.64 417.65 326.74 C 413.44 347.17 402.62 365.35 393.04 383.66 C 406.82 379.86 421.43 381.57 435.09 377.24 C 428.10 370.38 426.14 360.52 424.44 351.28 C 422.30 339.62 426.62 328.24 428.94 316.96 C 430.98 311.29 427.40 305.73 428.08 299.94 C 423.07 299.99 417.55 296.44 418.11 290.88 C 421.55 290.87 423.60 294.32 426.97 294.34 C 426.29 290.04 422.93 287.20 420.23 284.11 C 424.28 281.23 430.32 287.02 432.13 291.19 C 436.66 291.11 441.35 290.88 445.71 292.33 C 452.88 295.67 456.03 303.31 461.23 308.78 C 472.46 326.99 469.79 349.79 465.21 369.63 C 466.29 369.58 468.43 369.50 469.51 369.46 C 467.83 371.16 465.93 372.68 464.51 374.62 C 461.39 385.15 459.48 396.07 458.85 407.05 C 488.29 417.00 519.98 411.70 550.12 409.17 C 551.05 399.20 547.99 389.41 549.43 379.42 C 548.59 370.26 549.36 361.03 548.25 351.88 C 547.51 340.98 543.05 330.84 540.81 320.23 C 539.04 311.40 532.89 304.58 529.38 296.49 C 522.04 285.84 515.18 274.89 507.35 264.61 C 484.23 237.84 457.89 213.99 431.69 190.31 C 426.20 183.75 418.07 179.94 412.95 173.03 C 405.95 165.38 397.84 158.79 391.31 150.70 C 383.08 144.76 376.16 137.26 369.12 130.02 M 186.27 146.11 C 177.41 156.59 168.38 166.91 158.62 176.56 C 152.10 186.59 144.67 195.99 138.07 205.98 C 134.72 213.48 128.49 219.54 126.62 227.71 C 159.25 235.44 192.24 241.83 224.70 250.05 C 236.54 236.87 247.63 222.73 261.25 211.30 C 235.58 190.39 211.50 167.57 186.27 146.11 M 462.55 212.82 C 471.24 220.29 479.27 228.52 487.48 236.50 C 493.89 240.44 497.36 247.32 502.78 252.34 C 542.71 244.95 582.87 238.40 622.61 230.06 C 621.33 223.95 617.77 218.67 614.64 213.38 C 603.87 198.37 593.81 182.46 579.74 170.26 C 572.24 162.23 563.55 155.46 556.14 147.33 C 524.68 168.63 493.75 191.04 462.55 212.82 M 275.54 205.58 C 269.38 212.78 261.22 217.90 255.03 225.06 C 246.62 234.92 235.75 242.90 229.51 254.40 C 227.81 255.23 225.63 256.43 226.30 258.71 C 228.47 271.85 229.68 285.19 233.23 298.08 C 245.65 281.67 253.19 262.54 262.27 244.25 C 263.25 241.88 265.52 241.02 267.62 242.68 C 262.96 254.88 256.94 266.48 251.14 278.16 C 249.03 282.63 245.05 286.45 245.14 291.70 C 246.56 291.68 247.99 291.67 249.42 291.65 C 252.87 287.91 256.70 284.54 260.11 280.77 C 262.21 279.94 263.87 281.31 265.01 282.95 C 261.20 287.21 255.98 289.96 252.98 295.01 C 245.79 301.04 243.24 310.36 238.15 317.92 C 240.44 321.58 242.95 325.28 243.36 329.71 C 250.52 353.43 263.76 374.78 278.15 394.75 C 284.36 388.71 292.75 384.95 297.70 377.68 C 300.87 363.88 306.01 350.50 307.45 336.31 C 309.20 328.16 308.43 319.25 312.63 311.78 C 317.63 309.37 320.42 303.94 323.66 299.66 C 322.84 287.51 314.56 277.08 313.03 264.98 C 308.84 248.34 306.37 231.27 307.30 214.09 C 308.04 202.30 306.89 190.39 309.18 178.73 C 297.95 187.67 284.87 194.45 275.54 205.58 M 73.22 215.55 C 63.85 236.12 56.37 257.57 51.61 279.63 C 46.51 292.89 45.95 307.28 41.98 320.84 C 58.34 321.16 74.71 321.23 91.06 320.96 C 92.55 310.63 94.12 300.28 97.53 290.38 C 101.98 269.16 110.71 249.30 118.98 229.37 C 103.82 224.47 88.56 219.83 73.22 215.55 M 630.56 233.05 C 632.00 236.35 633.70 239.54 635.01 242.91 C 636.30 254.82 641.46 265.98 643.12 277.91 C 648.03 294.47 648.11 311.85 649.05 328.93 C 664.78 328.89 680.47 328.95 696.17 329.68 C 694.89 290.57 679.75 253.77 662.68 219.16 C 652.07 224.06 641.79 229.64 630.56 233.05 M 125.02 231.11 C 122.49 237.19 119.97 243.27 117.50 249.38 C 107.10 272.21 101.66 296.95 96.25 321.34 C 127.01 314.97 158.34 311.29 189.07 305.00 C 198.19 287.09 209.53 270.27 221.48 254.04 C 211.83 252.19 202.40 249.37 192.80 247.38 C 191.75 247.15 191.03 247.60 190.63 248.75 C 188.70 245.53 184.69 245.54 181.46 244.65 C 162.63 240.18 143.77 235.87 125.02 231.11 M 506.34 256.09 C 520.27 268.50 527.31 286.24 537.65 301.33 C 539.78 305.55 544.69 306.05 548.76 307.17 C 580.48 314.37 611.99 322.50 643.84 329.13 C 643.20 316.78 642.66 304.38 640.73 292.15 C 635.90 273.09 632.44 253.61 625.32 235.21 C 585.45 240.90 546.04 249.35 506.34 256.09 M 200.29 295.40 C 191.19 313.72 182.76 332.91 180.84 353.50 C 185.43 353.26 189.81 354.77 194.15 356.09 C 195.08 348.49 191.45 341.10 193.00 333.55 C 194.69 333.63 196.37 333.73 198.06 333.82 C 204.44 348.67 208.59 365.11 220.46 376.83 C 217.66 361.55 215.85 346.05 212.47 330.86 C 217.72 322.93 223.50 315.29 228.10 306.95 C 230.56 303.66 226.98 300.54 226.65 297.19 C 224.47 286.19 223.59 274.99 221.92 263.91 C 212.88 273.05 207.69 285.03 200.29 295.40 M 432.16 294.91 C 429.47 300.04 430.01 307.13 434.08 311.27 C 439.95 310.77 448.33 310.44 450.58 303.83 C 449.91 295.09 438.83 294.75 432.16 294.91 M 446.81 313.11 C 447.35 326.07 444.45 339.03 446.13 351.96 C 447.29 359.86 453.25 366.29 460.44 369.35 C 462.53 362.05 464.16 354.58 464.04 346.95 C 465.64 333.05 464.17 316.69 453.29 306.65 C 451.24 308.91 449.08 311.07 446.81 313.11 M 96.19 325.45 C 92.92 342.43 93.67 359.86 92.18 377.03 C 92.60 395.13 90.81 413.18 91.52 431.30 C 117.71 414.56 143.60 397.30 169.95 380.85 C 175.55 374.70 172.38 365.66 174.35 358.27 C 175.70 341.68 180.50 325.73 187.01 310.48 C 156.80 315.57 126.41 320.19 96.19 325.45 M 543.63 310.32 C 546.32 316.26 547.18 322.75 548.89 328.99 C 550.50 335.69 553.52 342.05 554.08 348.98 C 555.79 359.21 553.90 369.72 555.87 379.91 C 584.80 399.17 614.59 417.14 643.65 436.23 C 644.93 421.33 641.98 406.54 643.63 391.69 C 643.16 372.52 644.81 353.39 643.80 334.20 C 610.36 326.47 576.97 318.47 543.63 310.32 M 324.64 323.69 C 322.67 334.00 323.25 344.62 321.27 354.96 C 325.82 351.15 331.07 348.28 335.63 344.49 C 338.61 340.84 339.74 335.96 343.26 332.66 C 339.31 325.51 334.75 318.72 331.07 311.41 C 329.68 315.93 325.59 319.05 324.64 323.69 M 435.13 314.23 C 433.84 319.97 432.35 325.81 428.30 330.31 C 430.00 335.34 428.25 340.46 428.23 345.57 C 428.99 356.88 432.38 368.44 440.36 376.78 C 445.97 375.45 451.49 373.76 457.16 372.67 C 450.90 368.73 444.46 363.61 442.88 355.97 C 437.17 342.31 444.04 327.61 442.17 313.50 C 439.82 313.76 437.47 314.00 435.13 314.23 M 42.44 323.97 C 38.54 344.44 42.26 365.62 38.01 385.97 C 38.17 401.32 37.95 416.66 37.98 432.00 C 53.99 432.17 70.01 432.08 86.02 432.00 C 86.44 396.33 85.85 360.59 90.18 325.14 C 74.26 324.98 58.36 324.27 42.44 323.97 M 232.51 362.23 C 238.72 380.93 241.67 400.37 248.15 419.20 C 256.93 411.74 266.89 405.61 274.80 397.16 C 257.91 374.93 243.01 350.21 235.19 323.09 C 226.81 334.96 233.34 349.10 232.51 362.23 M 648.77 333.47 C 648.77 344.30 649.59 355.15 648.91 365.97 C 647.37 377.15 649.24 388.48 647.45 399.64 C 647.31 412.78 646.17 426.02 648.08 439.10 C 663.35 441.01 678.86 439.64 694.23 439.95 C 695.89 416.35 694.16 392.59 696.34 369.00 C 696.39 357.29 697.51 345.65 696.89 333.94 C 680.89 332.73 664.79 333.15 648.77 333.47 M 351.43 340.69 C 348.42 346.49 347.10 352.97 345.20 359.19 C 335.04 365.86 326.52 375.10 315.51 380.43 C 313.34 386.46 312.95 393.04 309.77 398.69 C 319.43 397.99 328.66 394.86 338.15 393.18 C 346.53 392.70 354.66 390.54 362.91 389.16 C 368.30 384.02 372.81 377.90 376.31 371.31 C 377.98 368.15 374.89 365.95 372.65 364.35 C 365.25 356.77 357.67 349.30 351.43 340.69 M 180.52 356.12 C 179.52 364.73 178.64 373.35 177.97 381.99 C 175.42 393.53 177.21 405.34 176.31 417.02 C 175.72 422.36 177.60 428.39 174.30 433.11 C 185.28 449.00 197.12 464.20 208.87 479.51 C 209.75 474.16 210.79 468.80 210.42 463.35 C 212.21 463.24 213.99 463.11 215.79 463.02 C 218.43 474.07 219.00 485.53 221.32 496.64 C 221.82 497.00 222.81 497.71 223.31 498.07 C 227.62 482.58 230.33 466.75 235.70 451.58 C 234.87 440.99 231.07 430.77 229.98 420.16 C 227.65 411.69 227.36 401.77 220.73 395.27 C 208.41 381.13 194.33 368.73 180.52 356.12 M 453.12 383.28 C 451.94 393.84 454.01 404.40 452.96 414.99 C 453.61 418.82 450.91 425.40 456.28 426.46 C 453.18 410.92 454.76 395.15 458.19 379.82 C 456.50 380.97 454.80 382.12 453.12 383.28 M 554.12 384.57 C 553.85 387.04 553.52 389.53 553.46 392.03 C 554.46 426.53 552.26 461.07 552.41 495.55 C 581.92 516.09 613.36 534.05 642.70 554.76 C 642.44 517.36 643.93 479.92 643.52 442.56 C 614.13 422.70 584.25 403.35 554.12 384.57 M 92.68 435.84 C 88.79 447.84 89.37 461.26 89.83 474.00 C 89.19 500.49 89.87 526.99 89.31 553.48 C 96.75 547.98 105.47 543.79 111.81 537.05 C 115.54 536.20 118.34 533.42 121.53 531.48 C 137.50 520.27 153.70 509.41 169.87 498.49 C 170.63 477.66 170.27 456.80 170.95 435.97 C 169.98 419.20 170.19 402.38 170.97 385.60 C 145.59 403.45 118.41 418.55 92.68 435.84 M 424.08 392.86 C 429.86 396.07 435.84 398.93 441.99 401.38 C 441.53 397.29 440.90 393.22 440.11 389.18 C 434.70 390.14 429.39 391.52 424.08 392.86 M 321.03 423.84 C 324.81 429.45 322.10 437.64 327.70 442.21 C 330.22 443.93 332.31 446.20 333.05 449.25 C 335.50 448.83 337.70 449.93 339.52 451.49 C 357.41 464.67 377.16 475.16 397.88 483.12 C 410.83 487.54 423.19 493.77 436.73 496.39 C 443.39 498.94 450.23 501.00 457.31 502.00 C 460.02 497.83 462.22 493.31 463.48 488.49 C 464.81 481.91 469.48 476.77 471.40 470.40 C 472.08 470.20 473.45 469.81 474.14 469.61 C 476.85 472.74 474.75 476.87 473.19 480.02 C 470.90 487.92 466.42 495.02 464.98 503.21 C 478.52 507.16 492.96 507.72 507.02 508.36 C 520.67 508.66 534.65 505.54 548.02 506.59 C 547.90 504.14 547.88 501.70 547.90 499.25 C 547.21 498.45 546.52 497.65 545.84 496.86 C 546.71 495.97 547.58 495.08 548.46 494.21 C 548.76 467.84 549.68 441.52 549.78 415.15 C 519.76 417.03 488.58 420.81 459.26 411.73 C 458.62 417.29 460.74 422.47 461.21 427.84 C 455.57 430.62 449.14 425.23 443.32 428.79 C 442.77 428.48 441.66 427.87 441.10 427.57 C 441.71 420.61 442.43 413.62 441.64 406.64 C 432.22 404.00 424.08 398.21 415.05 394.62 C 382.83 401.23 352.01 413.06 321.03 423.84 M 286.94 430.80 C 281.72 437.29 277.69 444.82 271.32 450.33 C 267.74 453.26 265.62 457.46 262.69 460.96 C 262.33 481.56 257.48 501.71 255.09 522.12 C 255.64 522.72 256.19 523.33 256.74 523.94 C 253.85 527.11 254.33 531.60 253.56 535.54 C 253.01 541.08 250.83 546.39 251.14 552.02 C 255.61 550.97 259.80 548.97 264.31 548.01 C 265.87 532.95 265.42 517.80 265.36 502.70 C 265.70 499.47 269.39 497.86 272.14 497.06 C 281.72 495.16 291.51 494.91 301.18 493.73 C 297.09 483.14 290.90 471.53 296.20 460.14 C 301.73 452.53 309.37 446.51 313.78 438.04 C 310.44 434.41 306.74 431.14 302.68 428.34 C 297.47 429.40 292.25 430.43 286.94 430.80 M 37.96 435.64 C 37.44 475.02 36.09 514.42 37.05 553.80 C 52.98 554.17 68.94 553.99 84.88 554.02 C 85.00 514.62 85.63 475.22 86.76 435.85 C 70.49 435.82 54.21 435.30 37.96 435.64 M 302.59 458.61 C 296.55 464.81 300.06 474.08 301.45 481.44 C 307.28 468.02 324.51 462.20 325.34 446.07 C 323.32 443.46 321.52 440.69 319.81 437.88 C 315.08 445.60 308.90 452.17 302.59 458.61 M 646.97 443.07 C 646.72 481.43 646.20 519.78 647.00 558.15 C 662.05 558.38 677.10 558.23 692.16 558.39 C 693.55 530.95 692.97 503.44 694.10 475.99 C 693.90 465.05 694.81 454.09 693.93 443.17 C 683.96 443.46 673.97 442.94 664.00 442.84 C 658.32 442.88 652.55 441.41 646.97 443.07 M 174.47 442.02 C 174.20 490.83 173.96 539.62 174.33 588.42 C 178.17 585.98 181.98 583.43 185.34 580.34 C 192.73 573.17 202.07 568.56 210.40 562.63 C 213.49 552.35 214.33 541.62 216.53 531.19 C 212.02 522.52 209.24 513.00 204.62 504.39 C 197.86 495.55 188.73 488.65 183.27 478.78 C 184.90 478.30 187.14 476.51 188.55 478.40 C 194.45 484.78 199.36 492.36 207.25 496.55 C 207.82 493.85 208.21 491.12 208.44 488.37 C 200.51 480.43 195.41 470.24 188.33 461.61 C 183.14 455.50 179.48 448.27 174.47 442.02 M 321.36 463.37 C 317.95 469.51 310.62 472.21 307.85 478.84 C 303.32 486.35 303.96 495.99 309.17 502.99 C 313.40 499.55 317.53 495.97 322.22 493.15 C 331.41 481.32 332.72 465.45 328.98 451.30 C 326.12 455.12 323.77 459.27 321.36 463.37 M 334.28 454.90 C 334.49 459.29 336.04 463.52 335.91 467.95 C 335.84 477.69 331.22 486.54 327.54 495.32 C 336.60 494.75 345.03 497.63 353.60 499.75 C 353.61 503.28 352.94 506.83 353.62 510.34 C 355.53 531.06 354.08 551.84 353.14 572.57 C 361.94 566.32 368.38 556.39 371.46 546.08 C 373.19 546.50 375.86 546.29 376.22 548.61 C 377.58 555.13 380.44 561.15 382.78 567.35 C 388.55 565.44 394.61 564.36 400.70 564.38 C 395.67 558.47 396.00 549.99 396.49 542.67 C 398.93 530.29 409.47 520.73 411.33 508.24 C 411.94 507.53 412.56 506.82 413.18 506.13 C 415.91 506.79 418.34 508.36 418.78 511.35 C 421.95 522.87 432.25 531.57 431.12 544.32 C 441.48 534.13 448.10 520.81 454.38 507.86 C 453.33 505.63 450.39 506.21 448.41 505.48 C 417.18 496.88 386.14 486.44 358.16 469.82 C 349.91 465.32 342.39 459.62 334.28 454.90 M 272.75 502.46 C 275.08 506.28 280.01 506.56 283.88 507.96 C 291.76 510.75 300.38 511.55 308.62 510.12 C 306.32 506.27 304.02 502.43 301.83 498.52 C 292.45 501.84 282.29 499.71 272.75 502.46 M 320.66 499.49 C 317.93 501.68 315.04 503.64 312.09 505.52 C 312.29 506.80 312.46 508.09 312.65 509.39 C 313.45 509.81 314.27 510.23 315.09 510.65 C 324.47 508.92 333.44 505.81 342.52 503.01 C 335.59 500.74 328.00 499.79 320.66 499.49 M 552.05 501.47 C 552.14 531.65 551.46 561.82 551.24 592.00 C 551.01 598.76 550.51 605.64 551.61 612.34 C 577.44 630.21 605.03 645.44 631.22 662.79 C 634.50 665.07 638.15 666.69 641.76 668.37 C 641.44 632.91 642.74 597.42 642.15 561.95 C 642.06 560.90 641.52 560.13 640.54 559.64 C 611.98 538.90 581.75 520.51 552.05 501.47 M 107.96 546.97 C 101.52 550.97 96.04 556.37 89.32 559.92 C 88.59 595.82 88.61 631.72 88.01 667.61 C 115.00 648.45 142.11 629.44 168.87 609.97 C 169.53 574.82 169.74 539.66 170.00 504.50 C 149.32 518.66 128.25 532.27 107.96 546.97 M 268.95 505.90 C 270.81 532.19 268.98 558.61 268.94 584.91 C 270.19 632.36 270.02 679.89 268.48 727.28 C 272.62 729.69 277.53 729.54 282.14 730.03 C 295.33 731.05 308.70 731.72 321.78 729.55 C 322.44 720.87 321.87 712.15 322.55 703.47 C 321.57 675.34 323.46 647.23 323.05 619.12 C 329.50 611.11 340.76 611.23 349.78 608.82 C 350.26 606.71 347.70 604.27 347.08 601.99 C 342.94 592.16 348.91 582.11 347.89 572.11 C 350.71 550.60 349.63 528.88 349.92 507.26 C 337.42 510.33 325.24 516.97 311.98 515.42 C 306.35 514.83 300.74 517.32 295.20 515.73 C 286.15 513.39 276.45 511.96 268.95 505.90 M 546.18 511.31 C 536.76 512.46 527.20 511.67 517.75 512.63 C 499.55 513.90 481.43 511.11 463.42 509.12 C 460.56 519.53 457.75 529.90 455.19 540.36 C 471.03 540.97 486.39 534.81 502.26 534.28 C 507.13 534.23 513.86 532.85 516.77 537.94 C 515.87 540.62 512.37 539.48 510.23 539.87 C 507.84 543.23 503.72 542.78 500.10 542.85 C 493.70 547.84 484.90 547.11 477.86 550.85 C 470.32 552.37 462.93 554.58 455.45 556.40 C 448.77 558.06 442.82 562.38 435.78 562.63 C 433.54 562.57 432.33 564.84 430.78 566.09 C 436.33 568.31 442.07 570.11 447.56 572.47 C 450.22 576.40 447.33 581.54 447.88 585.97 C 448.63 597.80 447.99 609.65 448.01 621.48 C 453.75 620.65 459.42 622.06 465.06 622.93 C 491.79 626.19 518.92 627.01 545.74 624.38 C 546.36 620.84 546.78 617.17 545.55 613.71 C 546.84 611.20 546.63 608.36 546.54 605.64 C 546.99 572.94 547.69 540.25 548.19 507.55 C 547.49 508.78 546.83 510.05 546.18 511.31 M 415.35 516.81 C 407.73 528.58 399.21 542.08 402.53 556.78 C 405.55 550.00 409.16 543.53 413.44 537.47 C 417.16 531.71 420.59 522.61 415.35 516.81 M 422.30 530.32 C 419.73 540.10 411.89 547.06 408.30 556.29 C 406.13 561.01 408.26 565.93 411.14 569.77 C 420.50 562.88 425.06 551.14 425.56 539.82 C 425.58 536.38 423.73 533.33 422.30 530.32 M 37.00 557.82 C 36.02 594.88 36.01 631.87 35.99 668.94 C 51.63 668.32 67.37 669.70 82.94 667.82 C 84.18 631.41 83.73 595.00 84.49 558.59 C 68.70 557.44 52.82 558.18 37.00 557.82 M 359.46 574.46 C 350.98 581.76 348.06 596.07 354.79 605.39 C 359.39 591.30 372.22 581.43 375.83 566.87 C 375.77 563.49 374.51 560.28 373.15 557.25 C 368.28 562.78 365.41 569.87 359.46 574.46 M 646.93 562.11 C 645.79 598.31 645.23 634.50 645.06 670.72 C 660.14 674.35 675.68 671.09 690.98 671.89 C 691.00 635.55 692.30 599.21 692.80 562.86 C 677.51 562.59 662.22 562.28 646.93 562.11 M 403.19 569.40 C 398.23 569.21 393.03 569.54 388.55 571.87 C 394.73 575.92 402.25 574.90 409.02 576.67 C 408.07 574.73 406.32 573.48 404.52 572.42 C 404.33 570.77 404.18 569.14 404.00 567.52 C 403.80 567.99 403.39 568.93 403.19 569.40 M 413.57 576.63 C 420.35 577.81 427.13 574.66 433.69 573.15 C 429.78 570.57 424.69 572.18 420.77 569.49 C 417.66 571.06 415.57 573.87 413.57 576.63 M 380.31 570.30 C 376.25 578.57 372.25 587.07 365.73 593.75 C 359.34 599.37 358.70 609.58 364.25 616.02 C 381.56 609.22 388.60 586.48 380.31 570.30 M 213.71 625.79 C 211.53 627.89 209.96 630.50 208.34 633.03 C 219.68 633.95 231.05 634.03 242.38 633.35 C 250.59 628.96 257.21 622.20 264.72 616.77 C 264.03 602.51 265.02 587.97 264.14 573.60 C 244.87 588.44 230.55 608.45 213.71 625.79 M 386.97 575.56 C 387.56 576.82 388.25 578.07 388.66 579.44 C 389.08 590.67 386.78 602.58 379.11 611.22 C 388.28 611.70 397.49 613.47 404.58 619.74 C 403.22 655.42 403.14 691.03 403.70 726.71 C 415.98 727.54 428.63 724.80 439.71 719.41 C 441.25 703.31 440.89 687.13 441.77 670.98 C 440.84 639.88 443.52 608.78 442.36 577.68 C 438.39 577.92 434.45 578.55 430.63 579.65 C 416.18 583.49 400.52 581.72 386.97 575.56 M 329.73 620.71 C 341.00 623.43 352.33 626.30 363.96 626.90 C 363.24 626.20 362.53 625.51 361.83 624.82 C 361.42 621.35 359.92 618.02 357.60 615.42 C 348.32 615.61 337.31 614.44 329.73 620.71 M 366.77 620.29 C 366.73 622.20 366.60 624.11 366.36 626.01 C 375.82 626.41 384.71 622.89 393.08 618.85 C 386.79 618.17 380.59 616.94 374.30 616.23 C 372.54 618.74 369.66 619.76 366.77 620.29 M 88.59 674.65 C 86.91 709.90 87.52 745.31 86.96 780.63 C 113.97 760.09 140.88 739.46 167.82 718.85 C 168.83 684.67 168.15 650.63 168.67 616.50 C 142.23 636.23 114.61 654.38 88.59 674.65 M 550.97 617.95 C 550.88 645.97 549.72 674.02 550.11 702.02 C 551.46 706.27 548.18 711.09 551.16 714.86 C 554.71 719.05 559.79 721.50 563.98 724.98 C 589.40 743.37 614.74 761.86 640.11 780.29 C 640.61 745.25 641.14 710.18 641.20 675.15 C 611.61 655.48 580.88 637.25 550.97 617.95 M 348.33 630.54 C 341.68 628.27 334.66 627.76 327.88 626.03 C 327.16 662.35 326.85 698.66 327.68 734.95 C 332.05 738.75 338.13 738.80 343.38 740.67 C 352.88 744.24 363.38 743.64 373.09 741.29 C 381.68 740.27 390.95 739.45 397.76 733.50 C 400.49 706.38 397.05 679.20 398.84 652.06 C 398.94 642.43 398.56 632.76 399.82 623.19 C 383.80 630.38 365.74 635.06 348.33 630.54 M 447.64 624.73 C 447.46 653.83 447.72 683.56 445.96 712.88 C 454.37 712.57 462.72 713.35 471.09 713.98 C 476.68 714.80 481.17 710.78 486.37 709.63 C 491.80 708.30 497.88 707.33 503.08 710.02 C 510.91 707.71 518.60 711.16 525.92 713.57 C 531.94 713.05 538.00 713.86 544.01 713.13 C 545.83 685.47 545.78 657.71 546.26 629.99 C 524.93 631.25 503.55 630.58 482.17 629.48 C 470.60 628.48 458.84 628.12 447.64 624.73 M 224.16 669.44 C 207.39 672.37 190.20 671.55 173.59 675.78 C 173.53 689.07 173.27 702.43 173.23 715.71 C 174.98 715.65 176.76 715.64 178.43 715.06 C 188.92 716.63 199.49 713.94 210.02 714.83 C 227.89 714.36 245.74 716.18 263.60 714.84 C 264.62 697.43 263.37 679.97 264.86 662.59 C 251.40 665.23 237.84 667.92 224.16 669.44 M 35.90 673.04 C 35.29 710.29 34.67 747.56 35.02 784.86 C 50.63 784.33 66.25 785.04 81.85 784.02 C 81.73 746.95 82.95 710.16 82.89 673.18 C 67.23 673.09 51.57 672.89 35.90 673.04 M 645.14 675.31 C 644.83 711.50 645.19 747.72 644.13 783.91 C 659.05 783.96 673.98 784.27 688.89 783.62 C 689.53 747.74 690.26 711.87 690.64 676.00 C 675.47 675.55 660.27 676.40 645.14 675.31 M 472.24 722.33 C 475.36 725.13 478.79 729.20 483.48 727.73 C 489.37 728.11 493.39 723.51 498.38 721.30 C 501.55 719.97 500.27 715.90 500.69 713.21 C 490.10 710.68 480.19 715.83 472.24 722.33 M 505.78 712.55 C 505.73 715.91 506.09 719.29 505.68 722.65 C 499.37 725.97 494.10 731.42 486.61 731.98 C 489.70 736.07 495.14 737.69 497.75 742.24 C 500.58 748.22 508.34 745.65 513.26 744.19 C 519.97 740.68 527.59 738.37 533.12 733.00 C 529.32 728.78 528.77 722.44 524.16 718.85 C 519.10 714.25 512.23 713.43 505.78 712.55 M 447.34 718.45 C 442.07 725.48 433.14 728.46 424.75 729.71 C 417.74 730.56 410.66 732.07 403.60 730.98 C 403.86 735.37 401.92 740.48 397.27 741.68 C 387.33 744.94 376.91 746.94 366.50 747.76 C 366.60 749.33 366.70 750.92 366.82 752.52 C 375.55 752.99 384.27 753.16 393.03 752.63 C 403.40 754.54 413.86 752.37 424.29 752.43 C 434.98 752.72 445.43 750.20 456.03 749.28 C 458.86 741.71 459.62 733.62 461.66 725.86 C 462.56 721.48 467.01 719.67 470.64 718.03 C 462.89 717.91 454.96 716.42 447.34 718.45 M 530.90 718.71 C 534.26 722.87 534.31 728.83 538.44 732.43 C 542.96 734.07 547.08 736.67 551.69 738.18 C 559.03 745.18 559.05 756.37 558.85 765.84 C 558.85 768.07 556.00 768.19 554.56 769.18 C 557.15 770.97 559.04 773.49 561.04 775.89 C 564.13 778.64 568.25 780.25 570.49 783.94 C 592.24 784.13 614.03 784.53 635.80 783.85 C 607.17 762.14 577.81 741.40 549.08 719.82 C 543.19 718.79 536.93 718.90 530.90 718.71 M 173.26 721.62 C 156.13 734.29 138.97 747.08 121.84 759.81 C 116.50 764.73 109.28 766.96 104.25 772.26 C 99.33 775.87 93.22 778.15 90.65 784.19 C 133.12 784.56 175.59 784.28 218.06 784.63 C 220.35 784.69 222.88 784.39 224.06 782.14 C 229.68 774.02 235.97 766.32 241.02 757.82 C 233.96 760.86 226.19 759.65 218.92 761.79 C 193.61 766.33 169.25 774.71 144.36 780.77 C 137.51 779.85 139.01 770.13 141.40 765.57 C 169.62 752.55 201.17 750.94 231.21 744.57 C 238.18 745.08 244.92 742.59 251.73 742.92 C 254.86 738.24 258.79 734.15 261.50 729.19 C 261.16 728.62 260.47 727.49 260.13 726.93 C 261.46 727.06 262.78 727.20 264.11 727.36 C 263.74 724.96 263.34 722.58 262.88 720.21 C 244.31 721.53 225.74 719.68 207.16 720.55 C 195.84 719.86 184.57 721.98 173.26 721.62 M 466.96 725.53 C 464.23 733.16 462.74 741.30 462.45 749.38 C 462.33 755.99 469.03 758.92 471.94 764.04 C 476.53 770.64 476.01 781.15 484.09 784.98 C 489.78 788.60 496.66 789.15 502.75 791.88 C 504.31 785.58 504.23 778.78 502.49 772.55 C 498.70 764.63 494.55 756.44 495.34 747.42 C 488.44 737.54 476.71 732.28 466.96 725.53 M 266.46 733.21 C 264.42 735.64 262.28 737.99 260.58 740.67 C 280.59 738.97 300.52 741.31 320.21 744.68 C 334.52 745.74 348.15 750.40 362.13 753.17 C 362.17 751.24 362.22 749.32 362.27 747.41 C 355.84 748.42 349.23 747.91 343.00 746.06 C 335.10 744.87 326.95 742.10 321.17 736.37 C 302.90 736.70 284.44 737.21 266.46 733.21 M 510.37 748.38 C 513.24 753.69 516.17 759.74 514.11 765.89 C 526.32 762.32 539.37 763.91 551.27 767.91 C 554.08 765.12 555.94 761.31 555.61 757.29 C 552.26 752.34 551.19 746.30 547.79 741.33 C 543.62 740.79 540.19 738.20 536.38 736.65 C 528.88 742.59 519.65 746.31 510.37 748.38 M 260.10 747.23 C 260.38 748.94 260.65 750.65 260.92 752.39 C 295.03 747.85 328.04 760.25 361.87 761.76 C 361.85 760.34 361.81 758.94 361.78 757.55 C 350.56 755.73 339.67 753.06 328.64 750.31 C 305.99 748.22 282.75 741.05 260.10 747.23 M 213.58 751.55 C 194.34 756.93 173.70 756.09 155.17 764.24 C 150.84 767.12 143.70 768.53 144.46 775.21 C 148.08 774.60 151.77 774.28 155.30 773.24 C 184.54 764.45 214.38 756.99 244.73 753.47 C 244.06 751.72 243.06 750.14 241.84 748.74 C 232.35 749.09 223.08 751.49 213.58 751.55 M 263.02 756.86 C 258.03 757.77 252.31 756.11 247.78 758.64 C 241.23 767.14 235.60 776.35 228.73 784.63 C 272.89 784.33 317.10 784.86 361.27 784.64 C 361.56 779.10 361.60 773.57 361.72 768.03 C 355.77 766.54 349.41 768.24 343.73 765.58 C 327.95 761.09 311.38 760.20 295.22 757.89 C 285.00 753.27 273.72 757.02 263.02 756.86 M 435.42 756.52 C 414.89 758.21 394.12 758.94 373.64 757.31 C 370.14 755.47 366.11 758.15 366.40 762.08 C 374.39 764.61 382.83 762.81 391.02 763.67 C 396.82 764.25 402.65 764.46 408.48 764.40 C 426.14 763.02 444.04 762.84 461.27 758.22 C 454.66 751.56 443.69 755.68 435.42 756.52 M 406.98 769.32 C 393.62 767.91 380.14 768.42 366.73 768.18 C 366.44 773.71 366.66 779.24 366.36 784.77 C 402.97 784.95 439.57 784.12 476.17 784.75 C 470.63 778.33 470.51 768.52 463.64 763.14 C 444.97 766.90 426.00 768.68 406.98 769.32 M 507.40 770.74 C 508.14 777.41 509.34 784.14 508.30 790.86 C 514.32 794.75 521.32 800.16 528.92 797.95 C 536.45 794.92 545.24 798.79 552.47 794.45 C 557.29 791.96 559.62 786.76 563.95 783.72 C 559.96 781.23 556.18 778.49 553.34 774.71 C 549.96 770.78 544.67 771.64 540.14 770.83 C 530.06 764.88 518.12 769.43 507.40 770.74 M 471.15 788.51 C 436.22 788.50 401.36 788.62 366.44 788.52 C 365.63 806.28 366.02 824.07 365.98 841.83 C 412.01 840.90 458.10 841.11 504.16 841.04 C 505.79 826.16 504.55 811.11 505.02 796.16 C 500.07 797.51 496.36 793.18 491.75 792.35 C 487.66 791.63 484.37 789.03 480.67 787.40 C 477.48 787.33 474.39 788.75 471.15 788.51 M 35.19 787.94 C 34.58 806.69 34.91 825.39 34.94 844.09 C 50.48 843.87 66.05 844.41 81.58 843.34 C 80.40 825.00 81.38 806.53 81.85 788.16 C 66.31 787.99 50.72 787.30 35.19 787.94 M 87.03 788.10 C 86.32 795.38 87.85 802.69 86.76 809.95 C 85.81 821.00 87.92 832.32 85.40 843.19 C 119.27 843.24 153.15 842.83 187.03 842.88 C 188.94 842.86 191.04 843.06 192.57 841.69 C 202.45 843.52 212.96 842.37 223.03 842.14 C 222.28 824.09 223.39 806.01 222.97 787.99 C 177.65 788.04 132.34 787.88 87.03 788.10 M 228.19 788.16 C 227.89 800.71 228.32 813.31 227.32 825.84 C 228.13 831.25 228.81 836.71 227.39 842.11 C 234.92 842.46 242.47 842.57 250.01 842.25 C 286.55 841.53 323.14 842.70 359.65 841.38 C 360.46 838.41 360.12 835.37 359.66 832.39 C 362.05 817.97 360.60 803.10 360.77 788.49 C 345.51 788.26 330.20 787.97 315.00 789.21 C 307.21 788.34 299.28 787.92 291.47 788.75 C 285.61 790.29 279.71 787.92 273.78 788.34 C 258.58 787.85 243.39 788.21 228.19 788.16 M 562.74 791.63 C 556.41 798.81 546.47 802.57 537.01 800.98 C 531.84 800.44 526.88 803.53 521.73 802.30 C 517.75 801.50 514.13 799.62 510.56 797.79 C 510.08 812.07 509.95 826.40 510.44 840.67 C 518.08 841.58 525.76 840.49 533.42 840.67 C 568.88 839.83 604.37 840.57 639.84 839.97 C 639.45 822.72 640.23 805.46 639.96 788.21 C 618.79 788.58 597.59 787.58 576.42 788.49 C 571.73 788.40 566.12 787.53 562.74 791.63 M 645.52 788.62 C 643.37 794.90 644.77 801.52 644.17 807.98 C 644.08 810.97 643.38 814.36 645.57 816.83 C 645.24 817.04 644.59 817.47 644.27 817.68 C 644.71 825.11 643.58 832.53 644.10 839.98 C 658.70 840.30 673.32 839.79 687.82 839.10 C 688.11 822.21 688.46 805.32 688.77 788.44 C 674.36 788.22 659.91 788.01 645.52 788.62 Z" />
</g>
<g id="#ece796ff">
<path fill="#ece796" opacity="1.00" d=" M 369.12 130.02 C 376.16 137.26 383.08 144.76 391.31 150.70 C 397.84 158.79 405.95 165.38 412.95 173.03 C 418.07 179.94 426.20 183.75 431.69 190.31 C 457.89 213.99 484.23 237.84 507.35 264.61 C 515.18 274.89 522.04 285.84 529.38 296.49 C 532.89 304.58 539.04 311.40 540.81 320.23 C 543.05 330.84 547.51 340.98 548.25 351.88 C 549.36 361.03 548.59 370.26 549.43 379.42 C 547.99 389.41 551.05 399.20 550.12 409.17 C 519.98 411.70 488.29 417.00 458.85 407.05 C 459.48 396.07 461.39 385.15 464.51 374.62 C 465.93 372.68 467.83 371.16 469.51 369.46 C 468.43 369.50 466.29 369.58 465.21 369.63 C 469.79 349.79 472.46 326.99 461.23 308.78 C 456.03 303.31 452.88 295.67 445.71 292.33 C 441.35 290.88 436.66 291.11 432.13 291.19 C 430.32 287.02 424.28 281.23 420.23 284.11 C 422.93 287.20 426.29 290.04 426.97 294.34 C 423.60 294.32 421.55 290.87 418.11 290.88 C 417.55 296.44 423.07 299.99 428.08 299.94 C 427.40 305.73 430.98 311.29 428.94 316.96 C 426.62 328.24 422.30 339.62 424.44 351.28 C 426.14 360.52 428.10 370.38 435.09 377.24 C 421.43 381.57 406.82 379.86 393.04 383.66 C 402.62 365.35 413.44 347.17 417.65 326.74 C 420.46 321.64 422.23 315.88 422.77 310.09 C 422.89 306.86 419.20 306.88 416.92 306.24 C 403.94 325.06 392.69 345.02 380.35 364.27 C 370.22 355.80 361.12 346.16 352.93 335.79 C 354.18 332.57 355.45 329.34 357.44 326.49 C 362.69 318.81 365.56 309.87 369.38 301.47 C 370.73 298.95 366.59 296.65 365.16 299.12 C 359.92 309.06 352.83 317.95 347.29 327.79 C 341.31 321.29 337.90 313.07 334.35 305.11 C 338.42 296.14 345.85 287.53 344.60 277.11 C 343.19 276.78 341.78 276.43 340.36 276.13 C 337.24 282.72 332.22 288.09 327.64 293.67 C 325.62 285.89 320.43 279.27 319.78 271.10 C 313.40 247.00 311.01 221.86 313.44 197.05 C 312.56 189.23 317.08 181.80 315.34 174.03 C 323.44 168.22 331.42 162.22 339.89 156.93 C 351.41 149.96 358.47 138.05 369.12 130.02 Z" />
<path fill="#ece796" opacity="1.00" d=" M 424.08 392.86 C 429.39 391.52 434.70 390.14 440.11 389.18 C 440.90 393.22 441.53 397.29 441.99 401.38 C 435.84 398.93 429.86 396.07 424.08 392.86 Z" />
<path fill="#ece796" opacity="1.00" d=" M 268.95 505.90 C 276.45 511.96 286.15 513.39 295.20 515.73 C 300.74 517.32 306.35 514.83 311.98 515.42 C 325.24 516.97 337.42 510.33 349.92 507.26 C 349.63 528.88 350.71 550.60 347.89 572.11 C 348.91 582.11 342.94 592.16 347.08 601.99 C 347.70 604.27 350.26 606.71 349.78 608.82 C 340.76 611.23 329.50 611.11 323.05 619.12 C 323.46 647.23 321.57 675.34 322.55 703.47 C 321.87 712.15 322.44 720.87 321.78 729.55 C 308.70 731.72 295.33 731.05 282.14 730.03 C 277.53 729.54 272.62 729.69 268.48 727.28 C 270.02 679.89 270.19 632.36 268.94 584.91 C 268.98 558.61 270.81 532.19 268.95 505.90 Z" />
<path fill="#ece796" opacity="1.00" d=" M 386.97 575.56 C 400.52 581.72 416.18 583.49 430.63 579.65 C 434.45 578.55 438.39 577.92 442.36 577.68 C 443.52 608.78 440.84 639.88 441.77 670.98 C 440.89 687.13 441.25 703.31 439.71 719.41 C 428.63 724.80 415.98 727.54 403.70 726.71 C 403.14 691.03 403.22 655.42 404.58 619.74 C 397.49 613.47 388.28 611.70 379.11 611.22 C 386.78 602.58 389.08 590.67 388.66 579.44 C 388.25 578.07 387.56 576.82 386.97 575.56 Z" />
<path fill="#ece796" opacity="1.00" d=" M 348.33 630.54 C 365.74 635.06 383.80 630.38 399.82 623.19 C 398.56 632.76 398.94 642.43 398.84 652.06 C 397.05 679.20 400.49 706.38 397.76 733.50 C 390.95 739.45 381.68 740.27 373.09 741.29 C 363.38 743.64 352.88 744.24 343.38 740.67 C 338.13 738.80 332.05 738.75 327.68 734.95 C 326.85 698.66 327.16 662.35 327.88 626.03 C 334.66 627.76 341.68 628.27 348.33 630.54 Z" />
</g>
<g id="#ccd8e6ff">
<path fill="#ccd8e6" opacity="1.00" d=" M 275.54 205.58 C 284.87 194.45 297.95 187.67 309.18 178.73 C 306.89 190.39 308.04 202.30 307.30 214.09 C 306.37 231.27 308.84 248.34 313.03 264.98 C 314.56 277.08 322.84 287.51 323.66 299.66 C 320.42 303.94 317.63 309.37 312.63 311.78 C 308.43 319.25 309.20 328.16 307.45 336.31 C 306.01 350.50 300.87 363.88 297.70 377.68 C 292.75 384.95 284.36 388.71 278.15 394.75 C 263.76 374.78 250.52 353.43 243.36 329.71 C 242.95 325.28 240.44 321.58 238.15 317.92 C 243.24 310.36 245.79 301.04 252.98 295.01 C 255.98 289.96 261.20 287.21 265.01 282.95 C 263.87 281.31 262.21 279.94 260.11 280.77 C 256.70 284.54 252.87 287.91 249.42 291.65 C 247.99 291.67 246.56 291.68 245.14 291.70 C 245.05 286.45 249.03 282.63 251.14 278.16 C 256.94 266.48 262.96 254.88 267.62 242.68 C 265.52 241.02 263.25 241.88 262.27 244.25 C 253.19 262.54 245.65 281.67 233.23 298.08 C 229.68 285.19 228.47 271.85 226.30 258.71 C 225.63 256.43 227.81 255.23 229.51 254.40 C 235.75 242.90 246.62 234.92 255.03 225.06 C 261.22 217.90 269.38 212.78 275.54 205.58 Z" />
<path fill="#ccd8e6" opacity="1.00" d=" M 324.64 323.69 C 325.59 319.05 329.68 315.93 331.07 311.41 C 334.75 318.72 339.31 325.51 343.26 332.66 C 339.74 335.96 338.61 340.84 335.63 344.49 C 331.07 348.28 325.82 351.15 321.27 354.96 C 323.25 344.62 322.67 334.00 324.64 323.69 Z" />
<path fill="#ccd8e6" opacity="1.00" d=" M 351.43 340.69 C 357.67 349.30 365.25 356.77 372.65 364.35 C 374.89 365.95 377.98 368.15 376.31 371.31 C 372.81 377.90 368.30 384.02 362.91 389.16 C 354.66 390.54 346.53 392.70 338.15 393.18 C 328.66 394.86 319.43 397.99 309.77 398.69 C 312.95 393.04 313.34 386.46 315.51 380.43 C 326.52 375.10 335.04 365.86 345.20 359.19 C 347.10 352.97 348.42 346.49 351.43 340.69 Z" />
<path fill="#ccd8e6" opacity="1.00" d=" M 321.03 423.84 C 352.01 413.06 382.83 401.23 415.05 394.62 C 424.08 398.21 432.22 404.00 441.64 406.64 C 442.43 413.62 441.71 420.61 441.10 427.57 C 441.66 427.87 442.77 428.48 443.32 428.79 C 449.14 425.23 455.57 430.62 461.21 427.84 C 460.74 422.47 458.62 417.29 459.26 411.73 C 488.58 420.81 519.76 417.03 549.78 415.15 C 549.68 441.52 548.76 467.84 548.46 494.21 C 547.58 495.08 546.71 495.97 545.84 496.86 C 546.52 497.65 547.21 498.45 547.90 499.25 C 547.88 501.70 547.90 504.14 548.02 506.59 C 534.65 505.54 520.67 508.66 507.02 508.36 C 492.96 507.72 478.52 507.16 464.98 503.21 C 466.42 495.02 470.90 487.92 473.19 480.02 C 474.75 476.87 476.85 472.74 474.14 469.61 C 473.45 469.81 472.08 470.20 471.40 470.40 C 469.48 476.77 464.81 481.91 463.48 488.49 C 462.22 493.31 460.02 497.83 457.31 502.00 C 450.23 501.00 443.39 498.94 436.73 496.39 C 423.19 493.77 410.83 487.54 397.88 483.12 C 377.16 475.16 357.41 464.67 339.52 451.49 C 337.70 449.93 335.50 448.83 333.05 449.25 C 332.31 446.20 330.22 443.93 327.70 442.21 C 322.10 437.64 324.81 429.45 321.03 423.84 Z" />
<path fill="#ccd8e6" opacity="1.00" d=" M 472.24 722.33 C 480.19 715.83 490.10 710.68 500.69 713.21 C 500.27 715.90 501.55 719.97 498.38 721.30 C 493.39 723.51 489.37 728.11 483.48 727.73 C 478.79 729.20 475.36 725.13 472.24 722.33 Z" />
<path fill="#ccd8e6" opacity="1.00" d=" M 505.78 712.55 C 512.23 713.43 519.10 714.25 524.16 718.85 C 528.77 722.44 529.32 728.78 533.12 733.00 C 527.59 738.37 519.97 740.68 513.26 744.19 C 508.34 745.65 500.58 748.22 497.75 742.24 C 495.14 737.69 489.70 736.07 486.61 731.98 C 494.10 731.42 499.37 725.97 505.68 722.65 C 506.09 719.29 505.73 715.91 505.78 712.55 Z" />
<path fill="#ccd8e6" opacity="1.00" d=" M 466.96 725.53 C 476.71 732.28 488.44 737.54 495.34 747.42 C 494.55 756.44 498.70 764.63 502.49 772.55 C 504.23 778.78 504.31 785.58 502.75 791.88 C 496.66 789.15 489.78 788.60 484.09 784.98 C 476.01 781.15 476.53 770.64 471.94 764.04 C 469.03 758.92 462.33 755.99 462.45 749.38 C 462.74 741.30 464.23 733.16 466.96 725.53 Z" />
<path fill="#ccd8e6" opacity="1.00" d=" M 510.37 748.38 C 519.65 746.31 528.88 742.59 536.38 736.65 C 540.19 738.20 543.62 740.79 547.79 741.33 C 551.19 746.30 552.26 752.34 555.61 757.29 C 555.94 761.31 554.08 765.12 551.27 767.91 C 539.37 763.91 526.32 762.32 514.11 765.89 C 516.17 759.74 513.24 753.69 510.37 748.38 Z" />
<path fill="#ccd8e6" opacity="1.00" d=" M 507.40 770.74 C 518.12 769.43 530.06 764.88 540.14 770.83 C 544.67 771.64 549.96 770.78 553.34 774.71 C 556.18 778.49 559.96 781.23 563.95 783.72 C 559.62 786.76 557.29 791.96 552.47 794.45 C 545.24 798.79 536.45 794.92 528.92 797.95 C 521.32 800.16 514.32 794.75 508.30 790.86 C 509.34 784.14 508.14 777.41 507.40 770.74 Z" />
</g>
<g id="#a6bbd6ff">
<path fill="#a6bbd6" opacity="1.00" d=" M 200.29 295.40 C 207.69 285.03 212.88 273.05 221.92 263.91 C 223.59 274.99 224.47 286.19 226.65 297.19 C 226.98 300.54 230.56 303.66 228.10 306.95 C 223.50 315.29 217.72 322.93 212.47 330.86 C 215.85 346.05 217.66 361.55 220.46 376.83 C 208.59 365.11 204.44 348.67 198.06 333.82 C 196.37 333.73 194.69 333.63 193.00 333.55 C 191.45 341.10 195.08 348.49 194.15 356.09 C 189.81 354.77 185.43 353.26 180.84 353.50 C 182.76 332.91 191.19 313.72 200.29 295.40 Z" />
<path fill="#a6bbd6" opacity="1.00" d=" M 232.51 362.23 C 233.34 349.10 226.81 334.96 235.19 323.09 C 243.01 350.21 257.91 374.93 274.80 397.16 C 266.89 405.61 256.93 411.74 248.15 419.20 C 241.67 400.37 238.72 380.93 232.51 362.23 Z" />
<path fill="#a6bbd6" opacity="1.00" d=" M 180.52 356.12 C 194.33 368.73 208.41 381.13 220.73 395.27 C 227.36 401.77 227.65 411.69 229.98 420.16 C 231.07 430.77 234.87 440.99 235.70 451.58 C 230.33 466.75 227.62 482.58 223.31 498.07 C 222.81 497.71 221.82 497.00 221.32 496.64 C 219.00 485.53 218.43 474.07 215.79 463.02 C 213.99 463.11 212.21 463.24 210.42 463.35 C 210.79 468.80 209.75 474.16 208.87 479.51 C 197.12 464.20 185.28 449.00 174.30 433.11 C 177.60 428.39 175.72 422.36 176.31 417.02 C 177.21 405.34 175.42 393.53 177.97 381.99 C 178.64 373.35 179.52 364.73 180.52 356.12 Z" />
<path fill="#a6bbd6" opacity="1.00" d=" M 286.94 430.80 C 292.25 430.43 297.47 429.40 302.68 428.34 C 306.74 431.14 310.44 434.41 313.78 438.04 C 309.37 446.51 301.73 452.53 296.20 460.14 C 290.90 471.53 297.09 483.14 301.18 493.73 C 291.51 494.91 281.72 495.16 272.14 497.06 C 269.39 497.86 265.70 499.47 265.36 502.70 C 265.42 517.80 265.87 532.95 264.31 548.01 C 259.80 548.97 255.61 550.97 251.14 552.02 C 250.83 546.39 253.01 541.08 253.56 535.54 C 254.33 531.60 253.85 527.11 256.74 523.94 C 256.19 523.33 255.64 522.72 255.09 522.12 C 257.48 501.71 262.33 481.56 262.69 460.96 C 265.62 457.46 267.74 453.26 271.32 450.33 C 277.69 444.82 281.72 437.29 286.94 430.80 Z" />
<path fill="#a6bbd6" opacity="1.00" d=" M 334.28 454.90 C 342.39 459.62 349.91 465.32 358.16 469.82 C 386.14 486.44 417.18 496.88 448.41 505.48 C 450.39 506.21 453.33 505.63 454.38 507.86 C 448.10 520.81 441.48 534.13 431.12 544.32 C 432.25 531.57 421.95 522.87 418.78 511.35 C 418.34 508.36 415.91 506.79 413.18 506.13 C 412.56 506.82 411.94 507.53 411.33 508.24 C 409.47 520.73 398.93 530.29 396.49 542.67 C 396.00 549.99 395.67 558.47 400.70 564.38 C 394.61 564.36 388.55 565.44 382.78 567.35 C 380.44 561.15 377.58 555.13 376.22 548.61 C 375.86 546.29 373.19 546.50 371.46 546.08 C 368.38 556.39 361.94 566.32 353.14 572.57 C 354.08 551.84 355.53 531.06 353.62 510.34 C 352.94 506.83 353.61 503.28 353.60 499.75 C 345.03 497.63 336.60 494.75 327.54 495.32 C 331.22 486.54 335.84 477.69 335.91 467.95 C 336.04 463.52 334.49 459.29 334.28 454.90 Z" />
<path fill="#a6bbd6" opacity="1.00" d=" M 546.18 511.31 C 546.83 510.05 547.49 508.78 548.19 507.55 C 547.69 540.25 546.99 572.94 546.54 605.64 C 546.63 608.36 546.84 611.20 545.55 613.71 C 546.78 617.17 546.36 620.84 545.74 624.38 C 518.92 627.01 491.79 626.19 465.06 622.93 C 459.42 622.06 453.75 620.65 448.01 621.48 C 447.99 609.65 448.63 597.80 447.88 585.97 C 447.33 581.54 450.22 576.40 447.56 572.47 C 442.07 570.11 436.33 568.31 430.78 566.09 C 432.33 564.84 433.54 562.57 435.78 562.63 C 442.82 562.38 448.77 558.06 455.45 556.40 C 462.93 554.58 470.32 552.37 477.86 550.85 C 484.90 547.11 493.70 547.84 500.10 542.85 C 503.72 542.78 507.84 543.23 510.23 539.87 C 512.37 539.48 515.87 540.62 516.77 537.94 C 513.86 532.85 507.13 534.23 502.26 534.28 C 486.39 534.81 471.03 540.97 455.19 540.36 C 457.75 529.90 460.56 519.53 463.42 509.12 C 481.43 511.11 499.55 513.90 517.75 512.63 C 527.20 511.67 536.76 512.46 546.18 511.31 Z" />
</g>
<g id="#a05e49ff">
<path fill="#a05e49" opacity="1.00" d=" M 432.16 294.91 C 438.83 294.75 449.91 295.09 450.58 303.83 C 448.33 310.44 439.95 310.77 434.08 311.27 C 430.01 307.13 429.47 300.04 432.16 294.91 Z" />
<path fill="#a05e49" opacity="1.00" d=" M 446.81 313.11 C 449.08 311.07 451.24 308.91 453.29 306.65 C 464.17 316.69 465.64 333.05 464.04 346.95 C 464.16 354.58 462.53 362.05 460.44 369.35 C 453.25 366.29 447.29 359.86 446.13 351.96 C 444.45 339.03 447.35 326.07 446.81 313.11 Z" />
<path fill="#a05e49" opacity="1.00" d=" M 435.13 314.23 C 437.47 314.00 439.82 313.76 442.17 313.50 C 444.04 327.61 437.17 342.31 442.88 355.97 C 444.46 363.61 450.90 368.73 457.16 372.67 C 451.49 373.76 445.97 375.45 440.36 376.78 C 432.38 368.44 428.99 356.88 428.23 345.57 C 428.25 340.46 430.00 335.34 428.30 330.31 C 432.35 325.81 433.84 319.97 435.13 314.23 Z" />
<path fill="#a05e49" opacity="1.00" d=" M 453.12 383.28 C 454.80 382.12 456.50 380.97 458.19 379.82 C 454.76 395.15 453.18 410.92 456.28 426.46 C 450.91 425.40 453.61 418.82 452.96 414.99 C 454.01 404.40 451.94 393.84 453.12 383.28 Z" />
</g>
<g id="#d89f1bff">
<path fill="#d89f1b" opacity="1.00" d=" M 302.59 458.61 C 308.90 452.17 315.08 445.60 319.81 437.88 C 321.52 440.69 323.32 443.46 325.34 446.07 C 324.51 462.20 307.28 468.02 301.45 481.44 C 300.06 474.08 296.55 464.81 302.59 458.61 Z" />
<path fill="#d89f1b" opacity="1.00" d=" M 415.35 516.81 C 420.59 522.61 417.16 531.71 413.44 537.47 C 409.16 543.53 405.55 550.00 402.53 556.78 C 399.21 542.08 407.73 528.58 415.35 516.81 Z" />
<path fill="#d89f1b" opacity="1.00" d=" M 359.46 574.46 C 365.41 569.87 368.28 562.78 373.15 557.25 C 374.51 560.28 375.77 563.49 375.83 566.87 C 372.22 581.43 359.39 591.30 354.79 605.39 C 348.06 596.07 350.98 581.76 359.46 574.46 Z" />
<path fill="#d89f1b" opacity="1.00" d=" M 260.10 747.23 C 282.75 741.05 305.99 748.22 328.64 750.31 C 339.67 753.06 350.56 755.73 361.78 757.55 C 361.81 758.94 361.85 760.34 361.87 761.76 C 328.04 760.25 295.03 747.85 260.92 752.39 C 260.65 750.65 260.38 748.94 260.10 747.23 Z" />
<path fill="#d89f1b" opacity="1.00" d=" M 213.58 751.55 C 223.08 751.49 232.35 749.09 241.84 748.74 C 243.06 750.14 244.06 751.72 244.73 753.47 C 214.38 756.99 184.54 764.45 155.30 773.24 C 151.77 774.28 148.08 774.60 144.46 775.21 C 143.70 768.53 150.84 767.12 155.17 764.24 C 173.70 756.09 194.34 756.93 213.58 751.55 Z" />
<path fill="#d89f1b" opacity="1.00" d=" M 435.42 756.52 C 443.69 755.68 454.66 751.56 461.27 758.22 C 444.04 762.84 426.14 763.02 408.48 764.40 C 402.65 764.46 396.82 764.25 391.02 763.67 C 382.83 762.81 374.39 764.61 366.40 762.08 C 366.11 758.15 370.14 755.47 373.64 757.31 C 394.12 758.94 414.89 758.21 435.42 756.52 Z" />
</g>
<g id="#d3461aff">
<path fill="#d3461a" opacity="1.00" d=" M 321.36 463.37 C 323.77 459.27 326.12 455.12 328.98 451.30 C 332.72 465.45 331.41 481.32 322.22 493.15 C 317.53 495.97 313.40 499.55 309.17 502.99 C 303.96 495.99 303.32 486.35 307.85 478.84 C 310.62 472.21 317.95 469.51 321.36 463.37 Z" />
<path fill="#d3461a" opacity="1.00" d=" M 422.30 530.32 C 423.73 533.33 425.58 536.38 425.56 539.82 C 425.06 551.14 420.50 562.88 411.14 569.77 C 408.26 565.93 406.13 561.01 408.30 556.29 C 411.89 547.06 419.73 540.10 422.30 530.32 Z" />
<path fill="#d3461a" opacity="1.00" d=" M 380.31 570.30 C 388.60 586.48 381.56 609.22 364.25 616.02 C 358.70 609.58 359.34 599.37 365.73 593.75 C 372.25 587.07 376.25 578.57 380.31 570.30 Z" />
</g>
</svg>
