<?xml version="1.0" encoding="UTF-8" standalone="no"?>
<svg
   xmlns:dc="http://purl.org/dc/elements/1.1/"
   xmlns:cc="http://creativecommons.org/ns#"
   xmlns:rdf="http://www.w3.org/1999/02/22-rdf-syntax-ns#"
   xmlns:svg="http://www.w3.org/2000/svg"
   xmlns="http://www.w3.org/2000/svg"
   xmlns:sodipodi="http://sodipodi.sourceforge.net/DTD/sodipodi-0.dtd"
   xmlns:inkscape="http://www.inkscape.org/namespaces/inkscape"
   width="736pt"
   height="910pt"
   viewBox="0 0 736 910"
   version="1.1"
   id="svg6336"
   inkscape:version="0.48.4 r9939"
   sodipodi:docname="melaphine.svg">
  <metadata
     id="metadata6530">
    <rdf:RDF>
      <cc:Work
         rdf:about="">
        <dc:format>image/svg+xml</dc:format>
        <dc:type
           rdf:resource="http://purl.org/dc/dcmitype/StillImage" />
        <dc:title></dc:title>
      </cc:Work>
    </rdf:RDF>
  </metadata>
  <defs
     id="defs6528">
    <filter
       id="filter6557"
       inkscape:label="Glow"
       inkscape:menu="Shadows and Glows"
       inkscape:menu-tooltip="Glow of object's own color at the edges"
       color-interpolation-filters="sRGB">
      <feGaussianBlur
         id="feGaussianBlur6559"
         stdDeviation="5"
         result="result91" />
      <feComposite
         id="feComposite6561"
         in2="result91"
         in="SourceGraphic"
         operator="over" />
    </filter>
    <filter
       id="filter6563"
       inkscape:label="Glow"
       inkscape:menu="Shadows and Glows"
       inkscape:menu-tooltip="Glow of object's own color at the edges"
       color-interpolation-filters="sRGB">
      <feGaussianBlur
         id="feGaussianBlur6565"
         stdDeviation="5"
         result="result91" />
      <feComposite
         id="feComposite6567"
         in2="result91"
         in="SourceGraphic"
         operator="over" />
    </filter>
    <filter
       id="filter6569"
       inkscape:label="Glow"
       inkscape:menu="Shadows and Glows"
       inkscape:menu-tooltip="Glow of object's own color at the edges"
       color-interpolation-filters="sRGB">
      <feGaussianBlur
         id="feGaussianBlur6571"
         stdDeviation="5"
         result="result91" />
      <feComposite
         id="feComposite6573"
         in2="result91"
         in="SourceGraphic"
         operator="over" />
    </filter>
    <filter
       id="filter6575"
       inkscape:label="Glow"
       inkscape:menu="Shadows and Glows"
       inkscape:menu-tooltip="Glow of object's own color at the edges"
       color-interpolation-filters="sRGB">
      <feGaussianBlur
         id="feGaussianBlur6577"
         stdDeviation="5"
         result="result91" />
      <feComposite
         id="feComposite6579"
         in2="result91"
         in="SourceGraphic"
         operator="over" />
    </filter>
    <filter
       id="filter6581"
       inkscape:label="Glow"
       inkscape:menu="Shadows and Glows"
       inkscape:menu-tooltip="Glow of object's own color at the edges"
       color-interpolation-filters="sRGB">
      <feGaussianBlur
         id="feGaussianBlur6583"
         stdDeviation="5"
         result="result91" />
      <feComposite
         id="feComposite6585"
         in2="result91"
         in="SourceGraphic"
         operator="over" />
    </filter>
    <filter
       id="filter6587"
       inkscape:label="Glow"
       inkscape:menu="Shadows and Glows"
       inkscape:menu-tooltip="Glow of object's own color at the edges"
       color-interpolation-filters="sRGB">
      <feGaussianBlur
         id="feGaussianBlur6589"
         stdDeviation="5"
         result="result91" />
      <feComposite
         id="feComposite6591"
         in2="result91"
         in="SourceGraphic"
         operator="over" />
    </filter>
    <filter
       id="filter6593"
       inkscape:label="Glow"
       inkscape:menu="Shadows and Glows"
       inkscape:menu-tooltip="Glow of object's own color at the edges"
       color-interpolation-filters="sRGB">
      <feGaussianBlur
         id="feGaussianBlur6595"
         stdDeviation="5"
         result="result91" />
      <feComposite
         id="feComposite6597"
         in2="result91"
         in="SourceGraphic"
         operator="over" />
    </filter>
    <filter
       id="filter6599"
       inkscape:label="Glow"
       inkscape:menu="Shadows and Glows"
       inkscape:menu-tooltip="Glow of object's own color at the edges"
       color-interpolation-filters="sRGB">
      <feGaussianBlur
         id="feGaussianBlur6601"
         stdDeviation="5"
         result="result91" />
      <feComposite
         id="feComposite6603"
         in2="result91"
         in="SourceGraphic"
         operator="over" />
    </filter>
    <filter
       id="filter6605"
       inkscape:label="Glow"
       inkscape:menu="Shadows and Glows"
       inkscape:menu-tooltip="Glow of object's own color at the edges"
       color-interpolation-filters="sRGB">
      <feGaussianBlur
         id="feGaussianBlur6607"
         stdDeviation="5"
         result="result91" />
      <feComposite
         id="feComposite6609"
         in2="result91"
         in="SourceGraphic"
         operator="over" />
    </filter>
    <filter
       id="filter6611"
       inkscape:label="Glow"
       inkscape:menu="Shadows and Glows"
       inkscape:menu-tooltip="Glow of object's own color at the edges"
       color-interpolation-filters="sRGB">
      <feGaussianBlur
         id="feGaussianBlur6613"
         stdDeviation="5"
         result="result91" />
      <feComposite
         id="feComposite6615"
         in2="result91"
         in="SourceGraphic"
         operator="over" />
    </filter>
    <filter
       id="filter6617"
       inkscape:label="Glow"
       inkscape:menu="Shadows and Glows"
       inkscape:menu-tooltip="Glow of object's own color at the edges"
       color-interpolation-filters="sRGB">
      <feGaussianBlur
         id="feGaussianBlur6619"
         stdDeviation="5"
         result="result91" />
      <feComposite
         id="feComposite6621"
         in2="result91"
         in="SourceGraphic"
         operator="over" />
    </filter>
    <filter
       id="filter6623"
       inkscape:label="Glow"
       inkscape:menu="Shadows and Glows"
       inkscape:menu-tooltip="Glow of object's own color at the edges"
       color-interpolation-filters="sRGB">
      <feGaussianBlur
         id="feGaussianBlur6625"
         stdDeviation="5"
         result="result91" />
      <feComposite
         id="feComposite6627"
         in2="result91"
         in="SourceGraphic"
         operator="over" />
    </filter>
    <filter
       id="filter6629"
       inkscape:label="Glow"
       inkscape:menu="Shadows and Glows"
       inkscape:menu-tooltip="Glow of object's own color at the edges"
       color-interpolation-filters="sRGB">
      <feGaussianBlur
         id="feGaussianBlur6631"
         stdDeviation="5"
         result="result91" />
      <feComposite
         id="feComposite6633"
         in2="result91"
         in="SourceGraphic"
         operator="over" />
    </filter>
    <filter
       id="filter6635"
       inkscape:label="Glow"
       inkscape:menu="Shadows and Glows"
       inkscape:menu-tooltip="Glow of object's own color at the edges"
       color-interpolation-filters="sRGB">
      <feGaussianBlur
         id="feGaussianBlur6637"
         stdDeviation="5"
         result="result91" />
      <feComposite
         id="feComposite6639"
         in2="result91"
         in="SourceGraphic"
         operator="over" />
    </filter>
    <filter
       id="filter6641"
       inkscape:label="Glow"
       inkscape:menu="Shadows and Glows"
       inkscape:menu-tooltip="Glow of object's own color at the edges"
       color-interpolation-filters="sRGB">
      <feGaussianBlur
         id="feGaussianBlur6643"
         stdDeviation="5"
         result="result91" />
      <feComposite
         id="feComposite6645"
         in2="result91"
         in="SourceGraphic"
         operator="over" />
    </filter>
    <filter
       id="filter6647"
       inkscape:label="Glow"
       inkscape:menu="Shadows and Glows"
       inkscape:menu-tooltip="Glow of object's own color at the edges"
       color-interpolation-filters="sRGB">
      <feGaussianBlur
         id="feGaussianBlur6649"
         stdDeviation="5"
         result="result91" />
      <feComposite
         id="feComposite6651"
         in2="result91"
         in="SourceGraphic"
         operator="over" />
    </filter>
    <filter
       id="filter6653"
       inkscape:label="Glow"
       inkscape:menu="Shadows and Glows"
       inkscape:menu-tooltip="Glow of object's own color at the edges"
       color-interpolation-filters="sRGB">
      <feGaussianBlur
         id="feGaussianBlur6655"
         stdDeviation="5"
         result="result91" />
      <feComposite
         id="feComposite6657"
         in2="result91"
         in="SourceGraphic"
         operator="over" />
    </filter>
    <filter
       id="filter6659"
       inkscape:label="Glow"
       inkscape:menu="Shadows and Glows"
       inkscape:menu-tooltip="Glow of object's own color at the edges"
       color-interpolation-filters="sRGB">
      <feGaussianBlur
         id="feGaussianBlur6661"
         stdDeviation="5"
         result="result91" />
      <feComposite
         id="feComposite6663"
         in2="result91"
         in="SourceGraphic"
         operator="over" />
    </filter>
    <filter
       id="filter6665"
       inkscape:label="Glow"
       inkscape:menu="Shadows and Glows"
       inkscape:menu-tooltip="Glow of object's own color at the edges"
       color-interpolation-filters="sRGB">
      <feGaussianBlur
         id="feGaussianBlur6667"
         stdDeviation="5"
         result="result91" />
      <feComposite
         id="feComposite6669"
         in2="result91"
         in="SourceGraphic"
         operator="over" />
    </filter>
    <filter
       id="filter6671"
       inkscape:label="Glow"
       inkscape:menu="Shadows and Glows"
       inkscape:menu-tooltip="Glow of object's own color at the edges"
       color-interpolation-filters="sRGB">
      <feGaussianBlur
         id="feGaussianBlur6673"
         stdDeviation="5"
         result="result91" />
      <feComposite
         id="feComposite6675"
         in2="result91"
         in="SourceGraphic"
         operator="over" />
    </filter>
    <filter
       id="filter6677"
       inkscape:label="Glow"
       inkscape:menu="Shadows and Glows"
       inkscape:menu-tooltip="Glow of object's own color at the edges"
       color-interpolation-filters="sRGB">
      <feGaussianBlur
         id="feGaussianBlur6679"
         stdDeviation="5"
         result="result91" />
      <feComposite
         id="feComposite6681"
         in2="result91"
         in="SourceGraphic"
         operator="over" />
    </filter>
    <filter
       id="filter6683"
       inkscape:label="Glow"
       inkscape:menu="Shadows and Glows"
       inkscape:menu-tooltip="Glow of object's own color at the edges"
       color-interpolation-filters="sRGB">
      <feGaussianBlur
         id="feGaussianBlur6685"
         stdDeviation="5"
         result="result91" />
      <feComposite
         id="feComposite6687"
         in2="result91"
         in="SourceGraphic"
         operator="over" />
    </filter>
    <filter
       id="filter6689"
       inkscape:label="Glow"
       inkscape:menu="Shadows and Glows"
       inkscape:menu-tooltip="Glow of object's own color at the edges"
       color-interpolation-filters="sRGB">
      <feGaussianBlur
         id="feGaussianBlur6691"
         stdDeviation="5"
         result="result91" />
      <feComposite
         id="feComposite6693"
         in2="result91"
         in="SourceGraphic"
         operator="over" />
    </filter>
    <filter
       id="filter6695"
       inkscape:label="Glow"
       inkscape:menu="Shadows and Glows"
       inkscape:menu-tooltip="Glow of object's own color at the edges"
       color-interpolation-filters="sRGB">
      <feGaussianBlur
         id="feGaussianBlur6697"
         stdDeviation="5"
         result="result91" />
      <feComposite
         id="feComposite6699"
         in2="result91"
         in="SourceGraphic"
         operator="over" />
    </filter>
    <filter
       id="filter6701"
       inkscape:label="Glow"
       inkscape:menu="Shadows and Glows"
       inkscape:menu-tooltip="Glow of object's own color at the edges"
       color-interpolation-filters="sRGB">
      <feGaussianBlur
         id="feGaussianBlur6703"
         stdDeviation="5"
         result="result91" />
      <feComposite
         id="feComposite6705"
         in2="result91"
         in="SourceGraphic"
         operator="over" />
    </filter>
    <filter
       id="filter6707"
       inkscape:label="Glow"
       inkscape:menu="Shadows and Glows"
       inkscape:menu-tooltip="Glow of object's own color at the edges"
       color-interpolation-filters="sRGB">
      <feGaussianBlur
         id="feGaussianBlur6709"
         stdDeviation="5"
         result="result91" />
      <feComposite
         id="feComposite6711"
         in2="result91"
         in="SourceGraphic"
         operator="over" />
    </filter>
    <filter
       id="filter6713"
       inkscape:label="Glow"
       inkscape:menu="Shadows and Glows"
       inkscape:menu-tooltip="Glow of object's own color at the edges"
       color-interpolation-filters="sRGB">
      <feGaussianBlur
         id="feGaussianBlur6715"
         stdDeviation="5"
         result="result91" />
      <feComposite
         id="feComposite6717"
         in2="result91"
         in="SourceGraphic"
         operator="over" />
    </filter>
    <filter
       id="filter6719"
       inkscape:label="Glow"
       inkscape:menu="Shadows and Glows"
       inkscape:menu-tooltip="Glow of object's own color at the edges"
       color-interpolation-filters="sRGB">
      <feGaussianBlur
         id="feGaussianBlur6721"
         stdDeviation="5"
         result="result91" />
      <feComposite
         id="feComposite6723"
         in2="result91"
         in="SourceGraphic"
         operator="over" />
    </filter>
    <filter
       id="filter6725"
       inkscape:label="Glow"
       inkscape:menu="Shadows and Glows"
       inkscape:menu-tooltip="Glow of object's own color at the edges"
       color-interpolation-filters="sRGB">
      <feGaussianBlur
         id="feGaussianBlur6727"
         stdDeviation="5"
         result="result91" />
      <feComposite
         id="feComposite6729"
         in2="result91"
         in="SourceGraphic"
         operator="over" />
    </filter>
    <filter
       id="filter6731"
       inkscape:label="Glow"
       inkscape:menu="Shadows and Glows"
       inkscape:menu-tooltip="Glow of object's own color at the edges"
       color-interpolation-filters="sRGB">
      <feGaussianBlur
         id="feGaussianBlur6733"
         stdDeviation="5"
         result="result91" />
      <feComposite
         id="feComposite6735"
         in2="result91"
         in="SourceGraphic"
         operator="over" />
    </filter>
    <filter
       id="filter6737"
       inkscape:label="Glow"
       inkscape:menu="Shadows and Glows"
       inkscape:menu-tooltip="Glow of object's own color at the edges"
       color-interpolation-filters="sRGB">
      <feGaussianBlur
         id="feGaussianBlur6739"
         stdDeviation="5"
         result="result91" />
      <feComposite
         id="feComposite6741"
         in2="result91"
         in="SourceGraphic"
         operator="over" />
    </filter>
    <filter
       id="filter6743"
       inkscape:label="Glow"
       inkscape:menu="Shadows and Glows"
       inkscape:menu-tooltip="Glow of object's own color at the edges"
       color-interpolation-filters="sRGB">
      <feGaussianBlur
         id="feGaussianBlur6745"
         stdDeviation="5"
         result="result91" />
      <feComposite
         id="feComposite6747"
         in2="result91"
         in="SourceGraphic"
         operator="over" />
    </filter>
    <filter
       id="filter6749"
       inkscape:label="Glow"
       inkscape:menu="Shadows and Glows"
       inkscape:menu-tooltip="Glow of object's own color at the edges"
       color-interpolation-filters="sRGB">
      <feGaussianBlur
         id="feGaussianBlur6751"
         stdDeviation="5"
         result="result91" />
      <feComposite
         id="feComposite6753"
         in2="result91"
         in="SourceGraphic"
         operator="over" />
    </filter>
    <filter
       id="filter6755"
       inkscape:label="Glow"
       inkscape:menu="Shadows and Glows"
       inkscape:menu-tooltip="Glow of object's own color at the edges"
       color-interpolation-filters="sRGB">
      <feGaussianBlur
         id="feGaussianBlur6757"
         stdDeviation="5"
         result="result91" />
      <feComposite
         id="feComposite6759"
         in2="result91"
         in="SourceGraphic"
         operator="over" />
    </filter>
  </defs>
  <sodipodi:namedview
     pagecolor="#ffffff"
     bordercolor="#666666"
     borderopacity="1"
     objecttolerance="10"
     gridtolerance="10"
     guidetolerance="10"
     inkscape:pageopacity="0"
     inkscape:pageshadow="2"
     inkscape:window-width="1920"
     inkscape:window-height="1138"
     id="namedview6526"
     showgrid="false"
     inkscape:zoom="0.84307692"
     inkscape:cx="460"
     inkscape:cy="896.10172"
     inkscape:window-x="-8"
     inkscape:window-y="-8"
     inkscape:window-maximized="1"
     inkscape:current-layer="svg6336" />
  <g
     id="g6959"
     transform="matrix(1.0701485,0,0,1.0701485,2.9764701,-9.5994614)">
    <g
       transform="translate(-23.722628,-8.540146)"
       style="filter:url(#filter6557)"
       id="#787471ff">
      <path
         id="path6339"
         d="M 0,0 0.25,0 C 0.19,0.06 0.06,0.19 0,0.25 L 0,0 z"
         inkscape:connector-curvature="0"
         style="fill:#787471" />
      <path
         id="path6341"
         d="m 371.61,30.96 c 9.13,-0.19 18.24,-0.97 27.38,-0.81 18.45,1.83 36.75,5.49 54.36,11.32 11.81,3.5 24.68,4.39 35.13,11.49 -5.26,11.54 -11.14,22.8 -16.28,34.4 -15.62,-6.61 -31.31,-13.81 -48.24,-16.25 -17.14,-3.69 -34.89,-6.29 -52.37,-3.95 -0.17,-12.07 0.86,-24.14 0.02,-36.2 z"
         inkscape:connector-curvature="0"
         style="fill:#787471" />
      <path
         id="path6343"
         d="M 258.52,54.19 C 293.35,41.59 330.01,33.66 367,31.78 c 0.99,11.68 -0.24,23.48 0.04,35.22 -20.32,3.02 -40,8.81 -60.07,13.13 -11.19,1.48 -22.08,4.65 -32.82,8.08 -5.54,-11.2 -9.68,-23.01 -15.63,-34.02 z"
         inkscape:connector-curvature="0"
         style="fill:#787471" />
      <path
         id="path6345"
         d="m 230.43,66.39 c 7.52,-4.6 15.97,-7.22 24.15,-10.38 4.69,11.36 10.26,22.34 14.53,33.88 -28.08,11.81 -54.41,27.35 -79,45.32 -2.05,1.18 -4.63,4.06 -6.92,1.71 -9.56,-9.41 -18.2,-19.7 -27.81,-29.08 9.36,-8.29 19.59,-15.64 30.07,-22.47 11.12,-7.05 23.51,-11.67 35,-18.02 3.12,-1.83 6.93,1.06 9.98,-0.96 z"
         inkscape:connector-curvature="0"
         style="fill:#787471" />
      <path
         id="path6347"
         d="m 485.17,72.22 c 3.87,-5.09 5.13,-11.57 8.71,-16.83 31.18,14.5 58.93,35.54 84.27,58.56 -6.16,6.09 -11.55,13.04 -18.18,18.56 -0.72,2.8 -3.63,6.98 -6.77,4.42 -7.66,-7.19 -16.8,-12.49 -24.81,-19.26 -16.49,-10.83 -34.27,-19.49 -51.72,-28.63 2.18,-5.89 4.61,-11.82 8.5,-16.82 z"
         inkscape:connector-curvature="0"
         style="fill:#787471" />
      <path
         id="path6349"
         d="m 123.84,137.85 c 9.7,-9.2 17.9,-20.12 29.1,-27.63 9.29,11.16 19.5,21.52 29,32.51 -8.05,7.74 -14.55,16.89 -22.88,24.35 -15.04,17.39 -27.23,36.94 -38.35,57 -15.27,-2.5 -29.85,-8.25 -45.03,-11.36 11.56,-27.53 29.43,-51.92 48.16,-74.87 z"
         inkscape:connector-curvature="0"
         style="fill:#787471" />
      <path
         id="path6351"
         d="m 565.31,136.32 c 6.01,-6.02 10.59,-13.49 17.69,-18.39 20.46,15.77 37.37,35.65 53.42,55.73 6.66,13.91 18.18,25.3 23.75,39.98 -10.43,5.3 -21.01,10.29 -32.03,14.31 -6.41,-11.98 -12.94,-23.97 -21.64,-34.48 -12.46,-19.29 -29.78,-34.7 -46.68,-49.98 0.8,-3.06 3.42,-4.98 5.49,-7.17 z"
         inkscape:connector-curvature="0"
         style="fill:#787471" />
      <path
         id="path6353"
         d="m 73.22,215.55 c 15.34,4.28 30.6,8.92 45.76,13.82 -8.27,19.93 -17,39.79 -21.45,61.01 -3.41,9.9 -4.98,20.25 -6.47,30.58 -16.35,0.27 -32.72,0.2 -49.08,-0.12 3.97,-13.56 4.53,-27.95 9.63,-41.21 4.76,-22.06 12.24,-43.51 21.61,-64.08 z"
         inkscape:connector-curvature="0"
         style="fill:#787471" />
      <path
         id="path6355"
         d="m 630.56,233.05 c 11.23,-3.41 21.51,-8.99 32.12,-13.89 17.07,34.61 32.21,71.41 33.49,110.52 -15.7,-0.73 -31.39,-0.79 -47.12,-0.75 -0.94,-17.08 -1.02,-34.46 -5.93,-51.02 -1.66,-11.93 -6.82,-23.09 -8.11,-35 -1.31,-3.37 -3.01,-6.56 -4.45,-9.86 z"
         inkscape:connector-curvature="0"
         style="fill:#787471" />
      <path
         id="path6357"
         d="m 42.44,323.97 c 15.92,0.3 31.82,1.01 47.74,1.17 -4.33,35.45 -3.74,71.19 -4.16,106.86 -16.01,0.08 -32.03,0.17 -48.04,0 -0.03,-15.34 0.19,-30.68 0.03,-46.03 4.25,-20.35 0.53,-41.53 4.43,-62 z"
         inkscape:connector-curvature="0"
         style="fill:#787471" />
      <path
         id="path6359"
         d="m 648.77,333.47 c 16.02,-0.32 32.12,-0.74 48.12,0.47 0.62,11.71 -0.5,23.35 -0.55,35.06 -2.18,23.59 -0.45,47.35 -2.11,70.95 -15.37,-0.31 -30.88,1.06 -46.15,-0.85 -1.91,-13.08 -0.77,-26.32 -0.63,-39.46 1.79,-11.16 -0.08,-22.49 1.46,-33.67 0.68,-10.82 -0.14,-21.67 -0.14,-32.5 z"
         inkscape:connector-curvature="0"
         style="fill:#787471" />
      <path
         id="path6361"
         d="m 37.96,435.64 c 16.25,-0.34 32.53,0.18 48.8,0.21 -1.13,39.37 -1.76,78.77 -1.88,118.17 -15.94,-0.03 -31.9,0.15 -47.83,-0.22 -0.96,-39.38 0.39,-78.78 0.91,-118.16 z"
         inkscape:connector-curvature="0"
         style="fill:#787471" />
      <path
         id="path6363"
         d="m 646.97,443.07 c 5.58,-1.66 11.35,-0.19 17.03,-0.23 9.97,0.1 19.96,0.62 29.93,0.33 0.88,10.92 -0.03,21.88 0.17,32.82 -1.13,27.45 -0.55,54.96 -1.94,82.4 -15.06,-0.16 -30.11,-0.01 -45.16,-0.24 -0.8,-38.37 -0.28,-76.72 -0.03,-115.08 z"
         inkscape:connector-curvature="0"
         style="fill:#787471" />
      <path
         id="path6365"
         d="m 37,557.82 c 15.82,0.36 31.7,-0.38 47.49,0.77 -0.76,36.41 -0.31,72.82 -1.55,109.23 -15.57,1.88 -31.31,0.5 -46.95,1.12 0.02,-37.07 0.03,-74.06 1.01,-111.12 z"
         inkscape:connector-curvature="0"
         style="fill:#787471" />
      <path
         id="path6367"
         d="m 646.93,562.11 c 15.29,0.17 30.58,0.48 45.87,0.75 -0.5,36.35 -1.8,72.69 -1.82,109.03 -15.3,-0.8 -30.84,2.46 -45.92,-1.17 0.17,-36.22 0.73,-72.41 1.87,-108.61 z"
         inkscape:connector-curvature="0"
         style="fill:#787471" />
      <path
         id="path6369"
         d="m 447.64,624.73 c 11.2,3.39 22.96,3.75 34.53,4.75 21.38,1.1 42.76,1.77 64.09,0.51 -0.48,27.72 -0.43,55.48 -2.25,83.14 -6.01,0.73 -12.07,-0.08 -18.09,0.44 -7.32,-2.41 -15.01,-5.86 -22.84,-3.55 -5.2,-2.69 -11.28,-1.72 -16.71,-0.39 -5.2,1.15 -9.69,5.17 -15.28,4.35 -8.37,-0.63 -16.72,-1.41 -25.13,-1.1 1.76,-29.32 1.5,-59.05 1.68,-88.15 z"
         inkscape:connector-curvature="0"
         style="fill:#787471" />
      <path
         id="path6371"
         d="m 35.9,673.04 c 15.67,-0.15 31.33,0.05 46.99,0.14 0.06,36.98 -1.16,73.77 -1.04,110.84 -15.6,1.02 -31.22,0.31 -46.83,0.84 -0.35,-37.3 0.27,-74.57 0.88,-111.82 z"
         inkscape:connector-curvature="0"
         style="fill:#787471" />
      <path
         id="path6373"
         d="m 645.14,675.31 c 15.13,1.09 30.33,0.24 45.5,0.69 -0.38,35.87 -1.11,71.74 -1.75,107.62 -14.91,0.65 -29.84,0.34 -44.76,0.29 1.06,-36.19 0.7,-72.41 1.01,-108.6 z"
         inkscape:connector-curvature="0"
         style="fill:#787471" />
      <path
         id="path6375"
         d="m 471.15,788.51 c 3.24,0.24 6.33,-1.18 9.52,-1.11 3.7,1.63 6.99,4.23 11.08,4.95 4.61,0.83 8.32,5.16 13.27,3.81 -0.47,14.95 0.77,30 -0.86,44.88 -46.06,0.07 -92.15,-0.14 -138.18,0.79 0.04,-17.76 -0.35,-35.55 0.46,-53.31 34.92,0.1 69.78,-0.02 104.71,-0.01 z"
         inkscape:connector-curvature="0"
         style="fill:#787471" />
      <path
         id="path6377"
         d="m 35.19,787.94 c 15.53,-0.64 31.12,0.05 46.66,0.22 -0.47,18.37 -1.45,36.84 -0.27,55.18 -15.53,1.07 -31.1,0.53 -46.64,0.75 -0.03,-18.7 -0.36,-37.4 0.25,-56.15 z"
         inkscape:connector-curvature="0"
         style="fill:#787471" />
      <path
         id="path6379"
         d="m 87.03,788.1 c 45.31,-0.22 90.62,-0.06 135.94,-0.11 0.42,18.02 -0.69,36.1 0.06,54.15 -10.07,0.23 -20.58,1.38 -30.46,-0.45 -1.53,1.37 -3.63,1.17 -5.54,1.19 -33.88,-0.05 -67.76,0.36 -101.63,0.31 2.52,-10.87 0.41,-22.19 1.36,-33.24 1.09,-7.26 -0.44,-14.57 0.27,-21.85 z"
         inkscape:connector-curvature="0"
         style="fill:#787471" />
      <path
         id="path6381"
         d="m 228.19,788.16 c 15.2,0.05 30.39,-0.31 45.59,0.18 5.93,-0.42 11.83,1.95 17.69,0.41 7.81,-0.83 15.74,-0.41 23.53,0.46 15.2,-1.24 30.51,-0.95 45.77,-0.72 -0.17,14.61 1.28,29.48 -1.11,43.9 0.46,2.98 0.8,6.02 -0.01,8.99 -36.51,1.32 -73.1,0.15 -109.64,0.87 -7.54,0.32 -15.09,0.21 -22.62,-0.14 1.42,-5.4 0.74,-10.86 -0.07,-16.27 1,-12.53 0.57,-25.13 0.87,-37.68 z"
         inkscape:connector-curvature="0"
         style="fill:#787471" />
      <path
         id="path6383"
         d="m 562.74,791.63 c 3.38,-4.1 8.99,-3.23 13.68,-3.14 21.17,-0.91 42.37,0.09 63.54,-0.28 0.27,17.25 -0.51,34.51 -0.12,51.76 -35.47,0.6 -70.96,-0.14 -106.42,0.7 -7.66,-0.18 -15.34,0.91 -22.98,0 -0.49,-14.27 -0.36,-28.6 0.12,-42.88 3.57,1.83 7.19,3.71 11.17,4.51 5.15,1.23 10.11,-1.86 15.28,-1.32 9.46,1.59 19.4,-2.17 25.73,-9.35 z"
         inkscape:connector-curvature="0"
         style="fill:#787471" />
      <path
         id="path6385"
         d="m 645.52,788.62 c 14.39,-0.61 28.84,-0.4 43.25,-0.18 -0.31,16.88 -0.66,33.77 -0.95,50.66 -14.5,0.69 -29.12,1.2 -43.72,0.88 -0.52,-7.45 0.61,-14.87 0.17,-22.3 0.32,-0.21 0.97,-0.64 1.3,-0.85 -2.19,-2.47 -1.49,-5.86 -1.4,-8.85 0.6,-6.46 -0.8,-13.08 1.35,-19.36 z"
         inkscape:connector-curvature="0"
         style="fill:#787471" />
    </g>
    <g
       transform="translate(-23.722628,-8.540146)"
       style="filter:url(#filter6563)"
       id="#f1f1f1ff">
      <path
         id="path6388"
         d="m 272.75,502.46 c 9.54,-2.75 19.7,-0.62 29.08,-3.94 2.19,3.91 4.49,7.75 6.79,11.6 -8.24,1.43 -16.86,0.63 -24.74,-2.16 -3.87,-1.4 -8.8,-1.68 -11.13,-5.5 z"
         inkscape:connector-curvature="0"
         style="fill:#f1f1f1" />
      <path
         id="path6390"
         d="m 320.66,499.49 c 7.34,0.3 14.93,1.25 21.86,3.52 -9.08,2.8 -18.05,5.91 -27.43,7.64 -0.82,-0.42 -1.64,-0.84 -2.44,-1.26 -0.19,-1.3 -0.36,-2.59 -0.56,-3.87 2.95,-1.88 5.84,-3.84 8.57,-6.03 z"
         inkscape:connector-curvature="0"
         style="fill:#f1f1f1" />
      <path
         id="path6392"
         d="m 403.19,569.4 c 0.2,-0.47 0.61,-1.41 0.81,-1.88 0.18,1.62 0.33,3.25 0.52,4.9 1.8,1.06 3.55,2.31 4.5,4.25 -6.77,-1.77 -14.29,-0.75 -20.47,-4.8 4.48,-2.33 9.68,-2.66 14.64,-2.47 z"
         inkscape:connector-curvature="0"
         style="fill:#f1f1f1" />
      <path
         id="path6394"
         d="m 413.57,576.63 c 2,-2.76 4.09,-5.57 7.2,-7.14 3.92,2.69 9.01,1.08 12.92,3.66 -6.56,1.51 -13.34,4.66 -20.12,3.48 z"
         inkscape:connector-curvature="0"
         style="fill:#f1f1f1" />
      <path
         id="path6396"
         d="m 329.73,620.71 c 7.58,-6.27 18.59,-5.1 27.87,-5.29 2.32,2.6 3.82,5.93 4.23,9.4 0.7,0.69 1.41,1.38 2.13,2.08 -11.63,-0.6 -22.96,-3.47 -34.23,-6.19 z"
         inkscape:connector-curvature="0"
         style="fill:#f1f1f1" />
      <path
         id="path6398"
         d="m 366.77,620.29 c 2.89,-0.53 5.77,-1.55 7.53,-4.06 6.29,0.71 12.49,1.94 18.78,2.62 -8.37,4.04 -17.26,7.56 -26.72,7.16 0.24,-1.9 0.37,-3.81 0.41,-5.72 z"
         inkscape:connector-curvature="0"
         style="fill:#f1f1f1" />
    </g>
    <path
       d="m 348.19737,64.619854 c 17.06,-1.68 34.17,0.98 50.91,4.15 15.99,1.9 30.67,8.54 45.13,15.23 -19.34,23.179996 -39.88,45.319996 -59.95,67.829996 -11.3,-13.14 -26.58,-22.62 -36.3,-37.08 -0.54,-16.629996 -0.52,-33.449996 0.21,-50.129996 z"
       id="path6401"
       inkscape:connector-curvature="0"
       style="fill:#aaa29c;filter:url(#filter6569)" />
    <path
       d="m 317.01737,69.089854 c 8.45,-2.64 17.41,-3.05 26.21,-2.88 -0.29,16.44 -0.75,32.89 -0.55,49.339996 -1.59,0.86 -3.17,1.73 -4.73,2.63 -2.72,5.65 -8.12,9.19 -12.09,13.87 -6.98,8.65 -17.35,13.32 -26.26,19.62 -15.47,-22.43 -30.76,-44.97 -45.3,-67.999996 20.69,-5.84 41.99,-8.89 62.72,-14.58 z"
       id="path6403"
       inkscape:connector-curvature="0"
       style="fill:#aaa29c;filter:url(#filter6575)" />
    <path
       d="m 206.29737,106.50985 c 14.26,-7.479996 28.75,-14.639996 43.69,-20.649996 11.2,17.979996 22.6,35.839996 34.41,53.419996 2.97,5.7 7.77,10.54 9.39,16.87 -10.7,6.73 -20.09,15.22 -30.56,22.24 -8.06,5.92 -14.5,13.65 -21.97,20.22 -26.05,-20.49 -49.82,-43.68 -75.64,-64.46 11.92,-11.49 27.19,-18.33 40.68,-27.64 z"
       id="path6405"
       inkscape:connector-curvature="0"
       style="fill:#aaa29c;filter:url(#filter6581)" />
    <path
       d="m 387.42737,154.50985 c 20.92,-22.55 41.04,-45.8 61.91,-68.379996 28.25,12.87 55.93,28.049996 78.99,49.059996 -28.92,21.71 -58.35,42.74 -87.95,63.5 -0.47,-1.14 -0.93,-2.29 -1.37,-3.43 -0.68,2.13 -1.58,4.2 -2.61,6.19 -4.9,-5.13 -9.18,-10.89 -14.85,-15.24 -8.38,-6.22 -15.27,-14.23 -23.89,-20.15 -3.54,-3.71 -6.7,-7.81 -10.23,-11.55 z"
       id="path6407"
       inkscape:connector-curvature="0"
       style="fill:#aaa29c;filter:url(#filter6587)" />
    <path
       d="m 162.54737,137.56985 c 25.23,21.46 49.31,44.28 74.98,65.19 -13.62,11.43 -24.71,25.57 -36.55,38.75 -32.46,-8.22 -65.45,-14.61 -98.08,-22.34 1.87,-8.17 8.1,-14.23 11.45,-21.73 6.6,-9.99 14.03,-19.39 20.55,-29.42 9.76,-9.65 18.79,-19.97 27.65,-30.45 z"
       id="path6409"
       inkscape:connector-curvature="0"
       style="fill:#aaa29c;filter:url(#filter6593)" />
    <path
       d="m 438.82737,204.27985 c 31.2,-21.78 62.13,-44.19 93.59,-65.49 7.41,8.13 16.1,14.9 23.6,22.93 14.07,12.2 24.13,28.11 34.9,43.12 3.13,5.29 6.69,10.57 7.97,16.68 -39.74,8.34 -79.9,14.89 -119.83,22.28 -5.42,-5.02 -8.89,-11.9 -15.3,-15.84 -8.21,-7.98 -16.24,-16.21 -24.93,-23.68 z"
       id="path6411"
       inkscape:connector-curvature="0"
       style="fill:#aaa29c;filter:url(#filter6599)" />
    <path
       d="m 101.29737,222.56985 c 18.75,4.76 37.61,9.07 56.44,13.54 3.23,0.89 7.24,0.88 9.17,4.1 0.4,-1.15 1.12,-1.6 2.17,-1.37 9.6,1.99 19.03,4.81 28.68,6.66 -11.95,16.23 -23.29,33.05 -32.41,50.96 -30.73,6.29 -62.06,9.97 -92.819998,16.34 5.41,-24.39 10.85,-49.13 21.25,-71.96 2.47,-6.11 4.99,-12.19 7.519998,-18.27 z"
       id="path6413"
       inkscape:connector-curvature="0"
       style="fill:#aaa29c;filter:url(#filter6605)" />
    <path
       d="m 482.61737,247.54985 c 39.7,-6.74 79.11,-15.19 118.98,-20.88 7.12,18.4 10.58,37.88 15.41,56.94 1.93,12.23 2.47,24.63 3.11,36.98 -31.85,-6.63 -63.36,-14.76 -95.08,-21.96 -4.07,-1.12 -8.98,-1.62 -11.11,-5.84 -10.34,-15.09 -17.38,-32.83 -31.31,-45.24 z"
       id="path6415"
       inkscape:connector-curvature="0"
       style="fill:#aaa29c;filter:url(#filter6611)" />
    <path
       d="m 72.467372,316.90985 c 30.219998,-5.26 60.609998,-9.88 90.819998,-14.97 -6.51,15.25 -11.31,31.2 -12.66,47.79 -1.97,7.39 1.2,16.43 -4.4,22.58 -26.35,16.45 -52.239998,33.71 -78.429998,50.45 -0.71,-18.12 1.08,-36.17 0.66,-54.27 1.49,-17.17 0.74,-34.6 4.01,-51.58 z"
       id="path6417"
       inkscape:connector-curvature="0"
       style="fill:#aaa29c;filter:url(#filter6617)" />
    <path
       d="m 519.90737,301.77985 c 33.34,8.15 66.73,16.15 100.17,23.88 1.01,19.19 -0.64,38.32 -0.17,57.49 -1.65,14.85 1.3,29.64 0.02,44.54 -29.06,-19.09 -58.85,-37.06 -87.78,-56.32 -1.97,-10.19 -0.08,-20.7 -1.79,-30.93 -0.56,-6.93 -3.58,-13.29 -5.19,-19.99 -1.71,-6.24 -2.57,-12.73 -5.26,-18.67 z"
       id="path6419"
       inkscape:connector-curvature="0"
       style="fill:#aaa29c;filter:url(#filter6623)" />
    <path
       d="m 530.39737,376.02985 c 30.13,18.78 60.01,38.13 89.4,57.99 0.41,37.36 -1.08,74.8 -0.82,112.2 -29.34,-20.71 -60.78,-38.67 -90.29,-59.21 -0.15,-34.48 2.05,-69.02 1.05,-103.52 0.06,-2.5 0.39,-4.99 0.66,-7.46 z"
       id="path6421"
       inkscape:connector-curvature="0"
       style="fill:#aaa29c;filter:url(#filter6629)" />
    <path
       d="m 68.957372,427.29985 c 25.73,-17.29 52.909998,-32.39 78.289998,-50.24 -0.78,16.78 -0.99,33.6 -0.02,50.37 -0.68,20.83 -0.32,41.69 -1.08,62.52 -16.17,10.92 -32.37,21.78 -48.339998,32.99 -3.19,1.94 -5.99,4.72 -9.72,5.57 -6.34,6.74 -15.06,10.93 -22.5,16.43 0.56,-26.49 -0.12,-52.99 0.52,-79.48 -0.46,-12.74 -1.04,-26.16 2.85,-38.16 z"
       id="path6423"
       inkscape:connector-curvature="0"
       style="fill:#aaa29c;filter:url(#filter6635)" />
    <path
       d="m 150.74737,433.47985 c 5.01,6.25 8.67,13.48 13.86,19.59 7.08,8.63 12.18,18.82 20.11,26.76 -0.23,2.75 -0.62,5.48 -1.19,8.18 -7.89,-4.19 -12.8,-11.77 -18.7,-18.15 -1.41,-1.89 -3.65,-0.1 -5.28,0.38 5.46,9.87 14.59,16.77 21.35,25.61 4.62,8.61 7.4,18.13 11.91,26.8 -2.2,10.43 -3.04,21.16 -6.13,31.44 -8.33,5.93 -17.67,10.54 -25.06,17.71 -3.36,3.09 -7.17,5.64 -11.01,8.08 -0.37,-48.8 -0.13,-97.59 0.14,-146.4 z"
       id="path6425"
       inkscape:connector-curvature="0"
       style="fill:#aaa29c;filter:url(#filter6641)" />
    <path
       d="m 528.32737,492.92985 c 29.7,19.04 59.93,37.43 88.49,58.17 0.98,0.49 1.52,1.26 1.61,2.31 0.59,35.47 -0.71,70.96 -0.39,106.42 -3.61,-1.68 -7.26,-3.3 -10.54,-5.58 -26.19,-17.35 -53.78,-32.58 -79.61,-50.45 -1.1,-6.7 -0.6,-13.58 -0.37,-20.34 0.22,-30.18 0.9,-60.35 0.81,-90.53 z"
       id="path6427"
       inkscape:connector-curvature="0"
       style="fill:#aaa29c;filter:url(#filter6647)" />
    <path
       d="m 84.237372,538.42985 c 20.289998,-14.7 41.359998,-28.31 62.039998,-42.47 -0.26,35.16 -0.47,70.32 -1.13,105.47 -26.76,19.47 -53.869998,38.48 -80.859998,57.64 0.6,-35.89 0.58,-71.79 1.31,-107.69 6.72,-3.55 12.2,-8.95 18.64,-12.95 z"
       id="path6429"
       inkscape:connector-curvature="0"
       style="fill:#aaa29c;filter:url(#filter6653)" />
    <path
       d="m 189.98737,617.24985 c 16.84,-17.34 31.16,-37.35 50.43,-52.19 0.88,14.37 -0.11,28.91 0.58,43.17 -7.51,5.43 -14.13,12.19 -22.34,16.58 -11.33,0.68 -22.7,0.6 -34.04,-0.32 1.62,-2.53 3.19,-5.14 5.37,-7.24 z"
       id="path6431"
       inkscape:connector-curvature="0"
       style="fill:#aaa29c;filter:url(#filter6659)" />
    <path
       d="m 64.867372,666.10985 c 26.02,-20.27 53.639998,-38.42 80.079998,-58.15 -0.52,34.13 0.16,68.17 -0.85,102.35 -26.94,20.61 -53.849998,41.24 -80.859998,61.78 0.56,-35.32 -0.05,-70.73 1.63,-105.98 z"
       id="path6433"
       inkscape:connector-curvature="0"
       style="fill:#aaa29c;filter:url(#filter6665)" />
    <path
       d="m 527.24737,609.40985 c 29.91,19.3 60.64,37.53 90.23,57.2 -0.06,35.03 -0.59,70.1 -1.09,105.14 -25.37,-18.43 -50.71,-36.92 -76.13,-55.31 -4.19,-3.48 -9.27,-5.93 -12.82,-10.12 -2.98,-3.77 0.3,-8.59 -1.05,-12.84 -0.39,-28 0.77,-56.05 0.86,-84.07 z"
       id="path6435"
       inkscape:connector-curvature="0"
       style="fill:#aaa29c;filter:url(#filter6671)" />
    <path
       d="m 200.43737,660.89985 c 13.68,-1.52 27.24,-4.21 40.7,-6.85 -1.49,17.38 -0.24,34.84 -1.26,52.25 -17.86,1.34 -35.71,-0.48 -53.58,-0.01 -10.53,-0.89 -21.1,1.8 -31.59,0.23 -1.67,0.58 -3.45,0.59 -5.2,0.65 0.04,-13.28 0.3,-26.64 0.36,-39.93 16.61,-4.23 33.8,-3.41 50.57,-6.34 z"
       id="path6437"
       inkscape:connector-curvature="0"
       style="fill:#aaa29c;filter:url(#filter6677)" />
    <path
       d="m 423.61737,709.90985 c 7.62,-2.03 15.55,-0.54 23.3,-0.42 -3.63,1.64 -8.08,3.45 -8.98,7.83 -2.04,7.76 -2.8,15.85 -5.63,23.42 -10.6,0.92 -21.05,3.44 -31.74,3.15 -10.43,-0.06 -20.89,2.11 -31.26,0.2 -8.76,0.53 -17.48,0.36 -26.21,-0.11 -0.12,-1.6 -0.22,-3.19 -0.32,-4.76 10.41,-0.82 20.83,-2.82 30.77,-6.08 4.65,-1.2 6.59,-6.31 6.33,-10.7 7.06,1.09 14.14,-0.42 21.15,-1.27 8.39,-1.25 17.32,-4.23 22.59,-11.26 z"
       id="path6439"
       inkscape:connector-curvature="0"
       style="fill:#aaa29c;filter:url(#filter6683)" />
    <path
       d="m 507.17737,710.16985 c 6.03,0.19 12.29,0.08 18.18,1.11 28.73,21.58 58.09,42.32 86.72,64.03 -21.77,0.68 -43.56,0.28 -65.31,0.09 -2.24,-3.69 -6.36,-5.3 -9.45,-8.05 -2,-2.4 -3.89,-4.92 -6.48,-6.71 1.44,-0.99 4.29,-1.11 4.29,-3.34 0.2,-9.47 0.18,-20.66 -7.16,-27.66 -4.61,-1.51 -8.73,-4.11 -13.25,-5.75 -4.13,-3.6 -4.18,-9.56 -7.54,-13.72 z"
       id="path6441"
       inkscape:connector-curvature="0"
       style="fill:#aaa29c;filter:url(#filter6689)" />
    <path
       d="m 149.53737,713.07985 c 11.31,0.36 22.58,-1.76 33.9,-1.07 18.58,-0.87 37.15,0.98 55.72,-0.34 0.46,2.37 0.86,4.75 1.23,7.15 -1.33,-0.16 -2.65,-0.3 -3.98,-0.43 0.34,0.56 1.03,1.69 1.37,2.26 -2.71,4.96 -6.64,9.05 -9.77,13.73 -6.81,-0.33 -13.55,2.16 -20.52,1.65 -30.04,6.37 -61.59,7.98 -89.81,21 -2.39,4.56 -3.89,14.28 2.96,15.2 24.89,-6.06 49.25,-14.44 74.56,-18.98 7.27,-2.14 15.04,-0.93 22.1,-3.97 -5.05,8.5 -11.34,16.2 -16.96,24.32 -1.18,2.25 -3.71,2.55 -6,2.49 -42.47,-0.35 -84.94,-0.07 -127.409998,-0.44 2.57,-6.04 8.68,-8.32 13.6,-11.93 5.03,-5.3 12.25,-7.53 17.59,-12.45 17.129998,-12.73 34.289998,-25.52 51.419998,-38.19 z"
       id="path6443"
       inkscape:connector-curvature="0"
       style="fill:#aaa29c;filter:url(#filter6695)" />
    <path
       d="m 242.73737,724.66985 c 17.98,4 36.44,3.49 54.71,3.16 5.78,5.73 13.93,8.5 21.83,9.69 6.23,1.85 12.84,2.36 19.27,1.35 -0.05,1.91 -0.1,3.83 -0.14,5.76 -13.98,-2.77 -27.61,-7.43 -41.92,-8.49 -19.69,-3.37 -39.62,-5.71 -59.63,-4.01 1.7,-2.68 3.84,-5.03 5.88,-7.46 z"
       id="path6445"
       inkscape:connector-curvature="0"
       style="fill:#aaa29c;filter:url(#filter6701)" />
    <path
       d="m 239.29737,748.31985 c 10.7,0.16 21.98,-3.59 32.2,1.03 16.16,2.31 32.73,3.2 48.51,7.69 5.68,2.66 12.04,0.96 17.99,2.45 -0.12,5.54 -0.16,11.07 -0.45,16.61 -44.17,0.22 -88.38,-0.31 -132.54,-0.01 6.87,-8.28 12.5,-17.49 19.05,-25.99 4.53,-2.53 10.25,-0.87 15.24,-1.78 z"
       id="path6447"
       inkscape:connector-curvature="0"
       style="fill:#aaa29c;filter:url(#filter6707)" />
    <path
       d="m 383.25737,760.77985 c 19.02,-0.64 37.99,-2.42 56.66,-6.18 6.87,5.38 6.99,15.19 12.53,21.61 -36.6,-0.63 -73.2,0.2 -109.81,0.02 0.3,-5.53 0.08,-11.06 0.37,-16.59 13.41,0.24 26.89,-0.27 40.25,1.14 z"
       id="path6449"
       inkscape:connector-curvature="0"
       style="fill:#aaa29c;filter:url(#filter6713)" />
    <g
       transform="translate(-23.722628,-8.540146)"
       id="#181317ff">
      <path
         id="path6452"
         d="m 409.24,23.61 c 1.55,0.92 3.1,1.96 4.94,2.15 20.67,2.81 40.24,10.35 60.3,15.7 3.19,0.51 6.38,1.22 9.26,2.76 18.74,8.97 37.79,17.87 54.35,30.6 5.88,4.17 11.86,8.19 17.75,12.35 22.97,19.9 47.89,38.12 66.67,62.32 10.02,11.81 19.75,23.96 27.78,37.24 14.8,18.99 22.16,42.2 32.28,63.74 7.36,17.9 12.75,36.57 16.36,55.56 2.52,19.93 2.67,39.99 3.21,59.97 -0.65,4.2 0.78,8.98 -1.68,12.72 -1.14,71.1 -3.5,142.16 -3.61,213.26 -1.04,61.34 -2.04,122.67 -3.03,183.99 -0.34,3.12 -0.31,6.29 0.58,9.34 -2.65,19.4 0.51,39.6 -2.24,58.84 -15.81,1.47 -31.87,0.27 -47.74,1.19 -1.2,0.41 -2.2,1.22 -3.27,1.88 -0.72,-0.8 -1.43,-1.58 -2.13,-2.36 -21,0.27 -42.04,-0.02 -63.01,1.25 -63.33,-0.08 -126.72,-0.92 -190.01,0.97 -74.53,-0.29 -149.04,-0.13 -223.58,0.24 -41.75,1.64 -83.61,0.25 -125.41,0.89 -2.63,0.03 -7.97,2.31 -8.42,-1.64 1.41,-82.8 1.49,-165.73 2.44,-248.59 -0.1,-13.9 1.22,-28.04 -0.67,-41.81 1.34,-4.27 0.81,-8.78 0.88,-13.17 -0.59,-37.08 1.29,-74.17 0.58,-111.21 1.47,-24.23 -0.74,-48.76 2.37,-72.79 -0.41,-38.83 9.12,-77.02 21.18,-113.67 3.82,-13.49 9.68,-26.26 16.54,-38.45 8.09,-18.32 19.71,-34.69 30.87,-51.21 9.45,-11.47 18.02,-23.76 29.14,-33.74 5.51,-6.15 12.24,-11.04 17.93,-16.94 10.79,-6.66 19.84,-16.04 31.18,-21.97 10.33,-7.7 22.99,-11.24 33.8,-18.14 43.17,-19.34 88.69,-34.99 136.16,-38.8 19.25,-3.41 39.02,-1.03 58.25,-2.47 m -37.63,7.35 c 0.84,12.06 -0.19,24.13 -0.02,36.2 17.48,-2.34 35.23,0.26 52.37,3.95 16.93,2.44 32.62,9.64 48.24,16.25 5.14,-11.6 11.02,-22.86 16.28,-34.4 -10.45,-7.1 -23.32,-7.99 -35.13,-11.49 -17.61,-5.83 -35.91,-9.49 -54.36,-11.32 -9.14,-0.16 -18.25,0.62 -27.38,0.81 M 258.52,54.19 c 5.95,11.01 10.09,22.82 15.63,34.02 10.74,-3.43 21.63,-6.6 32.82,-8.08 C 327.04,75.81 346.72,70.02 367.04,67 366.76,55.26 367.99,43.46 367,31.78 330.01,33.66 293.35,41.59 258.52,54.19 m -28.09,12.2 c -3.05,2.02 -6.86,-0.87 -9.98,0.96 -11.49,6.35 -23.88,10.97 -35,18.02 -10.48,6.83 -20.71,14.18 -30.07,22.47 9.61,9.38 18.25,19.67 27.81,29.08 2.29,2.35 4.87,-0.53 6.92,-1.71 24.59,-17.97 50.92,-33.51 79,-45.32 -4.27,-11.54 -9.84,-22.52 -14.53,-33.88 -8.18,3.16 -16.63,5.78 -24.15,10.38 m 254.74,5.83 c -3.89,5 -6.32,10.93 -8.5,16.82 17.45,9.14 35.23,17.8 51.72,28.63 8.01,6.77 17.15,12.07 24.81,19.26 3.14,2.56 6.05,-1.62 6.77,-4.42 6.63,-5.52 12.02,-12.47 18.18,-18.56 -25.34,-23.02 -53.09,-44.06 -84.27,-58.56 -3.58,5.26 -4.84,11.74 -8.71,16.83 m -113.25,0.94 c -0.73,16.68 -0.75,33.5 -0.21,50.13 9.72,14.46 25,23.94 36.3,37.08 20.07,-22.51 40.61,-44.65 59.95,-67.83 C 453.5,85.85 438.82,79.21 422.83,77.31 406.09,74.14 388.98,71.48 371.92,73.16 m -31.18,4.47 c -20.73,5.69 -42.03,8.74 -62.72,14.58 14.54,23.03 29.83,45.57 45.3,68 8.91,-6.3 19.28,-10.97 26.26,-19.62 3.97,-4.68 9.37,-8.22 12.09,-13.87 1.56,-0.9 3.14,-1.77 4.73,-2.63 -0.2,-16.45 0.26,-32.9 0.55,-49.34 -8.8,-0.17 -17.76,0.24 -26.21,2.88 m -110.72,37.42 c -13.49,9.31 -28.76,16.15 -40.68,27.64 25.82,20.78 49.59,43.97 75.64,64.46 7.47,-6.57 13.91,-14.3 21.97,-20.22 10.47,-7.02 19.86,-15.51 30.56,-22.24 -1.62,-6.33 -6.42,-11.17 -9.39,-16.87 -11.81,-17.58 -23.21,-35.44 -34.41,-53.42 -14.94,6.01 -29.43,13.17 -43.69,20.65 m 181.13,48 c 3.53,3.74 6.69,7.84 10.23,11.55 8.62,5.92 15.51,13.93 23.89,20.15 5.67,4.35 9.95,10.11 14.85,15.24 1.03,-1.99 1.93,-4.06 2.61,-6.19 0.44,1.14 0.9,2.29 1.37,3.43 29.6,-20.76 59.03,-41.79 87.95,-63.5 -23.06,-21.01 -50.74,-36.19 -78.99,-49.06 -20.87,22.58 -40.99,45.83 -61.91,68.38 m -287.31,-25.2 c -18.73,22.95 -36.6,47.34 -48.16,74.87 15.18,3.11 29.76,8.86 45.03,11.36 11.12,-20.06 23.31,-39.61 38.35,-57 8.33,-7.46 14.83,-16.61 22.88,-24.35 -9.5,-10.99 -19.71,-21.35 -29,-32.51 -11.2,7.51 -19.4,18.43 -29.1,27.63 m 441.47,-1.53 c -2.07,2.19 -4.69,4.11 -5.49,7.17 16.9,15.28 34.22,30.69 46.68,49.98 8.7,10.51 15.23,22.5 21.64,34.48 11.02,-4.02 21.6,-9.01 32.03,-14.31 -5.57,-14.68 -17.09,-26.07 -23.75,-39.98 -16.05,-20.08 -32.96,-39.96 -53.42,-55.73 -7.1,4.9 -11.68,12.37 -17.69,18.39 m -196.19,-6.3 c -10.65,8.03 -17.71,19.94 -29.23,26.91 -8.47,5.29 -16.45,11.29 -24.55,17.1 1.74,7.77 -2.78,15.2 -1.9,23.02 -2.43,24.81 -0.04,49.95 6.34,74.05 0.65,8.17 5.84,14.79 7.86,22.57 4.58,-5.58 9.6,-10.95 12.72,-17.54 1.42,0.3 2.83,0.65 4.24,0.98 1.25,10.42 -6.18,19.03 -10.25,28 3.55,7.96 6.96,16.18 12.94,22.68 5.54,-9.84 12.63,-18.73 17.87,-28.67 1.43,-2.47 5.57,-0.17 4.22,2.35 -3.82,8.4 -6.69,17.34 -11.94,25.02 -1.99,2.85 -3.26,6.08 -4.51,9.3 8.19,10.37 17.29,20.01 27.42,28.48 12.34,-19.25 23.59,-39.21 36.57,-58.03 2.28,0.64 5.97,0.62 5.85,3.85 -0.54,5.79 -2.31,11.55 -5.12,16.65 -4.21,20.43 -15.03,38.61 -24.61,56.92 13.78,-3.8 28.39,-2.09 42.05,-6.42 -6.99,-6.86 -8.95,-16.72 -10.65,-25.96 -2.14,-11.66 2.18,-23.04 4.5,-34.32 2.04,-5.67 -1.54,-11.23 -0.86,-17.02 -5.01,0.05 -10.53,-3.5 -9.97,-9.06 3.44,-0.01 5.49,3.44 8.86,3.46 -0.68,-4.3 -4.04,-7.14 -6.74,-10.23 4.05,-2.88 10.09,2.91 11.9,7.08 4.53,-0.08 9.22,-0.31 13.58,1.14 7.17,3.34 10.32,10.98 15.52,16.45 11.23,18.21 8.56,41.01 3.98,60.85 1.08,-0.05 3.22,-0.13 4.3,-0.17 -1.68,1.7 -3.58,3.22 -5,5.16 -3.12,10.53 -5.03,21.45 -5.66,32.43 29.44,9.95 61.13,4.65 91.27,2.12 0.93,-9.97 -2.13,-19.76 -0.69,-29.75 -0.84,-9.16 -0.07,-18.39 -1.18,-27.54 -0.74,-10.9 -5.2,-21.04 -7.44,-31.65 -1.77,-8.83 -7.92,-15.65 -11.43,-23.74 -7.34,-10.65 -14.2,-21.6 -22.03,-31.88 -23.12,-26.77 -49.46,-50.62 -75.66,-74.3 -5.49,-6.56 -13.62,-10.37 -18.74,-17.28 -7,-7.65 -15.11,-14.24 -21.64,-22.33 -8.23,-5.94 -15.15,-13.44 -22.19,-20.68 m -182.85,16.09 c -8.86,10.48 -17.89,20.8 -27.65,30.45 -6.52,10.03 -13.95,19.43 -20.55,29.42 -3.35,7.5 -9.58,13.56 -11.45,21.73 32.63,7.73 65.62,14.12 98.08,22.34 11.84,-13.18 22.93,-27.32 36.55,-38.75 -25.67,-20.91 -49.75,-43.73 -74.98,-65.19 m 276.28,66.71 c 8.69,7.47 16.72,15.7 24.93,23.68 6.41,3.94 9.88,10.82 15.3,15.84 39.93,-7.39 80.09,-13.94 119.83,-22.28 -1.28,-6.11 -4.84,-11.39 -7.97,-16.68 -10.77,-15.01 -20.83,-30.92 -34.9,-43.12 -7.5,-8.03 -16.19,-14.8 -23.6,-22.93 -31.46,21.3 -62.39,43.71 -93.59,65.49 m -187.01,-7.24 c -6.16,7.2 -14.32,12.32 -20.51,19.48 -8.41,9.86 -19.28,17.84 -25.52,29.34 -1.7,0.83 -3.88,2.03 -3.21,4.31 2.17,13.14 3.38,26.48 6.93,39.37 12.42,-16.41 19.96,-35.54 29.04,-53.83 0.98,-2.37 3.25,-3.23 5.35,-1.57 -4.66,12.2 -10.68,23.8 -16.48,35.48 -2.11,4.47 -6.09,8.29 -6,13.54 1.42,-0.02 2.85,-0.03 4.28,-0.05 3.45,-3.74 7.28,-7.11 10.69,-10.88 2.1,-0.83 3.76,0.54 4.9,2.18 -3.81,4.26 -9.03,7.01 -12.03,12.06 -7.19,6.03 -9.74,15.35 -14.83,22.91 2.29,3.66 4.8,7.36 5.21,11.79 7.16,23.72 20.4,45.07 34.79,65.04 6.21,-6.04 14.6,-9.8 19.55,-17.07 3.17,-13.8 8.31,-27.18 9.75,-41.37 1.75,-8.15 0.98,-17.06 5.18,-24.53 5,-2.41 7.79,-7.84 11.03,-12.12 -0.82,-12.15 -9.1,-22.58 -10.63,-34.68 -4.19,-16.64 -6.66,-33.71 -5.73,-50.89 0.74,-11.79 -0.41,-23.7 1.88,-35.36 -11.23,8.94 -24.31,15.72 -33.64,26.85 m -202.32,9.97 c -9.37,20.57 -16.85,42.02 -21.61,64.08 -5.1,13.26 -5.66,27.65 -9.63,41.21 16.36,0.32 32.73,0.39 49.08,0.12 1.49,-10.33 3.06,-20.68 6.47,-30.58 4.45,-21.22 13.18,-41.08 21.45,-61.01 -15.16,-4.9 -30.42,-9.54 -45.76,-13.82 m 557.34,17.5 c 1.44,3.3 3.14,6.49 4.45,9.86 1.29,11.91 6.45,23.07 8.11,35 4.91,16.56 4.99,33.94 5.93,51.02 15.73,-0.04 31.42,0.02 47.12,0.75 -1.28,-39.11 -16.42,-75.91 -33.49,-110.52 -10.61,4.9 -20.89,10.48 -32.12,13.89 m -505.54,-1.94 c -2.53,6.08 -5.05,12.16 -7.52,18.27 -10.4,22.83 -15.84,47.57 -21.25,71.96 30.76,-6.37 62.09,-10.05 92.82,-16.34 9.12,-17.91 20.46,-34.73 32.41,-50.96 -9.65,-1.85 -19.08,-4.67 -28.68,-6.66 -1.05,-0.23 -1.77,0.22 -2.17,1.37 -1.93,-3.22 -5.94,-3.21 -9.17,-4.1 -18.83,-4.47 -37.69,-8.78 -56.44,-13.54 m 381.32,24.98 c 13.93,12.41 20.97,30.15 31.31,45.24 2.13,4.22 7.04,4.72 11.11,5.84 31.72,7.2 63.23,15.33 95.08,21.96 -0.64,-12.35 -1.18,-24.75 -3.11,-36.98 -4.83,-19.06 -8.29,-38.54 -15.41,-56.94 -39.87,5.69 -79.28,14.14 -118.98,20.88 M 200.29,295.4 c -9.1,18.32 -17.53,37.51 -19.45,58.1 4.59,-0.24 8.97,1.27 13.31,2.59 0.93,-7.6 -2.7,-14.99 -1.15,-22.54 1.69,0.08 3.37,0.18 5.06,0.27 6.38,14.85 10.53,31.29 22.4,43.01 -2.8,-15.28 -4.61,-30.78 -7.99,-45.97 5.25,-7.93 11.03,-15.57 15.63,-23.91 2.46,-3.29 -1.12,-6.41 -1.45,-9.76 -2.18,-11 -3.06,-22.2 -4.73,-33.28 -9.04,9.14 -14.23,21.12 -21.63,31.49 m 231.87,-0.49 c -2.69,5.13 -2.15,12.22 1.92,16.36 5.87,-0.5 14.25,-0.83 16.5,-7.44 -0.67,-8.74 -11.75,-9.08 -18.42,-8.92 m 14.65,18.2 c 0.54,12.96 -2.36,25.92 -0.68,38.85 1.16,7.9 7.12,14.33 14.31,17.39 2.09,-7.3 3.72,-14.77 3.6,-22.4 1.6,-13.9 0.13,-30.26 -10.75,-40.3 -2.05,2.26 -4.21,4.42 -6.48,6.46 M 96.19,325.45 c -3.27,16.98 -2.52,34.41 -4.01,51.58 0.42,18.1 -1.37,36.15 -0.66,54.27 26.19,-16.74 52.08,-34 78.43,-50.45 5.6,-6.15 2.43,-15.19 4.4,-22.58 1.35,-16.59 6.15,-32.54 12.66,-47.79 -30.21,5.09 -60.6,9.71 -90.82,14.97 m 447.44,-15.13 c 2.69,5.94 3.55,12.43 5.26,18.67 1.61,6.7 4.63,13.06 5.19,19.99 1.71,10.23 -0.18,20.74 1.79,30.93 28.93,19.26 58.72,37.23 87.78,56.32 1.28,-14.9 -1.67,-29.69 -0.02,-44.54 -0.47,-19.17 1.18,-38.3 0.17,-57.49 -33.44,-7.73 -66.83,-15.73 -100.17,-23.88 m -218.99,13.37 c -1.97,10.31 -1.39,20.93 -3.37,31.27 4.55,-3.81 9.8,-6.68 14.36,-10.47 2.98,-3.65 4.11,-8.53 7.63,-11.83 -3.95,-7.15 -8.51,-13.94 -12.19,-21.25 -1.39,4.52 -5.48,7.64 -6.43,12.28 m 110.49,-9.46 c -1.29,5.74 -2.78,11.58 -6.83,16.08 1.7,5.03 -0.05,10.15 -0.07,15.26 0.76,11.31 4.15,22.87 12.13,31.21 5.61,-1.33 11.13,-3.02 16.8,-4.11 -6.26,-3.94 -12.7,-9.06 -14.28,-16.7 -5.71,-13.66 1.16,-28.36 -0.71,-42.47 -2.35,0.26 -4.7,0.5 -7.04,0.73 m -392.69,9.74 c -3.9,20.47 -0.18,41.65 -4.43,62 0.16,15.35 -0.06,30.69 -0.03,46.03 16.01,0.17 32.03,0.08 48.04,0 0.42,-35.67 -0.17,-71.41 4.16,-106.86 -15.92,-0.16 -31.82,-0.87 -47.74,-1.17 m 190.07,38.26 c 6.21,18.7 9.16,38.14 15.64,56.97 8.78,-7.46 18.74,-13.59 26.65,-22.04 -16.89,-22.23 -31.79,-46.95 -39.61,-74.07 -8.38,11.87 -1.85,26.01 -2.68,39.14 m 416.26,-28.76 c 0,10.83 0.82,21.68 0.14,32.5 -1.54,11.18 0.33,22.51 -1.46,33.67 -0.14,13.14 -1.28,26.38 0.63,39.46 15.27,1.91 30.78,0.54 46.15,0.85 1.66,-23.6 -0.07,-47.36 2.11,-70.95 0.05,-11.71 1.17,-23.35 0.55,-35.06 -16,-1.21 -32.1,-0.79 -48.12,-0.47 m -297.34,7.22 c -3.01,5.8 -4.33,12.28 -6.23,18.5 -10.16,6.67 -18.68,15.91 -29.69,21.24 -2.17,6.03 -2.56,12.61 -5.74,18.26 9.66,-0.7 18.89,-3.83 28.38,-5.51 8.38,-0.48 16.51,-2.64 24.76,-4.02 5.39,-5.14 9.9,-11.26 13.4,-17.85 1.67,-3.16 -1.42,-5.36 -3.66,-6.96 -7.4,-7.58 -14.98,-15.05 -21.22,-23.66 m -170.91,15.43 c -1,8.61 -1.88,17.23 -2.55,25.87 -2.55,11.54 -0.76,23.35 -1.66,35.03 -0.59,5.34 1.29,11.37 -2.01,16.09 10.98,15.89 22.82,31.09 34.57,46.4 0.88,-5.35 1.92,-10.71 1.55,-16.16 1.79,-0.11 3.57,-0.24 5.37,-0.33 2.64,11.05 3.21,22.51 5.53,33.62 0.5,0.36 1.49,1.07 1.99,1.43 4.31,-15.49 7.02,-31.32 12.39,-46.49 -0.83,-10.59 -4.63,-20.81 -5.72,-31.42 -2.33,-8.47 -2.62,-18.39 -9.25,-24.89 -12.32,-14.14 -26.4,-26.54 -40.21,-39.15 m 272.6,27.16 c -1.18,10.56 0.89,21.12 -0.16,31.71 0.65,3.83 -2.05,10.41 3.32,11.47 -3.1,-15.54 -1.52,-31.31 1.91,-46.64 -1.69,1.15 -3.39,2.3 -5.07,3.46 m 101,1.29 c -0.27,2.47 -0.6,4.96 -0.66,7.46 1,34.5 -1.2,69.04 -1.05,103.52 29.51,20.54 60.95,38.5 90.29,59.21 -0.26,-37.4 1.23,-74.84 0.82,-112.2 -29.39,-19.86 -59.27,-39.21 -89.4,-57.99 M 92.68,435.84 c -3.89,12 -3.31,25.42 -2.85,38.16 -0.64,26.49 0.04,52.99 -0.52,79.48 7.44,-5.5 16.16,-9.69 22.5,-16.43 3.73,-0.85 6.53,-3.63 9.72,-5.57 15.97,-11.21 32.17,-22.07 48.34,-32.99 0.76,-20.83 0.4,-41.69 1.08,-62.52 -0.97,-16.77 -0.76,-33.59 0.02,-50.37 -25.38,17.85 -52.56,32.95 -78.29,50.24 m 331.4,-42.98 c 5.78,3.21 11.76,6.07 17.91,8.52 -0.46,-4.09 -1.09,-8.16 -1.88,-12.2 -5.41,0.96 -10.72,2.34 -16.03,3.68 m -103.05,30.98 c 3.78,5.61 1.07,13.8 6.67,18.37 2.52,1.72 4.61,3.99 5.35,7.04 2.45,-0.42 4.65,0.68 6.47,2.24 17.89,13.18 37.64,23.67 58.36,31.63 12.95,4.42 25.31,10.65 38.85,13.27 6.66,2.55 13.5,4.61 20.58,5.61 2.71,-4.17 4.91,-8.69 6.17,-13.51 1.33,-6.58 6,-11.72 7.92,-18.09 0.68,-0.2 2.05,-0.59 2.74,-0.79 2.71,3.13 0.61,7.26 -0.95,10.41 -2.29,7.9 -6.77,15 -8.21,23.19 13.54,3.95 27.98,4.51 42.04,5.15 13.65,0.3 27.63,-2.82 41,-1.77 -0.12,-2.45 -0.14,-4.89 -0.12,-7.34 -0.69,-0.8 -1.38,-1.6 -2.06,-2.39 0.87,-0.89 1.74,-1.78 2.62,-2.65 0.3,-26.37 1.22,-52.69 1.32,-79.06 -30.02,1.88 -61.2,5.66 -90.52,-3.42 -0.64,5.56 1.48,10.74 1.95,16.11 -5.64,2.78 -12.07,-2.61 -17.89,0.95 -0.55,-0.31 -1.66,-0.92 -2.22,-1.22 0.61,-6.96 1.33,-13.95 0.54,-20.93 -9.42,-2.64 -17.56,-8.43 -26.59,-12.02 -32.22,6.61 -63.04,18.44 -94.02,29.22 m -34.09,6.96 c -5.22,6.49 -9.25,14.02 -15.62,19.53 -3.58,2.93 -5.7,7.13 -8.63,10.63 -0.36,20.6 -5.21,40.75 -7.6,61.16 0.55,0.6 1.1,1.21 1.65,1.82 -2.89,3.17 -2.41,7.66 -3.18,11.6 -0.55,5.54 -2.73,10.85 -2.42,16.48 4.47,-1.05 8.66,-3.05 13.17,-4.01 1.56,-15.06 1.11,-30.21 1.05,-45.31 0.34,-3.23 4.03,-4.84 6.78,-5.64 9.58,-1.9 19.37,-2.15 29.04,-3.33 -4.09,-10.59 -10.28,-22.2 -4.98,-33.59 5.53,-7.61 13.17,-13.63 17.58,-22.1 -3.34,-3.63 -7.04,-6.9 -11.1,-9.7 -5.21,1.06 -10.43,2.09 -15.74,2.46 m -248.98,4.84 c -0.52,39.38 -1.87,78.78 -0.91,118.16 15.93,0.37 31.89,0.19 47.83,0.22 0.12,-39.4 0.75,-78.8 1.88,-118.17 -16.27,-0.03 -32.55,-0.55 -48.8,-0.21 m 264.63,22.97 c -6.04,6.2 -2.53,15.47 -1.14,22.83 5.83,-13.42 23.06,-19.24 23.89,-35.37 -2.02,-2.61 -3.82,-5.38 -5.53,-8.19 -4.73,7.72 -10.91,14.29 -17.22,20.73 m 344.38,-15.54 c -0.25,38.36 -0.77,76.71 0.03,115.08 15.05,0.23 30.1,0.08 45.16,0.24 1.39,-27.44 0.81,-54.95 1.94,-82.4 -0.2,-10.94 0.71,-21.9 -0.17,-32.82 -9.97,0.29 -19.96,-0.23 -29.93,-0.33 -5.68,0.04 -11.45,-1.43 -17.03,0.23 m -472.5,-1.05 c -0.27,48.81 -0.51,97.6 -0.14,146.4 3.84,-2.44 7.65,-4.99 11.01,-8.08 7.39,-7.17 16.73,-11.78 25.06,-17.71 3.09,-10.28 3.93,-21.01 6.13,-31.44 -4.51,-8.67 -7.29,-18.19 -11.91,-26.8 -6.76,-8.84 -15.89,-15.74 -21.35,-25.61 1.63,-0.48 3.87,-2.27 5.28,-0.38 5.9,6.38 10.81,13.96 18.7,18.15 0.57,-2.7 0.96,-5.43 1.19,-8.18 -7.93,-7.94 -13.03,-18.13 -20.11,-26.76 -5.19,-6.11 -8.85,-13.34 -13.86,-19.59 m 146.89,21.35 c -3.41,6.14 -10.74,8.84 -13.51,15.47 -4.53,7.51 -3.89,17.15 1.32,24.15 4.23,-3.44 8.36,-7.02 13.05,-9.84 9.19,-11.83 10.5,-27.7 6.76,-41.85 -2.86,3.82 -5.21,7.97 -7.62,12.07 m 12.92,-8.47 c 0.21,4.39 1.76,8.62 1.63,13.05 -0.07,9.74 -4.69,18.59 -8.37,27.37 9.06,-0.57 17.49,2.31 26.06,4.43 0.01,3.53 -0.66,7.08 0.02,10.59 1.91,20.72 0.46,41.5 -0.48,62.23 8.8,-6.25 15.24,-16.18 18.32,-26.49 1.73,0.42 4.4,0.21 4.76,2.53 1.36,6.52 4.22,12.54 6.56,18.74 5.77,-1.91 11.83,-2.99 17.92,-2.97 -5.03,-5.91 -4.7,-14.39 -4.21,-21.71 2.44,-12.38 12.98,-21.94 14.84,-34.43 0.61,-0.71 1.23,-1.42 1.85,-2.11 2.73,0.66 5.16,2.23 5.6,5.22 3.17,11.52 13.47,20.22 12.34,32.97 10.36,-10.19 16.98,-23.51 23.26,-36.46 -1.05,-2.23 -3.99,-1.65 -5.97,-2.38 -31.23,-8.6 -62.27,-19.04 -90.25,-35.66 -8.25,-4.5 -15.77,-10.2 -23.88,-14.92 m -61.53,47.56 c 2.33,3.82 7.26,4.1 11.13,5.5 7.88,2.79 16.5,3.59 24.74,2.16 -2.3,-3.85 -4.6,-7.69 -6.79,-11.6 -9.38,3.32 -19.54,1.19 -29.08,3.94 m 47.91,-2.97 c -2.73,2.19 -5.62,4.15 -8.57,6.03 0.2,1.28 0.37,2.57 0.56,3.87 0.8,0.42 1.62,0.84 2.44,1.26 9.38,-1.73 18.35,-4.84 27.43,-7.64 -6.93,-2.27 -14.52,-3.22 -21.86,-3.52 m 231.39,1.98 c 0.09,30.18 -0.59,60.35 -0.81,90.53 -0.23,6.76 -0.73,13.64 0.37,20.34 25.83,17.87 53.42,33.1 79.61,50.45 3.28,2.28 6.93,3.9 10.54,5.58 -0.32,-35.46 0.98,-70.95 0.39,-106.42 -0.09,-1.05 -0.63,-1.82 -1.61,-2.31 -28.56,-20.74 -58.79,-39.13 -88.49,-58.17 m -444.09,45.5 c -6.44,4 -11.92,9.4 -18.64,12.95 -0.73,35.9 -0.71,71.8 -1.31,107.69 26.99,-19.16 54.1,-38.17 80.86,-57.64 0.66,-35.15 0.87,-70.31 1.13,-105.47 -20.68,14.16 -41.75,27.77 -62.04,42.47 M 268.95,505.9 c 1.86,26.29 0.03,52.71 -0.01,79.01 1.25,47.45 1.08,94.98 -0.46,142.37 4.14,2.41 9.05,2.26 13.66,2.75 13.19,1.02 26.56,1.69 39.64,-0.48 0.66,-8.68 0.09,-17.4 0.77,-26.08 -0.98,-28.13 0.91,-56.24 0.5,-84.35 6.45,-8.01 17.71,-7.89 26.73,-10.3 0.48,-2.11 -2.08,-4.55 -2.7,-6.83 -4.14,-9.83 1.83,-19.88 0.81,-29.88 2.82,-21.51 1.74,-43.23 2.03,-64.85 -12.5,3.07 -24.68,9.71 -37.94,8.16 -5.63,-0.59 -11.24,1.9 -16.78,0.31 -9.05,-2.34 -18.75,-3.77 -26.25,-9.83 m 277.23,5.41 c -9.42,1.15 -18.98,0.36 -28.43,1.32 -18.2,1.27 -36.32,-1.52 -54.33,-3.51 -2.86,10.41 -5.67,20.78 -8.23,31.24 15.84,0.61 31.2,-5.55 47.07,-6.08 4.87,-0.05 11.6,-1.43 14.51,3.66 -0.9,2.68 -4.4,1.54 -6.54,1.93 -2.39,3.36 -6.51,2.91 -10.13,2.98 -6.4,4.99 -15.2,4.26 -22.24,8 -7.54,1.52 -14.93,3.73 -22.41,5.55 -6.68,1.66 -12.63,5.98 -19.67,6.23 -2.24,-0.06 -3.45,2.21 -5,3.46 5.55,2.22 11.29,4.02 16.78,6.38 2.66,3.93 -0.23,9.07 0.32,13.5 0.75,11.83 0.11,23.68 0.13,35.51 5.74,-0.83 11.41,0.58 17.05,1.45 26.73,3.26 53.86,4.08 80.68,1.45 0.62,-3.54 1.04,-7.21 -0.19,-10.67 1.29,-2.51 1.08,-5.35 0.99,-8.07 0.45,-32.7 1.15,-65.39 1.65,-98.09 -0.7,1.23 -1.36,2.5 -2.01,3.76 m -130.83,5.5 c -7.62,11.77 -16.14,25.27 -12.82,39.97 3.02,-6.78 6.63,-13.25 10.91,-19.31 3.72,-5.76 7.15,-14.86 1.91,-20.66 m 6.95,13.51 c -2.57,9.78 -10.41,16.74 -14,25.97 -2.17,4.72 -0.04,9.64 2.84,13.48 9.36,-6.89 13.92,-18.63 14.42,-29.95 0.02,-3.44 -1.83,-6.49 -3.26,-9.5 M 37,557.82 c -0.98,37.06 -0.99,74.05 -1.01,111.12 15.64,-0.62 31.38,0.76 46.95,-1.12 C 84.18,631.41 83.73,595 84.49,558.59 68.7,557.44 52.82,558.18 37,557.82 m 322.46,16.64 c -8.48,7.3 -11.4,21.61 -4.67,30.93 4.6,-14.09 17.43,-23.96 21.04,-38.52 -0.06,-3.38 -1.32,-6.59 -2.68,-9.62 -4.87,5.53 -7.74,12.62 -13.69,17.21 m 287.47,-12.35 c -1.14,36.2 -1.7,72.39 -1.87,108.61 15.08,3.63 30.62,0.37 45.92,1.17 0.02,-36.34 1.32,-72.68 1.82,-109.03 -15.29,-0.27 -30.58,-0.58 -45.87,-0.75 m -243.74,7.29 c -4.96,-0.19 -10.16,0.14 -14.64,2.47 6.18,4.05 13.7,3.03 20.47,4.8 -0.95,-1.94 -2.7,-3.19 -4.5,-4.25 -0.19,-1.65 -0.34,-3.28 -0.52,-4.9 -0.2,0.47 -0.61,1.41 -0.81,1.88 m 10.38,7.23 c 6.78,1.18 13.56,-1.97 20.12,-3.48 -3.91,-2.58 -9,-0.97 -12.92,-3.66 -3.11,1.57 -5.2,4.38 -7.2,7.14 m -33.26,-6.33 c -4.06,8.27 -8.06,16.77 -14.58,23.45 -6.39,5.62 -7.03,15.83 -1.48,22.27 17.31,-6.8 24.35,-29.54 16.06,-45.72 m -166.6,55.49 c -2.18,2.1 -3.75,4.71 -5.37,7.24 11.34,0.92 22.71,1 34.04,0.32 8.21,-4.39 14.83,-11.15 22.34,-16.58 -0.69,-14.26 0.3,-28.8 -0.58,-43.17 -19.27,14.84 -33.59,34.85 -50.43,52.19 m 173.26,-50.23 c 0.59,1.26 1.28,2.51 1.69,3.88 0.42,11.23 -1.88,23.14 -9.55,31.78 9.17,0.48 18.38,2.25 25.47,8.52 -1.36,35.68 -1.44,71.29 -0.88,106.97 12.28,0.83 24.93,-1.91 36.01,-7.3 1.54,-16.1 1.18,-32.28 2.06,-48.43 -0.93,-31.1 1.75,-62.2 0.59,-93.3 -3.97,0.24 -7.91,0.87 -11.73,1.97 -14.45,3.84 -30.11,2.07 -43.66,-4.09 m -57.24,45.15 c 11.27,2.72 22.6,5.59 34.23,6.19 -0.72,-0.7 -1.43,-1.39 -2.13,-2.08 -0.41,-3.47 -1.91,-6.8 -4.23,-9.4 -9.28,0.19 -20.29,-0.98 -27.87,5.29 m 37.04,-0.42 c -0.04,1.91 -0.17,3.82 -0.41,5.72 9.46,0.4 18.35,-3.12 26.72,-7.16 -6.29,-0.68 -12.49,-1.91 -18.78,-2.62 -1.76,2.51 -4.64,3.53 -7.53,4.06 M 88.59,674.65 c -1.68,35.25 -1.07,70.66 -1.63,105.98 27.01,-20.54 53.92,-41.17 80.86,-61.78 1.01,-34.18 0.33,-68.22 0.85,-102.35 -26.44,19.73 -54.06,37.88 -80.08,58.15 m 462.38,-56.7 c -0.09,28.02 -1.25,56.07 -0.86,84.07 1.35,4.25 -1.93,9.07 1.05,12.84 3.55,4.19 8.63,6.64 12.82,10.12 25.42,18.39 50.76,36.88 76.13,55.31 0.5,-35.04 1.03,-70.11 1.09,-105.14 -29.59,-19.67 -60.32,-37.9 -90.23,-57.2 m -202.64,12.59 c -6.65,-2.27 -13.67,-2.78 -20.45,-4.51 -0.72,36.32 -1.03,72.63 -0.2,108.92 4.37,3.8 10.45,3.85 15.7,5.72 9.5,3.57 20,2.97 29.71,0.62 8.59,-1.02 17.86,-1.84 24.67,-7.79 2.73,-27.12 -0.71,-54.3 1.08,-81.44 0.1,-9.63 -0.28,-19.3 0.98,-28.87 -16.02,7.19 -34.08,11.87 -51.49,7.35 m 99.31,-5.81 c -0.18,29.1 0.08,58.83 -1.68,88.15 8.41,-0.31 16.76,0.47 25.13,1.1 5.59,0.82 10.08,-3.2 15.28,-4.35 5.43,-1.33 11.51,-2.3 16.71,0.39 7.83,-2.31 15.52,1.14 22.84,3.55 6.02,-0.52 12.08,0.29 18.09,-0.44 1.82,-27.66 1.77,-55.42 2.25,-83.14 -21.33,1.26 -42.71,0.59 -64.09,-0.51 -11.57,-1 -23.33,-1.36 -34.53,-4.75 m -223.48,44.71 c -16.77,2.93 -33.96,2.11 -50.57,6.34 -0.06,13.29 -0.32,26.65 -0.36,39.93 1.75,-0.06 3.53,-0.07 5.2,-0.65 10.49,1.57 21.06,-1.12 31.59,-0.23 17.87,-0.47 35.72,1.35 53.58,0.01 1.02,-17.41 -0.23,-34.87 1.26,-52.25 -13.46,2.64 -27.02,5.33 -40.7,6.85 m -188.26,3.6 c -0.61,37.25 -1.23,74.52 -0.88,111.82 15.61,-0.53 31.23,0.18 46.83,-0.84 -0.12,-37.07 1.1,-73.86 1.04,-110.84 -15.66,-0.09 -31.32,-0.29 -46.99,-0.14 m 609.24,2.27 c -0.31,36.19 0.05,72.41 -1.01,108.6 14.92,0.05 29.85,0.36 44.76,-0.29 0.64,-35.88 1.37,-71.75 1.75,-107.62 -15.17,-0.45 -30.37,0.4 -45.5,-0.69 m -172.9,47.02 c 3.12,2.8 6.55,6.87 11.24,5.4 5.89,0.38 9.91,-4.22 14.9,-6.43 3.17,-1.33 1.89,-5.4 2.31,-8.09 -10.59,-2.53 -20.5,2.62 -28.45,9.12 m 33.54,-9.78 c -0.05,3.36 0.31,6.74 -0.1,10.1 -6.31,3.32 -11.58,8.77 -19.07,9.33 3.09,4.09 8.53,5.71 11.14,10.26 2.83,5.98 10.59,3.41 15.51,1.95 6.71,-3.51 14.33,-5.82 19.86,-11.19 -3.8,-4.22 -4.35,-10.56 -8.96,-14.15 -5.06,-4.6 -11.93,-5.42 -18.38,-6.3 m -58.44,5.9 c -5.27,7.03 -14.2,10.01 -22.59,11.26 -7.01,0.85 -14.09,2.36 -21.15,1.27 0.26,4.39 -1.68,9.5 -6.33,10.7 -9.94,3.26 -20.36,5.26 -30.77,6.08 0.1,1.57 0.2,3.16 0.32,4.76 8.73,0.47 17.45,0.64 26.21,0.11 10.37,1.91 20.83,-0.26 31.26,-0.2 10.69,0.29 21.14,-2.23 31.74,-3.15 2.83,-7.57 3.59,-15.66 5.63,-23.42 0.9,-4.38 5.35,-6.19 8.98,-7.83 -7.75,-0.12 -15.68,-1.61 -23.3,0.42 m 83.56,0.26 c 3.36,4.16 3.41,10.12 7.54,13.72 4.52,1.64 8.64,4.24 13.25,5.75 7.34,7 7.36,18.19 7.16,27.66 0,2.23 -2.85,2.35 -4.29,3.34 2.59,1.79 4.48,4.31 6.48,6.71 3.09,2.75 7.21,4.36 9.45,8.05 21.75,0.19 43.54,0.59 65.31,-0.09 -28.63,-21.71 -57.99,-42.45 -86.72,-64.03 -5.89,-1.03 -12.15,-0.92 -18.18,-1.11 m -357.64,2.91 c -17.13,12.67 -34.29,25.46 -51.42,38.19 -5.34,4.92 -12.56,7.15 -17.59,12.45 -4.92,3.61 -11.03,5.89 -13.6,11.93 42.47,0.37 84.94,0.09 127.41,0.44 2.29,0.06 4.82,-0.24 6,-2.49 5.62,-8.12 11.91,-15.82 16.96,-24.32 -7.06,3.04 -14.83,1.83 -22.1,3.97 -25.31,4.54 -49.67,12.92 -74.56,18.98 -6.85,-0.92 -5.35,-10.64 -2.96,-15.2 28.22,-13.02 59.77,-14.63 89.81,-21 6.97,0.51 13.71,-1.98 20.52,-1.65 3.13,-4.68 7.06,-8.77 9.77,-13.73 -0.34,-0.57 -1.03,-1.7 -1.37,-2.26 1.33,0.13 2.65,0.27 3.98,0.43 -0.37,-2.4 -0.77,-4.78 -1.23,-7.15 -18.57,1.32 -37.14,-0.53 -55.72,0.34 -11.32,-0.69 -22.59,1.43 -33.9,1.07 m 293.7,3.91 c -2.73,7.63 -4.22,15.77 -4.51,23.85 -0.12,6.61 6.58,9.54 9.49,14.66 4.59,6.6 4.07,17.11 12.15,20.94 5.69,3.62 12.57,4.17 18.66,6.9 1.56,-6.3 1.48,-13.1 -0.26,-19.33 -3.79,-7.92 -7.94,-16.11 -7.15,-25.13 -6.9,-9.88 -18.63,-15.14 -28.38,-21.89 m -200.5,7.68 c -2.04,2.43 -4.18,4.78 -5.88,7.46 20.01,-1.7 39.94,0.64 59.63,4.01 14.31,1.06 27.94,5.72 41.92,8.49 0.04,-1.93 0.09,-3.85 0.14,-5.76 -6.43,1.01 -13.04,0.5 -19.27,-1.35 -7.9,-1.19 -16.05,-3.96 -21.83,-9.69 -18.27,0.33 -36.73,0.84 -54.71,-3.16 m 243.91,15.17 c 2.87,5.31 5.8,11.36 3.74,17.51 12.21,-3.57 25.26,-1.98 37.16,2.02 2.81,-2.79 4.67,-6.6 4.34,-10.62 -3.35,-4.95 -4.42,-10.99 -7.82,-15.96 -4.17,-0.54 -7.6,-3.13 -11.41,-4.68 -7.5,5.94 -16.73,9.66 -26.01,11.73 M 260.1,747.23 c 0.28,1.71 0.55,3.42 0.82,5.16 34.11,-4.54 67.12,7.86 100.95,9.37 -0.02,-1.42 -0.06,-2.82 -0.09,-4.21 -11.22,-1.82 -22.11,-4.49 -33.14,-7.24 -22.65,-2.09 -45.89,-9.26 -68.54,-3.08 m -46.52,4.32 c -19.24,5.38 -39.88,4.54 -58.41,12.69 -4.33,2.88 -11.47,4.29 -10.71,10.97 3.62,-0.61 7.31,-0.93 10.84,-1.97 29.24,-8.79 59.08,-16.25 89.43,-19.77 -0.67,-1.75 -1.67,-3.33 -2.89,-4.73 -9.49,0.35 -18.76,2.75 -28.26,2.81 m 49.44,5.31 c -4.99,0.91 -10.71,-0.75 -15.24,1.78 -6.55,8.5 -12.18,17.71 -19.05,25.99 44.16,-0.3 88.37,0.23 132.54,0.01 0.29,-5.54 0.33,-11.07 0.45,-16.61 -5.95,-1.49 -12.31,0.21 -17.99,-2.45 -15.78,-4.49 -32.35,-5.38 -48.51,-7.69 -10.22,-4.62 -21.5,-0.87 -32.2,-1.03 m 172.4,-0.34 c -20.53,1.69 -41.3,2.42 -61.78,0.79 -3.5,-1.84 -7.53,0.84 -7.24,4.77 7.99,2.53 16.43,0.73 24.62,1.59 5.8,0.58 11.63,0.79 17.46,0.73 17.66,-1.38 35.56,-1.56 52.79,-6.18 -6.61,-6.66 -17.58,-2.54 -25.85,-1.7 m -28.44,12.8 c -13.36,-1.41 -26.84,-0.9 -40.25,-1.14 -0.29,5.53 -0.07,11.06 -0.37,16.59 36.61,0.18 73.21,-0.65 109.81,-0.02 -5.54,-6.42 -5.66,-16.23 -12.53,-21.61 -18.67,3.76 -37.64,5.54 -56.66,6.18 m 100.42,1.42 c 0.74,6.67 1.94,13.4 0.9,20.12 6.02,3.89 13.02,9.3 20.62,7.09 7.53,-3.03 16.32,0.84 23.55,-3.5 4.82,-2.49 7.15,-7.69 11.48,-10.73 -3.99,-2.49 -7.77,-5.23 -10.61,-9.01 -3.38,-3.93 -8.67,-3.07 -13.2,-3.88 -10.08,-5.95 -22.02,-1.4 -32.74,-0.09 m -36.25,17.77 c -34.93,-0.01 -69.79,0.11 -104.71,0.01 -0.81,17.76 -0.42,35.55 -0.46,53.31 46.03,-0.93 92.12,-0.72 138.18,-0.79 1.63,-14.88 0.39,-29.93 0.86,-44.88 -4.95,1.35 -8.66,-2.98 -13.27,-3.81 -4.09,-0.72 -7.38,-3.32 -11.08,-4.95 -3.19,-0.07 -6.28,1.35 -9.52,1.11 M 35.19,787.94 c -0.61,18.75 -0.28,37.45 -0.25,56.15 15.54,-0.22 31.11,0.32 46.64,-0.75 C 80.4,825 81.38,806.53 81.85,788.16 66.31,787.99 50.72,787.3 35.19,787.94 m 51.84,0.16 c -0.71,7.28 0.82,14.59 -0.27,21.85 -0.95,11.05 1.16,22.37 -1.36,33.24 33.87,0.05 67.75,-0.36 101.63,-0.31 1.91,-0.02 4.01,0.18 5.54,-1.19 9.88,1.83 20.39,0.68 30.46,0.45 -0.75,-18.05 0.36,-36.13 -0.06,-54.15 -45.32,0.05 -90.63,-0.11 -135.94,0.11 m 141.16,0.06 c -0.3,12.55 0.13,25.15 -0.87,37.68 0.81,5.41 1.49,10.87 0.07,16.27 7.53,0.35 15.08,0.46 22.62,0.14 36.54,-0.72 73.13,0.45 109.64,-0.87 0.81,-2.97 0.47,-6.01 0.01,-8.99 2.39,-14.42 0.94,-29.29 1.11,-43.9 -15.26,-0.23 -30.57,-0.52 -45.77,0.72 -7.79,-0.87 -15.72,-1.29 -23.53,-0.46 -5.86,1.54 -11.76,-0.83 -17.69,-0.41 -15.2,-0.49 -30.39,-0.13 -45.59,-0.18 m 334.55,3.47 c -6.33,7.18 -16.27,10.94 -25.73,9.35 -5.17,-0.54 -10.13,2.55 -15.28,1.32 -3.98,-0.8 -7.6,-2.68 -11.17,-4.51 -0.48,14.28 -0.61,28.61 -0.12,42.88 7.64,0.91 15.32,-0.18 22.98,0 35.46,-0.84 70.95,-0.1 106.42,-0.7 -0.39,-17.25 0.39,-34.51 0.12,-51.76 -21.17,0.37 -42.37,-0.63 -63.54,0.28 -4.69,-0.09 -10.3,-0.96 -13.68,3.14 m 82.78,-3.01 c -2.15,6.28 -0.75,12.9 -1.35,19.36 -0.09,2.99 -0.79,6.38 1.4,8.85 -0.33,0.21 -0.98,0.64 -1.3,0.85 0.44,7.43 -0.69,14.85 -0.17,22.3 14.6,0.32 29.22,-0.19 43.72,-0.88 0.29,-16.89 0.64,-33.78 0.95,-50.66 -14.41,-0.22 -28.86,-0.43 -43.25,0.18 z"
         inkscape:connector-curvature="0"
         style="fill:#181317" />
    </g>
    <g
       transform="translate(-23.722628,-8.540146)"
       style="filter:url(#filter6725)"
       id="#ece796ff">
      <path
         id="path6455"
         d="m 369.12,130.02 c 7.04,7.24 13.96,14.74 22.19,20.68 6.53,8.09 14.64,14.68 21.64,22.33 5.12,6.91 13.25,10.72 18.74,17.28 26.2,23.68 52.54,47.53 75.66,74.3 7.83,10.28 14.69,21.23 22.03,31.88 3.51,8.09 9.66,14.91 11.43,23.74 2.24,10.61 6.7,20.75 7.44,31.65 1.11,9.15 0.34,18.38 1.18,27.54 -1.44,9.99 1.62,19.78 0.69,29.75 -30.14,2.53 -61.83,7.83 -91.27,-2.12 0.63,-10.98 2.54,-21.9 5.66,-32.43 1.42,-1.94 3.32,-3.46 5,-5.16 -1.08,0.04 -3.22,0.12 -4.3,0.17 4.58,-19.84 7.25,-42.64 -3.98,-60.85 -5.2,-5.47 -8.35,-13.11 -15.52,-16.45 -4.36,-1.45 -9.05,-1.22 -13.58,-1.14 -1.81,-4.17 -7.85,-9.96 -11.9,-7.08 2.7,3.09 6.06,5.93 6.74,10.23 -3.37,-0.02 -5.42,-3.47 -8.86,-3.46 -0.56,5.56 4.96,9.11 9.97,9.06 -0.68,5.79 2.9,11.35 0.86,17.02 -2.32,11.28 -6.64,22.66 -4.5,34.32 1.7,9.24 3.66,19.1 10.65,25.96 -13.66,4.33 -28.27,2.62 -42.05,6.42 9.58,-18.31 20.4,-36.49 24.61,-56.92 2.81,-5.1 4.58,-10.86 5.12,-16.65 0.12,-3.23 -3.57,-3.21 -5.85,-3.85 -12.98,18.82 -24.23,38.78 -36.57,58.03 -10.13,-8.47 -19.23,-18.11 -27.42,-28.48 1.25,-3.22 2.52,-6.45 4.51,-9.3 5.25,-7.68 8.12,-16.62 11.94,-25.02 1.35,-2.52 -2.79,-4.82 -4.22,-2.35 -5.24,9.94 -12.33,18.83 -17.87,28.67 -5.98,-6.5 -9.39,-14.72 -12.94,-22.68 4.07,-8.97 11.5,-17.58 10.25,-28 -1.41,-0.33 -2.82,-0.68 -4.24,-0.98 -3.12,6.59 -8.14,11.96 -12.72,17.54 -2.02,-7.78 -7.21,-14.4 -7.86,-22.57 -6.38,-24.1 -8.77,-49.24 -6.34,-74.05 -0.88,-7.82 3.64,-15.25 1.9,-23.02 8.1,-5.81 16.08,-11.81 24.55,-17.1 11.52,-6.97 18.58,-18.88 29.23,-26.91 z"
         inkscape:connector-curvature="0"
         style="fill:#ece796" />
      <path
         id="path6457"
         d="m 424.08,392.86 c 5.31,-1.34 10.62,-2.72 16.03,-3.68 0.79,4.04 1.42,8.11 1.88,12.2 -6.15,-2.45 -12.13,-5.31 -17.91,-8.52 z"
         inkscape:connector-curvature="0"
         style="fill:#ece796" />
      <path
         id="path6459"
         d="m 268.95,505.9 c 7.5,6.06 17.2,7.49 26.25,9.83 5.54,1.59 11.15,-0.9 16.78,-0.31 13.26,1.55 25.44,-5.09 37.94,-8.16 -0.29,21.62 0.79,43.34 -2.03,64.85 1.02,10 -4.95,20.05 -0.81,29.88 0.62,2.28 3.18,4.72 2.7,6.83 -9.02,2.41 -20.28,2.29 -26.73,10.3 0.41,28.11 -1.48,56.22 -0.5,84.35 -0.68,8.68 -0.11,17.4 -0.77,26.08 -13.08,2.17 -26.45,1.5 -39.64,0.48 -4.61,-0.49 -9.52,-0.34 -13.66,-2.75 1.54,-47.39 1.71,-94.92 0.46,-142.37 0.04,-26.3 1.87,-52.72 0.01,-79.01 z"
         inkscape:connector-curvature="0"
         style="fill:#ece796" />
      <path
         id="path6461"
         d="m 386.97,575.56 c 13.55,6.16 29.21,7.93 43.66,4.09 3.82,-1.1 7.76,-1.73 11.73,-1.97 1.16,31.1 -1.52,62.2 -0.59,93.3 -0.88,16.15 -0.52,32.33 -2.06,48.43 -11.08,5.39 -23.73,8.13 -36.01,7.3 -0.56,-35.68 -0.48,-71.29 0.88,-106.97 -7.09,-6.27 -16.3,-8.04 -25.47,-8.52 7.67,-8.64 9.97,-20.55 9.55,-31.78 -0.41,-1.37 -1.1,-2.62 -1.69,-3.88 z"
         inkscape:connector-curvature="0"
         style="fill:#ece796" />
      <path
         id="path6463"
         d="m 348.33,630.54 c 17.41,4.52 35.47,-0.16 51.49,-7.35 -1.26,9.57 -0.88,19.24 -0.98,28.87 -1.79,27.14 1.65,54.32 -1.08,81.44 -6.81,5.95 -16.08,6.77 -24.67,7.79 -9.71,2.35 -20.21,2.95 -29.71,-0.62 -5.25,-1.87 -11.33,-1.92 -15.7,-5.72 -0.83,-36.29 -0.52,-72.6 0.2,-108.92 6.78,1.73 13.8,2.24 20.45,4.51 z"
         inkscape:connector-curvature="0"
         style="fill:#ece796" />
    </g>
    <g
       transform="translate(-23.722628,-8.540146)"
       style="filter:url(#filter6731)"
       id="#ccd8e6ff">
      <path
         id="path6466"
         d="m 275.54,205.58 c 9.33,-11.13 22.41,-17.91 33.64,-26.85 -2.29,11.66 -1.14,23.57 -1.88,35.36 -0.93,17.18 1.54,34.25 5.73,50.89 1.53,12.1 9.81,22.53 10.63,34.68 -3.24,4.28 -6.03,9.71 -11.03,12.12 -4.2,7.47 -3.43,16.38 -5.18,24.53 -1.44,14.19 -6.58,27.57 -9.75,41.37 -4.95,7.27 -13.34,11.03 -19.55,17.07 -14.39,-19.97 -27.63,-41.32 -34.79,-65.04 -0.41,-4.43 -2.92,-8.13 -5.21,-11.79 5.09,-7.56 7.64,-16.88 14.83,-22.91 3,-5.05 8.22,-7.8 12.03,-12.06 -1.14,-1.64 -2.8,-3.01 -4.9,-2.18 -3.41,3.77 -7.24,7.14 -10.69,10.88 -1.43,0.02 -2.86,0.03 -4.28,0.05 -0.09,-5.25 3.89,-9.07 6,-13.54 5.8,-11.68 11.82,-23.28 16.48,-35.48 -2.1,-1.66 -4.37,-0.8 -5.35,1.57 -9.08,18.29 -16.62,37.42 -29.04,53.83 -3.55,-12.89 -4.76,-26.23 -6.93,-39.37 -0.67,-2.28 1.51,-3.48 3.21,-4.31 6.24,-11.5 17.11,-19.48 25.52,-29.34 6.19,-7.16 14.35,-12.28 20.51,-19.48 z"
         inkscape:connector-curvature="0"
         style="fill:#ccd8e6" />
      <path
         id="path6468"
         d="m 324.64,323.69 c 0.95,-4.64 5.04,-7.76 6.43,-12.28 3.68,7.31 8.24,14.1 12.19,21.25 -3.52,3.3 -4.65,8.18 -7.63,11.83 -4.56,3.79 -9.81,6.66 -14.36,10.47 1.98,-10.34 1.4,-20.96 3.37,-31.27 z"
         inkscape:connector-curvature="0"
         style="fill:#ccd8e6" />
      <path
         id="path6470"
         d="m 351.43,340.69 c 6.24,8.61 13.82,16.08 21.22,23.66 2.24,1.6 5.33,3.8 3.66,6.96 -3.5,6.59 -8.01,12.71 -13.4,17.85 -8.25,1.38 -16.38,3.54 -24.76,4.02 -9.49,1.68 -18.72,4.81 -28.38,5.51 3.18,-5.65 3.57,-12.23 5.74,-18.26 11.01,-5.33 19.53,-14.57 29.69,-21.24 1.9,-6.22 3.22,-12.7 6.23,-18.5 z"
         inkscape:connector-curvature="0"
         style="fill:#ccd8e6" />
      <path
         id="path6472"
         d="m 321.03,423.84 c 30.98,-10.78 61.8,-22.61 94.02,-29.22 9.03,3.59 17.17,9.38 26.59,12.02 0.79,6.98 0.07,13.97 -0.54,20.93 0.56,0.3 1.67,0.91 2.22,1.22 5.82,-3.56 12.25,1.83 17.89,-0.95 -0.47,-5.37 -2.59,-10.55 -1.95,-16.11 29.32,9.08 60.5,5.3 90.52,3.42 -0.1,26.37 -1.02,52.69 -1.32,79.06 -0.88,0.87 -1.75,1.76 -2.62,2.65 0.68,0.79 1.37,1.59 2.06,2.39 -0.02,2.45 0,4.89 0.12,7.34 -13.37,-1.05 -27.35,2.07 -41,1.77 -14.06,-0.64 -28.5,-1.2 -42.04,-5.15 1.44,-8.19 5.92,-15.29 8.21,-23.19 1.56,-3.15 3.66,-7.28 0.95,-10.41 -0.69,0.2 -2.06,0.59 -2.74,0.79 -1.92,6.37 -6.59,11.51 -7.92,18.09 -1.26,4.82 -3.46,9.34 -6.17,13.51 -7.08,-1 -13.92,-3.06 -20.58,-5.61 -13.54,-2.62 -25.9,-8.85 -38.85,-13.27 -20.72,-7.96 -40.47,-18.45 -58.36,-31.63 -1.82,-1.56 -4.02,-2.66 -6.47,-2.24 -0.74,-3.05 -2.83,-5.32 -5.35,-7.04 -5.6,-4.57 -2.89,-12.76 -6.67,-18.37 z"
         inkscape:connector-curvature="0"
         style="fill:#ccd8e6" />
      <path
         id="path6474"
         d="m 472.24,722.33 c 7.95,-6.5 17.86,-11.65 28.45,-9.12 -0.42,2.69 0.86,6.76 -2.31,8.09 -4.99,2.21 -9.01,6.81 -14.9,6.43 -4.69,1.47 -8.12,-2.6 -11.24,-5.4 z"
         inkscape:connector-curvature="0"
         style="fill:#ccd8e6" />
      <path
         id="path6476"
         d="m 505.78,712.55 c 6.45,0.88 13.32,1.7 18.38,6.3 4.61,3.59 5.16,9.93 8.96,14.15 -5.53,5.37 -13.15,7.68 -19.86,11.19 -4.92,1.46 -12.68,4.03 -15.51,-1.95 -2.61,-4.55 -8.05,-6.17 -11.14,-10.26 7.49,-0.56 12.76,-6.01 19.07,-9.33 0.41,-3.36 0.05,-6.74 0.1,-10.1 z"
         inkscape:connector-curvature="0"
         style="fill:#ccd8e6" />
      <path
         id="path6478"
         d="m 466.96,725.53 c 9.75,6.75 21.48,12.01 28.38,21.89 -0.79,9.02 3.36,17.21 7.15,25.13 1.74,6.23 1.82,13.03 0.26,19.33 -6.09,-2.73 -12.97,-3.28 -18.66,-6.9 -8.08,-3.83 -7.56,-14.34 -12.15,-20.94 -2.91,-5.12 -9.61,-8.05 -9.49,-14.66 0.29,-8.08 1.78,-16.22 4.51,-23.85 z"
         inkscape:connector-curvature="0"
         style="fill:#ccd8e6" />
      <path
         id="path6480"
         d="m 510.37,748.38 c 9.28,-2.07 18.51,-5.79 26.01,-11.73 3.81,1.55 7.24,4.14 11.41,4.68 3.4,4.97 4.47,11.01 7.82,15.96 0.33,4.02 -1.53,7.83 -4.34,10.62 -11.9,-4 -24.95,-5.59 -37.16,-2.02 2.06,-6.15 -0.87,-12.2 -3.74,-17.51 z"
         inkscape:connector-curvature="0"
         style="fill:#ccd8e6" />
      <path
         id="path6482"
         d="m 507.4,770.74 c 10.72,-1.31 22.66,-5.86 32.74,0.09 4.53,0.81 9.82,-0.05 13.2,3.88 2.84,3.78 6.62,6.52 10.61,9.01 -4.33,3.04 -6.66,8.24 -11.48,10.73 -7.23,4.34 -16.02,0.47 -23.55,3.5 -7.6,2.21 -14.6,-3.2 -20.62,-7.09 1.04,-6.72 -0.16,-13.45 -0.9,-20.12 z"
         inkscape:connector-curvature="0"
         style="fill:#ccd8e6" />
    </g>
    <g
       transform="translate(-23.722628,-8.540146)"
       style="filter:url(#filter6737)"
       id="#a6bbd6ff">
      <path
         id="path6485"
         d="m 200.29,295.4 c 7.4,-10.37 12.59,-22.35 21.63,-31.49 1.67,11.08 2.55,22.28 4.73,33.28 0.33,3.35 3.91,6.47 1.45,9.76 -4.6,8.34 -10.38,15.98 -15.63,23.91 3.38,15.19 5.19,30.69 7.99,45.97 -11.87,-11.72 -16.02,-28.16 -22.4,-43.01 -1.69,-0.09 -3.37,-0.19 -5.06,-0.27 -1.55,7.55 2.08,14.94 1.15,22.54 -4.34,-1.32 -8.72,-2.83 -13.31,-2.59 1.92,-20.59 10.35,-39.78 19.45,-58.1 z"
         inkscape:connector-curvature="0"
         style="fill:#a6bbd6" />
      <path
         id="path6487"
         d="m 232.51,362.23 c 0.83,-13.13 -5.7,-27.27 2.68,-39.14 7.82,27.12 22.72,51.84 39.61,74.07 -7.91,8.45 -17.87,14.58 -26.65,22.04 -6.48,-18.83 -9.43,-38.27 -15.64,-56.97 z"
         inkscape:connector-curvature="0"
         style="fill:#a6bbd6" />
      <path
         id="path6489"
         d="m 180.52,356.12 c 13.81,12.61 27.89,25.01 40.21,39.15 6.63,6.5 6.92,16.42 9.25,24.89 1.09,10.61 4.89,20.83 5.72,31.42 -5.37,15.17 -8.08,31 -12.39,46.49 -0.5,-0.36 -1.49,-1.07 -1.99,-1.43 -2.32,-11.11 -2.89,-22.57 -5.53,-33.62 -1.8,0.09 -3.58,0.22 -5.37,0.33 0.37,5.45 -0.67,10.81 -1.55,16.16 -11.75,-15.31 -23.59,-30.51 -34.57,-46.4 3.3,-4.72 1.42,-10.75 2.01,-16.09 0.9,-11.68 -0.89,-23.49 1.66,-35.03 0.67,-8.64 1.55,-17.26 2.55,-25.87 z"
         inkscape:connector-curvature="0"
         style="fill:#a6bbd6" />
      <path
         id="path6491"
         d="m 286.94,430.8 c 5.31,-0.37 10.53,-1.4 15.74,-2.46 4.06,2.8 7.76,6.07 11.1,9.7 -4.41,8.47 -12.05,14.49 -17.58,22.1 -5.3,11.39 0.89,23 4.98,33.59 -9.67,1.18 -19.46,1.43 -29.04,3.33 -2.75,0.8 -6.44,2.41 -6.78,5.64 0.06,15.1 0.51,30.25 -1.05,45.31 -4.51,0.96 -8.7,2.96 -13.17,4.01 -0.31,-5.63 1.87,-10.94 2.42,-16.48 0.77,-3.94 0.29,-8.43 3.18,-11.6 -0.55,-0.61 -1.1,-1.22 -1.65,-1.82 2.39,-20.41 7.24,-40.56 7.6,-61.16 2.93,-3.5 5.05,-7.7 8.63,-10.63 6.37,-5.51 10.4,-13.04 15.62,-19.53 z"
         inkscape:connector-curvature="0"
         style="fill:#a6bbd6" />
      <path
         id="path6493"
         d="m 334.28,454.9 c 8.11,4.72 15.63,10.42 23.88,14.92 27.98,16.62 59.02,27.06 90.25,35.66 1.98,0.73 4.92,0.15 5.97,2.38 -6.28,12.95 -12.9,26.27 -23.26,36.46 1.13,-12.75 -9.17,-21.45 -12.34,-32.97 -0.44,-2.99 -2.87,-4.56 -5.6,-5.22 -0.62,0.69 -1.24,1.4 -1.85,2.11 -1.86,12.49 -12.4,22.05 -14.84,34.43 -0.49,7.32 -0.82,15.8 4.21,21.71 -6.09,-0.02 -12.15,1.06 -17.92,2.97 -2.34,-6.2 -5.2,-12.22 -6.56,-18.74 -0.36,-2.32 -3.03,-2.11 -4.76,-2.53 -3.08,10.31 -9.52,20.24 -18.32,26.49 0.94,-20.73 2.39,-41.51 0.48,-62.23 -0.68,-3.51 -0.01,-7.06 -0.02,-10.59 -8.57,-2.12 -17,-5 -26.06,-4.43 3.68,-8.78 8.3,-17.63 8.37,-27.37 0.13,-4.43 -1.42,-8.66 -1.63,-13.05 z"
         inkscape:connector-curvature="0"
         style="fill:#a6bbd6" />
      <path
         id="path6495"
         d="m 546.18,511.31 c 0.65,-1.26 1.31,-2.53 2.01,-3.76 -0.5,32.7 -1.2,65.39 -1.65,98.09 0.09,2.72 0.3,5.56 -0.99,8.07 1.23,3.46 0.81,7.13 0.19,10.67 -26.82,2.63 -53.95,1.81 -80.68,-1.45 -5.64,-0.87 -11.31,-2.28 -17.05,-1.45 -0.02,-11.83 0.62,-23.68 -0.13,-35.51 -0.55,-4.43 2.34,-9.57 -0.32,-13.5 -5.49,-2.36 -11.23,-4.16 -16.78,-6.38 1.55,-1.25 2.76,-3.52 5,-3.46 7.04,-0.25 12.99,-4.57 19.67,-6.23 7.48,-1.82 14.87,-4.03 22.41,-5.55 7.04,-3.74 15.84,-3.01 22.24,-8 3.62,-0.07 7.74,0.38 10.13,-2.98 2.14,-0.39 5.64,0.75 6.54,-1.93 -2.91,-5.09 -9.64,-3.71 -14.51,-3.66 -15.87,0.53 -31.23,6.69 -47.07,6.08 2.56,-10.46 5.37,-20.83 8.23,-31.24 18.01,1.99 36.13,4.78 54.33,3.51 9.45,-0.96 19.01,-0.17 28.43,-1.32 z"
         inkscape:connector-curvature="0"
         style="fill:#a6bbd6" />
    </g>
    <g
       transform="translate(-23.722628,-8.540146)"
       style="filter:url(#filter6743)"
       id="#a05e49ff">
      <path
         id="path6498"
         d="m 432.16,294.91 c 6.67,-0.16 17.75,0.18 18.42,8.92 -2.25,6.61 -10.63,6.94 -16.5,7.44 -4.07,-4.14 -4.61,-11.23 -1.92,-16.36 z"
         inkscape:connector-curvature="0"
         style="fill:#a05e49" />
      <path
         id="path6500"
         d="m 446.81,313.11 c 2.27,-2.04 4.43,-4.2 6.48,-6.46 10.88,10.04 12.35,26.4 10.75,40.3 0.12,7.63 -1.51,15.1 -3.6,22.4 -7.19,-3.06 -13.15,-9.49 -14.31,-17.39 -1.68,-12.93 1.22,-25.89 0.68,-38.85 z"
         inkscape:connector-curvature="0"
         style="fill:#a05e49" />
      <path
         id="path6502"
         d="m 435.13,314.23 c 2.34,-0.23 4.69,-0.47 7.04,-0.73 1.87,14.11 -5,28.81 0.71,42.47 1.58,7.64 8.02,12.76 14.28,16.7 -5.67,1.09 -11.19,2.78 -16.8,4.11 -7.98,-8.34 -11.37,-19.9 -12.13,-31.21 0.02,-5.11 1.77,-10.23 0.07,-15.26 4.05,-4.5 5.54,-10.34 6.83,-16.08 z"
         inkscape:connector-curvature="0"
         style="fill:#a05e49" />
      <path
         id="path6504"
         d="m 453.12,383.28 c 1.68,-1.16 3.38,-2.31 5.07,-3.46 -3.43,15.33 -5.01,31.1 -1.91,46.64 -5.37,-1.06 -2.67,-7.64 -3.32,-11.47 1.05,-10.59 -1.02,-21.15 0.16,-31.71 z"
         inkscape:connector-curvature="0"
         style="fill:#a05e49" />
    </g>
    <g
       transform="translate(-23.722628,-8.540146)"
       style="filter:url(#filter6749)"
       id="#d89f1bff">
      <path
         id="path6507"
         d="m 302.59,458.61 c 6.31,-6.44 12.49,-13.01 17.22,-20.73 1.71,2.81 3.51,5.58 5.53,8.19 -0.83,16.13 -18.06,21.95 -23.89,35.37 -1.39,-7.36 -4.9,-16.63 1.14,-22.83 z"
         inkscape:connector-curvature="0"
         style="fill:#d89f1b" />
      <path
         id="path6509"
         d="m 415.35,516.81 c 5.24,5.8 1.81,14.9 -1.91,20.66 -4.28,6.06 -7.89,12.53 -10.91,19.31 -3.32,-14.7 5.2,-28.2 12.82,-39.97 z"
         inkscape:connector-curvature="0"
         style="fill:#d89f1b" />
      <path
         id="path6511"
         d="m 359.46,574.46 c 5.95,-4.59 8.82,-11.68 13.69,-17.21 1.36,3.03 2.62,6.24 2.68,9.62 -3.61,14.56 -16.44,24.43 -21.04,38.52 -6.73,-9.32 -3.81,-23.63 4.67,-30.93 z"
         inkscape:connector-curvature="0"
         style="fill:#d89f1b" />
      <path
         id="path6513"
         d="m 260.1,747.23 c 22.65,-6.18 45.89,0.99 68.54,3.08 11.03,2.75 21.92,5.42 33.14,7.24 0.03,1.39 0.07,2.79 0.09,4.21 -33.83,-1.51 -66.84,-13.91 -100.95,-9.37 -0.27,-1.74 -0.54,-3.45 -0.82,-5.16 z"
         inkscape:connector-curvature="0"
         style="fill:#d89f1b" />
      <path
         id="path6515"
         d="m 213.58,751.55 c 9.5,-0.06 18.77,-2.46 28.26,-2.81 1.22,1.4 2.22,2.98 2.89,4.73 -30.35,3.52 -60.19,10.98 -89.43,19.77 -3.53,1.04 -7.22,1.36 -10.84,1.97 -0.76,-6.68 6.38,-8.09 10.71,-10.97 18.53,-8.15 39.17,-7.31 58.41,-12.69 z"
         inkscape:connector-curvature="0"
         style="fill:#d89f1b" />
      <path
         id="path6517"
         d="m 435.42,756.52 c 8.27,-0.84 19.24,-4.96 25.85,1.7 -17.23,4.62 -35.13,4.8 -52.79,6.18 -5.83,0.06 -11.66,-0.15 -17.46,-0.73 -8.19,-0.86 -16.63,0.94 -24.62,-1.59 -0.29,-3.93 3.74,-6.61 7.24,-4.77 20.48,1.63 41.25,0.9 61.78,-0.79 z"
         inkscape:connector-curvature="0"
         style="fill:#d89f1b" />
    </g>
    <g
       transform="translate(-23.722628,-8.540146)"
       style="filter:url(#filter6755)"
       id="#d3461aff">
      <path
         id="path6520"
         d="m 321.36,463.37 c 2.41,-4.1 4.76,-8.25 7.62,-12.07 3.74,14.15 2.43,30.02 -6.76,41.85 -4.69,2.82 -8.82,6.4 -13.05,9.84 -5.21,-7 -5.85,-16.64 -1.32,-24.15 2.77,-6.63 10.1,-9.33 13.51,-15.47 z"
         inkscape:connector-curvature="0"
         style="fill:#d3461a" />
      <path
         id="path6522"
         d="m 422.3,530.32 c 1.43,3.01 3.28,6.06 3.26,9.5 -0.5,11.32 -5.06,23.06 -14.42,29.95 -2.88,-3.84 -5.01,-8.76 -2.84,-13.48 3.59,-9.23 11.43,-16.19 14,-25.97 z"
         inkscape:connector-curvature="0"
         style="fill:#d3461a" />
      <path
         id="path6524"
         d="m 380.31,570.3 c 8.29,16.18 1.25,38.92 -16.06,45.72 -5.55,-6.44 -4.91,-16.65 1.48,-22.27 6.52,-6.68 10.52,-15.18 14.58,-23.45 z"
         inkscape:connector-curvature="0"
         style="fill:#d3461a" />
    </g>
  </g>
</svg>
