<?xml version="1.0" encoding="UTF-8" standalone="no"?>
<!-- Created with Inkscape (http://www.inkscape.org/) -->

<svg
   xmlns:dc="http://purl.org/dc/elements/1.1/"
   xmlns:cc="http://creativecommons.org/ns#"
   xmlns:rdf="http://www.w3.org/1999/02/22-rdf-syntax-ns#"
   xmlns:svg="http://www.w3.org/2000/svg"
   xmlns="http://www.w3.org/2000/svg"
   xmlns:sodipodi="http://sodipodi.sourceforge.net/DTD/sodipodi-0.dtd"
   xmlns:inkscape="http://www.inkscape.org/namespaces/inkscape"
   width="744.09448819"
   height="1052.3622047"
   id="svg2"
   version="1.1"
   inkscape:version="0.48.4 r9939"
   sodipodi:docname="albion-map-lite.svg">
  <defs
     id="defs4" />
  <sodipodi:namedview
     id="base"
     pagecolor="#ffffff"
     bordercolor="#666666"
     borderopacity="1.0"
     inkscape:pageopacity="0.0"
     inkscape:pageshadow="2"
     inkscape:zoom="0.7"
     inkscape:cx="436.50747"
     inkscape:cy="234.17568"
     inkscape:document-units="px"
     inkscape:current-layer="layer1"
     showgrid="false"
     inkscape:window-width="1920"
     inkscape:window-height="1138"
     inkscape:window-x="-8"
     inkscape:window-y="-8"
     inkscape:window-maximized="1" />
  <metadata
     id="metadata7">
    <rdf:RDF>
      <cc:Work
         rdf:about="">
        <dc:format>image/svg+xml</dc:format>
        <dc:type
           rdf:resource="http://purl.org/dc/dcmitype/StillImage" />
        <dc:title></dc:title>
      </cc:Work>
    </rdf:RDF>
  </metadata>
  <g
     inkscape:label="Layer 1"
     inkscape:groupmode="layer"
     id="layer1">
    <path
       style="fill:none;stroke:#000000;stroke-width:1px;stroke-linecap:butt;stroke-linejoin:miter;stroke-opacity:1"
       d="m 413.27866,742.49789 c 0,0 10.98541,6.81853 13.51079,16.54125 l -2.77792,8.33376 c 0,0 8.46003,2.52538 9.72272,6.18718 0,0 -4.92449,8.20749 6.81853,18.94036 0,0 8.20749,2.27284 12.75318,-6.18718 0,0 -4.04061,-3.53554 -4.67196,-10.2278 -0.63135,-6.69226 6.06092,-9.09137 9.34391,-9.09137 3.283,0 13.76333,8.58629 14.89975,10.85914 0,0 3.15673,-6.81853 9.47018,-6.56599 6.31345,0.25253 7.82868,8.83883 11.99556,9.84898 l 0.63135,-4.79822 -9.21764,-9.34391 c 0,0 -11.23795,1.51523 -9.47018,-8.20749 0,0 -4.54569,-1.51523 -8.20749,-0.37881 0,0 -2.39912,-10.85914 13.38452,-11.11168 0,0 2.77792,-6.31345 3.53553,-6.18718"
       id="path3792"
       inkscape:connector-curvature="0"
       inkscape:export-filename="F:\dev\web\lions\full-map.png"
       inkscape:export-xdpi="1200"
       inkscape:export-ydpi="1200" />
    <path
       style="fill:none;stroke:#000000;stroke-width:1px;stroke-linecap:butt;stroke-linejoin:miter;stroke-opacity:1"
       d="m 595.99,749.56896 c 0,0 2.02031,13.88959 14.26841,16.41498 0,0 -10.10153,-0.25254 -11.74303,-1.2627 0,0 -2.90418,2.65166 -2.65165,4.29315 0,0 -10.22779,-11.99556 -18.56155,-7.3236 0,0 -1.6415,-8.08122 7.44988,-17.5514 l -1.13643,-5.42957 c 0,0 4.79822,10.98541 12.37437,10.85914 z"
       inkscape:connector-curvature="0"
       id="path3794"
       inkscape:export-filename="F:\dev\web\lions\full-map.png"
       inkscape:export-xdpi="1200"
       inkscape:export-ydpi="1200" />
    <path
       style="fill:none;stroke:#000000;stroke-width:1.19100547px;stroke-linecap:butt;stroke-linejoin:miter;stroke-opacity:1"
       d="m 580.33338,736.71636 c 3.70849,5.80978 -3.39694,8.72342 -5.00486,13.66411 -2.57568,4.98876 -3.66918,10.84574 -2.08535,16.33117 9.0148,-6.97899 19.40852,2.67355 25.05373,9.13101 4.17737,5.08517 -1.02473,-7.14997 4.2171,-6.31781 6.1418,0.77202 12.56141,1.73456 18.46488,-0.65763 -6.58439,-3.7177 -15.4398,-5.4227 -18.38905,-13.26222 -2.62476,-3.51902 -0.98094,-10.00405 -6.67315,-9.17031 -7.77922,-2.17996 -9.75608,-11.10109 -15.20414,-16.03889 -0.12639,2.10686 -0.25276,4.21372 -0.37916,6.32057 z"
       id="path3822"
       inkscape:connector-curvature="0"
       inkscape:export-filename="F:\dev\web\lions\full-map.png"
       inkscape:export-xdpi="1200"
       inkscape:export-ydpi="1200" />
    <path
       style="fill:none;stroke:#000000;stroke-width:1px;stroke-linecap:butt;stroke-linejoin:miter;stroke-opacity:1"
       d="m 484.10715,741.29075 21.78571,-18.57143 11.25,0 0,-6.42857 7.67857,-0.17857 6.96429,8.92857 0.17857,4.28572 13.21428,13.75 6.78572,0.89285 6.60714,11.42858 0.53572,8.39285 3.21428,1.78572 3.21429,-1.07143 -3.75,-5 1.42857,-17.14286 2.5,-1.96428 -3.92857,-2.85715 2.67857,-18.75 -7.32143,-8.03571 3.03571,-11.78572 -4.10714,-2.32143 0.71429,-7.32142 -11.60715,-5.71429 -0.53571,-3.21429 5.53571,-10 -7.5,-4.28571 -0.71428,-5.17857 8.39286,-4.46429 6.96428,2.5 7.85714,-5.35714 -23.39285,-12.67857 -0.17857,-3.92857 -4.46429,2.14285 -6.96429,-4.10714 -0.35714,-9.46428 3.57143,-3.57143 1.42857,-9.46429 -4.28571,-7.5 -5.35715,-0.89286 -2.67857,4.64286 -1.78571,5.71429 -3.39286,-1.96429 -3.57143,3.03572 -13.03571,8.39285 -12.32143,-6.60714 -17.32143,-1.60714 18.21429,-1.60715 13.92857,-16.25 6.42857,-2.32142 -3.92857,-16.25 7.85714,-8.21429 0.53572,-5 -9.64286,2.5 1.78571,-12.5 3.75,-10.71429 -7.14285,-6.25 0.17857,-3.75 -16.96429,10.53572 -9.64286,-18.92857 -12.5,-4.46429 -3.03571,3.75 1.07143,-8.75 -12.67857,-7.32143 -3.39286,2.85715 -14.28571,-8.75 -3.75,-7.67858 -5,-1.07142 -1.78572,-15.35715 5.71429,-10 -5,-1.25 -5.35715,-4.82143 -3.03571,0 8.75,-10.35714 -4.10714,-3.57143 -6.42857,1.78572 -6.60715,-4.82143 -6.78571,0.17857 -8.39286,-5.71429 -6.07143,8.21429 -5,-0.53572 -5.35714,-5.71428 -5.17857,1.07143 5,-2.67857 -1.07143,-6.07143 L 385,423.96932 l -6.07143,-1.42857 7.85715,-0.35714 7.67857,-8.57143 6.78571,-3.92857 -0.17857,-5 -6.42857,-6.96429 -5,-1.42857 -8.57143,3.75 8.21429,-4.64286 1.07143,-11.42857 3.92857,-3.21428 -0.17857,-4.46429 -4.46429,-2.14286 -5.35714,4.10715 5,-5 0,-5.17858 8.57143,-12.14285 6.60714,-8.75 -3.92857,-14.46429 -3.75,-3.21428 -0.71429,-6.60715 2.5,-1.78571 -1.96428,-2.67857 -4.82143,-3.39286 -2.67857,-0.17857 -2.14286,-10.53572 4.10714,-4.10714 -5.71428,-6.42857 -2.67858,1.42857 -5,-0.35714 -3.75,-4.46429 -5.89285,6.78572 -3.75,-1.42857 -5.89286,5.17857 0.35714,5.53571 3.92857,0.71429 3.57143,14.46428 -4.64285,4.28572 0.71428,5.17857 4.82143,6.60714 -1.42857,11.60714 -6.96429,-1.60714 -6.78571,5.35714 -7.85715,-7.32142 -9.64285,5.89285 -9.28572,-5.53571 -3.21428,-0.53572 -0.17857,-5.17857 -5.71429,-3.21428 -11.42857,0.71428 -8.39286,8.92857 -7.5,0.17858 -8.57143,6.78571 -2.14285,3.57143 0.71428,5.71428 5.53572,5.89286 13.39285,-4.28571 -26.60714,25.35714 -0.35714,5.35714 -6.60715,0.17857 -1.96428,5.53572 -2.67857,0.89286 1.60714,5.53571 5.35714,5.35714 -0.17857,3.21429 4.46429,2.5 4.28571,-2.14286 9.10714,-3.39286 6.07143,-3.92857 1.07143,6.42857 -0.35714,7.85715 c 0,0 -3.92857,3.92857 -4.10714,4.64285 -0.17858,0.71429 -1.07143,9.82143 -1.07143,9.82143 l -1.25,11.42857 -1.07143,14.28572 8.57143,2.5 6.07143,3.92857 -0.53572,12.14286 8.57143,22.14286 -14.64286,17.14285 9.28572,10.89286 -4.82143,4.82143 6.60714,6.25 -1.78571,3.75 9.82143,13.03571 -5.35715,7.67857 4.82143,5.35715 -1.42857,13.75 -26.42857,15.17857 -10.53572,-9.10714 -9.28571,-0.17858 -6.96429,8.03572 -16.96428,-1.25 -13.92857,5.17857 1.78571,5 -12.67857,15.53571 -17.32143,0.71429 -8.21428,12.5 -5.53572,1.78571 -3.57143,10.35715 7.5,-5.17857 15.89286,5.53571 -0.71429,15.17857 -8.57142,12.32143 -4.64286,3.21429 5.17857,10 15.71429,4.64285 5.71428,6.96429 -1.07143,9.64286 7.32143,13.03571 -0.53571,7.32143 c 0,0 5.53571,0.17857 6.07143,0.89286 0.53571,0.71428 3.03571,12.85714 3.03571,12.85714 L 225,748.61218 l 2.14286,6.60714 3.21428,12.5 9.25574,7.2822 19.85141,-17.10362 -3.57143,-7.32143 8.39285,-1.07143 -0.17857,-11.07143 -5.53571,-8.21429 c 0,0 -2.85714,-5.89285 9.46428,-16.25 l -13.57142,-16.78571 7.5,-12.32143 -0.53572,-6.07143 c 0,0 -8.03571,-5.35714 -11.96428,-15.17857 0,0 3.39285,-8.21428 9.46428,-13.21428 0,0 16.78572,-7.67858 25.17857,-18.57143 0,0 4.28572,2.14285 5.35715,10.17857 0,0 -2.32143,-5.89286 13.03571,-3.92857 0,0 2.5,0.53571 2.85714,4.28571 0,0 3.21429,-1.60714 8.03572,4.28572 0,0 -1.07143,-3.21429 7.32143,-7.14286 0,0 6.07142,-0.89286 11.42857,17.67857 l 5.17857,2.14286 c 0,0 18.75,34.64285 6.78571,33.39285 0,0 4.46429,8.21429 1.60715,12.5 0,0 12.00598,9.87818 5.31372,24.52539 0,0 3.15673,15.27856 -8.33376,20.58186 0,0 4.54569,10.85914 -4.41942,9.34391 0,0 6.31346,6.56599 -2.52538,11.23795 0,0 -1.6415,13.00571 9.47018,14.77348 0,0 3.78807,1.89404 2.39912,13.76333 0,0 5.6821,-17.29886 24.49619,2.77792 0,0 2.14658,3.91434 2.90419,-9.47018 l 11.8693,-0.37881 c 0,0 2.39911,8.08122 9.97525,5.80838 0,0 3.6618,2.90419 4.04061,10.6066 0,0 -5.42957,0.50508 -5.80838,5.3033 l -5.93464,1.38896 c 0,0 -0.37881,3.03046 1.76777,3.6618 2.14657,0.63135 12.12183,3.78808 12.12183,7.95495 0,4.16688 -8.08122,3.66181 -8.5863,5.80838 l 0.37881,2.39911 c 0,0 26.5165,2.65165 25.88516,17.67767 l 6.94479,-17.42513 c 0,0 -13.13198,0 3.03046,-28.03173 0,0 0.63135,-13.00571 -12.50064,-18.30902 0,0 1.89404,-12.87944 -9.84898,-21.46574 0,0 7.70241,-14.2684 4.41941,-25.12754"
       id="path3005"
       inkscape:connector-curvature="0"
       sodipodi:nodetypes="ccccccccccccccccccccccccccccccccccccccccccccccccccccccccccccccccccccccccccccccccccccccccccccccccccccccccccccccccccccccccccccccccccccccccccccccccccccccccccccscccccccccccccccccccccccccccccccccccccccscccccccccccccccccccccccccccccccccccccccsscccccccc"
       inkscape:export-filename="F:\dev\web\lions\full-map.png"
       inkscape:export-xdpi="1200"
       inkscape:export-ydpi="1200" />
    <path
       style="fill:#800000;fill-opacity:1;stroke:none"
       d="m 420.86477,848.84514 c 0,-1.14546 -2.45234,-4.7361 -4.47438,-6.55124 -2.87087,-2.57716 -14.80828,-7.24578 -18.52701,-7.24578 -1.27213,0 -2.92757,-1.33648 -2.50412,-2.02167 0.14447,-0.23375 1.73767,-0.91585 3.54045,-1.51578 4.98347,-1.65837 6.20519,-4.43982 3.31101,-7.53806 -1.4173,-1.51725 -7.38175,-4.63014 -10.25167,-5.35043 -0.74946,-0.18809 -1.50519,-0.7911 -1.67941,-1.34001 -0.38833,-1.2235 -0.55162,-1.10824 2.79955,-1.97682 2.05363,-0.5323 2.81896,-0.97929 2.95461,-1.72575 0.27081,-1.49017 2.08724,-3.24577 3.84248,-3.71382 1.47799,-0.39411 1.53879,-0.5172 1.44202,-2.91864 -0.10458,-2.59503 -1.64709,-6.84721 -3.04381,-8.39078 -0.57044,-0.63043 -1.56891,-0.88388 -3.48185,-0.88388 -2.25894,0 -2.95391,-0.2387 -4.40517,-1.51291 -0.94771,-0.8321 -2.01941,-2.22825 -2.38156,-3.10255 l -0.65845,-1.58966 -6.31971,0.33785 c -3.47583,0.18581 -6.39137,0.40953 -6.47898,0.49713 -0.0876,0.0876 -0.39701,2.05519 -0.68756,4.37241 -0.29056,2.31719 -0.64833,4.40735 -0.79505,4.64473 -0.14672,0.23744 -1.73414,-0.94101 -3.5276,-2.61867 -7.58579,-7.09615 -14.33488,-8.70798 -19.06654,-4.55352 l -1.68912,1.48306 -0.31225,-3.34378 c -0.44258,-4.73956 -1.55672,-6.62925 -4.58661,-7.77937 -4.33231,-1.64452 -6.71525,-4.90938 -7.23108,-9.90731 -0.27792,-2.69279 -0.24641,-2.77567 1.80444,-4.74631 1.148,-1.10311 2.22864,-2.56884 2.4014,-3.25719 0.34085,-1.35803 0.0814,-4.00481 -0.53077,-5.41567 -0.30816,-0.71019 -0.13198,-0.88389 0.89653,-0.88389 2.70167,0 4.0951,-3.8047 2.9086,-7.9418 -0.43283,-1.50918 -0.34448,-1.69622 1.2735,-2.69619 4.16071,-2.57146 6.38645,-7.62557 6.56268,-14.90227 0.0712,-2.93963 0.48845,-6.3413 0.98908,-8.06341 1.84937,-6.36159 0.003,-14.4988 -4.46331,-19.66496 -1.52679,-1.76623 -1.67788,-2.19388 -1.32615,-3.7534 0.4397,-1.94957 -0.11274,-5.60255 -1.26394,-8.35775 -0.70833,-1.69529 -0.69593,-1.79536 0.22259,-1.79536 3.07839,0 3.30584,-6.65769 0.50504,-14.78308 -0.91399,-2.65158 -3.16948,-8.07761 -5.01221,-12.05784 l -3.35041,-7.23679 -2.70529,-1.29388 c -2.61612,-1.25123 -2.75068,-1.41796 -4.08211,-5.05823 -2.80565,-7.67092 -5.77165,-12.10497 -8.99929,-13.45356 -1.55834,-0.65112 -1.85178,-0.60375 -4.20955,0.67951 -1.39394,0.75867 -3.2159,2.15555 -4.04879,3.10417 l -1.51436,1.72476 -1.10252,-1.00323 c -1.56449,-1.4236 -3.10549,-2.13961 -4.60484,-2.13961 -0.91794,0 -1.2959,-0.26894 -1.2959,-0.92211 0,-0.50716 -0.5861,-1.47312 -1.30244,-2.14658 -1.14709,-1.0784 -1.855,-1.24463 -5.93465,-1.39356 -3.13134,-0.11431 -5.31819,0.0678 -6.74939,0.56215 l -2.11718,0.73124 -1.41835,-2.81242 c -0.78009,-1.54683 -2.0224,-3.24904 -2.76067,-3.78267 l -1.34232,-0.97024 -3.70844,3.7344 c -4.77988,4.81334 -9.20869,8.08337 -16.66745,12.3065 -6.83341,3.86906 -9.4859,6.44784 -13.06332,12.70036 l -2.21211,3.86628 1.99539,3.82185 c 1.34144,2.56932 3.34283,5.21614 6.10682,8.0762 3.69093,3.81924 4.14426,4.50192 4.43252,6.6749 0.31124,2.34626 0.20423,2.61128 -3.48721,8.63604 -2.09456,3.41851 -3.711,6.46906 -3.59207,6.77899 0.11893,0.30992 3.10634,4.14111 6.6387,8.51374 l 6.42245,7.95024 -2.36975,2.27076 c -4.6713,4.47618 -6.85278,8.33935 -6.85278,12.13556 0,1.92727 0.41218,2.8454 2.79586,6.22785 l 2.79585,3.96733 -0.1442,5.20095 -0.1442,5.20095 -3.53554,0.40094 c -5.20732,0.59052 -5.05799,0.37114 -3.01461,4.42874 0.9942,1.97422 1.73827,3.76337 1.65351,3.9759 -0.0848,0.21252 -4.29091,3.9499 -9.34699,8.30527 l -9.19285,7.91886 -4.2566,-3.34559 -4.25661,-3.34559 -1.84555,-7.00583 c -1.01505,-3.8532 -2.16704,-7.91703 -2.55998,-9.03073 l -0.71443,-2.0249 2.04615,-0.61304 c 1.12538,-0.33718 2.15537,-0.89766 2.28885,-1.24552 0.13349,-0.34787 -0.34474,-3.25117 -1.06272,-6.45179 -0.71799,-3.20061 -1.30544,-5.92504 -1.30544,-6.05427 0,-0.79801 -1.84241,-1.82235 -3.27776,-1.82235 -2.94422,0 -3.08592,-0.1932 -2.87958,-3.92601 l 0.18782,-3.3976 -3.63592,-6.45143 -3.63592,-6.45143 0.568,-4.81615 0.568,-4.81614 -3.00561,-3.67826 -3.00562,-3.67826 -7.73549,-2.26938 -7.73549,-2.26937 -2.41418,-4.50307 -2.41418,-4.50307 1.40403,-1.13391 c 0.77221,-0.62366 1.56003,-1.13504 1.75071,-1.13642 0.19068,-0.002 2.43575,-2.97799 4.98904,-6.61469 l 4.64236,-6.61218 0.41628,-7.90776 c 0.22895,-4.34927 0.25673,-8.0582 0.0617,-8.24206 -0.19501,-0.18387 -3.96594,-1.58958 -8.37985,-3.12378 l -8.0253,-2.78948 -2.58007,1.73753 c -1.41904,0.95563 -2.64394,1.5459 -2.722,1.31172 -0.0781,-0.2342 0.37708,-1.88196 1.01144,-3.66171 1.14954,-3.22515 1.16216,-3.23824 3.79804,-3.94293 2.63236,-0.70374 2.66335,-0.73576 6.65265,-6.87386 l 4.00797,-6.16683 2.68874,-0.3229 c 1.47881,-0.17759 4.76272,-0.32487 7.29757,-0.32728 7.54598,-0.007 6.95028,0.34948 14.14623,-8.46985 l 6.39431,-7.83684 -0.77135,-2.41207 -0.77135,-2.41207 6.37941,-2.40202 6.37942,-2.40201 8.79444,0.59317 c 4.83694,0.32625 8.82085,0.53532 8.85312,0.4646 0.0323,-0.0707 1.60685,-1.89003 3.49907,-4.04292 l 3.44037,-3.91434 4.0385,0 4.0385,0 5.59103,4.79092 5.59102,4.79092 1.56302,-0.946 c 0.85966,-0.5203 6.79056,-3.94541 13.17978,-7.61135 6.38921,-3.66594 11.7991,-6.83994 12.02197,-7.05331 0.22288,-0.21338 0.74472,-3.6256 1.15965,-7.5827 l 0.75442,-7.19473 -2.32997,-2.49093 -2.32998,-2.49093 2.31136,-3.23907 c 1.27124,-1.78149 2.43991,-3.57411 2.59704,-3.98358 0.17428,-0.45417 -1.59431,-3.19762 -4.53528,-7.03514 l -4.82097,-6.29065 0.84975,-2.16326 0.84975,-2.16326 -3.16055,-2.78582 -3.16054,-2.78582 2.38795,-2.42442 c 2.1848,-2.21814 2.32343,-2.50091 1.62952,-3.32364 -0.41714,-0.49457 -2.52013,-2.98679 -4.6733,-5.53826 l -3.91487,-4.63904 7.10651,-8.3227 c 3.90859,-4.57749 7.10652,-8.55244 7.10652,-8.83323 0,-0.2808 -1.91187,-5.4713 -4.24861,-11.53446 l -4.24861,-11.02393 0.27262,-6.07277 0.27262,-6.07278 -2.96881,-1.97405 c -1.63284,-1.08572 -4.86067,-2.55774 -7.17294,-3.27114 -2.31228,-0.71339 -4.21613,-1.52437 -4.23078,-1.80216 -0.0974,-1.84708 0.85728,-13.36128 1.9009,-22.92625 l 1.23396,-11.30949 1.94436,-2.10939 c 1.76695,-1.91691 1.97778,-2.44839 2.31047,-5.82469 0.37626,-3.81849 -0.5097,-12.12588 -1.29319,-12.12588 -0.2244,0 -1.94926,0.98796 -3.83302,2.19547 -1.88376,1.2075 -5.42123,2.91054 -7.86105,3.78453 -2.43983,0.87399 -5.25517,2.00931 -6.25633,2.52293 -1.7888,0.91771 -1.85338,0.91572 -3.73511,-0.115 -1.68422,-0.92254 -1.88023,-1.22186 -1.62754,-2.48534 0.24745,-1.23724 -0.104,-1.83376 -2.53391,-4.30088 -3.88972,-3.94928 -4.94292,-6.94555 -2.7845,-7.92166 0.69266,-0.31325 1.41223,-1.4373 1.93579,-3.02396 l 0.83333,-2.52538 3.32047,-0.14828 3.32047,-0.14827 0.3367,-2.90107 0.33671,-2.90108 7.66528,-7.26518 c 14.90262,-14.12475 18.58173,-17.83063 18.33642,-18.46988 -0.18519,-0.48262 -1.91984,-0.12206 -6.9074,1.43575 l -6.66009,2.0802 -2.43084,-2.76115 c -1.91829,-2.17896 -2.50149,-3.26675 -2.76592,-5.15901 -0.4547,-3.25381 0.54309,-4.83002 5.75433,-9.09012 l 4.17351,-3.41177 3.68258,0 3.68259,0 4.3331,-4.4949 4.33309,-4.4949 5.28832,-0.36045 c 5.12673,-0.34944 5.36532,-0.31855 7.80791,1.01088 2.55063,1.38823 3.13034,2.41983 3.13034,5.57054 0,1.1229 0.85063,1.75867 2.35303,1.75867 0.41536,0 2.84997,1.25007 5.41026,2.77792 2.56028,1.52786 4.96615,2.77792 5.34637,2.77792 0.38023,0 2.65882,-1.22283 5.06355,-2.71739 l 4.37222,-2.71739 3.7533,3.45302 c 2.06432,1.89915 3.98059,3.46088 4.25838,3.47049 0.27779,0.01 1.9666,-1.11692 3.7529,-2.50339 1.7863,-1.38648 3.45813,-2.52087 3.71517,-2.52087 0.25704,0 1.83218,0.35366 3.50031,0.78592 1.66813,0.43226 3.14102,0.67787 3.27309,0.5458 0.25599,-0.25599 1.62555,-9.9674 1.65243,-11.71723 0.009,-0.57288 -1.04633,-2.47117 -2.34473,-4.21842 -1.62499,-2.18673 -2.46779,-3.88218 -2.70421,-5.44 -0.33377,-2.19929 -0.27847,-2.32457 1.95902,-4.43862 l 2.30247,-2.17545 -1.39578,-5.99017 c -2.3423,-10.05231 -2.24176,-9.77824 -3.58731,-9.77824 -2.30936,0 -2.79975,-0.48917 -2.79975,-2.79279 0,-1.99165 0.22346,-2.37512 2.59092,-4.44612 2.58788,-2.2638 2.59321,-2.26567 4.52415,-1.5844 l 1.93321,0.68208 2.80948,-3.12672 2.80949,-3.12672 1.63148,1.822 c 1.4036,1.56753 2.01787,1.85853 4.39788,2.08346 1.52152,0.1438 3.28867,0.0235 3.92698,-0.26733 0.99788,-0.45467 1.41241,-0.28653 2.95716,1.19953 2.98325,2.86992 3.07385,3.34581 1.03679,5.44619 l -1.78257,1.83798 0.97257,4.79822 c 1.5282,7.53945 1.32879,7.07107 3.01056,7.07107 1.64721,0 6.2378,2.98395 6.78521,4.41048 0.20481,0.53372 -0.0386,1.14169 -0.65244,1.62968 -0.88465,0.70327 -0.93649,1.11692 -0.5373,4.28706 0.39341,3.12424 0.65967,3.733 2.42994,5.55584 1.7833,1.83625 2.16792,2.7275 3.73342,8.65121 l 1.7453,6.60407 -3.01147,4.00254 c -1.65631,2.20139 -5.03757,6.87982 -7.51391,10.3965 -4.15601,5.90202 -4.50243,6.58086 -4.50243,8.82296 0,2.23465 -0.20066,2.63229 -2.50809,4.97024 -1.81952,1.8436 -2.38521,2.73958 -2.0605,3.26365 0.36171,0.58379 0.96831,0.32922 3.16187,-1.32694 l 2.71429,-2.0493 1.87159,0.96019 c 1.58818,0.81478 1.8716,1.21325 1.8716,2.63135 0,1.33363 -0.39562,1.9891 -1.95871,3.24524 -1.83757,1.4767 -1.97889,1.78652 -2.28485,5.00902 -0.8313,8.75573 -0.39199,7.82912 -4.88605,10.3059 -2.2013,1.2132 -4.00237,2.36615 -4.00237,2.56212 0,1.02186 1.39069,0.79968 5.1257,-0.8189 3.77094,-1.63416 4.31059,-1.74241 6.1948,-1.24262 3.39657,0.90092 8.02745,5.94051 8.60079,9.35985 l 0.34947,2.08417 -3.28512,1.83714 c -2.24069,1.25307 -4.51131,3.18415 -7.14199,6.07403 l -3.85688,4.23689 -4.00354,0.35439 c -4.46735,0.39545 -5.4821,1.4259 -1.98588,2.01658 1.10972,0.18749 2.12466,0.514 2.25543,0.72559 0.13077,0.2116 -2.38693,2.84042 -5.59489,5.84184 -6.38652,5.97533 -6.07697,5.33129 -4.90689,10.20894 0.2238,0.93296 -0.11715,1.30584 -2.05479,2.24722 -2.11555,1.02781 -2.76678,1.83058 -2.0591,2.53826 0.14522,0.14521 1.291,0.029 2.5462,-0.25822 l 2.28218,-0.52223 2.88337,2.81397 c 2.61431,2.55139 3.1426,2.84264 5.66129,3.12117 l 2.77792,0.3072 2.75046,-3.78893 c 1.51275,-2.08391 2.95527,-3.78893 3.20559,-3.78893 0.25031,0 2.06813,1.13642 4.03957,2.52538 3.4892,2.45827 3.68001,2.52539 7.17993,2.52539 3.48698,0 3.69053,0.0706 6.74578,2.34103 l 3.15031,2.34103 3.30555,-0.89477 3.30556,-0.89477 1.47956,1.47956 1.47957,1.47956 -4.30508,5.10071 c -2.36778,2.80539 -4.30507,5.23896 -4.30507,5.40794 0,0.16897 0.81345,0.30722 1.80765,0.30722 1.44003,0 2.39015,0.50505 4.67196,2.48344 1.83957,1.59497 3.54192,2.6089 4.75834,2.83413 1.04172,0.19288 1.89404,0.46889 1.89404,0.61335 0,0.14446 -1.15571,2.28222 -2.56824,4.75058 l -2.56825,4.48793 0.87387,7.69384 c 0.48062,4.23162 1.07544,7.95324 1.32182,8.27029 0.24638,0.31704 1.42165,0.72245 2.61171,0.90091 2.11187,0.31669 2.20945,0.41791 4.07023,4.22178 l 1.90649,3.89732 7.36228,4.48976 c 4.86491,2.96678 7.56655,4.3374 7.96448,4.04061 3.34074,-2.49169 2.58471,-2.5831 8.8755,1.07318 3.14922,1.83036 5.76031,3.37304 5.80246,3.42818 0.0421,0.0551 -0.18761,2.31627 -0.51056,5.02474 -0.32294,2.70848 -0.47613,4.9245 -0.34041,4.9245 0.13572,0 1.1682,-1.00538 2.29439,-2.23418 l 2.04764,-2.23417 5.64095,2.03672 5.64095,2.03671 4.86919,9.54137 c 2.67806,5.24775 5.06571,9.54137 5.30591,9.54137 0.2402,0 3.92016,-2.16366 8.17768,-4.80812 l 7.74096,-4.80813 0.17127,1.39886 c 0.12107,0.98885 1.12032,2.2032 3.40926,4.1431 1.7809,1.50933 3.238,2.98625 3.238,3.28205 0,0.29579 -0.77764,2.92472 -1.72811,5.84205 -1.60789,4.93526 -3.73501,16.92954 -3.11273,17.55182 0.15159,0.1516 2.21633,-0.24591 4.58831,-0.88335 2.37197,-0.63744 4.4235,-1.04815 4.55895,-0.9127 0.85148,0.85147 -0.77735,3.71741 -4.25509,7.48685 l -3.89832,4.2253 1.68715,7.10091 c 0.92793,3.9055 1.79933,7.46877 1.93645,7.91837 0.18869,0.61871 -0.49687,1.09651 -2.81977,1.96521 -2.91004,1.08829 -3.42217,1.5601 -9.88388,9.10571 -7.74682,9.0463 -6.08631,8.18079 -17.5038,9.12353 -5.52716,0.45637 -7.44988,0.78736 -7.44988,1.28247 0,0.8759 0.91241,1.04078 9.59645,1.73421 l 7.32361,0.58479 6.45428,3.4661 6.45429,3.46609 6.42516,-4.10972 c 3.53384,-2.26035 7.30813,-4.79897 8.38732,-5.64139 1.92663,-1.50392 1.98912,-1.5162 3.45019,-0.67765 0.81843,0.46971 1.69056,0.85401 1.93807,0.85401 0.24753,0 0.82597,-1.30688 1.28545,-2.90419 1.22762,-4.26765 3.06392,-7.19733 4.51122,-7.19733 2.42811,0 3.64305,0.93331 5.47178,4.20338 l 1.82699,3.26697 -0.57016,4.21977 c -0.52232,3.8657 -0.73456,4.39167 -2.52948,6.26833 l -1.95932,2.04855 0.33799,5.1574 0.33798,5.15739 3.73051,2.26485 3.73051,2.26484 2.00138,-1.02102 2.00138,-1.02104 0,1.71536 0,1.71535 11.10604,5.99733 c 6.10832,3.29853 11.09991,6.11096 11.09242,6.24986 -0.0238,0.44098 -5.5667,4.04061 -6.22198,4.04061 -0.34543,0 -2.02966,-0.47333 -3.74273,-1.05185 l -3.1147,-1.05185 -4.56507,2.40697 -4.56507,2.40696 0.29212,1.80161 c 0.75115,4.63254 0.64732,4.47559 4.27267,6.45822 l 3.46711,1.8961 -2.49517,4.61484 c -2.60079,4.81019 -3.15178,7.54913 -1.79216,8.90876 0.38666,0.38666 3.09316,1.80253 6.01443,3.14638 2.92127,1.34385 5.23787,2.69154 5.148,2.99486 -0.0899,0.30332 -0.29235,1.96819 -0.44995,3.69972 -0.27649,3.03764 -0.23807,3.17448 1.09377,3.89586 2.73481,1.48128 2.68863,1.18155 1.13084,7.33855 l -1.45967,5.76918 3.68921,4.06623 3.68921,4.06623 -1.35851,9.48285 -1.35852,9.48285 1.75463,1.08442 c 1.72004,1.06304 1.73476,1.10051 0.74678,1.90052 -0.88593,0.71738 -1.0882,1.89866 -1.67217,9.76579 l -0.66434,8.9497 1.60237,2.23125 c 1.39957,1.94888 1.48997,2.25672 0.71428,2.43245 -0.48845,0.11066 -1.47948,-0.088 -2.20229,-0.44154 -1.20865,-0.59112 -1.34199,-0.97947 -1.66022,-4.83531 -0.32881,-3.98405 -0.51465,-4.48673 -3.73656,-10.10709 l -3.39055,-5.91451 -3.40261,-0.33728 -3.40262,-0.33727 -6.57264,-6.95372 c -6.13424,-6.48989 -6.57264,-7.08623 -6.57264,-8.94038 0,-1.69386 -0.53124,-2.66938 -3.60439,-6.61873 l -3.60439,-4.63207 -4.47683,0 -4.47683,0 0,3.28299 0,3.283 -5.42957,0.0187 -5.42957,0.0187 -10.74398,9.19896 c -9.58804,8.20925 -10.90457,9.52345 -12.23664,12.21495 l -1.49266,3.016 -3.63595,0.61263 c -6.22406,1.04873 -9.55673,4.15693 -9.92565,9.25714 l -0.21959,3.03589 2.29512,-0.31458 c 1.26232,-0.17302 3.07886,-0.16756 4.03675,0.0121 1.63011,0.30581 1.75822,0.47402 2.00091,2.62717 0.42105,3.73555 3.76046,6.26427 8.27254,6.26427 1.1728,0 2.3517,0.88866 5.87604,4.42941 4.24069,4.26042 4.95827,5.53923 3.97664,7.08681 -0.29554,0.46593 -1.24935,-0.4491 -3.27895,-3.14567 -3.85116,-5.11673 -6.4112,-6.36317 -10.79963,-5.25815 -1.75599,0.44216 -3.02108,1.24325 -4.72346,2.99102 l -2.32512,2.38711 -1.39022,-1.47294 c -3.83975,-4.06822 -10.71632,-8.53441 -13.13361,-8.53 -2.78055,0.005 -5.42525,1.05688 -7.48244,2.97581 -1.73212,1.61571 -2.05719,2.25657 -2.27047,4.4762 -0.37677,3.92111 0.24201,6.7713 2.16241,9.96044 1.50715,2.50286 1.65127,3.01396 1.07995,3.82964 -1.65848,2.36783 -5.69768,4.514 -8.49554,4.514 -2.10128,0 -5.7327,-3.65606 -7.77246,-7.82519 -1.49519,-3.05605 -1.94142,-7.1507 -1.07875,-9.89878 0.59386,-1.89178 -1.34952,-3.96319 -5.64112,-6.01278 l -3.50092,-1.67197 1.20625,-3.54655 c 0.66345,-1.9506 1.20626,-3.925 1.20626,-4.38756 0,-3.0795 -6.73334,-12.01282 -11.59268,-15.38035 -3.11244,-2.15692 -3.6277,-1.62327 -3.26189,3.37828 0.37081,5.06989 -0.50896,9.70432 -3.12459,16.45959 l -1.82072,4.70227 3.01193,3.13661 c 4.57603,4.76546 6.67085,9.56784 6.68096,15.31611 l 0.005,3.10851 2.65214,1.49678 c 5.02947,2.83845 8.9528,8.40181 9.73114,13.79891 0.30419,2.10935 0.12297,2.71115 -1.99714,6.63226 -4.61699,8.53907 -6.58057,16.00187 -5.37894,20.44321 0.52166,1.92813 0.93325,2.39058 3.97955,4.47129 0.16073,0.10975 -4.90409,12.97096 -5.24393,13.31598 -0.11401,0.11571 -0.20729,-0.24789 -0.20729,-0.80812 l 1e-5,0 z"
       id="path3007"
       inkscape:connector-curvature="0"
       inkscape:export-filename="F:\dev\web\lions\full-map.png"
       inkscape:export-xdpi="1200"
       inkscape:export-ydpi="1200" />
  </g>
</svg>
