<?xml version="1.0" encoding="UTF-8" standalone="no"?>
<!-- Created with Inkscape (http://www.inkscape.org/) -->

<svg
   xmlns:dc="http://purl.org/dc/elements/1.1/"
   xmlns:cc="http://creativecommons.org/ns#"
   xmlns:rdf="http://www.w3.org/1999/02/22-rdf-syntax-ns#"
   xmlns:svg="http://www.w3.org/2000/svg"
   xmlns="http://www.w3.org/2000/svg"
   xmlns:sodipodi="http://sodipodi.sourceforge.net/DTD/sodipodi-0.dtd"
   xmlns:inkscape="http://www.inkscape.org/namespaces/inkscape"
   width="744.09448819"
   height="1052.3622047"
   id="svg2"
   version="1.1"
   inkscape:version="0.48.4 r9939"
   sodipodi:docname="lion-crowned.svg">
  <defs
     id="defs4" />
  <sodipodi:namedview
     id="base"
     pagecolor="#ffffff"
     bordercolor="#666666"
     borderopacity="1.0"
     inkscape:pageopacity="0.0"
     inkscape:pageshadow="2"
     inkscape:zoom="0.98994949"
     inkscape:cx="184.95325"
     inkscape:cy="616.33308"
     inkscape:document-units="px"
     inkscape:current-layer="layer1"
     showgrid="false"
     inkscape:window-width="1920"
     inkscape:window-height="1138"
     inkscape:window-x="-8"
     inkscape:window-y="-8"
     inkscape:window-maximized="1" />
  <metadata
     id="metadata7">
    <rdf:RDF>
      <cc:Work
         rdf:about="">
        <dc:format>image/svg+xml</dc:format>
        <dc:type
           rdf:resource="http://purl.org/dc/dcmitype/StillImage" />
        <dc:title></dc:title>
      </cc:Work>
    </rdf:RDF>
  </metadata>
  <g
     inkscape:label="Layer 1"
     inkscape:groupmode="layer"
     id="layer1">
    <path
       style="fill:#fffff0;fill-opacity:1;stroke:none"
       d="m 321.48105,185.65129 -10.10153,47.98225 c 0,0 118.69293,9.59645 199.50513,71.21575 l 22.22335,-46.71955 43.6891,-46.9721 -54.54824,8.83884 10.60661,8.08122 -14.64722,20.45559 c 0,0 -11.11168,-9.34392 -27.27412,-17.1726 l 7.07108,-13.88959 11.23794,-7.07107 -4.16688,-16.66752 -16.41498,6.31346 1.26269,12.6269 -6.31345,14.39467 c 0,0 -21.71828,-9.3439 -33.58758,-14.14213 l 5.55585,-13.63706 22.47589,-16.16244 -15.65736,-41.92133 -41.41626,19.44544 5.3033,26.26396 -5.55584,14.14214 c 0,0 -21.2132,-8.33376 -34.09264,-10.85914 l 3.283,-14.14214 9.3439,-8.33376 -7.07107,-15.15228 -13.88959,8.58629 4.04061,12.37437 -3.283,14.64721 c 0,0 -21.2132,-3.28299 -37.62818,-4.79822 l 0.50508,-15.65737 9.84898,0.50509 -30.80965,-45.96194 z"
       id="path2996"
       inkscape:connector-curvature="0"
       sodipodi:nodetypes="cccccccccccccccccccccccccccccccccc" />
    <path
       style="fill:#fffff0;fill-opacity:1;stroke:none"
       d="m 264.9125,411.92546 c -17.67767,-20.20305 -25.75889,-23.73858 -72.2259,-29.54696 -46.46702,-5.80838 -56.56855,-5.3033 -63.63961,-54.2957 0,0 -29.053698,38.4055 8.33376,65.65991 27.02158,19.69798 32.82995,-8.58629 127.53175,18.18275 z"
       id="path3766"
       inkscape:connector-curvature="0"
       sodipodi:nodetypes="cscsc" />
    <path
       style="fill:#fffff0;fill-opacity:1;stroke:none"
       d="m 527.8047,475.56507 c 0,0 2.05288,21.38506 24.4962,32.07235 21.21321,10.10152 47.72971,-8.5863 47.72971,-8.5863 0,0 -9.30715,20.96861 -37.62818,23.48604 -22.72844,2.02031 -37.62819,-4.54568 -42.42641,-24.74873 -2.50585,-10.55096 7.82868,-22.22336 7.82868,-22.22336 z"
       id="path3770"
       inkscape:connector-curvature="0"
       sodipodi:nodetypes="cscssc" />
    <path
       style="fill:#fffff0;fill-opacity:1;stroke:none"
       d="m 437.59282,570.54853 c 0,0 -14.61158,44.34333 -8.98986,62.43192 5.76506,18.54976 31.48986,46.09989 31.48986,46.09989 -11.99556,-3.283 -17.0252,-7.14983 -39.18791,-36.14213 -33.1421,-43.35507 24.09137,-101.99792 24.09137,-101.99792 0,0 -33.11775,58.17967 -65.26061,83.17967 -32.14286,25 -107.5,42.5 -143.57143,67.85714 -36.07143,25.35714 -67.85714,37.5 -77.85714,73.57143 0,0 5.35714,-45 40.71429,-65 31.83666,-18.00861 38.57143,-19.64286 81.78571,-54.64286 31.59625,-25.59035 34.64286,-35.35714 46.42857,-68.21429 0,0 -25.71428,27.14286 -46.42857,49.28572 -20.71429,22.14286 -21.07143,22.14286 -45,36.42857 -23.92857,14.28571 -18.92857,8.21429 -45.71429,32.14286 -26.78571,23.92857 -48.92857,30 -53.92857,55 0,0 -16.78571,-47.85714 5,-84.64286 21.78572,-36.78571 122.85715,-88.92857 155.71429,-102.85714 32.85714,-13.92857 135,-31.07143 163.21429,-58.92857 28.21428,-27.85715 45.35714,-62.5 45,-97.14286 0,0 6.78571,50 2.5,86.78571 -4.28572,36.78572 -27.4373,67.76669 -31.42858,97.5 -3.53553,26.3382 -4.60695,65.783 7.5,79.64286 0,0 -45.95983,-21.73793 -41.07142,-60 3.7664,-29.48006 1.82161,-26.17911 8.92857,-41.07143 z"
       id="path3772"
       inkscape:connector-curvature="0"
       sodipodi:nodetypes="cscscsscsscssscssscsscscc" />
    <path
       style="fill:#fffff0;fill-opacity:1;stroke:none"
       d="m 285.40085,241.03456 c -44.8646,0.47275 -98.78125,31.75 -98.78125,31.75 l 4.90625,71.6875 c 28.39285,-1.42857 88.75,6.625 88.75,6.625 0.53571,24.10714 7.14285,51.07143 -7.5,70 -14.64286,18.92857 -70.1875,16.25 -70.1875,16.25 l 0,30.34375 c 0,0 67.63936,-7.29555 88.5625,-16.0625 42.35269,-17.74609 34.29465,-37.51339 36.4375,-69.65625 0,0 15.70536,8.92857 38.5625,7.5 22.85715,-1.42857 27.85715,0.36607 40,-21.0625 12.14286,-21.42857 0,-56.4375 0,-56.4375 0,0 29.29018,37.13393 13.21875,61.0625 -16.07143,23.92857 -31.79018,33.58929 -55.71875,32.875 -23.92857,-0.71429 -28.5625,-0.71875 -28.5625,-0.71875 0,0 15.37053,53.92857 9.65625,77.5 33.57143,-27.85714 44.625,-68.21875 44.625,-68.21875 l 4.28125,28.5625 c 25.35715,-23.21429 35.375,-60.34375 35.375,-60.34375 -12.5,80.71429 -52.5,101.0625 -52.5,101.0625 l 1.4375,-19.625 c -17.5,52.5 -43.21875,42.84375 -43.21875,42.84375 l -1.4375,-22.5 c -24.64286,26.42857 -51.78125,22.15625 -51.78125,22.15625 -0.71429,-5 3.09375,-38.375 3.09375,-38.375 -6.06092,25.50635 -17.22856,36.0811 -50.8125,55.75 -19.03961,11.15081 -63.41236,31.00531 -84.65625,48.75 -29.395,24.55319 -31.65625,66.84375 -31.65625,66.84375 17.91794,-28.36205 50.64456,-61.36563 78.5625,-62.40625 -17.42726,12.79736 -23.85735,16.35685 -40.59375,32.875 -18.8972,18.65078 -28.1875,53.625 -28.1875,53.625 21.04515,-38.47245 95.91567,-85.14669 133.21875,-100.21875 22.68946,-9.16752 163.19369,-45.60264 205.9375,-80.84375 45.39039,-37.42314 39.65625,-100.75 39.65625,-100.75 0,0 -11.5726,28.26542 -33.59375,31.8125 -13.57184,2.1861 -19.9375,-27.03125 -19.9375,-27.03125 3.03046,3.03045 5.21457,10.18148 23.71875,9.875 20.22552,-0.33499 30.8125,-76.78125 30.8125,-76.78125 -26.26397,-38.3858 -151.24778,-74.58639 -215.15625,-78.53125 -2.15527,-0.13304 -4.32479,-0.21075 -6.53125,-0.1875 z m -3.875,39.53125 c 50.21552,4.99912 62.125,0 62.125,0 0,0 -11.89806,31.76792 -31.40625,32.125 -19.50819,0.35709 -30.71875,-32.125 -30.71875,-32.125 z"
       id="path3780"
       inkscape:connector-curvature="0" />
    <path
       style="fill:#fffff0;fill-opacity:1;stroke:none"
       d="m 335.44996,446.26281 c 0,0 -21.03654,36.81021 -36.78572,44.64286 -3.92857,-10 -7.85714,-34.64286 36.78572,-44.64286 z"
       id="path3782"
       inkscape:connector-curvature="0"
       sodipodi:nodetypes="ccc" />
  </g>
</svg>
